<?xml version="1.0" encoding="UTF-8"?>
<svg id="icon" xmlns="http://www.w3.org/2000/svg" version="1.1" viewBox="0 0 512 752">
  <!-- Generator: Adobe Illustrator 29.1.0, SVG Export Plug-In . SVG Version: 2.1.0 Build 142)  -->
  <path d="M165.2,311.3c17.2,3.2,39.3,22.8,41.8,59.1,1.9,26.8-4.6,54.3-31,121.6-37,94.4-74.7,207.2-140,171.4-52.8-28.9-50.6-152.7,27.9-272.2,18.4-28,73-85.1,101.4-79.8Z" fill="#d2a989"/>
  <path d="M128.1,454s-36.6-24.7-85.5-38.9c0,0,49.9-79.9,102.6-104.1,52.7-24.2-17.1,143-17.1,143Z" fill="#e0bf7c"/>
  <path d="M179.7,258.1s26.8,23.4,9.4,40.7c-17.4,17.3-47.1,14.9-58.7-5.1-11.6-20,19.7-56.6,49.3-35.6Z" fill="#483432"/>
  <path d="M442.6,595.3c10-56.4,25.1-93.9,32.1-115,18.8-56.2,22-125.6-17.5-151.6-14.9-9.8-53.8-23.4-75.3-27.2-107.8-18.7-180.4-6.4-235.6,13.5-41,14.8-48.2,68.3-38.3,266.7,3.1,61.9,7,159.3,7,159.3,0,0,94.7,23,316.7,2.7,0,0-.7-82.9,10.9-148.3Z" fill="#e0bf7c"/>
  <path d="M356.4,297.6c29.7,5,56.2,12,56.2,12-14.5,18.4-83.3,70.5-121.4,79.3-68,15.7-113.3-9.8-118.4-19-20-36.1-17.6-58.8-17.6-58.8,55.6-19.6,65.7-36.4,201.2-13.5Z" fill="#d2a989"/>
  <path d="M254.8,21.5h0c66.5,2.9,118.6,33.6,115.7,100.1l-12.9,71.6c-24.5,128-126.6,114.2-126.6,114.2-68-3-101.2-58-98.3-124.4l3.1-71.6c2.9-66.5,52.5-92.7,118.9-89.8Z" fill="#d2a989"/>
  <ellipse cx="167.7" cy="180.5" rx="9.1" ry="8.3" transform="translate(-31.2 325.9) rotate(-83.3)" fill="#483432"/>
  <path d="M197.4,202.8s0,0-.1,0c-1.1,0-1.9-1-1.8-2.1.2-3.5,2.5-10.1,9.7-10.5,7.5-.4,10.5,7.9,10.6,8.2.4,1-.2,2.1-1.2,2.5-1,.4-2.1-.2-2.5-1.2h0c0,0-2.2-5.9-6.7-5.6-5.4.3-6,6.2-6,6.8,0,1-.9,1.8-2,1.8Z" fill="#483432"/>
  <path d="M192.6,261.8s.7,24.1-3,41.9c0,0,33.4,32.7,89.2,29.5,55.8-3.2,48.6-27.8,48.6-27.8,0,0-4.5-37,1.5-72.5l-136.3,28.8Z" fill="#d2a989"/>
  <path d="M229.1,306.3c-14.7,0-24.6-2-24.9-2-1.1-.2-1.7-1.3-1.5-2.3.2-1.1,1.2-1.7,2.3-1.5.6.1,65.5,13,110.6-29.1.8-.7,2-.7,2.8,0,.7.8.7,2,0,2.8-28.8,26.9-65.4,32.1-89.2,32.1Z" fill="#483432"/>
  <path d="M223.2,108.6c5.8,2.1,11.8,3.4,17.9,4.3,16.4,2.4,74.3,13.6,91,57.3,0,0-6.1,87.8,29,109l28.7-15.9s59.8-74.8,17.1-169.7c0,0-74.1-163.5-227.9-58.5,0,0-10,54.2,44.1,73.5Z" fill="#483432"/>
  <path d="M351.3,154.9c-.9,0-1.7-.6-1.9-1.5-7.3-33.7-31.6-53.9-74.3-61.9-30.8-5.7-36-22.3-36.2-23-.3-1,.3-2.1,1.3-2.4,1-.3,2.1.3,2.4,1.3,0,.2,5,15.1,33.2,20.3,44.4,8.3,69.8,29.5,77.4,64.9.2,1.1-.4,2.1-1.5,2.3-.1,0-.3,0-.4,0Z" fill="#edeae2"/>
  <path d="M208.2,36.3s-38-16.2-65.1,10.1c-56.6,54.8-9.2,109.3-9.2,109.3,0,0,73.2-62.3,75-101.2l-.7-18.2Z" fill="#483432"/>
  <path d="M349.4,150.3c10.6-.1,34.6,11.7,26.1,44.9-8.6,33.2-51.1,22.8-51.1,22.8l-11.9-50.2c9.5-5.1,26.3-17.4,36.9-17.5Z" fill="#d2a989"/>
  <path d="M332.8,185.9c-.2,0-.3,0-.5,0-1-.3-1.7-1.4-1.4-2.4,0-.1,4-14.4,19.6-13,1.1,0,1.9,1.1,1.8,2.1-.1,1.1-1.1,1.9-2.1,1.8-12.3-1.1-15.3,9.6-15.5,10.1-.2.9-1,1.4-1.9,1.4Z" fill="#483432"/>
  <ellipse cx="250.8" cy="173.5" rx="8.3" ry="9.1" transform="translate(-2.6 3.8) rotate(-.9)" fill="#483432"/>
  <path d="M393.4,252.9s26.1,24.2,8.2,41-47.5,13.5-58.6-6.9c-11-20.4,21.5-55.9,50.4-34.1Z" fill="#483432"/>
  <path d="M143.5,300.7s-47.5,19.1-45.4,69.9c2.1,50.8,23,61.7,47.3,75,0,0-12.7-33.6,22.9-55.6,35.6-21.9,12.9-79.1-1.3-86.3l-23.6-3Z" fill="#483432"/>
  <path d="M159.6,311.9c-4.9,0-11.4-.9-18.1-4.5-1-.5-1.3-1.7-.8-2.7s1.7-1.3,2.7-.8c11.7,6.3,23.3,3.3,23.4,3.2,1-.3,2.1.3,2.4,1.4.3,1-.3,2.1-1.4,2.4-.3,0-3.4.9-8.2.9Z" fill="#edeae2"/>
  <path d="M385.2,219.6c-.3,0-.6,0-.8-.2-1-.5-1.4-1.6-.9-2.6.3-.6,26.2-56.9-6.4-115.5-.5-.9-.2-2.1.8-2.7.9-.5,2.1-.2,2.7.8,33.7,60.5,6.8,118.5,6.5,119.1-.3.7-1,1.1-1.8,1.1Z" fill="#edeae2"/>
  <path d="M357.4,65.6c-.6,0-1.2-.3-1.6-.8h0c-.2-.2-18-24.9-63.9-35.6-1.1-.2-1.7-1.3-1.5-2.4s1.3-1.7,2.4-1.5c47.5,11.1,65.5,36.1,66.2,37.1.6.9.4,2.1-.5,2.7-.3.2-.7.4-1.1.4Z" fill="#edeae2"/>
  <path d="M241.1,382.5s-102.6,391-220.8,265.9c-53.4-56.6,123.6-302.1,153-335.2,15.6-17.6,44.1-7.6,49.7-4.9,16.2,7.8,30.8,26.8,18.1,74.3Z" fill="#d2a989"/>
  <path d="M30.9,544.2c-.3,0-.5,0-.8-.2-1-.4-1.5-1.6-1-2.6,27.8-64.2,56.1-105.9,56.3-106.3.6-.9,1.8-1.1,2.7-.5.9.6,1.1,1.8.5,2.7-.3.4-28.3,41.9-56,105.7-.3.7-1,1.2-1.8,1.2Z" fill="#483432"/>
  <path d="M123.6,168.6c-.8,0-1.5-.5-1.8-1.2-16-40.1-8.3-70.2,1-88.4,10.1-19.7,23.8-29.8,24.4-30.2.9-.6,2.1-.4,2.7.4.6.9.4,2.1-.4,2.7-.1,0-13.6,10-23.3,29-8.9,17.4-16.2,46.3-.8,85,.4,1,0,2.1-1.1,2.5-.2,0-.5.1-.7.1Z" fill="#483432"/>
  <path d="M371.7,262.5c-.2,0-.4,0-.4,0-1.1,0-1.9-.9-1.9-2,0-1.1.9-1.9,2-1.9,1.6,0,39.1.6,51.9-53.4,6.8-28.6-1.4-57.8-9.4-77.3-8.7-21.2-19.2-35.9-19.3-36-.6-.9-.4-2.1.4-2.7.9-.6,2.1-.4,2.7.4.4.6,42.7,60,29.4,116.5-3.9,16.5-12.8,38.5-32.9,49.8-11,6.2-20.5,6.6-22.6,6.6Z" fill="#483432"/>
  <path d="M443.5,327.7c13.3,1,28.1,4.4,40.7,36.9,11.4,29.3,29.7,136,27.7,190.8-1.6,43.2-6.6,93.7-29.2,106.9-79.8,46.5-124.1-101.6-100.6-233.9,9.1-51.4,29.2-103.2,61.4-100.7Z" fill="#d2a989"/>
  <path d="M507.8,449.3s-81.4,13.5-139,45.6c0,0-8-141.7,55.2-170.9,63.2-29.2,83.8,125.4,83.8,125.4Z" fill="#e0bf7c"/>
  <path d="M375,697.5s120.3-8.6,120.2-59.2c0-64.1-61.3-74.6-136.6-58.6-72.7,15.5-189.4,35.3-202.5,56.4-13.1,21-24.3,54.3,43.4,66.1,22.7,4,128.8,1.1,175.6-4.7Z" fill="#d2a989"/>
  <path d="M469.3,652.9c-.6,0-1.2,0-1.6-.1-1.1-.2-1.8-1.2-1.6-2.3.2-1.1,1.2-1.8,2.3-1.6.3,0,6.3.9,9-5.7.4-1,1.6-1.5,2.6-1.1,1,.4,1.5,1.6,1.1,2.6-2.7,6.5-8.1,8.2-11.7,8.2Z" fill="#483432"/>
  <path d="M424,591.6c-.4,0-.8-.1-1.2-.4-.2-.1-15.3-11.4-37.1-13.6-1.1-.1-1.9-1.1-1.8-2.1.1-1.1,1.1-1.9,2.1-1.8,22.9,2.3,38.4,13.9,39,14.4.9.7,1,1.9.4,2.7-.4.5-1,.8-1.6.8Z" fill="#483432"/>
  <path d="M362.6,294.9s-44.9,24.6-36.8,74.8c8.1,50.2,30.2,58.6,55.9,68.9,0,0-16.6-31.9,16.2-57.9,32.8-26,3.4-80-11.5-85.6l-23.8-.2Z" fill="#483432"/>
  <path d="M376.1,303.1c-4.6,0-10.2-.6-17.1-2.5-1-.3-1.7-1.4-1.4-2.4.3-1,1.4-1.7,2.4-1.4,18.8,5.2,28,.2,28.1.2.9-.5,2.1-.2,2.7.7s.2,2.1-.7,2.7c-.3.2-4.9,2.8-14,2.8Z" fill="#edeae2"/>
  <g>
    <path d="M222.5,691.4c21.8-21,14.8-57.6-12.6-70.4-18.4-8.6-47.9-21.9-67.7-28.7-30.7-10.5-68.3-15.6-71.3-12.8-14.2,13.2,57.2,29.4,57.2,29.4,0,0-45.3-.5-54.9,3.1-9.6,3.6-24.1,13.6-16.3,17.7,7.8,4.2,39.3-6.9,61.5,1.9,0,0-77.1,6.9-56.8,26,0,0-11.1,13.4,9.8,14,20.8.6,46.9.3,50.6-.4,0,0,33.7,25.6,69.8,30.6,12,1.7,22.8-2.8,30.8-10.5Z" fill="#d2a989"/>
    <path d="M61.6,659.7c-.4,0-.8-.1-1.1-.4-5.4-3.9-3.9-9.8-3.8-10.1,0-.1,0-.2.1-.3,2.9-6.2,14-11.2,33.7-15.1,4.8-1,9.5-1.7,13.7-2.3-10-.8-19,0-26.7.8-7,.7-13.1,1.3-17.7.3-3.5-.8-5.6-2.3-6.2-4.6-1.1-4.6,5-9.8,6.2-10.7,0,0,.2-.1.3-.2.9-.5,18.7-10.2,49.6-10.8-14.4-4.1-33.2-10.7-40.8-18.6-2.6-2.7-2.3-4.6-1.5-5.8,1-1.6,3.3-5.4,35.3,0,17.3,2.9,35.3,7.2,43.4,9.7,1,.3,1.6,1.4,1.3,2.5-.3,1-1.4,1.6-2.5,1.3-7.9-2.5-25.3-6.6-42.2-9.5-25.7-4.4-31-2.6-31.9-2,.1.2.3.6.9,1.1,11.9,12.3,56.5,22,57,22.1,1,.2,1.7,1.2,1.5,2.2-.2,1-1.1,1.7-2.1,1.7-39.4-3.8-63.8,8.4-65.9,9.5-2.3,1.8-5.1,5.1-4.7,6.7.2.7,1.3,1.3,3.2,1.7,4,.9,9.8.3,16.5-.4,11.4-1.1,25.6-2.5,41.8,1.4.9.2,1.6,1.1,1.5,2.1,0,1-.8,1.7-1.8,1.8-14.5,1.3-53,6.7-58.2,16.7-.1.6-.4,3.2,1.7,5.2,5.4-1.3,33.1-7.2,59.5-5.2,1.1,0,1.9,1,1.8,2.1,0,1.1-1,1.9-2.1,1.8-28.7-2.2-58.9,5.3-59.2,5.3-.2,0-.3,0-.5,0Z" fill="#483432"/>
  </g>
  <path d="M63.8,672.6c-.2,0-.5,0-.7-.1-.2,0-5.1-2-6.3-6.4-.8-3,.3-6.2,3.2-9.6.7-.8,1.9-.9,2.8-.2s.9,1.9.2,2.8c-2,2.4-2.8,4.4-2.4,6.1.6,2.5,3.8,3.7,3.8,3.8,1,.4,1.5,1.5,1.1,2.5-.3.8-1,1.3-1.8,1.3Z" fill="#483432"/>
  <path d="M241.1,382.5s26.2-39.4,21.7-54.9c-4.5-15.5-19.6-22-19.6-22,0,0,12.7-14.6,9.1-26.8-3.6-12.2-16.7-6.2-16.7-6.2,0,0,.2-11.8-8-12.7s-13.3,1.9-13.3,1.9c0,0-4.2-8.8-11.2-9.2s-10.5,2.8-10.5,2.8c0,0-8.5-7.9-19.2-3.9-10.7,4-26,25.9-26.2,37.4s31.5,43.2,41.5,48.4c10,5.2,42.9,43.5,52.4,45.1Z" fill="#d2a989"/>
  <path d="M178.9,274.3c-.4,0-.8-.1-1.2-.4-.9-.6-1.1-1.9-.4-2.7,7.1-9.7,13.7-17,13.8-17,.7-.8,2-.9,2.8-.1.8.7.9,2,.1,2.8,0,0-6.6,7.2-13.5,16.7-.4.5-1,.8-1.6.8Z" fill="#483432"/>
  <path d="M197.1,284.6c-.4,0-.8-.1-1.2-.4-.9-.6-1.1-1.9-.4-2.7,8.1-11.1,17.3-20.9,17.4-21,.7-.8,2-.8,2.8,0,.8.7.8,2,0,2.8,0,0-9.1,9.8-17.1,20.7-.4.5-1,.8-1.6.8Z" fill="#483432"/>
  <path d="M217.5,296.3c-.4,0-.8-.1-1.1-.3-.9-.6-1.1-1.8-.5-2.7,7.8-11.2,17.9-21.6,18.4-22,.8-.8,2-.8,2.8,0,.8.8.8,2,0,2.8-.1.1-10.4,10.6-17.9,21.5-.4.5-1,.8-1.6.8Z" fill="#483432"/>
  <path d="M238.7,393.4c-.3,0-.6,0-.9-.2-1-.5-1.3-1.7-.8-2.6.2-.4,23.1-44.8,22-64.2-1-18.2-15.1-18.7-15.7-18.7-.8,0-1.4-.5-1.7-1.2-.3-.7-.2-1.5.3-2.1.1-.1,13.2-15.1,8.8-24.7-4.1-9.1-13.7-5.3-14.2-5.2-.6.2-1.3.2-1.9-.2-.5-.4-.9-1-.8-1.7,0-.3.2-8.1-5.8-10.6-6.3-2.6-12.5,1.4-12.5,1.5-.5.3-1.1.4-1.7.2-.6-.2-1-.6-1.2-1.2,0,0-2.1-5.8-7.8-7.5-5.8-1.7-10.9,2-11,2.1-.4.3-1,.4-1.5.4-.5,0-1-.4-1.3-.8-.1-.2-3.8-5-12.7-3.8-4.8.6-9.5,3.1-13.2,6.8-.3.3-.7.7-1.1,1.1-2.2,2.2-6,5.9-11.3,12.5-.7.8-1.9,1-2.8.3-.8-.7-1-1.9-.3-2.8,5.5-6.7,9.3-10.5,11.6-12.8.4-.4.8-.8,1.1-1.1,4.3-4.4,9.8-7.2,15.5-8,8.2-1.1,13.1,2.1,15.2,4.1,2.4-1.3,7.3-3.4,12.9-1.8,5.2,1.5,8.1,5.5,9.5,7.9,2.8-1.3,8.4-3.1,14.2-.8,6,2.4,7.6,8.3,8,11.7,5.1-1.1,12.9-.5,16.7,8,4.1,9.2-3.3,20.9-7.3,26.2,6.5,1.6,15.1,7.4,15.9,21.9,1.2,20.5-21.4,64.3-22.4,66.2-.3.7-1,1.1-1.7,1.1Z" fill="#483432"/>
  <path d="M201.8,236.8s-10.7,6.7-14.8-2.1c-5.2-11,9.9-20.8,36.3-20.4,22.8.4,27.6,16.1,13.9,20.7-9.3,3.1-15.5-5.6-35.4,1.7Z" fill="#483432"/>
  <path d="M13,421c-.4,0-.8-.1-1.1-.4-.9-.6-1.1-1.8-.5-2.7,0,0,3.4-5.1,2.8-13.9-.5-7.1,6.7-9,11.9-10.4,3.3-.9,6.8-1.9,7.1-3.5.3-1.9-.3-4.3-1-6.6-1.2-4.5-2.9-10.6,3.9-13.9,2.7-1.3,5.5-1.9,7.9-2.4,5.5-1.1,8.5-1.7,8.2-9.6,0,0-.1-3.2-2.4-6.8-.6-.9-.3-2.1.6-2.7.9-.6,2.1-.3,2.7.6,2.9,4.6,3,8.6,3.1,8.8.4,11.2-5.8,12.5-11.4,13.6-2.3.5-4.7.9-6.9,2-3.7,1.8-3.2,4.5-1.8,9.4.7,2.7,1.5,5.5,1.1,8.3-.7,4.2-5.4,5.4-9.9,6.7-5.7,1.6-9.2,2.8-9,6.4.7,10.4-3.4,16.2-3.5,16.4-.4.5-1,.8-1.6.8Z" fill="#483432"/>
  <path d="M443.3,136.4c-.5,0-1-.2-1.4-.6-.7-.8-.7-2,0-2.8,0,0,4.4-4.3,3.8-8.7-.4-2.5-2.4-4.8-6-6.7-6-3.1-3.9-9.8-2.5-14.7.9-2.9,1.9-6.3.8-7.3-1.3-1.2-3.6-1.9-5.7-2.5-4.2-1.3-9.9-3-9.2-10.1.3-2.8,1.2-5.3,2-7.5,1.9-5,2.9-7.5-3.5-11.2,0,0-2.5-1.4-6.6-1.4h0c-1.1,0-2-.9-2-1.9,0-1.1.9-2,1.9-2,0,0,0,0,.1,0,5.1,0,8.3,1.9,8.4,2,9.2,5.3,7.1,10.9,5.2,15.9-.8,2.1-1.6,4.2-1.8,6.5-.4,3.6,1.5,4.5,6.5,6,2.5.8,5.2,1.6,7.2,3.3,3,2.7,1.7,7.1.4,11.3-1.6,5.3-2.4,8.6.5,10.1,4.8,2.5,7.5,5.8,8,9.6.9,6.4-4.8,11.8-5,12.1-.4.4-.9.5-1.3.5Z" fill="#483432"/>
  <path d="M94,163.9c-.2,0-.4,0-.5,0l-19.5-5.6c-1-.3-1.6-1.4-1.3-2.4.3-1,1.4-1.6,2.4-1.3l19.5,5.6c1,.3,1.6,1.4,1.3,2.4-.2.9-1,1.4-1.9,1.4Z" fill="#483432"/>
  <path d="M76.8,184.9c-.8,0-1.6-.5-1.9-1.4-.3-1,.3-2.1,1.3-2.4l20-6.1c1-.3,2.1.3,2.4,1.3.3,1-.3,2.1-1.3,2.4l-20,6.1c-.2,0-.4,0-.6,0Z" fill="#483432"/>
  <path d="M87.2,206.6c-.5,0-1-.2-1.4-.6-.7-.8-.7-2,0-2.8l14.8-14.2c.8-.8,2-.7,2.8,0,.7.8.7,2,0,2.8l-14.8,14.2c-.4.4-.9.5-1.4.5Z" fill="#483432"/>
  <path d="M370.4,491.2c-1,0-1.9-.8-2-1.8,0-.3-1.9-30.1,2.5-59.5.2-1.1,1.2-1.8,2.2-1.7,1.1.2,1.8,1.2,1.7,2.2-4.3,29-2.4,58.4-2.4,58.7,0,1.1-.7,2-1.8,2.1,0,0,0,0-.1,0Z" fill="#483432"/>
</svg>