<svg xmlns="http://www.w3.org/2000/svg" xmlns:xlink="http://www.w3.org/1999/xlink" viewBox="0 0 800 800" width="800" height="800" preserveAspectRatio="xMidYMid meet" style="width: 100%; height: 100%; transform: translate3d(0px, 0px, 0px); content-visibility: visible;"><defs><clipPath id="__lottie_element_2"><rect width="800" height="800" x="0" y="0"></rect></clipPath><g id="__lottie_element_13"><g transform="matrix(0.681161642074585,-0.033778443932533264,0.033778443932533264,0.681161642074585,-18.556814193725586,123.00408172607422)" opacity="1" style="display: block;"><g opacity="1" transform="matrix(1,0,0,1,582.7780151367188,487.406005859375)"><path fill="rgb(9,93,219)" fill-opacity="1" d=" M28.035398483276367,26.820079803466797 C6.036736011505127,31.62236785888672 -22.17417335510254,25.767698287963867 -27.510820388793945,6.32241678237915 C-31.747024536132812,-8.087601661682129 -20.499059677124023,-22.10469627380371 0.38075393438339233,-18.523624420166016 C29.65900993347168,-9.363653182983398 46.740108489990234,-13.654105186462402 53.66901779174805,-0.13501885533332825 C58.670047760009766,9.497115135192871 46.8553466796875,23.173582077026367 28.035398483276367,26.820079803466797z"></path><path stroke-linecap="round" stroke-linejoin="round" fill-opacity="0" stroke="rgb(89,18,59)" stroke-opacity="1" stroke-width="2" d=" M28.035398483276367,26.820079803466797 C6.036736011505127,31.62236785888672 -22.17417335510254,25.767698287963867 -27.510820388793945,6.32241678237915 C-31.747024536132812,-8.087601661682129 -20.499059677124023,-22.10469627380371 0.38075393438339233,-18.523624420166016 C29.65900993347168,-9.363653182983398 46.740108489990234,-13.654105186462402 53.66901779174805,-0.13501885533332825 C58.670047760009766,9.497115135192871 46.8553466796875,23.173582077026367 28.035398483276367,26.820079803466797z"></path></g></g></g><mask id="__lottie_element_13_1" mask-type="alpha"><use xlink:href="#__lottie_element_13"></use></mask><g id="__lottie_element_44"><g transform="matrix(1.100000023841858,0,0,1.100000023841858,415.989013671875,399.6990051269531)" opacity="1" style="display: block;"><g opacity="1" transform="matrix(1,0,0,1,0,0)"><path stroke-linecap="round" stroke-linejoin="miter" fill-opacity="0" stroke-miterlimit="4" stroke="rgb(89,18,59)" stroke-opacity="1" stroke-width="21.5" d=" M-256.25,-8 C-263.00799560546875,42.19900131225586 -245.06900024414062,73.00199890136719 -218.8249969482422,84.2969970703125 C-190.697998046875,96.4020004272461 -153.02999877929688,86.0999984741211 -126,53.25"></path></g><g opacity="1" transform="matrix(1,0,0,1,0,0)"><path stroke-linecap="round" stroke-linejoin="miter" fill-opacity="0" stroke-miterlimit="4" stroke="rgb(179,169,189)" stroke-opacity="1" stroke-width="19" d=" M-256.25,-8 C-263.00799560546875,42.19900131225586 -245.06900024414062,73.00199890136719 -218.8249969482422,84.2969970703125 C-190.697998046875,96.4020004272461 -153.02999877929688,86.0999984741211 -126,53.25"></path></g></g></g><mask id="__lottie_element_44_1" mask-type="alpha"><use xlink:href="#__lottie_element_44"></use></mask><clipPath id="__lottie_element_54"><path fill="#ffffff" clip-rule="nonzero" d=" M388.9540100097656,497.80499267578125 C367.9750061035156,497.36199951171875 392.7539978027344,600.5780029296875 392.8869934082031,608.2379760742188 C393.0199890136719,615.8980102539062 492.13800048828125,633.9390258789062 522.1190185546875,641.8880004882812 C552.0999755859375,649.8369750976562 574.5449829101562,525.6380004882812 572.5759887695312,505.1050109863281 C570.6069946289062,484.5719909667969 409.9330139160156,498.24798583984375 388.9540100097656,497.80499267578125" fill-opacity="1"></path></clipPath><g id="__lottie_element_56"><g transform="matrix(1.0992391109466553,0.040846310555934906,-0.040846310555934906,1.0992391109466553,413.8915100097656,418.81915283203125)" opacity="1" style="display: block;"><g opacity="1" transform="matrix(1,0,0,1,0,0)"><path fill="rgb(89,18,59)" fill-opacity="1" d=" M-120.125,58.125 C-120.125,58.125 -116.4000015258789,90.83200073242188 -105.68900299072266,89.91300201416016 C-83.88300323486328,88.04199981689453 -70.75199890136719,101.43800354003906 -61.13999938964844,120.54199981689453 C-50.73400115966797,141.2239990234375 -2.375,93.875 -2.375,93.875 C-2.375,93.875 -120.125,58.125 -120.125,58.125z"></path></g></g></g><mask id="__lottie_element_56_1" mask-type="alpha"><use xlink:href="#__lottie_element_56"></use></mask><g id="__lottie_element_75"><g transform="matrix(1.100000023841858,0,0,1.100000023841858,393.989013671875,377.6990051269531)" opacity="1" style="display: block;"><g opacity="1" transform="matrix(1,0,0,1,0,0)"><path stroke-linecap="round" stroke-linejoin="miter" fill-opacity="0" stroke-miterlimit="4" stroke="rgb(89,18,59)" stroke-opacity="1" stroke-width="21.5" d=" M173,-9 C232.25,51.25 286.5,1.75 272.75,-59.75"></path></g><g opacity="1" transform="matrix(1,0,0,1,0,0)"><path stroke-linecap="round" stroke-linejoin="miter" fill-opacity="0" stroke-miterlimit="4" stroke="rgb(170,157,177)" stroke-opacity="1" stroke-width="19" d=" M173,-9 C232.25,51.25 286.5,1.75 272.75,-59.75"></path></g></g></g><mask id="__lottie_element_75_1" mask-type="alpha"><use xlink:href="#__lottie_element_75"></use></mask><g id="__lottie_element_84"><g transform="matrix(0.68116295337677,-0.033778510987758636,0.033778510987758636,0.68116295337677,-18.55791664123535,123.00321960449219)" opacity="1" style="display: block;"><g opacity="1" transform="matrix(1,0,0,1,0,0)"><path stroke-linecap="round" stroke-linejoin="miter" fill-opacity="0" stroke-miterlimit="4" stroke="rgb(89,18,59)" stroke-opacity="1" stroke-width="36" d=" M817.385009765625,505.07598876953125 C951.2559814453125,459.5119934082031 1075.449951171875,679.6729736328125 728.27197265625,615.9630126953125"></path></g><g opacity="1" transform="matrix(1,0,0,1,0,0)"><path stroke-linecap="round" stroke-linejoin="miter" fill-opacity="0" stroke-miterlimit="4" stroke="rgb(179,169,189)" stroke-opacity="1" stroke-width="32" d=" M817.385009765625,505.07598876953125 C951.2559814453125,459.5119934082031 1075.449951171875,679.6729736328125 728.27197265625,615.9630126953125"></path></g></g></g><mask id="__lottie_element_84_1" mask-type="alpha"><use xlink:href="#__lottie_element_84"></use></mask><g id="__lottie_element_90"><g transform="matrix(0.68116295337677,-0.033778510987758636,0.033778510987758636,0.68116295337677,-18.55791664123535,123.00321960449219)" opacity="1" style="display: block;"><g opacity="1" transform="matrix(1,0,0,1,0,0)"><path stroke-linecap="round" stroke-linejoin="miter" fill-opacity="0" stroke-miterlimit="4" stroke="rgb(89,18,59)" stroke-opacity="1" stroke-width="36" d=" M817.385009765625,505.07598876953125 C951.2559814453125,459.5119934082031 1075.449951171875,679.6729736328125 728.27197265625,615.9630126953125"></path></g><g opacity="1" transform="matrix(1,0,0,1,0,0)"><path stroke-linecap="round" stroke-linejoin="miter" fill-opacity="0" stroke-miterlimit="4" stroke="rgb(179,169,189)" stroke-opacity="1" stroke-width="32" d=" M817.385009765625,505.07598876953125 C951.2559814453125,459.5119934082031 1075.449951171875,679.6729736328125 728.27197265625,615.9630126953125"></path></g></g></g><mask id="__lottie_element_90_1" mask-type="alpha"><use xlink:href="#__lottie_element_90"></use></mask></defs><g clip-path="url(#__lottie_element_2)"><g transform="matrix(0.68116295337677,-0.033778510987758636,0.033778510987758636,0.68116295337677,-18.55791664123535,123.00321960449219)" opacity="1" style="display: block;"><g opacity="1" transform="matrix(1,0,0,1,0,0)"><path stroke-linecap="round" stroke-linejoin="miter" fill-opacity="0" stroke-miterlimit="4" stroke="rgb(9,93,219)" stroke-opacity="1" stroke-width="36" d=" M817.385009765625,505.07598876953125 C951.2559814453125,459.5119934082031 1075.449951171875,679.6729736328125 728.27197265625,615.9630126953125"></path></g><g opacity="1" transform="matrix(1,0,0,1,0,0)"><path stroke-linecap="round" stroke-linejoin="miter" fill-opacity="0" stroke-miterlimit="4" stroke="rgb(255,255,255)" stroke-opacity="1" stroke-width="26" d=" M817.385009765625,505.07598876953125 C951.2559814453125,459.5119934082031 1075.449951171875,679.6729736328125 728.27197265625,615.9630126953125"></path></g></g><g mask="url(#__lottie_element_90_1)" style="display: block;"><g transform="matrix(1.0999977588653564,0.000020318120732554235,-0.000020318120732554235,1.0999977588653564,415.98883056640625,399.69879150390625)" opacity="1"><g opacity="1" transform="matrix(1,0,0,1,0,0)"><path fill="rgb(9,93,219)" fill-opacity="1" d=" M75,-9.5 C35.17100143432617,74.98600006103516 155.10699462890625,86.59700012207031 150.67300415039062,58.85900115966797 C145.20700073242188,24.66900062561035 176.6790008544922,3.8469998836517334 191.5760040283203,-4.232999801635742 C250.5760040283203,-36.233001708984375 124.5,-114.5 75,-9.5z"></path></g></g></g><g mask="url(#__lottie_element_84_1)" style="display: block;"><g transform="matrix(1.0999977588653564,0.000020318120732554235,-0.000020318120732554235,1.0999977588653564,415.98883056640625,399.69879150390625)" opacity="1"><g opacity="1" transform="matrix(1,0,0,1,0,0)"><path fill="rgb(9,93,219)" fill-opacity="1" d=" M131,81.25 C115.75800323486328,10.116000175476074 22.25,61 98.25,145.5 C178.93299865722656,235.20700073242188 230.36300659179688,137.42999267578125 176.75,127.75 C140.75,121.25 133.25,91.75 131,81.25z"></path></g></g></g><g transform="matrix(1.100000023841858,0,0,1.100000023841858,393.989013671875,377.6990051269531)" opacity="1" style="display: block;"><g opacity="1" transform="matrix(1,0,0,1,0,0)"><path stroke-linecap="round" stroke-linejoin="miter" fill-opacity="0" stroke-miterlimit="4" stroke="rgb(9,93,219)" stroke-opacity="1" stroke-width="21.5" d=" M173,-9 C232.25,51.25 286.5,1.75 272.75,-59.75"></path></g><g opacity="1" transform="matrix(1,0,0,1,0,0)"><path stroke-linecap="round" stroke-linejoin="miter" fill-opacity="0" stroke-miterlimit="4" stroke="rgb(255,255,255)" stroke-opacity="1" stroke-width="15" d=" M173,-9 C232.25,51.25 286.5,1.75 272.75,-59.75"></path></g></g><g mask="url(#__lottie_element_75_1)" style="display: block;"><g transform="matrix(-0.4560033679008484,-1.0010274648666382,1.0010274648666382,-0.4560033679008484,545.0059814453125,272.7835998535156)" opacity="1"><g opacity="1" transform="matrix(1,0,0,1,0,0)"><path fill="rgb(9,93,219)" fill-opacity="1" d=" M-92.9489974975586,-13.086999893188477 C-136.0050048828125,-50.45600128173828 -170.81199645996094,10.14799976348877 -161.0469970703125,11.218000411987305 C-137.99400329589844,13.743000030517578 -112.4000015258789,60.44599914550781 -96.6520004272461,66.8489990234375 C-78.44000244140625,74.25399780273438 -66.4489974975586,9.913000106811523 -92.9489974975586,-13.086999893188477z"></path></g></g></g><g transform="matrix(0.6629519462585449,-0.3511334955692291,0.3511334955692291,0.6629519462585449,-100.36407470703125,458.1968688964844)" opacity="1" style="display: block;"><g opacity="1" transform="matrix(1,0,0,1,0,0)"><g opacity="1" transform="matrix(1,0,0,1,1078.5279541015625,271.31298828125)"><g opacity="1" transform="matrix(1,0,0,1,0,0)"><path fill="rgb(255,255,255)" fill-opacity="1" d=" M-93.40799713134766,14.246999740600586 C-91.61799621582031,20.094999313354492 -78.76200103759766,51.999000549316406 -55.92100143432617,55.67100143432617 C-11.527999877929688,64.18800354003906 18.472000122070312,6.188000202178955 12.871999740600586,-34.332000732421875 C7.955999851226807,-58.45600128173828 -17.00200080871582,-71.50299835205078 -37.040000915527344,-70.61000061035156 C-66.15299987792969,-69.31199645996094 -74.52799987792969,-42.1879997253418 -41.70899963378906,-41.33700180053711 C-4.715000152587891,-40.37799835205078 -50.27799987792969,3.562999963760376 -62.87300109863281,-6.678999900817871 C-66.11799621582031,-9.317999839782715 -53.52799987792969,-29.812999725341797 -59.64099884033203,-42.85100173950195 C-71.83799743652344,-68.86699676513672 -107.27799987792969,-31.062000274658203 -93.40799713134766,14.246999740600586z"></path></g></g><g opacity="1" transform="matrix(1,0,0,1,1013.6370239257812,258.81500244140625)"><g opacity="1" transform="matrix(1,0,0,1,0,0)"><path stroke-linecap="round" stroke-linejoin="round" fill-opacity="0" stroke="rgb(9,93,219)" stroke-opacity="1" stroke-width="4.4" d=" M3.8499999046325684,-5.789999961853027 C2.364000082015991,-0.8690000176429749 -1.4509999752044678,3.7079999446868896 -3.4600000381469727,5.440000057220459 C-3.5999999046325684,5.559999942779541 -3.7300000190734863,5.679999828338623 -3.8499999046325684,5.789999961853027"></path></g></g><g opacity="1" transform="matrix(1,0,0,1,1078.5279541015625,271.31298828125)"><g opacity="1" transform="matrix(1,0,0,1,0,0)"><path stroke-linecap="butt" stroke-linejoin="miter" fill-opacity="0" stroke-miterlimit="4" stroke="rgb(9,93,219)" stroke-opacity="1" stroke-width="4.4" d=" M-93.40799713134766,14.246999740600586 C-91.61799621582031,20.094999313354492 -78.76200103759766,51.999000549316406 -55.92100143432617,55.67100143432617 C-11.527999877929688,64.18800354003906 18.472000122070312,6.188000202178955 12.871999740600586,-34.332000732421875 C7.955999851226807,-58.45600128173828 -17.00200080871582,-71.50299835205078 -37.040000915527344,-70.61000061035156 C-66.15299987792969,-69.31199645996094 -74.52799987792969,-42.1879997253418 -41.70899963378906,-41.33700180053711 C-4.715000152587891,-40.37799835205078 -50.27799987792969,3.562999963760376 -62.87300109863281,-6.678999900817871 C-66.11799621582031,-9.317999839782715 -53.52799987792969,-29.812999725341797 -59.64099884033203,-42.85100173950195 C-71.83799743652344,-68.86699676513672 -107.27799987792969,-31.062000274658203 -93.40799713134766,14.246999740600586z"></path></g></g></g><g opacity="1" transform="matrix(1,0,0,1,0,0)"><g opacity="1" transform="matrix(1,0,0,1,1078.5279541015625,271.31298828125)"><g opacity="1" transform="matrix(1,0,0,1,0,0)"><path fill="rgb(255,255,255)" fill-opacity="1" d=" M-17.42099952697754,18.42099952697754 C-7.255000114440918,26.666000366210938 27.256000518798828,10.137999534606934 36.731998443603516,2.2109999656677246 C66.40799713134766,-23.44700050354004 93.26399993896484,-25.548999786376953 90.25399780273438,-43.06700134277344 C88.34500122070312,-62.02000045776367 47.430999755859375,-54.70800018310547 11.996999740600586,-35.4379997253418 C-2.927999973297119,-26.191999435424805 -35.27799987792969,3.937999963760376 -17.42099952697754,18.42099952697754z"></path></g></g><g opacity="1" transform="matrix(1,0,0,1,1078.5279541015625,271.31298828125)"><g opacity="1" transform="matrix(1,0,0,1,0,0)"><path stroke-linecap="round" stroke-linejoin="round" fill-opacity="0" stroke="rgb(9,93,219)" stroke-opacity="1" stroke-width="4.4" d=" M46.470001220703125,-5.513999938964844 C72.0009994506836,-24.10300064086914 92.93000030517578,-27.493000030517578 90.25399780273438,-43.06700134277344 C88.34500122070312,-62.02000045776367 47.430999755859375,-54.70800018310547 11.996999740600586,-35.4379997253418 C5.099999904632568,-31.165000915527344 -5.517000198364258,-22.43400001525879 -13.182000160217285,-12.847000122070312"></path></g></g></g><g opacity="1" transform="matrix(1,0,0,1,0,0)"><g opacity="1" transform="matrix(1,0,0,1,1078.5279541015625,271.31298828125)"><g opacity="1" transform="matrix(1,0,0,1,0,0)"><path fill="rgb(255,255,255)" fill-opacity="1" d=" M-55.92100143432617,55.67100143432617 C-29.777999877929688,88.81300354003906 8.847999572753906,61.6879997253418 20.31800079345703,46.89400100708008 C52.5099983215332,5.375 94.14700317382812,-6.491000175476074 93.13099670410156,-25.625 C92.39700317382812,-33.15800094604492 87.22899627685547,-39.05500030517578 78.93499755859375,-39.49599838256836 C59.24700164794922,-38.70199966430664 29.891000747680664,-21.381000518798828 5.248000144958496,2.736999988555908 C-0.8299999833106995,8.682999610900879 -66.65299987792969,36.6879997253418 -55.92100143432617,55.67100143432617z"></path></g></g><g opacity="1" transform="matrix(1,0,0,1,1078.5279541015625,271.31298828125)"><g opacity="1" transform="matrix(1,0,0,1,0,0)"><path stroke-linecap="round" stroke-linejoin="round" fill-opacity="0" stroke="rgb(9,93,219)" stroke-opacity="1" stroke-width="4.4" d=" M-55.446998596191406,45.39799880981445 C-57.36000061035156,48.97999954223633 -57.73899841308594,52.45500183105469 -55.92100143432617,55.67100143432617 C-55.92100143432617,55.67100143432617 -55.92100143432617,55.67100143432617 -55.92100143432617,55.67100143432617 C-29.777999877929688,88.81300354003906 8.847999572753906,61.6879997253418 20.31800079345703,46.89400100708008 C52.5099983215332,5.375 94.14700317382812,-6.491000175476074 93.13099670410156,-25.625 C92.39700317382812,-33.15800094604492 87.22899627685547,-39.05500030517578 78.93499755859375,-39.49599838256836 C59.380001068115234,-38.707000732421875 30.288000106811523,-21.614999771118164 5.749000072479248,2.247999906539917"></path></g></g></g><g opacity="1" transform="matrix(1,0,0,1,1079.9169921875,272.89599609375)"><g opacity="1" transform="matrix(1,0,0,1,0,0)"><path stroke-linecap="round" stroke-linejoin="round" fill-opacity="0" stroke="rgb(9,93,219)" stroke-opacity="1" stroke-width="4.4" d=" M-10.083999633789062,-7.328999996185303 C-5.34499979019165,-6.2779998779296875 5.263000011444092,1.4800000190734863 10.083999633789062,7.328999996185303"></path></g></g><g opacity="1" transform="matrix(1,0,0,1,0,0)"><g opacity="1" transform="matrix(1,0,0,1,1035.0460205078125,292.3330078125)"><g opacity="1" transform="matrix(1,0,0,1,0,0)"><path stroke-linecap="round" stroke-linejoin="round" fill-opacity="0" stroke="rgb(9,93,219)" stroke-opacity="1" stroke-width="4.4" d=" M4.244999885559082,-13.625 C6.01200008392334,-3.9779999256134033 2.931999921798706,6.067999839782715 -4.729000091552734,13.625"></path></g></g><g opacity="1" transform="matrix(1,0,0,1,1042.0980224609375,296.5469970703125)"><g opacity="1" transform="matrix(1,0,0,1,0,0)"><path stroke-linecap="round" stroke-linejoin="round" fill-opacity="0" stroke="rgb(9,93,219)" stroke-opacity="1" stroke-width="4.4" d=" M-6.980000019073486,3.4630000591278076 C-3.0969998836517334,-1.9859999418258667 3.197999954223633,-3.6050000190734863 6.980000019073486,-3.453000068664551"></path></g></g></g></g><g transform="matrix(0.68116295337677,-0.033778510987758636,0.033778510987758636,0.68116295337677,-18.740875244140625,122.7562255859375)" opacity="1" style="display: block;"><g opacity="1" transform="matrix(1,0,0,1,621.3309936523438,382.72100830078125)"><path fill="rgb(255,255,255)" fill-opacity="1" d=" M319.51300048828125,18.222999572753906 C316.3489990234375,57.48500061035156 285.0710144042969,94.6259994506836 235.24200439453125,99.43399810791016 C216.7050018310547,162.8719940185547 -55.68299865722656,271.59698486328125 -150.82699584960938,211.21099853515625 C-150.85800170898438,211.1999969482422 -150.88800048828125,211.17999267578125 -150.90899658203125,211.1490020751953 C-151.9739990234375,210.25999450683594 -152.87399291992188,209.4530029296875 -153.8769989013672,208.53199768066406 C-177.73300170898438,212.7899932861328 -205.8209991455078,209.98399353027344 -223.68299865722656,205.04800415039062 C-244.71499633789062,199.6199951171875 -257.7950134277344,192.1230010986328 -257.7950134277344,191.59500122070312 C-353.0169982910156,138.88099670410156 -334.47698974609375,12.194999694824219 -231.10699462890625,-29.47599983215332 C-254.73899841308594,-204.34500122070312 -28.750999450683594,-292.2080078125 104.41799926757812,-178.56900024414062 C174.1929931640625,-183.05599975585938 226.88699340820312,-134.15899658203125 235.24200439453125,-70.41200256347656 C285.260009765625,-70.125 324.11199951171875,-27.72800064086914 319.51300048828125,18.222999572753906z"></path></g><g opacity="1" transform="matrix(1,0,0,1,856.9509887695312,322.72900390625)"><path stroke-linecap="round" stroke-linejoin="round" fill-opacity="0" stroke="rgb(9,93,219)" stroke-opacity="1" stroke-width="5" d=" M0.3529999852180481,9.937000274658203 C0.640999972820282,3.299999952316284 0.36500000953674316,-3.440000057220459 -0.46399998664855957,-9.937000274658203"></path></g><g opacity="1" transform="matrix(1,0,0,1,463.53399658203125,579.7219848632812)"><path stroke-linecap="round" stroke-linejoin="round" fill-opacity="0" stroke="rgb(9,93,219)" stroke-opacity="1" stroke-width="5" d=" M6.735000133514404,14.145000457763672 C-2.746999979019165,7.033999919891357 -7.750999927520752,-2.305999994277954 -6.561999797821045,-14.145000457763672"></path></g><g opacity="1" transform="matrix(1,0,0,1,835.2139892578125,482.68798828125)"><path stroke-linecap="round" stroke-linejoin="round" fill-opacity="0" stroke="rgb(9,93,219)" stroke-opacity="1" stroke-width="5" d=" M5.448999881744385,-46.3489990234375 C43.439998626708984,-15.597999572753906 16.55699920654297,18.819000244140625 -23.72599983215332,46.3489990234375"></path></g><g opacity="1" transform="matrix(1,0,0,1,432.30999755859375,347.12701416015625)"><path stroke-linecap="round" stroke-linejoin="round" fill-opacity="0" stroke="rgb(9,93,219)" stroke-opacity="1" stroke-width="5" d=" M42.446998596191406,-5.081999778747559 C12.00100040435791,-8.588000297546387 -17.084999084472656,-4.085000038146973 -42.446998596191406,6.256999969482422"></path></g><g opacity="1" transform="matrix(1,0,0,1,648.051025390625,192.5)"><path stroke-linecap="round" stroke-linejoin="round" fill-opacity="0" stroke="rgb(9,93,219)" stroke-opacity="1" stroke-width="5" d=" M-91.072998046875,-38.275001525878906 C-28.906999588012695,-45.61800003051758 38.03200149536133,-25.15399932861328 77.50900268554688,11.621000289916992 C78.25599670410156,11.677000045776367 94.46299743652344,29.63599967956543 98.63300323486328,36.375"></path></g><g opacity="1" transform="matrix(1,0,0,1,621.1380004882812,382.71099853515625)"><path stroke-linecap="round" stroke-linejoin="round" fill-opacity="0" stroke="rgb(9,93,219)" stroke-opacity="1" stroke-width="5" d=" M319.6709899902344,16.836999893188477 C316.8789978027344,58.73500061035156 283.68798828125,94.7699966430664 235.28599548339844,99.44400024414062 C208.70199584960938,173.2100067138672 -73.28299713134766,268.77398681640625 -150.78199768066406,211.2209930419922 C-150.81300354003906,211.2100067138672 -150.843994140625,211.19000244140625 -150.86500549316406,211.15899658203125 C-151.92999267578125,210.27000427246094 -152.8300018310547,209.46200561523438 -153.83299255371094,208.54200744628906 C-211.9029998779297,218.0240020751953 -257.75,192.59800720214844 -257.75,191.60499572753906 C-352.97198486328125,138.89100646972656 -334.4330139160156,12.204000473022461 -231.06300354003906,-29.465999603271484 C-235.88299560546875,-61.33399963378906 -230.8560028076172,-93.59400177001953 -216.968994140625,-122.39199829101562 C-167.55599975585938,-236.69000244140625 -3.0999999046325684,-266.7760009765625 102.52899932861328,-180.38900756835938 C103.18000030517578,-179.8000030517578 103.82099914550781,-179.17999267578125 104.46199798583984,-178.5590057373047 C173.1439971923828,-183.2899932861328 227.21099853515625,-134.302001953125 235.28599548339844,-70.4020004272461 C282.0849914550781,-70.4020004272461 322.7829895019531,-31.503000259399414 319.6709899902344,16.836999893188477z"></path></g></g><g transform="matrix(0.6818965673446655,-0.011879014782607555,0.011879014782607555,0.6818965673446655,0.4486006498336792,122.00859069824219)" opacity="1" style="display: block;"><g opacity="1" transform="matrix(1,0,0,1,770.1740112304688,640.5280151367188)"><path fill="rgb(255,255,255)" fill-opacity="1" d=" M77.38500213623047,57.43299865722656 C70.16799926757812,68.32099914550781 56.9010009765625,73.38800048828125 40.66699981689453,72.98500061035156 C-16.711000442504883,73.73200225830078 -106.37000274658203,-7.942999839782715 -77.48899841308594,-57.07400131225586 C-32.03200149536133,-114.5790023803711 113.46900177001953,-2.437999963760376 77.38500213623047,57.43299865722656z"></path></g><g opacity="1" transform="matrix(1,0,0,1,761.1010131835938,645.0989990234375)"><path fill="rgb(163,194,242)" fill-opacity="1" d=" M65.87000274658203,58.99800109863281 C59.48500061035156,66.00399780273438 49.84600067138672,68.947998046875 40.457000732421875,67.63999938964844 C-15.074999809265137,62.073001861572266 -94.17400360107422,-14.069999694824219 -69.40899658203125,-60.03099822998047 C-14.461999893188477,-97.37200164794922 106.5790023803711,6.739999771118164 65.87000274658203,58.99800109863281z"></path><path stroke-linecap="butt" stroke-linejoin="miter" fill-opacity="0" stroke-miterlimit="4" stroke="rgb(9,93,219)" stroke-opacity="1" stroke-width="5" d=" M65.87000274658203,58.99800109863281 C59.48500061035156,66.00399780273438 49.84600067138672,68.947998046875 40.457000732421875,67.63999938964844 C-15.074999809265137,62.073001861572266 -94.17400360107422,-14.069999694824219 -69.40899658203125,-60.03099822998047 C-14.461999893188477,-97.37200164794922 106.5790023803711,6.739999771118164 65.87000274658203,58.99800109863281z"></path></g><g opacity="1" transform="matrix(1,0,0,1,770.1719970703125,640.530029296875)"><path stroke-linecap="round" stroke-linejoin="round" fill-opacity="0" stroke="rgb(9,93,219)" stroke-opacity="1" stroke-width="5" d=" M77.38999938964844,57.43899917602539 C69.48500061035156,69.35700225830078 54.32099914550781,74.3030014038086 35.96500015258789,72.72799682617188 C-20.424999237060547,70.06999969482422 -105.77300262451172,-9.107000350952148 -77.48500061035156,-57.08100128173828 C-32.02899932861328,-114.58100128173828 113.46700286865234,-2.440000057220459 77.38999938964844,57.43899917602539z"></path></g></g><g transform="matrix(0.6810909509658813,0.035201214253902435,-0.035201214253902435,0.6810909509658813,41.24692153930664,87.66659545898438)" opacity="1" style="display: block;"><g opacity="1" transform="matrix(1,0,0,1,724.56298828125,659.2659912109375)"><path fill="rgb(255,255,255)" fill-opacity="1" d=" M85.50800323486328,59.933998107910156 C41.6609992980957,115.88600158691406 -96.34300231933594,32.18899917602539 -92.31999969482422,-39.52799987792969 C-91.90699768066406,-46.79899978637695 -89.7249984741211,-53.91600036621094 -85.5479965209961,-59.83599853515625 C-35.48400115966797,-122.98500061035156 127.71299743652344,-8.692999839782715 85.50800323486328,59.933998107910156z"></path></g><g opacity="1" transform="matrix(1,0,0,1,643.3270263671875,628.5689697265625)"><path fill="rgb(9,93,219)" fill-opacity="1" d=" M10.35099983215332,-10.40999984741211 C6.5879998207092285,-1.25600004196167 -1.6619999408721924,11.90999984741211 -6.873000144958496,17.461999893188477 C-10.239999771118164,9.32699966430664 -11.425999641418457,-2.947000026702881 -11.085000038146973,-8.829999923706055 C-11.085000038146973,-8.840999603271484 -11.074999809265137,-8.862000465393066 -11.074999809265137,-8.871999740600586 C-5.396999835968018,-9.338000297546387 2.194000005722046,-9.821999549865723 10.35099983215332,-10.40999984741211z"></path><path stroke-linecap="round" stroke-linejoin="round" fill-opacity="0" stroke="rgb(9,93,219)" stroke-opacity="1" stroke-width="5" d=" M10.35099983215332,-10.40999984741211 C6.5879998207092285,-1.25600004196167 -1.6619999408721924,11.90999984741211 -6.873000144958496,17.461999893188477 C-10.239999771118164,9.32699966430664 -11.425999641418457,-2.947000026702881 -11.085000038146973,-8.829999923706055 C-11.085000038146973,-8.840999603271484 -11.074999809265137,-8.862000465393066 -11.074999809265137,-8.871999740600586 C-5.396999835968018,-9.338000297546387 2.194000005722046,-9.821999549865723 10.35099983215332,-10.40999984741211z"></path></g><g opacity="1" transform="matrix(1,0,0,1,724.5139770507812,659.5150146484375)"><path stroke-linecap="round" stroke-linejoin="round" fill-opacity="0" stroke="rgb(9,93,219)" stroke-opacity="1" stroke-width="5" d=" M34.87699890136719,-49.9739990234375 C82.11299896240234,-16.89900016784668 104.80000305175781,32.198001861572266 85.5510025024414,59.6879997253418 C35.44900131225586,122.83399963378906 -127.71199798583984,8.531000137329102 -85.50399780273438,-60.08700180053711 C-66.25599670410156,-87.57599639892578 -12.359000205993652,-83.04900360107422 34.87699890136719,-49.9739990234375z"></path></g></g><g transform="matrix(0.68116295337677,-0.033778510987758636,0.033778510987758636,0.68116295337677,-18.55791664123535,123.00321960449219)" opacity="1" style="display: block;"><g opacity="1" transform="matrix(1,0,0,1,0,0)"><path stroke-linecap="round" stroke-linejoin="miter" fill-opacity="0" stroke-miterlimit="4" stroke="rgb(9,93,219)" stroke-opacity="1" stroke-width="36" d=" M686.7612915039062,646.773681640625 C528.2042236328125,866.9695434570312 287.8037109375,673.2645874023438 523.8369750976562,569.9949951171875"></path></g><g opacity="1" transform="matrix(1,0,0,1,0,0)"><path stroke-linecap="round" stroke-linejoin="miter" fill-opacity="0" stroke-miterlimit="4" stroke="rgb(255,255,255)" stroke-opacity="1" stroke-width="26" d=" M686.7612915039062,646.773681640625 C528.2042236328125,866.9695434570312 287.8037109375,673.2645874023438 523.8369750976562,569.9949951171875"></path></g></g><g mask="url(#__lottie_element_56_1)" style="display: block;"><g transform="matrix(0.68116295337677,-0.033778510987758636,0.033778510987758636,0.68116295337677,-18.55791664123535,123.00321960449219)" opacity="1"><g opacity="1" transform="matrix(1,0,0,1,0,0)"><path stroke-linecap="round" stroke-linejoin="miter" fill-opacity="0" stroke-miterlimit="4" stroke="rgb(9,93,219)" stroke-opacity="1" stroke-width="36" d=" M686.7612915039062,646.773681640625 C528.2042236328125,866.9695434570312 287.8037109375,673.2645874023438 523.8369750976562,569.9949951171875"></path></g><g opacity="1" transform="matrix(1,0,0,1,0,0)"><path stroke-linecap="round" stroke-linejoin="miter" fill-opacity="0" stroke-miterlimit="4" stroke="rgb(9,93,219)" stroke-opacity="1" stroke-width="32" d=" M686.7612915039062,646.773681640625 C528.2042236328125,866.9695434570312 287.8037109375,673.2645874023438 523.8369750976562,569.9949951171875"></path></g></g></g><g clip-path="url(#__lottie_element_54)" transform="matrix(0.68116295337677,-0.033778510987758636,0.033778510987758636,0.68116295337677,-18.740875244140625,122.7562255859375)" opacity="1" style="display: block;"><g opacity="1" transform="matrix(1,0,0,1,621.3309936523438,382.72100830078125)"><path fill="rgb(255,255,255)" fill-opacity="1" d=" M319.51300048828125,18.222999572753906 C316.3489990234375,57.48500061035156 285.0710144042969,94.6259994506836 235.24200439453125,99.43399810791016 C216.7050018310547,162.8719940185547 -55.68299865722656,271.59698486328125 -150.82699584960938,211.21099853515625 C-150.85800170898438,211.1999969482422 -150.88800048828125,211.17999267578125 -150.90899658203125,211.1490020751953 C-151.9739990234375,210.25999450683594 -152.87399291992188,209.4530029296875 -153.8769989013672,208.53199768066406 C-177.73300170898438,212.7899932861328 -205.8209991455078,209.98399353027344 -223.68299865722656,205.04800415039062 C-244.71499633789062,199.6199951171875 -257.7950134277344,192.1230010986328 -257.7950134277344,191.59500122070312 C-353.0169982910156,138.88099670410156 -334.47698974609375,12.194999694824219 -231.10699462890625,-29.47599983215332 C-254.73899841308594,-204.34500122070312 -28.750999450683594,-292.2080078125 104.41799926757812,-178.56900024414062 C174.1929931640625,-183.05599975585938 226.88699340820312,-134.15899658203125 235.24200439453125,-70.41200256347656 C285.260009765625,-70.125 324.11199951171875,-27.72800064086914 319.51300048828125,18.222999572753906z"></path></g><g opacity="1" transform="matrix(1,0,0,1,856.9509887695312,322.72900390625)"><path stroke-linecap="round" stroke-linejoin="round" fill-opacity="0" stroke="rgb(9,93,219)" stroke-opacity="1" stroke-width="5" d=" M0.3529999852180481,9.937000274658203 C0.640999972820282,3.299999952316284 0.36500000953674316,-3.440000057220459 -0.46399998664855957,-9.937000274658203"></path></g><g opacity="1" transform="matrix(1,0,0,1,463.53399658203125,579.7219848632812)"><path stroke-linecap="round" stroke-linejoin="round" fill-opacity="0" stroke="rgb(9,93,219)" stroke-opacity="1" stroke-width="5" d=" M6.735000133514404,14.145000457763672 C-2.746999979019165,7.033999919891357 -7.750999927520752,-2.305999994277954 -6.561999797821045,-14.145000457763672"></path></g><g opacity="1" transform="matrix(1,0,0,1,835.2139892578125,482.68798828125)"><path stroke-linecap="round" stroke-linejoin="round" fill-opacity="0" stroke="rgb(9,93,219)" stroke-opacity="1" stroke-width="5" d=" M5.448999881744385,-46.3489990234375 C43.439998626708984,-15.597999572753906 16.55699920654297,18.819000244140625 -23.72599983215332,46.3489990234375"></path></g><g opacity="1" transform="matrix(1,0,0,1,432.30999755859375,347.12701416015625)"><path stroke-linecap="round" stroke-linejoin="round" fill-opacity="0" stroke="rgb(9,93,219)" stroke-opacity="1" stroke-width="5" d=" M42.446998596191406,-5.081999778747559 C12.00100040435791,-8.588000297546387 -17.084999084472656,-4.085000038146973 -42.446998596191406,6.256999969482422"></path></g><g opacity="1" transform="matrix(1,0,0,1,648.051025390625,192.5)"><path stroke-linecap="round" stroke-linejoin="round" fill-opacity="0" stroke="rgb(9,93,219)" stroke-opacity="1" stroke-width="5" d=" M-91.072998046875,-38.275001525878906 C-28.906999588012695,-45.61800003051758 38.03200149536133,-25.15399932861328 77.50900268554688,11.621000289916992 C78.25599670410156,11.677000045776367 94.46299743652344,29.63599967956543 98.63300323486328,36.375"></path></g><g opacity="1" transform="matrix(1,0,0,1,621.1380004882812,382.71099853515625)"><path stroke-linecap="round" stroke-linejoin="round" fill-opacity="0" stroke="rgb(9,93,219)" stroke-opacity="1" stroke-width="5" d=" M319.6709899902344,16.836999893188477 C316.8789978027344,58.73500061035156 283.68798828125,94.7699966430664 235.28599548339844,99.44400024414062 C208.70199584960938,173.2100067138672 -73.28299713134766,268.77398681640625 -150.78199768066406,211.2209930419922 C-150.81300354003906,211.2100067138672 -150.843994140625,211.19000244140625 -150.86500549316406,211.15899658203125 C-151.92999267578125,210.27000427246094 -152.8300018310547,209.46200561523438 -153.83299255371094,208.54200744628906 C-211.9029998779297,218.0240020751953 -257.75,192.59800720214844 -257.75,191.60499572753906 C-352.97198486328125,138.89100646972656 -334.4330139160156,12.204000473022461 -231.06300354003906,-29.465999603271484 C-235.88299560546875,-61.33399963378906 -230.8560028076172,-93.59400177001953 -216.968994140625,-122.39199829101562 C-167.55599975585938,-236.69000244140625 -3.0999999046325684,-266.7760009765625 102.52899932861328,-180.38900756835938 C103.18000030517578,-179.8000030517578 103.82099914550781,-179.17999267578125 104.46199798583984,-178.5590057373047 C173.1439971923828,-183.2899932861328 227.21099853515625,-134.302001953125 235.28599548339844,-70.4020004272461 C282.0849914550781,-70.4020004272461 322.7829895019531,-31.503000259399414 319.6709899902344,16.836999893188477z"></path></g></g><g transform="matrix(1.100000023841858,0,0,1.100000023841858,415.989013671875,399.6990051269531)" opacity="1" style="display: block;"><g opacity="1" transform="matrix(1,0,0,1,0,0)"><path stroke-linecap="round" stroke-linejoin="miter" fill-opacity="0" stroke-miterlimit="4" stroke="rgb(9,93,219)" stroke-opacity="1" stroke-width="21.5" d=" M-256.25,-8 C-263.00799560546875,42.19900131225586 -245.06900024414062,73.00199890136719 -218.8249969482422,84.2969970703125 C-190.697998046875,96.4020004272461 -153.02999877929688,86.0999984741211 -126,53.25"></path></g><g opacity="1" transform="matrix(1,0,0,1,0,0)"><path stroke-linecap="round" stroke-linejoin="miter" fill-opacity="0" stroke-miterlimit="4" stroke="rgb(255,255,255)" stroke-opacity="1" stroke-width="15" d=" M-256.25,-8 C-263.00799560546875,42.19900131225586 -245.06900024414062,73.00199890136719 -218.8249969482422,84.2969970703125 C-190.697998046875,96.4020004272461 -153.02999877929688,86.0999984741211 -126,53.25"></path></g></g><g mask="url(#__lottie_element_44_1)" style="display: block;"><g transform="matrix(1.0999956130981445,0.00002032638803939335,-0.00002032638803939335,1.0999956130981445,415.9891357421875,399.69830322265625)" opacity="1"><g opacity="1" transform="matrix(1,0,0,1,0,0)"><path fill="rgb(9,93,219)" fill-opacity="1" d=" M-139.5,-9 C-164,14.5 -176.5,51 -162.5,54.5 C-148.5,58 -134.5,69 -128,83.5 C-121.5,98 -79.5,96 -63,84.5 C-46.5,73 -115,-32.5 -139.5,-9z"></path></g></g></g><g transform="matrix(1.100000023841858,0,0,1.100000023841858,415.9897766113281,399.69879150390625)" opacity="1" style="display: block;"><g opacity="1" transform="matrix(1,0,0,1,0,0)"><path fill="rgb(255,255,255)" fill-opacity="1" d=" M45.44900131225586,111.69599914550781 C38.43199920654297,113.7760009765625 40.05400085449219,115.36900329589844 40.05400085449219,115.36900329589844 C40.05400085449219,115.36900329589844 42.0260009765625,117.79299926757812 42.0260009765625,117.79299926757812 C42.0260009765625,117.79299926757812 67.8239974975586,138.67599487304688 67.8239974975586,138.67599487304688 C67.8239974975586,138.67599487304688 66.12100219726562,126.5770034790039 62.01100158691406,117.47699737548828 C59.25899887084961,111.38300323486328 51.88999938964844,109.78700256347656 45.44900131225586,111.69599914550781z"></path></g></g><g transform="matrix(0.6750919222831726,0.09681392461061478,-0.09681392461061478,0.6750919222831726,39.07661056518555,75.18283081054688)" opacity="1" style="display: block;"><g opacity="1" transform="matrix(1,0,0,1,0,0)"><g opacity="1" transform="matrix(1,0,0,1,399.0469970703125,435.8320007324219)"><path stroke-linecap="round" stroke-linejoin="round" fill-opacity="0" stroke="rgb(9,93,219)" stroke-opacity="1" stroke-width="5" d=" M-3.888000011444092,-41.196998596191406 C-28.889999389648438,-33.566001892089844 -43.6870002746582,-9.442000389099121 -36.935001373291016,12.706000328063965 C-28.884000778198242,41.16999816894531 11.843000411987305,50.994998931884766 38.56800079345703,29.736000061035156"></path></g><g opacity="1" transform="matrix(1,0,0,1,446.32598876953125,467.7439880371094)"><path fill="rgb(255,255,255)" fill-opacity="1" d=" M68.85299682617188,-12.392999649047852 C75.10299682617188,22.093000411987305 49.27899932861328,55.64799880981445 11.17300033569336,62.55400085449219 C-80.99199676513672,75.77899932861328 -102.38400268554688,-42.38600158691406 -11.460000038146973,-62.332000732421875 C26.645999908447266,-69.23799896240234 62.60300064086914,-46.87900161743164 68.85299682617188,-12.392999649047852z"></path></g><g opacity="1" transform="matrix(1,0,0,1,435.82501220703125,477.302001953125)"><path stroke-linecap="round" stroke-linejoin="round" fill-opacity="0" stroke="rgb(9,93,219)" stroke-opacity="1" stroke-width="5" d=" M73.00900268554688,17.660999298095703 C7.058000087738037,106.09100341796875 -108.4749984741211,16.777999877929688 -37.375999450683594,-54.435001373291016"></path></g></g></g><g transform="matrix(-0.7307004928588867,-0.1699317842721939,-0.1699317842721939,0.7307004928588867,944.4041137695312,331.82330322265625)" opacity="1" style="display: block;"><g opacity="1" transform="matrix(1,0,0,1,0,0)"><g opacity="1" transform="matrix(1,0,0,1,1078.5279541015625,271.31298828125)"><g opacity="1" transform="matrix(1,0,0,1,0,0)"><path fill="rgb(255,255,255)" fill-opacity="1" d=" M-93.40799713134766,14.246999740600586 C-91.61799621582031,20.094999313354492 -78.76200103759766,51.999000549316406 -55.92100143432617,55.67100143432617 C-11.527999877929688,64.18800354003906 18.472000122070312,6.188000202178955 12.871999740600586,-34.332000732421875 C7.955999851226807,-58.45600128173828 -17.00200080871582,-71.50299835205078 -37.040000915527344,-70.61000061035156 C-66.15299987792969,-69.31199645996094 -74.52799987792969,-42.1879997253418 -41.70899963378906,-41.33700180053711 C-4.715000152587891,-40.37799835205078 -50.27799987792969,3.562999963760376 -62.87300109863281,-6.678999900817871 C-66.11799621582031,-9.317999839782715 -53.52799987792969,-29.812999725341797 -59.64099884033203,-42.85100173950195 C-71.83799743652344,-68.86699676513672 -107.27799987792969,-31.062000274658203 -93.40799713134766,14.246999740600586z"></path></g></g><g opacity="1" transform="matrix(1,0,0,1,1013.6370239257812,258.81500244140625)"><g opacity="1" transform="matrix(1,0,0,1,0,0)"><path stroke-linecap="round" stroke-linejoin="round" fill-opacity="0" stroke="rgb(9,93,219)" stroke-opacity="1" stroke-width="4.4" d=" M3.8499999046325684,-5.789999961853027 C2.364000082015991,-0.8690000176429749 -1.4509999752044678,3.7079999446868896 -3.4600000381469727,5.440000057220459 C-3.5999999046325684,5.559999942779541 -3.7300000190734863,5.679999828338623 -3.8499999046325684,5.789999961853027"></path></g></g><g opacity="1" transform="matrix(1,0,0,1,1078.5279541015625,271.31298828125)"><g opacity="1" transform="matrix(1,0,0,1,0,0)"><path stroke-linecap="butt" stroke-linejoin="miter" fill-opacity="0" stroke-miterlimit="4" stroke="rgb(9,93,219)" stroke-opacity="1" stroke-width="4.4" d=" M-93.40799713134766,14.246999740600586 C-91.61799621582031,20.094999313354492 -78.76200103759766,51.999000549316406 -55.92100143432617,55.67100143432617 C-11.527999877929688,64.18800354003906 18.472000122070312,6.188000202178955 12.871999740600586,-34.332000732421875 C7.955999851226807,-58.45600128173828 -17.00200080871582,-71.50299835205078 -37.040000915527344,-70.61000061035156 C-66.15299987792969,-69.31199645996094 -74.52799987792969,-42.1879997253418 -41.70899963378906,-41.33700180053711 C-4.715000152587891,-40.37799835205078 -50.27799987792969,3.562999963760376 -62.87300109863281,-6.678999900817871 C-66.11799621582031,-9.317999839782715 -53.52799987792969,-29.812999725341797 -59.64099884033203,-42.85100173950195 C-71.83799743652344,-68.86699676513672 -107.27799987792969,-31.062000274658203 -93.40799713134766,14.246999740600586z"></path></g></g></g><g opacity="1" transform="matrix(1,0,0,1,0,0)"><g opacity="1" transform="matrix(1,0,0,1,1078.5279541015625,271.31298828125)"><g opacity="1" transform="matrix(1,0,0,1,0,0)"><path fill="rgb(255,255,255)" fill-opacity="1" d=" M-17.42099952697754,18.42099952697754 C-7.255000114440918,26.666000366210938 27.256000518798828,10.137999534606934 36.731998443603516,2.2109999656677246 C66.40799713134766,-23.44700050354004 93.26399993896484,-25.548999786376953 90.25399780273438,-43.06700134277344 C88.34500122070312,-62.02000045776367 47.430999755859375,-54.70800018310547 11.996999740600586,-35.4379997253418 C-2.927999973297119,-26.191999435424805 -35.27799987792969,3.937999963760376 -17.42099952697754,18.42099952697754z"></path></g></g><g opacity="1" transform="matrix(1,0,0,1,1078.5279541015625,271.31298828125)"><g opacity="1" transform="matrix(1,0,0,1,0,0)"><path stroke-linecap="round" stroke-linejoin="round" fill-opacity="0" stroke="rgb(9,93,219)" stroke-opacity="1" stroke-width="4.4" d=" M46.470001220703125,-5.513999938964844 C72.0009994506836,-24.10300064086914 92.93000030517578,-27.493000030517578 90.25399780273438,-43.06700134277344 C88.34500122070312,-62.02000045776367 47.430999755859375,-54.70800018310547 11.996999740600586,-35.4379997253418 C5.099999904632568,-31.165000915527344 -5.517000198364258,-22.43400001525879 -13.182000160217285,-12.847000122070312"></path></g></g></g><g opacity="1" transform="matrix(1,0,0,1,0,0)"><g opacity="1" transform="matrix(1,0,0,1,1078.5279541015625,271.31298828125)"><g opacity="1" transform="matrix(1,0,0,1,0,0)"><path fill="rgb(255,255,255)" fill-opacity="1" d=" M-55.92100143432617,55.67100143432617 C-29.777999877929688,88.81300354003906 8.847999572753906,61.6879997253418 20.31800079345703,46.89400100708008 C52.5099983215332,5.375 94.14700317382812,-6.491000175476074 93.13099670410156,-25.625 C92.39700317382812,-33.15800094604492 87.22899627685547,-39.05500030517578 78.93499755859375,-39.49599838256836 C59.24700164794922,-38.70199966430664 29.891000747680664,-21.381000518798828 5.248000144958496,2.736999988555908 C-0.8299999833106995,8.682999610900879 -66.65299987792969,36.6879997253418 -55.92100143432617,55.67100143432617z"></path></g></g><g opacity="1" transform="matrix(1,0,0,1,1078.5279541015625,271.31298828125)"><g opacity="1" transform="matrix(1,0,0,1,0,0)"><path stroke-linecap="round" stroke-linejoin="round" fill-opacity="0" stroke="rgb(9,93,219)" stroke-opacity="1" stroke-width="4.4" d=" M-55.446998596191406,45.39799880981445 C-57.36000061035156,48.97999954223633 -57.73899841308594,52.45500183105469 -55.92100143432617,55.67100143432617 C-55.92100143432617,55.67100143432617 -55.92100143432617,55.67100143432617 -55.92100143432617,55.67100143432617 C-29.777999877929688,88.81300354003906 8.847999572753906,61.6879997253418 20.31800079345703,46.89400100708008 C52.5099983215332,5.375 94.14700317382812,-6.491000175476074 93.13099670410156,-25.625 C92.39700317382812,-33.15800094604492 87.22899627685547,-39.05500030517578 78.93499755859375,-39.49599838256836 C59.380001068115234,-38.707000732421875 30.288000106811523,-21.614999771118164 5.749000072479248,2.247999906539917"></path></g></g></g><g opacity="1" transform="matrix(1,0,0,1,1079.9169921875,272.89599609375)"><g opacity="1" transform="matrix(1,0,0,1,0,0)"><path stroke-linecap="round" stroke-linejoin="round" fill-opacity="0" stroke="rgb(9,93,219)" stroke-opacity="1" stroke-width="4.4" d=" M-10.083999633789062,-7.328999996185303 C-5.34499979019165,-6.2779998779296875 5.263000011444092,1.4800000190734863 10.083999633789062,7.328999996185303"></path></g></g><g opacity="1" transform="matrix(1,0,0,1,0,0)"><g opacity="1" transform="matrix(1,0,0,1,1035.0460205078125,292.3330078125)"><g opacity="1" transform="matrix(1,0,0,1,0,0)"><path stroke-linecap="round" stroke-linejoin="round" fill-opacity="0" stroke="rgb(9,93,219)" stroke-opacity="1" stroke-width="4.4" d=" M4.244999885559082,-13.625 C6.01200008392334,-3.9779999256134033 2.931999921798706,6.067999839782715 -4.729000091552734,13.625"></path></g></g><g opacity="1" transform="matrix(1,0,0,1,1042.0980224609375,296.5469970703125)"><g opacity="1" transform="matrix(1,0,0,1,0,0)"><path stroke-linecap="round" stroke-linejoin="round" fill-opacity="0" stroke="rgb(9,93,219)" stroke-opacity="1" stroke-width="4.4" d=" M-6.980000019073486,3.4630000591278076 C-3.0969998836517334,-1.9859999418258667 3.197999954223633,-3.6050000190734863 6.980000019073486,-3.453000068664551"></path></g></g></g></g><g transform="matrix(0.681161642074585,-0.033778443932533264,0.033778443932533264,0.681161642074585,-18.556690216064453,123.00387573242188)" opacity="1" style="display: block;"><g opacity="1" transform="matrix(1,0,0,1,734.7689819335938,356.2019958496094)"><path fill="rgb(255,255,255)" fill-opacity="1" d=" M41.981998443603516,-7.640999794006348 C47.928001403808594,27.496000289916992 33.90599822998047,59.444000244140625 10.663999557495117,63.715999603271484 C-46.09600067138672,70.65399932861328 -65.71099853515625,-50.60599899291992 -10.868000030517578,-63.527000427246094 C12.37399959564209,-67.79900360107422 36.0359992980957,-42.77799987792969 41.981998443603516,-7.640999794006348z"></path><path stroke-linecap="round" stroke-linejoin="round" fill-opacity="0" stroke="rgb(9,93,219)" stroke-opacity="1" stroke-width="5" d=" M41.981998443603516,-7.640999794006348 C47.928001403808594,27.496000289916992 33.90599822998047,59.444000244140625 10.663999557495117,63.715999603271484 C-46.09600067138672,70.65399932861328 -65.71099853515625,-50.60599899291992 -10.868000030517578,-63.527000427246094 C12.37399959564209,-67.79900360107422 36.0359992980957,-42.77799987792969 41.981998443603516,-7.640999794006348z"></path></g><g opacity="1" transform="matrix(1,0,0,1,737.1740112304688,269.57000732421875)"><path stroke-linecap="round" stroke-linejoin="round" fill-opacity="0" stroke="rgb(9,93,219)" stroke-opacity="1" stroke-width="5" d=" M-25.967500686645508,-11.647000312805176 C-7.571499824523926,-17.463499069213867 14.208999633789062,-8.803500175476074 23.145000457763672,6.857500076293945"></path></g></g><g transform="matrix(0.681161642074585,-0.033778443932533264,0.033778443932533264,0.681161642074585,-19.201099395751953,121.10823059082031)" opacity="1" style="display: block;"><g opacity="1" transform="matrix(1,0,0,1,734.2000122070312,353.05499267578125)"><path fill="rgb(255,255,255)" fill-opacity="1" d=" M14.032326698303223,-7.317580223083496 C23.30145263671875,-10.424243927001953 30.776535034179688,-15.863346099853516 35.4985237121582,-19.517244338989258 C44.092010498046875,-26.12603759765625 54.38734436035156,-14.105915069580078 44.23585891723633,-4.85907506942749 C18.332372665405273,19.205101013183594 -18.531919479370117,21.425880432128906 -36.11214065551758,18.551549911499023 C-48.93428421020508,16.424707412719727 -46.693294525146484,2.5886878967285156 -38.3126106262207,1.7196083068847656"></path><path stroke-linecap="round" stroke-linejoin="round" fill-opacity="0" stroke="rgb(9,93,219)" stroke-opacity="1" stroke-width="5" d=" M14.032326698303223,-7.317580223083496 C23.30145263671875,-10.424243927001953 30.776535034179688,-15.863346099853516 35.4985237121582,-19.517244338989258 C44.092010498046875,-26.12603759765625 54.38734436035156,-14.105915069580078 44.23585891723633,-4.85907506942749 C18.332372665405273,19.205101013183594 -18.531919479370117,21.425880432128906 -36.11214065551758,18.551549911499023 C-48.93428421020508,16.424707412719727 -46.693294525146484,2.5886878967285156 -38.3126106262207,1.7196083068847656"></path></g></g><g transform="matrix(0.681161642074585,-0.033778443932533264,0.033778443932533264,0.681161642074585,-18.556875228881836,123.00420379638672)" opacity="1" style="display: block;"><g opacity="1" transform="matrix(1,0,0,1,562.18701171875,318.4809875488281)"><path stroke-linecap="round" stroke-linejoin="round" fill-opacity="0" stroke="rgb(9,93,219)" stroke-opacity="1" stroke-width="5" d=" M-18.53849983215332,22.039499282836914 C-20.207500457763672,4.744500160217285 -8.06149959564209,-15.77750015258789 12.03950023651123,-20.6200008392334"></path></g><g opacity="1" transform="matrix(1,0,0,1,607.0469970703125,390.42401123046875)"><path fill="rgb(255,255,255)" fill-opacity="1" d=" M45.73899841308594,-6.366000175476074 C50.847999572753906,29.983999252319336 34.459999084472656,62.33700180053711 9.13599967956543,65.89600372314453 C-52.0890007019043,71.19499969482422 -69.65299987792969,-53.981998443603516 -9.36400032043457,-65.73999786376953 C15.958999633789062,-69.29900360107422 40.630001068115234,-42.715999603271484 45.73899841308594,-6.366000175476074z"></path><path stroke-linecap="round" stroke-linejoin="round" fill-opacity="0" stroke="rgb(9,93,219)" stroke-opacity="1" stroke-width="5" d=" M45.73899841308594,-6.366000175476074 C50.847999572753906,29.983999252319336 34.459999084472656,62.33700180053711 9.13599967956543,65.89600372314453 C-52.0890007019043,71.19499969482422 -69.65299987792969,-53.981998443603516 -9.36400032043457,-65.73999786376953 C15.958999633789062,-69.29900360107422 40.630001068115234,-42.715999603271484 45.73899841308594,-6.366000175476074z"></path></g></g><g transform="matrix(0.681161642074585,-0.033778443932533264,0.033778443932533264,0.681161642074585,-106.263427734375,144.9755096435547)" opacity="1" style="display: block;"><g opacity="1" transform="matrix(1,0,0,1,734.2000122070312,353.05499267578125)"><path fill="rgb(255,255,255)" fill-opacity="1" d=" M17.61432647705078,-1.9509894847869873 C27.07301139831543,-4.421761989593506 34.89944839477539,-9.341018676757812 39.858734130859375,-12.666092872619629 C48.880245208740234,-18.6766300201416 58.33654022216797,-5.985792636871338 47.58099365234375,2.5509355068206787 C20.104984283447266,24.801794052124023 -22.041542053222656,22.265579223632812 -39.56447219848633,18.907676696777344 C-52.34654998779297,16.443893432617188 -49.75099182128906,2.6863996982574463 -41.31101608276367,2.034868001937866"></path><path stroke-linecap="round" stroke-linejoin="round" fill-opacity="0" stroke="rgb(9,93,219)" stroke-opacity="1" stroke-width="5" d=" M17.61432647705078,-1.9509894847869873 C27.07301139831543,-4.421761989593506 34.89944839477539,-9.341018676757812 39.858734130859375,-12.666092872619629 C48.880245208740234,-18.6766300201416 58.33654022216797,-5.985792636871338 47.58099365234375,2.5509355068206787 C20.104984283447266,24.801794052124023 -22.041542053222656,22.265579223632812 -39.56447219848633,18.907676696777344 C-52.34654998779297,16.443893432617188 -49.75099182128906,2.6863996982574463 -41.31101608276367,2.034868001937866"></path></g></g><g transform="matrix(0.681161642074585,-0.033778443932533264,0.033778443932533264,0.681161642074585,-18.624141693115234,121.63145446777344)" opacity="1" style="display: block;"><g opacity="1" transform="matrix(1,0,0,1,551.6300048828125,241.89100646972656)"><path fill="rgb(163,194,242)" fill-opacity="1" d=" M11.963000297546387,51.81700134277344 C-64.8740005493164,72.20700073242188 -206.6230010986328,89.3949966430664 -170.9530029296875,42.36600112915039 C-193.13999938964844,29.325000762939453 -164.5469970703125,7.203000068664551 -129.96499633789062,-10.369000434875488 C-138.46499633789062,0.9639999866485596 -145.5469970703125,13.227999687194824 -150.9550018310547,26.194000244140625 C-145.11500549316406,27.249000549316406 100.0510025024414,-14.402999877929688 147.77000427246094,-50.94300079345703 C135.83799743652344,-59.71099853515625 122.69499969482422,-67.11499786376953 108.63300323486328,-72.95700073242188 C145.89999389648438,-74.41000366210938 180.15199279785156,-69.01599884033203 166.76499938964844,-46.85900115966797 C215.7689971923828,-25.013999938964844 104.96900177001953,28.03499984741211 11.963000297546387,51.81700134277344z"></path></g><g opacity="1" transform="matrix(1,0,0,1,401.23699951171875,256.8970031738281)"><path fill="rgb(9,93,219)" fill-opacity="1" d=" M10.831999778747559,-11.187999725341797 C6.479000091552734,-4.01200008392334 2.6530001163482666,3.4639999866485596 -0.5630000233650208,11.187999725341797 C-0.7699999809265137,11.156999588012695 -7.025000095367432,9.937000274658203 -9.145000457763672,8.996000289916992 C-16.391000747680664,6.742000102996826 1.4819999933242798,-5.076000213623047 10.831999778747559,-11.187999725341797z"></path></g><g opacity="1" transform="matrix(1,0,0,1,690.3510131835938,183.08399963378906)"><path fill="rgb(9,93,219)" fill-opacity="1" d=" M16.358999252319336,1.0809999704360962 C14.487000465393066,3.490000009536743 11.685999870300293,6.033999919891357 9.131999969482422,7.802000045776367 C9.10099983215332,7.822999954223633 9.079999923706055,7.8429999351501465 9.048999786376953,7.863999843597412 C1.0460000038146973,1.9910000562667847 -7.485000133514404,-3.2730000019073486 -16.481000900268555,-7.863999843597412 C-6.513000011444092,-7.015999794006348 18.427000045776367,-4.336999893188477 16.358999252319336,1.0809999704360962z"></path></g><g opacity="1" transform="matrix(1,0,0,1,0,0)"><g opacity="1" transform="matrix(1,0,0,1,551.7949829101562,241.86199951171875)"><path stroke-linecap="round" stroke-linejoin="round" fill-opacity="0" stroke="rgb(9,93,219)" stroke-opacity="1" stroke-width="5" d=" M-171.1179962158203,42.404998779296875 C-171.1179962158203,42.404998779296875 -171.3040008544922,42.446998596191406 -171.1179962158203,42.39400100708008 C-192.6750030517578,28.333999633789062 -163.5780029296875,7.24399995803833 -130.1300048828125,-10.34000015258789 C-138.572998046875,0.9340000152587891 -145.71299743652344,13.230999946594238 -151.12100219726562,26.222000122070312 C-143.35000610351562,26.974000930786133 88.68199920654297,-11.744999885559082 147.60499572753906,-50.91400146484375 C135.63099670410156,-59.7140007019043 122.30599975585938,-67.19400024414062 108.46700286865234,-72.9280014038086 C144.2449951171875,-73.91600036621094 180.50999450683594,-69.4469985961914 166.60000610351562,-46.83000183105469 C259.34100341796875,3.73799991607666 -228.15899658203125,133.1739959716797 -171.1179962158203,42.404998779296875z"></path></g><g opacity="1" transform="matrix(1,0,0,1,394.72900390625,265.89801025390625)"><path stroke-linecap="round" stroke-linejoin="round" fill-opacity="0" stroke="rgb(9,93,219)" stroke-opacity="1" stroke-width="5" d=" M5.3460001945495605,2.1040000915527344 C1.6150000095367432,1.559000015258789 -1.2139999866485596,0.8069999814033508 -3.950000047683716,-0.6570000052452087"></path></g><g opacity="1" transform="matrix(1,0,0,1,703.4429931640625,187.01800537109375)"><path stroke-linecap="round" stroke-linejoin="round" fill-opacity="0" stroke="rgb(9,93,219)" stroke-opacity="1" stroke-width="5" d=" M4.043000221252441,-3.928999900817871 C2.0480000972747803,-0.9929999709129333 -1.0169999599456787,1.8009999990463257 -3.9600000381469727,3.867000102996826 C-3.990999937057495,3.888000011444092 -4.01200008392334,3.9079999923706055 -4.043000221252441,3.928999900817871"></path></g><g opacity="1" transform="matrix(1,0,0,1,463.38299560546875,286.8500061035156)"><path stroke-linecap="round" stroke-linejoin="round" fill-opacity="0" stroke="rgb(9,93,219)" stroke-opacity="1" stroke-width="5" d=" M38.481998443603516,-4.198999881744385 C9.140999794006348,1.2029999494552612 -17.29400062561035,4.0269999504089355 -38.481998443603516,4.198999881744385"></path></g><g opacity="1" transform="matrix(1,0,0,1,669.8489990234375,229.35899353027344)"><path stroke-linecap="round" stroke-linejoin="round" fill-opacity="0" stroke="rgb(9,93,219)" stroke-opacity="1" stroke-width="5" d=" M11.706999778747559,-5.815000057220459 C4.669000148773193,-1.9550000429153442 -3.171999931335449,1.940000057220459 -11.706999778747559,5.815000057220459"></path></g><g opacity="1" transform="matrix(1,0,0,1,714.5770263671875,195.0489959716797)"><path stroke-linecap="round" stroke-linejoin="round" fill-opacity="0" stroke="rgb(9,93,219)" stroke-opacity="1" stroke-width="5" d=" M3.9019999504089355,-0.3479999899864197 C2.50600004196167,3.878000020980835 -2.7360000610351562,8.717000007629395 -6.855000019073486,11.336000442504883"></path></g></g></g><g transform="matrix(0.681161642074585,-0.033778443932533264,0.033778443932533264,0.681161642074585,-18.556814193725586,123.00408172607422)" opacity="1" style="display: block;"><g opacity="1" transform="matrix(1,0,0,1,582.7780151367188,487.406005859375)"><path fill="rgb(9,93,219)" fill-opacity="1" d=" M28.035398483276367,26.820079803466797 C6.036736011505127,31.62236785888672 -22.17417335510254,25.767698287963867 -27.510820388793945,6.32241678237915 C-31.747024536132812,-8.087601661682129 -20.499059677124023,-22.10469627380371 0.38075393438339233,-18.523624420166016 C29.65900993347168,-9.363653182983398 46.740108489990234,-13.654105186462402 53.66901779174805,-0.13501885533332825 C58.670047760009766,9.497115135192871 46.8553466796875,23.173582077026367 28.035398483276367,26.820079803466797z"></path><path stroke-linecap="round" stroke-linejoin="round" fill-opacity="0" stroke="rgb(9,93,219)" stroke-opacity="1" stroke-width="2" d=" M28.035398483276367,26.820079803466797 C6.036736011505127,31.62236785888672 -22.17417335510254,25.767698287963867 -27.510820388793945,6.32241678237915 C-31.747024536132812,-8.087601661682129 -20.499059677124023,-22.10469627380371 0.38075393438339233,-18.523624420166016 C29.65900993347168,-9.363653182983398 46.740108489990234,-13.654105186462402 53.66901779174805,-0.13501885533332825 C58.670047760009766,9.497115135192871 46.8553466796875,23.173582077026367 28.035398483276367,26.820079803466797z"></path></g></g><g mask="url(#__lottie_element_13_1)" style="display: block;"><g transform="matrix(1.0884987115859985,-0.158621683716774,0.158621683716774,1.0884987115859985,-91.03498840332031,4.910219192504883)" opacity="1"><g opacity="1" transform="matrix(0.6200000047683716,0,0,0.6200000047683716,24.220855712890625,149.102294921875)"><g opacity="1" transform="matrix(1,0,0,1,562.7260131835938,500.2139892578125)"><path fill="rgb(163,194,242)" fill-opacity="1" d=" M33.54199981689453,16.733999252319336 C29.457000732421875,45.387001037597656 -50.78499984741211,25.02400016784668 -33.62200164794922,-9.09000015258789 C-29.149999618530273,-17.191999435424805 -0.3880000114440918,-24.17099952697754 9.079999923706055,-5.13700008392334 C21.07900047302246,-10.166999816894531 34.792999267578125,3.1689999103546143 33.54199981689453,16.733999252319336z"></path></g></g></g></g><g transform="matrix(0.681161642074585,-0.033778443932533264,0.033778443932533264,0.681161642074585,-18.556814193725586,123.00408172607422)" opacity="1" style="display: block;"><g opacity="1" transform="matrix(1,0,0,1,582.7780151367188,487.406005859375)"><path stroke-linecap="round" stroke-linejoin="round" fill-opacity="0" stroke="rgb(9,93,219)" stroke-opacity="1" stroke-width="5" d=" M28.035398483276367,26.820079803466797 C6.036736011505127,31.62236785888672 -22.17417335510254,25.767698287963867 -27.510820388793945,6.32241678237915 C-31.747024536132812,-8.087601661682129 -20.499059677124023,-22.10469627380371 0.38075393438339233,-18.523624420166016 C29.65900993347168,-9.363653182983398 46.740108489990234,-13.654105186462402 53.66901779174805,-0.13501885533332825 C58.670047760009766,9.497115135192871 46.8553466796875,23.173582077026367 28.035398483276367,26.820079803466797z"></path></g></g></g></svg>