<?xml version="1.0" encoding="UTF-8"?>
<svg xmlns="http://www.w3.org/2000/svg" version="1.1" viewBox="0 0 707.4 512">
  <!-- Generator: Adobe Illustrator 28.6.0, SVG Export Plug-In . SVG Version: 1.2.0 Build 709)  -->
  <g>
    <g id="icon">
      <g>
        <g>
          <path d="M62.3,412.1s86.4,32.2,97.5,32.6l103.8-19s1.8-27.6,0-40.7l-9.3-5.4,10.1-5s.8-57.6,0-74.2l-11.2-5.4,11.5-2.5v-55.5s-101.2-17.7-101.2-17.7l-103.7,16.1v47.6s13.6,4.4,13.6,4.4l-13.6,3.5,1.8,75.9,10,4.5-9.3,5v35.7Z" fill="#efefef"/>
          <path d="M165.1,308.8c0,0-.2,0-.3,0-.7-.2-73.9-16.3-91.7-19.8-.7-.1-1.2-.9-1.1-1.6.1-.7.9-1.2,1.6-1.1,17.3,3.4,86.8,18.8,91.5,19.8,31.8-4.9,87.4-12.2,87.9-12.3.7-.1,1.4.4,1.5,1.2s-.4,1.4-1.2,1.5c-.6,0-56.4,7.4-88.1,12.3,0,0-.1,0-.2,0Z" fill="#20273f"/>
          <path d="M156.3,258.3c0,0-.2,0-.2,0-.6-.1-63.9-11.8-77.3-14.2-.7-.1-1.2-.8-1.1-1.6.1-.7.8-1.2,1.6-1.1,13.5,2.4,76.7,14.1,77.3,14.2.7.1,1.2.8,1.1,1.6-.1.6-.7,1.1-1.3,1.1Z" fill="#20273f"/>
          <path d="M156.3,279.5c0,0-.2,0-.2,0-.6-.1-63.9-11.8-77.3-14.2-.7-.1-1.2-.8-1.1-1.6.1-.7.8-1.2,1.6-1.1,13.5,2.4,76.7,14.1,77.3,14.2.7.1,1.2.8,1.1,1.6-.1.6-.7,1.1-1.3,1.1Z" fill="#20273f"/>
          <path d="M129.5,329.3c-.1,0-.2,0-.3,0-.4-.1-42-10.3-58.7-13.8-.7-.2-1.2-.9-1-1.6.2-.7.9-1.2,1.6-1,16.8,3.6,58.4,13.8,58.8,13.9.7.2,1.2.9,1,1.6-.1.6-.7,1-1.3,1Z" fill="#20273f"/>
          <path d="M180.9,256.2c-.6,0-1.2-.4-1.3-1.1-.2-.7.3-1.4,1-1.6,17.2-3.6,69-12,69.5-12.1.7-.1,1.4.4,1.5,1.1.1.7-.4,1.4-1.1,1.5-.5,0-52.2,8.5-69.4,12.1,0,0-.2,0-.3,0Z" fill="#20273f"/>
          <path d="M185,279c-.7,0-1.2-.5-1.3-1.1-.1-.7.4-1.4,1.1-1.5,13.2-2,60.8-10,61.2-10.1.7-.1,1.4.4,1.5,1.1.1.7-.4,1.4-1.1,1.5-.5,0-48.1,8.1-61.3,10.1,0,0-.1,0-.2,0Z" fill="#20273f"/>
          <path d="M166,334.4c-.7,0-1.2-.5-1.3-1.1-.1-.7.4-1.4,1.1-1.5,13.2-2,60.8-10,61.2-10.1.7-.1,1.4.4,1.5,1.1.1.7-.4,1.4-1.1,1.5-.5,0-48.1,8.1-61.3,10.1,0,0-.1,0-.2,0Z" fill="#20273f"/>
          <path d="M160.8,393.5c-.1,0-.2,0-.3,0l-89.2-20.7c-.7-.2-1.2-.9-1-1.6s.9-1.2,1.6-1l89,20.7,93.2-12.4c.7-.1,1.4.4,1.5,1.2,0,.7-.4,1.4-1.2,1.5l-93.5,12.5c0,0-.1,0-.2,0Z" fill="#20273f"/>
          <path d="M160.8,362.9c-.1,0-.2,0-.3,0l-90.1-22.1c-.7-.2-1.2-.9-1-1.6.2-.7.9-1.2,1.6-1l89.9,22,47.8-7.6c.7-.1,1.4.4,1.5,1.1.1.7-.4,1.4-1.1,1.5l-48.1,7.6c0,0-.1,0-.2,0Z" fill="#20273f"/>
          <path d="M208.1,412.8c-.6,0-1.2-.5-1.3-1.1-.1-.7.4-1.4,1.1-1.6l38.4-6.7c.7-.1,1.4.4,1.6,1.1.1.7-.4,1.4-1.1,1.6l-38.4,6.7c0,0-.2,0-.2,0Z" fill="#20273f"/>
          <path d="M227.2,352.3c-.6,0-1.2-.5-1.3-1.1-.1-.7.4-1.4,1.1-1.6l19.2-3.3c.7-.1,1.4.4,1.6,1.1.1.7-.4,1.4-1.1,1.6l-19.2,3.3c0,0-.2,0-.2,0Z" fill="#20273f"/>
          <path d="M160.8,418.5c-.1,0-.2,0-.4,0l-85.9-24.2c-.7-.2-1.1-.9-.9-1.7s.9-1.1,1.7-.9l85.7,24.2,19.6-2.8c.7,0,1.4.4,1.5,1.1.1.7-.4,1.4-1.1,1.5l-19.9,2.8c0,0-.1,0-.2,0Z" fill="#20273f"/>
          <path d="M159.8,446s0,0,0,0c-11.2-.4-94.4-31.3-98-32.7-.5-.2-.9-.7-.9-1.3v-35.7c0-.5.3-.9.7-1.2l6.9-3.7-7.5-3.4c-.5-.2-.8-.7-.8-1.2l-1.8-75.9c0-.6.4-1.2,1-1.3l9.1-2.3-9.2-2.9c-.6-.2-.9-.7-.9-1.3v-47.6c0-.7.5-1.2,1.1-1.3l103.7-16.1c.1,0,.3,0,.4,0l101.2,17.7c.6.1,1.1.7,1.1,1.3v55.5c0,.6-.4,1.2-1.1,1.3l-7.7,1.7,7.7,3.7c.4.2.7.7.8,1.1.8,16.4,0,73.7,0,74.2,0,.5-.3,1-.7,1.2l-7.9,3.9,7.1,4.1c.4.2.6.6.7,1,1.8,13,0,39.8,0,40.9,0,.6-.5,1.1-1.1,1.2l-103.8,19c0,0-.2,0-.2,0ZM63.6,411.2c9.1,3.4,85.4,31.6,96.1,32.2l102.6-18.8c.3-5.1,1.5-27.2,0-38.7l-8.7-5c-.4-.2-.7-.7-.7-1.2,0-.5.3-.9.7-1.2l9.4-4.6c0-7,.7-56.3,0-72.5l-10.5-5c-.5-.2-.8-.8-.8-1.4,0-.6.5-1,1-1.2l10.5-2.3v-53.3l-99.9-17.4-102.4,15.9v45.5l12.7,4.1c.6.2.9.7.9,1.3,0,.6-.4,1.1-1,1.3l-12.6,3.2,1.7,74,9.3,4.1c.5.2.8.7.8,1.2s-.3,1-.7,1.2l-8.6,4.6v34Z" fill="#20273f"/>
        </g>
        <path d="M300.6,463.5s44.5,39.4,112.4,19.1c62.5-18.7,37.5-120.9,37.5-120.9h-141.6s-8.3,101.8-8.3,101.8Z" fill="#20273f"/>
        <g>
          <path d="M296.2,155.9c3.9,6.4,5.5,12.2,4.2,19.6-2,11.3-58,61.6-67.9,70.5-17.1,15.3-31.5,31.7-44.3,25.9-52.9-23.7-.2-84.9,61.3-119,23.9-13.3,37.3-12.5,46.7,3Z" fill="#e0a879"/>
          <g>
            <path d="M330.8,125.6s-89.1,12.2-94.3,52.6c-4.9,38,23.5,51.9,34.2,75.4,8.3,18.3,21.4,88.5,19.2,108.1,0,0,47.9,11.4,92.1,11.1,51.3-.3,68.6-11.1,68.6-11.1l24.7-127.9c11.6-20,17.6-42.4,11.4-68.1-7.4-30.4-34.7-38.9-48.7-40.2-51.7-4.7-107.1,0-107.1,0Z" fill="#a77659"/>
            <path d="M320.5,142.4s4.6,16.5,4.9,24.9c0,0,14.1,10.4,42.1,1.5,28-8.9,27.5-22.4,27.5-22.4,0,0-5.3-24-7.5-37.4l-67.1,33.4Z" fill="#e0a879"/>
            <path d="M188.1,192.9s9.2,30.8,43.6,56.5c0,0,49.3-38.6,59.6-63.7,13.9-34-.4-40.1-4.8-49.4,0,0-48.8,10.5-98.4,56.5Z" fill="#a77659"/>
            <path d="M399.9,69.7c-.1,0-.2,0-.4,0-.7-.2-1.1-.9-.9-1.7,7.8-27.7-13.8-36.1-14.7-36.5-.7-.3-1-1-.8-1.7.3-.7,1-1,1.7-.8.2,0,24.8,9.6,16.3,39.7-.2.6-.7,1-1.3,1Z" fill="#20273f"/>
            <g>
              <path d="M310.8,22h0c29.6-8,60.1,9.5,68.1,39.2l8.6,31.9c3.9,48.2-17.8,62.4-39.2,68.1h0c-30.3,8.2-57.4-10.3-65.4-39.9l-8.6-31.9c-8-29.6,6.8-59.4,36.4-67.4Z" fill="#e0a879"/>
              <ellipse cx="298.3" cy="105.6" rx="3.8" ry="4.2" transform="translate(-17.2 81.4) rotate(-15.1)" fill="#20273f"/>
              <ellipse cx="336.4" cy="94" rx="3.8" ry="4.2" transform="translate(-12.9 90.9) rotate(-15.1)" fill="#20273f"/>
              <path d="M316.7,114.1c-.6,0-1.1-.4-1.3-1-.4-1.6-.4-5,2.9-6.2,3.5-1.4,6.2,1.9,6.4,2,.5.6.4,1.4-.2,1.9-.6.5-1.4.4-1.9-.2,0,0-1.7-1.9-3.3-1.2-1.8.7-1.3,2.7-1.2,3,.2.7-.2,1.4-.9,1.6-.1,0-.2,0-.4,0Z" fill="#20273f"/>
              <path d="M315.7,130.4c-.1,0-.3,0-.4,0-.7-.2-1.1-1-.9-1.7,0-.1,1-3.1,4.4-5.5,3-2.2,8.5-4.3,18-2.3.7.2,1.2.9,1,1.6-.2.7-.9,1.2-1.6,1-16-3.4-19.2,5.7-19.3,6-.2.6-.7.9-1.3.9Z" fill="#20273f"/>
              <path d="M359.4,42.1s-7,38.3,20.2,38.6c0,0,8.6.1,13.9-7.4,5.3-7.5,9.8-30.7-7.4-43.7l-26.7,12.5Z" fill="#20273f"/>
              <path d="M386.4,30.8s-5.6-22.1-31.4-29.1c-7.2-1.9-14.7-2.2-22-1.1-16.1,2.4-53.6,10.4-68.5,34.1-3.1,4.9-4.8,10.6-5,16.4-.3,6.6-2.6,18.1-16,13.8,0,0-6.3,15.6,9.9,19.7,9.2,2.3,19-.6,25.6-7.5,2.2-2.3,4.5-5.3,6.7-9,5.1-8.6,15.2-13.3,24.8-10.7,2.1.6,4.4,1.5,6.6,2.8,0,0,30.5,18.8,69.3-29.3Z" fill="#20273f"/>
              <path d="M382.5,70.5c4.4-2.1,16.8-1.8,19.6,13.8,2.8,15.6-17,19.4-17,19.4l-12.4-24.2c3-4,5.4-6.9,9.8-9Z" fill="#e0a879"/>
            </g>
            <path d="M257.7,72.6c-.8,0-1.7,0-2.5-.3-.7-.2-1.2-.9-1-1.6.2-.7.9-1.2,1.6-1,3.2.7,6.6-.3,9.4-2.8,3.7-3.2,5.7-8.4,5.3-13.4-.7-9.1,6.6-12.6,10.7-13.2.7-.1,1.4.4,1.5,1.1.1.7-.4,1.4-1.1,1.5-.4,0-9.1,1.5-8.4,10.4.5,5.8-1.9,11.8-6.2,15.6-2.7,2.4-6,3.7-9.2,3.7Z" fill="#efefef"/>
            <path d="M283.4,55.5c-.2,0-.4,0-.5-.1-.7-.3-1-1.1-.7-1.8.1-.3,3.7-8.4,13.9-8.4s.2,0,.3,0c.7,0,1.3.6,1.3,1.4,0,.7-.6,1.3-1.3,1.3h0c0,0-.2,0-.3,0-8.4,0-11.3,6.5-11.4,6.8-.2.5-.7.8-1.2.8Z" fill="#efefef"/>
            <path d="M257.3,91.9c-2.2,0-4.6-.3-7.1-1.1-.7-.2-1.1-1-.9-1.7.2-.7,1-1.1,1.7-.9,7.6,2.4,14.5.6,20.6-5.5,4.7-4.6,7.1-10.1,7.1-10.1.3-.7,1.1-1,1.8-.7.7.3,1,1.1.7,1.8,0,.2-8.1,18.2-24,18.2Z" fill="#20273f"/>
            <path d="M335.8,164.9c-3.6,0-5.8-.4-5.9-.4-.7-.1-1.2-.8-1.1-1.5.1-.7.8-1.2,1.5-1.1.3,0,28.9,4.5,46.4-20.2.4-.6,1.3-.7,1.9-.3s.7,1.3.3,1.9c-13.5,19-33.3,21.6-43.1,21.6Z" fill="#20273f"/>
          </g>
          <path d="M262.6,222.2c0,0-.2,0-.3,0-.7-.1-1.2-.9-1-1.6.2-1.2,6-28.4,16.6-40.8.5-.6,1.3-.6,1.9-.1.6.5.6,1.3.1,1.9-10.2,11.8-15.9,39.3-16,39.5-.1.6-.7,1.1-1.3,1.1Z" fill="#20273f"/>
        </g>
        <path d="M378.7,264.7s23.1,27.8,81.6-24c0,0-9.5-49.5-47.7-61.3l-43.8,29.9s-22.5,24.5,9.9,55.4Z" fill="#e0a879"/>
        <path d="M353.9,210.4s5.4,58.7,35.8,56.6c14.4-1,32.9-21.9,22.1-65.5-8.3-33.8-25.1-131-35-137-10-6-25.7-10.9-30.7,20.8-1.7,10.7,4.7,103.2,7.8,125.1Z" fill="#e0a879"/>
        <g>
          <path d="M382.1,68.1c-2.4-9.5-4.8-18.1-10.3-26.5-9.9-14.9-27.9-20.5-29.9-20.4-9.3.6,19.6,22.3,19.6,22.3,0,0-17.5-11.6-22.2-13.2-4.7-1.6-13.1-2.3-11.5,1.6,1.6,3.9,17.1,10.5,23.1,17.1,0,0-30.8-20.9-29.1-7.6,0,0-8.2,1.6-.6,8.2,7.6,6.6,17.4,14.4,19,15.3,0,0,3.4,22,13.5,45.3,5.2,12.1,46.4,27.4,28.6-42Z" fill="#e0a879"/>
          <path d="M345.7,59c-.3,0-.7-.1-.9-.4-10-9.5-22-15.2-22.2-15.3-.7-.3-1-1.1-.6-1.8.3-.7,1.1-1,1.8-.6.5.2,12.6,6,22.9,15.8.5.5.6,1.4,0,1.9-.3.3-.6.4-1,.4Z" fill="#20273f"/>
        </g>
        <path d="M350.2,172.5c-.7,0-1.3-.5-1.3-1.2,0-.6-4.3-55.7-3.8-80.8-.5-1.6-3.6-12.3-6.2-25.4-.1-.7.3-1.4,1.1-1.6.7-.1,1.4.3,1.6,1.1,2.8,14,6.2,25.2,6.2,25.4,0,.1,0,.3,0,.4-.5,24.9,3.8,80.2,3.8,80.7,0,.7-.5,1.4-1.2,1.4,0,0,0,0-.1,0Z" fill="#20273f"/>
        <path d="M414.8,221c-.7,0-1.3-.6-1.3-1.3-1.1-18-6.5-33.8-6.6-34-.2-.7.1-1.5.8-1.7.7-.2,1.5.1,1.7.8,0,.2,5.6,16.3,6.7,34.7,0,.7-.5,1.4-1.3,1.4,0,0,0,0,0,0Z" fill="#20273f"/>
        <path d="M198.1,366s29.4,105.4,91.2,118.8c61.8,13.4,82.3-42.9,64.8-84.8-17.5-41.9-86.3-157.8-127-167-40.7-9.2-52,48.6-29,133Z" fill="#20273f"/>
        <path d="M163,322.8s-5.5,83.4-8.7,137.8c0,0,22.7,19.4,41.6,16.5,0,0,23.8-68,39.8-137.1,16-69.1-63.5-72-72.7-17.2Z" fill="#e0a879"/>
        <path d="M156.6,392.8s1.2-99.7,21.5-136.6c8.4-15.2,24.4-25,41.7-24.3,14.9.6,30.8,8.6,34.8,38.3,6.4,47.5-35.4,140.2-35.4,140.2,0,0-32,1.6-62.6-17.5Z" fill="#20273f"/>
        <path d="M155.8,435s-3.9,24.6-22.7,30.4c-18.5,5.8-71.8,8.7-59.4,28.5,10,16.1,51,5,83.8,6.9,32.7,1.9,41.9,6.1,52.3-7.7,10.4-13.8-6.8-28.3-3-52.3l-51-5.9Z" fill="#e0a879"/>
        <path d="M221.3,407.1c-.2,0-.4,0-.5-.1-.7-.3-1-1.1-.7-1.8.3-.6,28.2-64.4,33.9-112.6,0-.7.8-1.3,1.5-1.2.7,0,1.3.8,1.2,1.5-5.7,48.6-33.8,112.7-34.1,113.4-.2.5-.7.8-1.2.8Z" fill="#efefef"/>
        <path d="M318.7,334.1s-29.8,94.2,16.9,135.6c46.7,41.4,91.3,4.2,96.4-39.4,5.1-43.7,1.6-174.2-29-201.8-30.6-27.6-63.5,23.7-84.2,105.7Z" fill="#20273f"/>
        <path d="M227.6,277.1s-58.9,1.3-60.3-29.1c-.6-14.4,11.6-35,56.4-35,41.5,0,116.1,9.8,123.1,19.1,7.1,9.2,11.1,29.7-19.9,38.3-10.4,2.9-77.3,7.4-99.4,6.8Z" fill="#e0a879"/>
        <path d="M324.9,331.4s-10.6,82.9-17,137.1c0,0,21.5,20.7,40.5,19,0,0,27.9-66.5,48-134.5,20.2-68-59-75.8-71.5-21.6Z" fill="#e0a879"/>
        <path d="M311,401.9s8.2-111.2,28.6-148.1c8.4-15.2,26.3-33.4,43.6-32.7,14.9.6,28.9,17,32.9,46.7,6.4,47.5-36.9,153.1-36.9,153.1,0,0-37.5,0-68.2-19Z" fill="#20273f"/>
        <path d="M311.3,444s-3.9,24.6-22.7,30.4c-18.5,5.8-71.8,8.7-59.4,28.5,10,16.1,51,5,83.8,6.9,32.7,1.9,41.9,6.1,52.3-7.7,10.4-13.8-6.8-28.3-3-52.3l-51-5.9Z" fill="#e0a879"/>
        <g>
          <path d="M349.3,228.1c9.7-1.5,18.5-2.8,28.4-1,17.6,3.2,29.9,17.5,30.6,19.4,3.1,8.8-28.2-9.2-28.2-9.2,0,0,17.6,11.5,20.9,15.2,3.3,3.7,7.3,11.1,3.1,11.2-4.2,0-16.4-11.5-24.9-14.5,0,0,31.4,20,18.5,23.7,0,0,1.8,8.2-7.3,3.8s-20.1-10.3-21.5-11.4c0,0-21.6,5.6-46.9,5.6-13.2,0-43.6-31.8,27.3-42.9Z" fill="#e0a879"/>
          <path d="M396.5,273.2c-.3,0-.6-.1-.9-.3,0,0-10.1-8.9-22.8-14.3-.7-.3-1-1.1-.7-1.8.3-.7,1.1-1,1.8-.7,13.1,5.6,23.1,14.4,23.5,14.7.6.5.6,1.3.1,1.9-.3.3-.6.5-1,.5Z" fill="#20273f"/>
        </g>
        <path d="M169,76.3s3.6,38.8,37.5,62.7c0,0-61-5.2-88.2,15.6,0,0-38.1-54.9-39.8-90,0,0,30.5-7,90.5,11.7Z" fill="#efefef"/>
        <path d="M608.2,144.2s48.5,26.2,73.3,80.3c0,0-59,20.1-100.7,11.8,0,0-12.7-23-52-42.9,0,0,64.4-23.6,79.4-49.2Z" fill="#efefef"/>
        <g>
          <path d="M54.1,433.3s14.3,6.9,11.7,21.6-18.1,27.5-24.2,28c-6.1.5-26.7,4.6-30.5-7.6-3.8-12.2-17.8-11.2-3.3-24.4,14.5-13.2,7.6-16.5,20.4-17.6,7.1-.6,11.5,4.6,11.5,4.6,0,0,7.6-7.6,14.5-4.6Z" fill="#efefef"/>
          <path d="M30.1,472.8c-3.3,0-7.3-3.6-8.8-6.5-1.7-3.2-.3-4.8.4-5.4,3.1-2.5,8.4-5.2,8.6-5.3.7-.3,1.5,0,1.8.6s0,1.5-.6,1.8c0,0-5.3,2.6-8.2,5-.5.4,0,1.7.3,2,1.5,2.8,5.2,5.5,6.9,5,2.4-.7,7.5-6.9,13-15.7,2.5-3.9-2.8-12.7-5-15.7-.4-.6-.3-1.4.3-1.9.6-.4,1.4-.3,1.9.3,0,.1,2.2,3.1,4,6.7,2.5,5.2,2.9,9.3,1.2,12-3.6,5.7-10.3,15.5-14.5,16.8-.4.1-.8.2-1.2.2Z" fill="#20273f"/>
          <path d="M16.7,451.3c-.6,0-1.2-.4-1.3-1.1-.1-.7.3-1.4,1-1.6h0s5-1.1,9.8-5c.6-.5,1.4-.4,1.9.2.5.6.4,1.4-.2,1.9-5.4,4.3-10.7,5.5-11,5.5,0,0-.2,0-.3,0Z" fill="#20273f"/>
          <path d="M28.6,485.3c-7.8,0-16.3-1.8-18.8-9.6-1.3-4-3.7-6.5-5.8-8.7-2.1-2.1-4.1-4.1-4-7,0-2.8,2.2-5.9,6.9-10.2,6-5.5,8.2-9.1,9.8-11.7,2.5-4.1,3.7-5.5,11.4-6.2,5.7-.5,9.8,2.5,11.6,4.1,2.4-2.1,8.9-6.7,15-4,0,0,0,0,0,0,.2,0,15.1,7.5,12.4,23.1-2.6,15-18.4,28.5-25.4,29.1-.7,0-1.6.2-2.6.3-2.8.3-6.6.8-10.6.8ZM29.2,434.6c-.3,0-.6,0-1,0-6.7.5-7.3,1.5-9.3,4.9-1.6,2.6-4,6.6-10.3,12.3-4,3.6-5.9,6.3-6,8.3,0,1.7,1.3,3.1,3.2,5,2.2,2.3,5,5.1,6.5,9.7,3.1,9.8,18.9,7.9,26.5,7,1.1-.1,2-.2,2.7-.3,5.4-.4,20.5-12.5,23-26.9,2.3-13.4-10.2-19.8-11-20.2-5.9-2.6-12.9,4.2-13,4.3-.3.3-.6.4-1,.4-.4,0-.7-.2-1-.5,0,0-3.7-4.2-9.4-4.2Z" fill="#20273f"/>
        </g>
        <g>
          <path d="M437.5,449s-15,5.1-14.3,20c.7,15,14.5,29.5,20.5,30.8,6,1.3,26,7.9,31.3-3.8,5.3-11.7,19.1-8.9,6.3-23.8-12.8-14.9-5.5-17.3-18-19.9-6.9-1.4-11.9,3.1-11.9,3.1,0,0-6.6-8.5-13.8-6.3Z" fill="#efefef"/>
          <path d="M457.1,491.2c-.6,0-1.2-.1-1.8-.4-4.1-1.8-9.5-12.3-12.3-18.5-1.4-2.9-.5-6.8,2.6-11.7,2.2-3.4,4.7-6.1,4.8-6.2.5-.5,1.4-.6,1.9,0,.5.5.6,1.4,0,1.9-2.6,2.7-8.9,10.8-6.9,15,4.4,9.4,8.7,16.1,11,17.1,1.6.7,5.6-1.5,7.5-4.1.2-.3,1-1.5.5-2-2.6-2.7-7.4-5.9-7.5-6-.6-.4-.8-1.2-.4-1.9s1.2-.8,1.9-.4c.2.1,5.1,3.4,7.9,6.3.6.6,1.8,2.4-.3,5.4-1.8,2.5-5.7,5.4-8.9,5.4Z" fill="#20273f"/>
          <path d="M473.8,473c-.2,0-.4,0-.6-.1-.3-.1-7-3.3-11.4-8.2-.5-.6-.4-1.4.1-1.9s1.4-.4,1.9.1c4,4.5,10.5,7.6,10.5,7.6.7.3,1,1.1.6,1.8-.2.5-.7.8-1.2.8Z" fill="#20273f"/>
          <path d="M461.5,504.2c-5.7,0-11.6-1.5-15.6-2.4-1-.2-1.8-.5-2.5-.6-6.9-1.4-20.9-16.8-21.6-32-.7-15.8,15-21.3,15.2-21.4,0,0,0,0,0,0,6.5-2,12.3,3.4,14.4,5.8,2-1.4,6.4-3.8,12-2.6,7.5,1.6,8.6,3.2,10.5,7.5,1.3,2.8,3,6.7,8.2,12.9,4.1,4.8,5.8,8.2,5.6,11-.3,2.8-2.5,4.6-4.8,6.4-2.4,1.9-5.1,4.1-6.8,7.9-2.7,5.9-8.5,7.6-14.7,7.6ZM437.9,450.3c-.8.3-14,5.1-13.4,18.7.7,14.6,14.2,28.4,19.5,29.5.7.1,1.6.4,2.6.6,7.4,1.8,22.9,5.6,27.1-3.7,2-4.4,5.1-6.9,7.6-8.9,2.1-1.7,3.7-2.9,3.8-4.6.2-1.9-1.4-4.9-4.9-9-5.5-6.5-7.4-10.7-8.7-13.5-1.6-3.6-2.1-4.6-8.6-6-6.1-1.3-10.7,2.8-10.8,2.8-.3.2-.6.4-1,.3-.4,0-.7-.2-.9-.5,0,0-6.1-7.7-12.4-5.9Z" fill="#20273f"/>
        </g>
        <path d="M311,403.2s0,0,0,0c-.7,0-1.3-.7-1.2-1.4,2.1-31,6.7-62.3,6.8-62.6.1-.7.8-1.2,1.5-1.1.7.1,1.2.8,1.1,1.5,0,.3-4.7,31.6-6.7,62.4,0,.7-.6,1.3-1.3,1.3Z" fill="#efefef"/>
        <path d="M378,418.9c-.2,0-.5,0-.7-.2-.6-.4-.8-1.2-.4-1.8.2-.4,22.8-37.8,30.3-93.1,0-.7.8-1.2,1.5-1.1.7,0,1.2.8,1.1,1.5-7.6,55.9-30.4,93.8-30.6,94.1-.3.4-.7.6-1.1.6Z" fill="#efefef"/>
        <path d="M358.3,290.3s62.3-5.8,112.2,55.1l-32.4,72.2s-35.7-46.9-112.2-46.9l32.4-80.4Z" fill="#efefef"/>
        <path d="M388.8,101.6c-.6,0-1.2-.4-1.3-1,0-.2-3.9-17-5.3-33.6,0-.7.5-1.4,1.2-1.5.7,0,1.4.5,1.5,1.2,1.4,16.4,5.2,33.1,5.2,33.2.2.7-.3,1.4-1,1.6-.1,0-.2,0-.3,0Z" fill="#20273f"/>
        <path d="M181.8,224c-.4,0-.9-.2-1.1-.6-.4-.6-.2-1.5.4-1.9,9.2-6.1,16.8-7.1,17.1-7.1.7,0,1.4.4,1.5,1.2,0,.7-.4,1.4-1.2,1.5-.1,0-7.3,1-15.9,6.7-.2.1-.5.2-.7.2Z" fill="#20273f"/>
        <path d="M603.1,239.7c-7.8,0-15.4-.6-22.5-2-.4,0-.7-.3-.9-.7,0,0-3.2-5.8-11.1-13.8-7.3-7.4-20.2-18.4-40.3-28.6-.5-.2-.8-.7-.7-1.3,0-.5.4-1,.9-1.2.6-.2,64.1-23.7,78.7-48.6.4-.6,1.2-.8,1.8-.5.5.3,49.2,27,73.9,80.9.2.3.2.7,0,1.1-.1.3-.4.6-.8.7-.5.2-41.2,13.9-78.9,13.9ZM581.6,235.1c37.3,7.1,88.8-8.5,98-11.5-22.4-47.7-63.7-73.4-71-77.7-6.8,10.5-22,21.8-45.2,33.6-13.4,6.8-26,11.9-31.4,14,34.4,18.1,47.4,37.9,49.6,41.5Z" fill="#20273f"/>
        <path d="M118.2,156c0,0-.1,0-.2,0-.4,0-.7-.3-.9-.6-1.6-2.3-38.3-55.6-40-90.7,0-.6.4-1.2,1-1.4,1.3-.3,31.5-6.9,91.2,11.7.5.2.9.6.9,1.2,0,.4,3.9,38.5,36.9,61.7.5.3.7,1,.5,1.6-.2.6-.8.9-1.4.9-.6,0-60.8-4.9-87.3,15.4-.2.2-.5.3-.8.3ZM79.9,65.8c1,14.1,8,33.5,20.3,56.4,8,14.9,15.9,26.9,18.4,30.6,11.6-8.3,29.7-13.4,53.9-15.1,12.5-.9,23.6-.6,29.6-.3-28-22-33.5-54.3-34.3-60.1-52.1-16.1-81.9-12.6-87.9-11.6Z" fill="#20273f"/>
        <path d="M438.1,418.9c-.4,0-.8-.2-1.1-.5,0-.1-9.1-11.7-27.2-23.2-16.7-10.6-44.8-23.2-84-23.2s-.9-.2-1.1-.6c-.2-.4-.3-.8-.1-1.3l32.4-80.4c.2-.5.6-.8,1.1-.8.6,0,16.1-1.4,37.9,4.7,20.1,5.7,49.5,19.1,75.5,50.9.3.4.4.9.2,1.4l-32.4,72.2c-.2.4-.6.7-1.1.8,0,0-.1,0-.2,0ZM327.9,369.4c38.8.4,66.8,13,83.5,23.7,14.5,9.2,23.2,18.4,26.3,22.1l31.2-69.5c-25.4-30.7-54-43.8-73.5-49.3-18.6-5.3-32.8-4.9-36.2-4.7l-31.4,77.8Z" fill="#20273f"/>
        <g>
          <path d="M503.5,465.5s86.4,32.2,97.5,32.6l103.8-19s1.8-27.6,0-40.7l-9.3-5.4,10.1-5s.8-57.6,0-74.2l-11.2-5.4,11.5-2.5v-55.5s-101.2-17.7-101.2-17.7l-103.7,16.1v47.6s13.6,4.4,13.6,4.4l-13.6,3.5,1.8,75.9,10,4.5-9.3,5v35.7Z" fill="#efefef"/>
          <path d="M606.4,362.1c0,0-.2,0-.3,0-.7-.2-73.9-16.3-91.7-19.8-.7-.1-1.2-.9-1.1-1.6.1-.7.9-1.2,1.6-1.1,17.3,3.4,86.8,18.8,91.5,19.8,31.7-4.9,87.4-12.2,87.9-12.3.7-.1,1.4.4,1.5,1.2s-.4,1.4-1.2,1.5c-.6,0-56.4,7.4-88.1,12.3,0,0-.1,0-.2,0Z" fill="#20273f"/>
          <path d="M597.6,311.6c0,0-.2,0-.2,0-.6-.1-63.9-11.8-77.3-14.2-.7-.1-1.2-.8-1.1-1.6.1-.7.8-1.2,1.6-1.1,13.5,2.4,76.7,14.1,77.3,14.2.7.1,1.2.8,1.1,1.6-.1.6-.7,1.1-1.3,1.1Z" fill="#20273f"/>
          <path d="M597.6,332.9c0,0-.2,0-.2,0-.6-.1-63.9-11.8-77.3-14.2-.7-.1-1.2-.8-1.1-1.6.1-.7.8-1.2,1.6-1.1,13.5,2.4,76.7,14.1,77.3,14.2.7.1,1.2.8,1.1,1.6-.1.6-.7,1.1-1.3,1.1Z" fill="#20273f"/>
          <path d="M570.7,382.7c-.1,0-.2,0-.3,0-.4-.1-42-10.3-58.7-13.8-.7-.2-1.2-.9-1-1.6.2-.7.9-1.2,1.6-1,16.8,3.6,58.4,13.8,58.8,13.9.7.2,1.2.9,1,1.6-.1.6-.7,1-1.3,1Z" fill="#20273f"/>
          <path d="M622.1,309.6c-.6,0-1.2-.4-1.3-1.1-.2-.7.3-1.4,1-1.6,17.2-3.6,69-12,69.5-12.1.7-.1,1.4.4,1.5,1.1.1.7-.4,1.4-1.1,1.5-.5,0-52.2,8.5-69.4,12.1,0,0-.2,0-.3,0Z" fill="#20273f"/>
          <path d="M626.2,332.4c-.7,0-1.2-.5-1.3-1.1-.1-.7.4-1.4,1.1-1.5,13.2-2,60.8-10,61.2-10.1.7-.1,1.4.4,1.5,1.1.1.7-.4,1.4-1.1,1.5-.5,0-48.1,8.1-61.3,10.1,0,0-.1,0-.2,0Z" fill="#20273f"/>
          <path d="M607.2,387.7c-.7,0-1.2-.5-1.3-1.1-.1-.7.4-1.4,1.1-1.5,13.2-2,60.8-10,61.2-10.1.7-.1,1.4.4,1.5,1.1.1.7-.4,1.4-1.1,1.5-.5,0-48.1,8.1-61.3,10.1,0,0-.1,0-.2,0Z" fill="#20273f"/>
          <path d="M602.1,446.8c-.1,0-.2,0-.3,0l-89.2-20.7c-.7-.2-1.2-.9-1-1.6s.9-1.2,1.6-1l89,20.7,93.2-12.4c.7-.1,1.4.4,1.5,1.2,0,.7-.4,1.4-1.2,1.5l-93.5,12.5c0,0-.1,0-.2,0Z" fill="#20273f"/>
          <path d="M602.1,416.2c-.1,0-.2,0-.3,0l-90.1-22.1c-.7-.2-1.2-.9-1-1.6.2-.7.9-1.2,1.6-1l89.9,22,47.8-7.6c.7-.1,1.4.4,1.5,1.1.1.7-.4,1.4-1.1,1.5l-48.1,7.6c0,0-.1,0-.2,0Z" fill="#20273f"/>
          <path d="M649.3,466.1c-.6,0-1.2-.5-1.3-1.1-.1-.7.4-1.4,1.1-1.6l38.4-6.7c.7-.1,1.4.4,1.6,1.1.1.7-.4,1.4-1.1,1.6l-38.4,6.7c0,0-.2,0-.2,0Z" fill="#20273f"/>
          <path d="M668.5,405.6c-.6,0-1.2-.5-1.3-1.1-.1-.7.4-1.4,1.1-1.6l19.2-3.3c.7-.1,1.4.4,1.6,1.1.1.7-.4,1.4-1.1,1.6l-19.2,3.3c0,0-.2,0-.2,0Z" fill="#20273f"/>
          <path d="M602.1,471.9c-.1,0-.2,0-.4,0l-85.9-24.2c-.7-.2-1.1-.9-.9-1.7.2-.7.9-1.1,1.7-.9l85.7,24.2,19.6-2.8c.7-.1,1.4.4,1.5,1.1.1.7-.4,1.4-1.1,1.5l-19.9,2.8c0,0-.1,0-.2,0Z" fill="#20273f"/>
          <path d="M601.1,499.4s0,0,0,0c-11.2-.4-94.4-31.3-98-32.7-.5-.2-.9-.7-.9-1.3v-35.7c0-.5.3-.9.7-1.2l6.9-3.7-7.5-3.4c-.5-.2-.8-.7-.8-1.2l-1.8-75.9c0-.6.4-1.2,1-1.3l9.1-2.3-9.2-2.9c-.6-.2-.9-.7-.9-1.3v-47.6c0-.7.5-1.2,1.1-1.3l103.7-16.1c.1,0,.3,0,.4,0l101.2,17.7c.6.1,1.1.7,1.1,1.3v55.5c0,.6-.4,1.2-1.1,1.3l-7.7,1.7,7.7,3.7c.4.2.7.7.8,1.1.8,16.4,0,73.7,0,74.2,0,.5-.3,1-.7,1.2l-7.9,3.9,7.1,4.1c.4.2.6.6.7,1,1.8,13,0,39.8,0,40.9,0,.6-.5,1.1-1.1,1.2l-103.8,19c0,0-.2,0-.2,0ZM504.9,464.5c9.1,3.4,85.4,31.6,96.1,32.2l102.6-18.8c.3-5.1,1.5-27.2,0-38.7l-8.7-5c-.4-.2-.7-.7-.7-1.2,0-.5.3-.9.7-1.2l9.4-4.6c0-7,.7-56.3,0-72.5l-10.5-5c-.5-.2-.8-.8-.8-1.4,0-.6.5-1,1-1.2l10.5-2.3v-53.3l-99.9-17.4-102.4,15.9v45.5l12.7,4.1c.6.2.9.7.9,1.3,0,.6-.4,1.1-1,1.3l-12.6,3.2,1.7,74,9.3,4.1c.5.2.8.7.8,1.2s-.3,1-.7,1.2l-8.6,4.6v34Z" fill="#20273f"/>
        </g>
      </g>
    </g>
  </g>
</svg>