<?xml version="1.0" encoding="UTF-8"?>
<svg xmlns="http://www.w3.org/2000/svg" version="1.1" viewBox="0 0 731.6 512">
  <!-- Generator: Adobe Illustrator 28.7.1, SVG Export Plug-In . SVG Version: 1.2.0 Build 142)  -->
  <g>
    <g id="icon">
      <g>
        <path d="M557.2,180.9l-277.1-23.5s-1.5-11.9,18.8-21c0,0,10.5-5.4,12.1-18.5,1.6-13.2,13.2-17,15.9-18.6,2.7-1.6,11.2-7.8,12-17.4,1.1-14.2,5.4-18.1,15-22.4,2.4-1.1,8.6-4.5,12.4-13.2s3.8-9.3,7.5-16.8c10.1-20.9,56.9-45.8,96.1-13.6,0,0,12,9.5,19,26.5,1.1,2.7,6.4,19.9,7.9,21.4,5.9,6,9.5,7.8,12.7,26.7,2.1,12.5,9.1,18,11.1,20.1,2,2.2,11.7,9.5,12.5,23.2.4,7.4,2.3,16.7,10.1,20.9,4.7,2.6,16.8,6.8,14.1,26.2Z" fill="#0e1a36"/>
        <g>
          <path d="M594.7,166.4s13.4,51.7-13.1,57c-22.3,4.5-32.6-11.7-40.7-41.5-8.3-30.3-34.4-97.6-31.8-107.7,4.8-18.7,17.4-21.2,35.7,1.4,18.5,22.9,38.6,55.1,49.9,90.8Z" fill="#d1816e"/>
          <path d="M595.3,208.3s-3.5,25.1-47.1,24.7c-43.6-.4-91.4-.8-119.4-11.6-27.9-10.8-40.4-61.3-1.4-61.3,39.6,0,138.4,21.8,138.4,21.8,0,0,36.1,5.7,29.5,26.4Z" fill="#d1816e"/>
        </g>
        <g>
          <path d="M391.8,504s-107.1,1.6-100.6-88c0,0,1.3-20.8,16.6-37.7l110.2,7.9s14.1,101.7-26.2,117.7Z" fill="#e0bfa4"/>
          <path d="M324.7,313.4c13.4-31.9-16.5-86.2-18.7-97.2-3.2-16.1-4.4-34.9,16-47.1,7.7-4.6,24-9.3,34.9-10.7,54.5-7.1,81.6.7,110.7,5s20.1,4.2,20.1,4.2c3.1,5.1,1.1,37.6,1.5,58.1.2,8.2,5.4,24.8,6,50.4.4,17.3-16.9,28.5-23.5,42.5-21.3,45.6-6.1,96.2-6.1,96.2,0,0-82.2,15.4-169.2-18.4,0,0,4.1-25.6,28.3-83.1Z" fill="#ede8e6"/>
          <path d="M373.2,155.7c-15.1,1.7-18.8,3.5-18.8,3.5,6.9,9.6,19,27.4,35.9,44.6,13.8,14,38.6,21.6,48.1,19.4,16.1-3.8,22-13.7,23.8-18.7,7.3-20.9,5.4-41.1,5.4-41.1-27.5-11-67.4-10.8-94.3-7.8Z" fill="#d1816e"/>
          <path d="M417.7,419.7c-1.4,0-2.7,0-4.1,0-28.8-.3-72.5-4.4-117.7-21.9-.5-.2-.8-.8-.8-1.3,0-.3,4.4-26.4,28.4-83.4,10.2-24.2-5.4-62.4-13.8-82.9-2.6-6.4-4.5-11-5-13.6-3.4-17-4.1-36,16.5-48.3,7.4-4.4,20.9-8.6,32.9-10.1.5,0,.9.2,1.2.6.3.5,28.1,45.8,57.6,58.2,15.3,6.4,28.9,6.3,38.2-.3,11.6-8.2,16.9-26.5,15.2-52.9,0-.4.1-.7.4-1,.3-.2.7-.3,1-.3l20.1,4.2c.5,0,.8.4.9.9,3.4,14.2,4.1,46.9,4.4,59.2,0,2.9.4,6.9.9,12,.8,9,1.9,21.2,2.3,37.6.3,11.4-6.8,20.2-13.6,28.6-3.9,4.9-7.6,9.4-10,14.4-20.9,44.6-6.2,94.8-6,95.3,0,.3,0,.7-.1,1-.2.3-.5.5-.8.6-.2,0-19.2,3.5-48.1,3.5ZM297.7,395.8c79.5,30.6,155.6,19.9,166.3,18.2-2.2-8.3-12.8-54.4,6.5-95.7,2.5-5.3,6.4-10.2,10.3-14.9,6.6-8.1,13.3-16.5,13.1-27-.4-16.3-1.5-28.5-2.3-37.4-.5-5.1-.8-9.1-.9-12.2-.3-12-.9-43.6-4.1-57.9l-17.8-3.7c1.4,26.8-4,44.7-16.3,53.4-10,7.1-24.4,7.3-40.5.5-12.7-5.3-26.4-16.9-40.8-34.4-9.2-11.2-15.8-21.4-17.4-24-11.3,1.6-24.3,5.6-31.2,9.7-19.3,11.5-18.8,28.8-15.4,45.8.5,2.4,2.4,7.1,4.9,13.1,8.5,20.8,24.3,59.6,13.8,84.7-21.3,50.7-27.1,76.8-28.1,81.9Z" fill="#0e1a36"/>
          <path d="M599.2,204.7s-35.5-60.1-100.4,26.4c-64.9,86.5-179.5,213.6-105.8,255.9,57.6,33.1,106.2-14,126.6-59.1,20.4-45.1,102.5-187,79.6-223.3Z" fill="#e0bfa4"/>
          <path d="M546,437s3.4,21.9,27,31.9c20.4,8.7,74.3,10.8,60,33.2-11.6,18.2-58.2,5.2-95.6,7-37.4,1.8-47.8,6.5-59.5-9.4-11.8-15.8,8.2-35,4.2-62.4l64-.4Z" fill="#d1816e"/>
          <path d="M640.7,428.6s4,21.8,27.9,31.2c20.6,8.1,74.5,8.8,60.8,31.7-11.1,18.5-58.1,6.7-95.4,9.5-37.3,2.8-47.6,7.7-59.8-7.8-12.2-15.5,7.3-35.2,2.5-62.5l63.9-2.1Z" fill="#d1816e"/>
          <path d="M561.7,193.8s-33.3-60.6-104.8,29.7c-95.2,120.2-191.2,228.6-109,270.2,64.3,32.5,116.4-18.3,137.5-66,21.1-47.7,102.5-197,76.3-234Z" fill="#e0bfa4"/>
          <path d="M577.2,234.3s-9.5-79.5-63.2-53.9c-66.5,31.8-37.4,249.3-38.4,266.3,0,0,51.4,7.9,79.1-.2,0,0,31-114.5,22.5-212.1Z" fill="#e0bfa4"/>
          <path d="M614.9,232.6s-21.2-70.6-67.4-40.7c-57.3,37,21.8,238.2,23.6,253.2,0,0,52.4-1.3,77.1-12.2,0,0-10-115.7-33.3-200.3Z" fill="#e0bfa4"/>
          <path d="M321,168c-8.5,2.1-19,12.6-19.2,30.9-.1,13.5,4.7,32.9,20.6,57.6,27.6,42.8,71.3,121,99.4,97.3,36.9-31.1-3.8-90-46.7-147.6-10.1-13.5-40.1-41.7-54.1-38.2Z" fill="#d1816e"/>
          <path d="M475.7,447.9c-.6,0-1.1-.4-1.2-1,0-.3-5.2-33-6.8-76.3-1.5-40-.3-97.5,14.2-144.3.2-.6.9-1,1.5-.8.6.2,1,.9.8,1.5-7.9,25.6-16.8,71.3-14,143.4,1.6,43.2,6.7,75.7,6.8,76.1.1.7-.3,1.3-1,1.4,0,0-.1,0-.2,0Z" fill="#0e1a36"/>
          <path d="M429.8,490.8c-.4,0-.7-.2-1-.5-.4-.5-.3-1.3.2-1.7.3-.2,31.2-23.4,43.5-55,.2-.6.9-.9,1.6-.7.6.2.9.9.7,1.6-12.6,32.3-44,55.9-44.3,56.1-.2.2-.5.2-.7.2Z" fill="#0e1a36"/>
          <path d="M562.7,408.9c0,0-.2,0-.2,0-.7-.1-1.1-.8-.9-1.4,10.1-48.8,20.6-118.3,12.6-172.4-4.7-32.3-13.9-43.8-14-43.9-.4-.5-.3-1.3.2-1.7.5-.4,1.3-.4,1.7.2.4.5,9.6,11.9,14.5,44.7,8.1,54.4-2.4,124.4-12.6,173.6-.1.6-.6,1-1.2,1Z" fill="#0e1a36"/>
          <path d="M553.1,269.3s-141.4,140.7-164.7,69c-10.6-32.5,95.7-90.5,145.1-112.3,19-8.4,26.5,8.5,28.1,10.7,4.6,6.4,6.2,16.7-8.4,32.6Z" fill="#d1816e"/>
          <g>
            <path d="M545.5,268.1c-19.3-2.9-22.9-26.1-20.5-34.1,1.9-6.1,18.2-19.5,26.9-26.2,9.5-7.3,28.2-13.8,35.5-10.3,6.9,3.2-27.4,17.2-27.4,17.2,0,0,21.9-6.7,27.3-6.9,5.4-.2,14.4,1.7,11.5,5.3-2.9,3.6-21.1,5.7-29.5,10.7,0,0,38.7-12.3,32.8,1,0,0,8.1,4.2-1.9,8.8-9.9,4.5-22.6,9.7-24.5,10.1,0,0-6.9,5.9-14.3,15.4-3.9,5-10.2,10-16,9.1Z" fill="#d1816e"/>
            <path d="M572.2,235.5c-.4,0-.9-.2-1.1-.7-.3-.6,0-1.3.5-1.6,13.7-7,29.7-9.6,30.4-9.7.7-.1,1.3.3,1.4,1,.1.7-.3,1.3-1,1.4-.2,0-16.3,2.6-29.6,9.4-.2,0-.4.1-.5.1Z" fill="#0e1a36"/>
          </g>
          <path d="M317.8,440.2c0,0-.1,0-.2,0-.7-.1-1.1-.7-1-1.4,2.6-16,8-26.1,8.2-26.6.3-.6,1-.8,1.6-.5.6.3.8,1,.5,1.6,0,.1-5.4,10.3-8,25.8,0,.6-.6,1-1.2,1Z" fill="#0e1a36"/>
          <path d="M634.8,499.4c-.2,0-.3,0-.5,0-.6-.3-.9-1-.7-1.6,1.1-2.7,1.1-5,0-7-3-5.1-12.3-6.3-12.3-6.3-36-6.5-46-12.7-46.4-13-.6-.4-.7-1.1-.4-1.7s1.1-.7,1.7-.4c.1,0,10.2,6.2,45.5,12.6.4,0,10.5,1.4,14.1,7.5,1.5,2.6,1.6,5.7.2,9.2-.2.5-.6.8-1.1.8Z" fill="#0e1a36"/>
          <path d="M400,313.6c-.2,0-.5,0-.7-.2-.6-.4-.7-1.1-.3-1.7,7.6-11.6,23.1-22.9,23.8-23.3.5-.4,1.3-.3,1.7.3.4.5.3,1.3-.3,1.7-.2.1-15.8,11.5-23.2,22.7-.2.4-.6.5-1,.5Z" fill="#0e1a36"/>
          <g>
            <path d="M445.3,7.6h0c-32.1-3.4-60.9,19.9-64.3,52l1,35.3c2.6,63.2,52.5,63.9,52.5,63.9,32.8,3.5,52.7-20.5,56.1-52.7l3.7-34.6c3.4-32.1-16.9-60.6-49.1-64Z" fill="#d1816e"/>
            <path d="M496.4,49.6c2.2,7.3-1.6,15.2-8.9,17.6,0,0-.2,0-.3,0-5.7,1.8-11.6,1.1-16.5-1.8-1.2-.7-3.2-1.4-5.4-2.5-8.3-4-20.2-5.4-25.5,5.4-7.6,15.6-16.8,27.2-25.8,23-4-1.9-32.1-58.7-18-76.2,0,0,20.2-26.6,61-9.5,0,0,29.6,11.9,39.3,43.8Z" fill="#0e1a36"/>
            <path d="M379,129.8s56.6-35.7,52.2-82.9c-2.9-31.3-23.8-30.4-36.9-23.5-14,7.4-22.8,21.4-24.1,36.7-1.9,21.9-3.4,64.6,8.8,69.6Z" fill="#0e1a36"/>
            <path d="M443.3,27.9c-34,12.8-37.4,57.8-37.4,57.8l-14.5,9.2s-11.9-50.6,18.6-74c43.8-33.7,81.5,5,81.9,17.7,0,0-10.6-25.1-48.6-10.7Z" fill="#3d70cc"/>
            <path d="M400.6,81.7c-5-1.1-17.6,2.1-16.8,18.7.8,16.6,22,15.9,22,15.9l13.1-21.4c-10.4-11.3-13.3-12.1-18.3-13.2Z" fill="#d1816e"/>
            <path d="M407.1,101.6c-.6,0-1.1-.4-1.2-1-.9-6.8-6.8-8-7-8-.7-.1-1.1-.8-1-1.4.1-.7.7-1.1,1.4-1,0,0,7.8,1.5,8.9,10.1,0,.7-.4,1.3-1,1.4,0,0-.1,0-.2,0Z" fill="#0e1a36"/>
            <ellipse cx="483" cy="103.4" rx="4.1" ry="4.5" transform="translate(-.7 3.5) rotate(-.4)" fill="#0e1a36"/>
            <ellipse cx="452.8" cy="100.1" rx="4.1" ry="4.5" transform="translate(-.7 3.3) rotate(-.4)" fill="#0e1a36"/>
            <path d="M472.4,116.1c-.7,0-1.2-.5-1.2-1.2,0-.3-.1-2.7-2.3-2.9-2-.2-3.2,2.3-3.2,2.3-.3.6-1,.9-1.6.6-.6-.3-.9-1-.6-1.6,0-.2,1.9-4.1,5.6-3.7,3.5.3,4.5,3.6,4.5,5.3,0,.7-.5,1.2-1.2,1.2h0Z" fill="#0e1a36"/>
            <path d="M469.6,129.8c-.4,0-.8-.2-1.1-.6-.2-.3-4.2-7-18.6-2.1-.6.2-1.3-.1-1.5-.8-.2-.6.1-1.3.8-1.5,16.5-5.6,21.3,2.8,21.5,3.2.3.6.1,1.3-.5,1.6-.2.1-.4.1-.6.1Z" fill="#0e1a36"/>
          </g>
          <path d="M453,148.9s-1.9,15.1-1.8,23.9c0,0-6.1,12.2-38.4,10.1-22.3-1.4-29-13.1-29-13.1,0,0,2.6-33.7,3.8-46l65.3,25.2Z" fill="#d1816e"/>
          <path d="M446.2,161c-9.8,0-28.5-2.3-43.4-17.7-.5-.5-.4-1.2,0-1.7.5-.5,1.2-.4,1.7,0,20.2,21,47.8,16.7,48,16.6.7-.1,1.3.3,1.4,1,.1.7-.3,1.3-1,1.4,0,0-2.6.4-6.8.4Z" fill="#0e1a36"/>
          <path d="M295.7,113c0,0-.1,0-.2,0-.7-.1-1.1-.7-1-1.4,2.5-13.3,7.9-14.6,20-17.4,2.7-.6,5.8-1.3,9.3-2.3,15.7-4.2,16.8-15.7,16.9-16.2,0-.7.7-1.2,1.3-1.1.7,0,1.2.6,1.1,1.3,0,.6-1.2,13.7-18.6,18.4-3.6,1-6.7,1.7-9.4,2.3-11.9,2.8-16,3.7-18.1,15.5-.1.6-.6,1-1.2,1Z" fill="#0e1a36"/>
          <path d="M322.9,125.9s0,0,0,0c-.7,0-1.2-.6-1.1-1.3.8-10.3,5.9-13,11.9-16.2l1.8-1c5.5-2.9,13.7-7.3,14.3-20.4.7-14.3,7.5-16.8,14.7-19.4.6-.2,1.2-.4,1.7-.6,7.3-2.7,10.7-11.6,10.8-11.7.2-.6.9-.9,1.6-.7.6.2.9.9.7,1.6-.2.4-3.8,10-12.2,13.1-.6.2-1.2.4-1.8.7-12.5,4.6-12.8,10.2-13.1,17.2-.7,14.5-10,19.4-15.6,22.4l-1.8.9c-5.8,3.1-10,5.3-10.6,14.3,0,.6-.6,1.1-1.2,1.1Z" fill="#ede8e6"/>
          <path d="M318.4,148.1c-.6,0-1.1-.4-1.2-1-.1-.7.3-1.3.9-1.4,10.1-2.2,13.7-5.4,15.5-13.9,0-.5.2-.9.3-1.3,1.3-6.6,2.1-10.6,14.3-16.1,12.2-5.5,11.2-14.3,11.2-14.7,0-.7.4-1.3,1-1.3.7,0,1.3.4,1.3,1,0,.4,1.3,10.9-12.6,17.2-11.1,5-11.7,7.9-13,14.3,0,.4-.2.9-.3,1.3-2,9.4-6.3,13.4-17.3,15.8,0,0-.2,0-.3,0Z" fill="#ede8e6"/>
          <path d="M533.5,164.7c-.1,0-.2,0-.3,0-.1,0-14.8-4.7-15.3-22-.5-18.5-10.5-22.7-10.9-22.9-.6-.2-.9-.9-.7-1.6.2-.6.9-.9,1.6-.7.5.2,11.8,4.9,12.4,25,.5,15.5,13,19.6,13.6,19.7.6.2,1,.9.8,1.5-.2.5-.6.9-1.2.9Z" fill="#ede8e6"/>
          <path d="M421.4,100.1c-2,0-3.9-.2-5.5-.4-.7,0-1.1-.7-1.1-1.3,0-.7.7-1.1,1.3-1.1,7.5.8,17.7,1.8,24-13.9,5.3-13,11.6-21.1,18.8-24,5.3-2.1,9-.5,9.2-.4.6.3.9,1,.6,1.6-.3.6-1,.9-1.6.6-.1,0-3.1-1.3-7.4.5-4.5,1.8-11.1,7.2-17.4,22.6-5.5,13.4-14,15.7-21,15.7Z" fill="#0e1a36"/>
          <path d="M516.4,167.1c-.1,0-.3,0-.4,0-.1,0-12.3-4.4-11.2-19.4.9-12.1-5.3-15.5-5.6-15.7-.6-.3-.8-1-.5-1.6.3-.6,1-.8,1.6-.5.3.2,7.9,4.2,6.9,18-.9,13.2,9.5,17,9.6,17,.6.2,1,.9.7,1.5-.2.5-.6.8-1.1.8Z" fill="#ede8e6"/>
        </g>
        <g>
          <path d="M527.5,95.4c12.3-9.9,10.4-29.2-3.2-37.2-9.1-5.3-23.8-13.7-33.8-18.1-15.4-6.9-34.7-11.3-36.4-10-8,6.2,28.3,18,28.3,18,0,0-23.5-2.4-28.7-1-5.2,1.4-13.2,5.9-9.3,8.4,3.8,2.5,20.7-1.7,31.8,3.9,0,0-40.4,0-30.8,10.8,0,0-6.4,6.4,4.4,7.7,10.8,1.3,24.3,2.4,26.3,2.2,0,0,16.3,14.9,34.8,19.2,6.2,1.4,12-.4,16.5-4Z" fill="#d1816e"/>
          <path d="M493,94.6c-.2,0-.5,0-.7-.2-.5-.3-11.1-7.3-16.6-13-4.4,0-26.4-.7-31.6-4.1-1.9-1.2-2.8-2.6-2.7-4.1.2-2.5,3.2-3.9,3.6-4.1,0,0,.2,0,.3,0,.7-.1,16.6-2.5,31.7,0,.7.1,1.1.7,1,1.4-.1.7-.7,1.1-1.4,1-13.9-2.4-29-.3-30.8,0-.8.4-2,1.3-2,2,0,.5.5,1.2,1.6,1.9,4,2.6,23.6,3.6,30.8,3.7.3,0,.6.1.9.4,5.3,5.6,16.4,13,16.5,13,.6.4.7,1.1.3,1.7-.2.4-.6.5-1,.5Z" fill="#0e1a36"/>
        </g>
        <g>
          <g>
            <polygon points="41.5 370 0 370 32.6 330.6 41.5 370" fill="#3d70cc"/>
            <polygon points="307.3 337.4 255.1 330.2 32.6 330.6 76.9 337.4 307.3 337.4" fill="#0e1a36"/>
            <g>
              <polygon points="94.5 361 76.5 295 189.1 295 209.5 361 94.5 361" fill="#3d70cc"/>
              <polygon points="113 354.3 95 288.2 207.6 288.2 228 354.3 113 354.3" fill="#3d70cc"/>
              <polygon points="96.9 295 82 299.9 97.3 354.3 111.9 350.3 96.9 295" fill="#ede8e6"/>
              <path d="M104.1,352.4c-.5,0-1-.4-1.2-.9l-14.3-52c-.2-.6.2-1.3.8-1.5.6-.2,1.3.2,1.5.8l14.3,52c.2.6-.2,1.3-.8,1.5-.1,0-.2,0-.3,0Z" fill="#0e1a36"/>
            </g>
            <g>
              <polygon points="134.3 371.8 116.4 305.7 228.9 305.7 249.3 371.8 134.3 371.8" fill="#d1816e"/>
              <polygon points="152.8 365 134.9 298.9 247.4 298.9 267.8 365 152.8 365" fill="#d1816e"/>
              <polygon points="136.7 305.7 121.9 310.6 137.1 365 151.8 361 136.7 305.7" fill="#ede8e6"/>
              <path d="M146.6,362.9c-.5,0-1-.4-1.2-.9l-14.3-52.2c-.2-.6.2-1.3.8-1.5.6-.2,1.3.2,1.5.8l14.3,52.2c.2.6-.2,1.3-.8,1.5-.1,0-.2,0-.3,0Z" fill="#0e1a36"/>
              <path d="M141.6,364.2c-.5,0-1-.4-1.2-.9l-14.3-52c-.2-.6.2-1.3.8-1.5.6-.2,1.3.2,1.5.8l14.3,52c.2.6-.2,1.3-.8,1.5-.1,0-.2,0-.3,0Z" fill="#0e1a36"/>
            </g>
            <polygon points="32.6 330.6 32.6 508.8 76.9 510.8 76.9 337.4 32.6 330.6" fill="#3d70cc"/>
            <rect x="76.9" y="337.4" width="230.5" height="173.4" transform="translate(384.2 848.2) rotate(180)" fill="#3d70cc"/>
            <polygon points="76.9 337.4 132.6 386.8 363.6 386.8 307.3 337.4 76.9 337.4" fill="#3d70cc"/>
            <rect x="93.3" y="488.7" width="75.8" height="6.8" transform="translate(262.4 984.2) rotate(180)" fill="#ede8e6"/>
            <rect x="93.3" y="474.5" width="49.8" height="6.8" transform="translate(236.4 955.9) rotate(180)" fill="#ede8e6"/>
            <path d="M76.9,506.1c-.7,0-1.2-.5-1.2-1.2,0-1.3-.9-128.7,0-164.7,0-.7.6-1.2,1.2-1.2s0,0,0,0c.7,0,1.2.6,1.2,1.2-.9,36,0,163.4,0,164.7,0,.7-.5,1.2-1.2,1.2h0Z" fill="#0e1a36"/>
            <path d="M304.4,388h-171.9c-.3,0-.6-.1-.8-.3l-48.2-42.7c-.5-.4-.5-1.2-.1-1.7.4-.5,1.2-.5,1.7-.1l47.8,42.4h171.4c.7,0,1.2.5,1.2,1.2s-.5,1.2-1.2,1.2Z" fill="#0e1a36"/>
            <path d="M32.6,369c-.7,0-1.2-.5-1.2-1.2v-32.4c0-.7.5-1.2,1.2-1.2s1.2.5,1.2,1.2v32.4c0,.7-.5,1.2-1.2,1.2Z" fill="#0e1a36"/>
          </g>
          <polygon points="164.9 369.2 117.5 369.2 82 337.4 129.3 337.4 164.9 369.2" fill="#ede8e6"/>
          <polygon points="164.9 369.2 117.5 369.2 82 337.4 129.3 337.4 164.9 369.2" fill="#ede8e6"/>
          <circle cx="108.1" cy="337.4" r="4.2" fill="#0e1a36"/>
          <path d="M88.7,337.4s-11.1,3.9-9.1,32.3c2,28.3,11.6,111.2-10.9,113.5-19.2,2-22.3-20.6-22-37.7.3-17.2,2-77.8,17.5-115.7,0,0,2.9-2.5,4.4,1.4s-2.3,8.3-4.1,15.2c-1.9,6.9-13.6,64.2-11.4,105.9,0,0,0,25.8,14.7,25.2,0,0,8.9.7,10.4-28s-1.3-45.6-3.3-74.9c0,0-4.5-26.7,6.6-37.2,0,0,1.6-2.1,5-1.6s2.4,1.7,2.4,1.7Z" fill="#ede8e6"/>
          <g>
            <polygon points="120.7 351.7 106.5 351.7 97.5 343.6 111.7 343.6 120.7 351.7" fill="#3d70cc"/>
            <path d="M141,357h-28.3c-.7,0-1.2-.5-1.2-1.2s.5-1.2,1.2-1.2h28.3c.7,0,1.2.5,1.2,1.2s-.5,1.2-1.2,1.2Z" fill="#0e1a36"/>
            <path d="M148,363.3h-28.3c-.7,0-1.2-.5-1.2-1.2s.5-1.2,1.2-1.2h28.3c.7,0,1.2.5,1.2,1.2s-.5,1.2-1.2,1.2Z" fill="#0e1a36"/>
          </g>
        </g>
        <path d="M445.5,71.4c-.2,0-.4,0-.6-.2-2.6-1.6-2.3-4.3-1.8-5.6,0,0,0,0,0,0,2.6-5,15.2-7.5,16.6-7.8.6-.1,1.3.3,1.4,1,.1.7-.3,1.3-1,1.4-3.5.7-13.1,3.1-14.9,6.5-.1.3-.5,1.7.8,2.5.6.4.7,1.1.4,1.7-.2.4-.6.6-1,.6Z" fill="#0e1a36"/>
      </g>
    </g>
  </g>
</svg>