<?xml version="1.0" encoding="UTF-8"?>
<svg xmlns="http://www.w3.org/2000/svg" version="1.1" viewBox="0 0 594.3 512">
  <!-- Generator: Adobe Illustrator 28.6.0, SVG Export Plug-In . SVG Version: 1.2.0 Build 709)  -->
  <g>
    <g id="icon">
      <g>
        <g>
          <path d="M500.5,421.8s-78.8,25.2-88.1,26.1l-86.1-19.2s-.7-18.2,0-30.3l8.1-6.2-8.7-2.8s-.7-52.6,0-66.8l9.7-4.7-10-3.3v-44.2l87.6-15.3,89.8,14v41s-11.8,6-11.8,6l11.8,3-1.5,63.3-8.7,3.1,8.1,5.4v30.9Z" fill="#efefef"/>
          <path d="M412.5,449.1c0,0-.2,0-.3,0l-86.1-19.2c-.5-.1-.9-.6-1-1.2,0-.2-.7-18.4,0-30.4,0-.4.2-.7.5-.9l6.2-4.8-6.5-2c-.5-.2-.9-.6-.9-1.2,0-.5-.7-52.8,0-66.9,0-.5.3-.9.7-1.1l6.9-3.3-7.1-2.4c-.5-.2-.8-.6-.8-1.2v-44.2c0-.6.4-1.1,1-1.2l87.6-15.3c.1,0,.3,0,.4,0l89.8,14c.6,0,1,.6,1,1.2v41c0,.5-.3.9-.7,1.1l-8.9,4.5,8.6,2.2c.6.1.9.6.9,1.2l-1.5,63.3c0,.5-.3,1-.8,1.1l-6.4,2.3,6,4c.3.2.5.6.5,1v30.9c0,.5-.3,1-.9,1.2-3.2,1-79,25.3-88.3,26.2,0,0,0,0-.1,0ZM327.5,427.7l85,19c9.3-1.1,78.2-23.1,86.8-25.8v-29.4l-7.5-5c-.4-.3-.6-.7-.5-1.2s.4-.9.8-1l7.9-2.8,1.5-61.5-10.8-2.7c-.5-.1-.9-.5-.9-1.1,0-.5.2-1,.7-1.2l11.1-5.6v-39.2l-88.5-13.8-86.4,15.1v42.3l9.1,3c.5.2.8.6.8,1.1,0,.5-.2,1-.7,1.2l-9,4.3c-.6,14,0,58.3,0,65.2l7.9,2.5c.4.1.8.5.8,1s0,.9-.5,1.2l-7.6,5.9c-.5,10.3-.1,24.9,0,28.7ZM500.5,421.8h0,0Z" fill="#20273f"/>
          <path d="M411.6,332.4c0,0-.1,0-.2,0-27.4-4.3-75.8-13.2-76.3-13.3-.7-.1-1.1-.8-1-1.4s.8-1.1,1.4-1c.5,0,48.6,9,76,13.3,4-.8,64.2-12.1,79.1-15.1.7-.1,1.3.3,1.4,1,.1.7-.3,1.3-1,1.4-15.4,3.1-78.7,15-79.4,15.2,0,0-.2,0-.2,0Z" fill="#20273f"/>
          <path d="M419.2,294.7c-.6,0-1.1-.4-1.2-1-.1-.7.3-1.3,1-1.4.3,0,33.7-5.6,45.3-7.7.7-.1,1.3.3,1.4,1,.1.7-.3,1.3-1,1.4-11.7,2.1-45,7.7-45.4,7.7,0,0-.1,0-.2,0Z" fill="#20273f"/>
          <path d="M419.2,313.3c-.6,0-1.1-.4-1.2-1-.1-.7.3-1.3,1-1.4.6-.1,55.3-10.2,66.9-12.3.7-.1,1.3.3,1.4,1,.1.7-.3,1.3-1,1.4-11.6,2.1-66.4,12.2-66.9,12.3,0,0-.2,0-.2,0Z" fill="#20273f"/>
          <path d="M442.4,350.2c-.6,0-1.1-.4-1.2-.9-.2-.7.2-1.3.9-1.5.4,0,36.3-8.9,50.9-12,.7-.1,1.3.3,1.5.9.1.7-.3,1.3-.9,1.5-14.5,3.1-50.4,11.9-50.8,12,0,0-.2,0-.3,0Z" fill="#20273f"/>
          <path d="M397.9,296.4c0,0-.2,0-.3,0-14.9-3.1-59.6-10.4-60-10.5-.7-.1-1.1-.7-1-1.4s.7-1.1,1.4-1c.5,0,45.2,7.4,60.1,10.5.7.1,1.1.8,1,1.5-.1.6-.6,1-1.2,1Z" fill="#20273f"/>
          <path d="M402.3,313.3c0,0-.1,0-.2,0-11.4-1.7-62.4-9.7-62.9-9.8-.7-.1-1.1-.7-1-1.4s.7-1.1,1.4-1c.5,0,51.5,8.1,62.9,9.8.7.1,1.1.7,1,1.4,0,.6-.6,1.1-1.2,1.1Z" fill="#20273f"/>
          <path d="M410.8,354.6c0,0-.1,0-.2,0-11.4-1.7-52.6-8.6-53-8.7-.7-.1-1.1-.7-1-1.4.1-.7.8-1.1,1.4-1,.4,0,41.6,7,53,8.7.7.1,1.1.7,1,1.4,0,.6-.6,1.1-1.2,1.1Z" fill="#20273f"/>
          <path d="M415.3,405.7c0,0-.1,0-.2,0l-80.9-12.4c-.7-.1-1.1-.7-1-1.4.1-.7.7-1.1,1.4-1l80.6,12.3,77-18.9c.7-.2,1.3.2,1.5.9.2.7-.2,1.3-.9,1.5l-77.2,19c0,0-.2,0-.3,0Z" fill="#20273f"/>
          <path d="M415.3,379.2c0,0-.1,0-.2,0l-41.6-6.6c-.7-.1-1.1-.7-1-1.4.1-.7.7-1.1,1.4-1l41.4,6.5,77.7-19c.7-.2,1.3.2,1.5.9.2.7-.2,1.3-.9,1.5l-78,19.1c0,0-.2,0-.3,0Z" fill="#20273f"/>
          <path d="M378.6,421.9c0,0-.1,0-.2,0l-33.2-5.8c-.7-.1-1.1-.8-1-1.4.1-.7.8-1.1,1.4-1l33.2,5.8c.7.1,1.1.8,1,1.4-.1.6-.6,1-1.2,1Z" fill="#20273f"/>
          <path d="M357.8,370.1c0,0-.1,0-.2,0l-16.6-2.9c-.7-.1-1.1-.8-1-1.4.1-.7.8-1.1,1.4-1l16.6,2.9c.7.1,1.1.8,1,1.4-.1.6-.6,1-1.2,1Z" fill="#20273f"/>
          <path d="M415.3,427.4c0,0-.1,0-.2,0l-17.2-2.5c-.7,0-1.1-.7-1-1.4,0-.7.7-1.1,1.4-1l16.9,2.4,74.1-20.1c.7-.2,1.3.2,1.5.9.2.7-.2,1.3-.9,1.5l-74.4,20.1c-.1,0-.2,0-.3,0Z" fill="#20273f"/>
          <g>
            <path d="M500.5,262.1s-74.9,18.1-84.5,18.4l-89.7-15.8s-1.5-22.8,0-34.1l8.1-4.7-8.7-4.3s-.7-42.5,0-56.8l9.7-4.7-10-3.3v-25s87.6-15.3,87.6-15.3l89.8,14v19.3s-11.8,3.8-11.8,3.8l11.8,4.5-1.5,65-8.7,3,8.1,4.3v31.7Z" fill="#efefef"/>
            <path d="M437.5,189.8c-.6,0-1.1-.4-1.2-.9-.2-.7.2-1.3.9-1.5.4,0,36.3-8.9,50.9-12,.7-.1,1.3.3,1.5.9.1.7-.3,1.3-.9,1.5-14.5,3.1-50.4,11.9-50.8,12,0,0-.2,0-.3,0Z" fill="#20273f"/>
            <path d="M400.9,192.5c0,0-.1,0-.2,0-11.4-1.7-52.6-8.6-53-8.7-.7-.1-1.1-.7-1-1.4.1-.7.8-1.1,1.4-1,.4,0,41.6,7,53,8.7.7.1,1.1.7,1,1.4,0,.6-.6,1.1-1.2,1.1Z" fill="#20273f"/>
            <path d="M415.3,242.2c0,0-.2,0-.2,0l-80.9-15c-.7-.1-1.1-.8-1-1.4.1-.7.8-1.1,1.4-1l80.6,15,77-14.8c.7-.1,1.3.3,1.4,1s-.3,1.3-1,1.4l-77.2,14.9c0,0-.2,0-.2,0Z" fill="#20273f"/>
            <path d="M415.3,172.1c0,0-.1,0-.2,0l-79.9-10.7c-.7,0-1.1-.7-1.1-1.4,0-.7.7-1.2,1.4-1.1l79.7,10.7,75.4-17.2c.7-.1,1.3.3,1.5.9.2.7-.3,1.3-.9,1.5l-75.7,17.2c0,0-.2,0-.3,0Z" fill="#20273f"/>
            <path d="M415.3,218.8c0,0-.1,0-.2,0l-41.6-6.6c-.7-.1-1.1-.7-1-1.4.1-.7.7-1.1,1.4-1l41.4,6.5,77.7-19c.7-.2,1.3.2,1.5.9.2.7-.2,1.3-.9,1.5l-78,19.1c0,0-.2,0-.3,0Z" fill="#20273f"/>
            <path d="M374.4,257.3c0,0-.1,0-.2,0l-33.2-5.8c-.7-.1-1.1-.8-1-1.4.1-.7.7-1.1,1.4-1l33.2,5.8c.7.1,1.1.8,1,1.4-.1.6-.6,1-1.2,1Z" fill="#20273f"/>
            <path d="M357.8,209.7c0,0-.1,0-.2,0l-16.6-2.9c-.7-.1-1.1-.8-1-1.4.1-.7.8-1.1,1.4-1l16.6,2.9c.7.1,1.1.8,1,1.4-.1.6-.6,1-1.2,1Z" fill="#20273f"/>
            <path d="M415.3,151c0,0-.1,0-.2,0l-41.6-6.6c-.7-.1-1.1-.7-1-1.4.1-.7.7-1.1,1.4-1l41.4,6.5,72.9-14c.7-.1,1.3.3,1.4,1,.1.7-.3,1.3-1,1.4l-73.1,14c0,0-.2,0-.2,0Z" fill="#20273f"/>
            <path d="M357.8,141.8c0,0-.1,0-.2,0l-16.6-2.9c-.7-.1-1.1-.8-1-1.4.1-.7.8-1.1,1.4-1l16.6,2.9c.7.1,1.1.8,1,1.4-.1.6-.6,1-1.2,1Z" fill="#20273f"/>
            <path d="M415.3,264.1c0,0-.1,0-.2,0l-17.2-2.5c-.7,0-1.1-.7-1-1.4,0-.7.7-1.1,1.4-1l17,2.4,74.1-16.2c.7-.1,1.3.3,1.5.9.1.7-.3,1.3-.9,1.5l-74.4,16.2c0,0-.2,0-.3,0Z" fill="#20273f"/>
          </g>
          <path d="M414,279.7c0,0-.1,0-.2,0l-72-11c-.7-.1-1.1-.7-1-1.4.1-.7.7-1.1,1.4-1l71.8,11,69.6-12.4c.7-.1,1.3.3,1.4,1,.1.7-.3,1.3-1,1.4l-69.8,12.4c0,0-.1,0-.2,0Z" fill="#20273f"/>
          <path d="M342,268.7c0,0-.1,0-.2,0l-15.7-2.8c-.6,0-1-.6-1-1.1,0-.9-1.5-23,0-34.3,0-.4.3-.7.6-.9l6.1-3.5-6.7-3.3c-.4-.2-.7-.6-.7-1.1,0-.4-.7-42.8,0-56.9,0-.5.3-.9.7-1.1l6.9-3.3-7.1-2.4c-.5-.2-.8-.6-.8-1.2v-25c0-.6.4-1.1,1-1.2l87.6-15.3c.1,0,.3,0,.4,0l89.8,14c.6,0,1,.6,1,1.2v19.3c0,.5-.3,1-.9,1.2l-8.5,2.8,8.5,3.3c.5.2.8.7.8,1.2l-1.5,65c0,.5-.3,1-.8,1.1l-6,2.1,5.6,3c.4.2.6.6.6,1.1v31.7c0,.6-.4,1.1-.9,1.2,0,0-6.9,1.7-16.7,4-.7.2-1.3-.3-1.5-.9-.2-.7.3-1.3.9-1.5,7.7-1.8,13.6-3.2,15.8-3.7v-30l-7.4-4c-.4-.2-.7-.7-.6-1.2,0-.5.4-.9.8-1.1l7.9-2.7,1.5-63.3-11-4.2c-.5-.2-.8-.7-.8-1.2,0-.5.4-1,.9-1.1l10.9-3.6v-17.4l-88.5-13.8-86.4,15.1v23.1l9.1,3c.5.2.8.6.8,1.1,0,.5-.2,1-.7,1.2l-9,4.3c-.6,13.7,0,49.6,0,55.3l8.1,4c.4.2.7.6.7,1.1,0,.5-.2.9-.6,1.1l-7.5,4.4c-1.2,9.9-.2,27.9,0,32.3l14.7,2.6c.7.1,1.1.8,1,1.4-.1.6-.6,1-1.2,1Z" fill="#20273f"/>
        </g>
        <path d="M186.8,294.3l-116.4-142.1c-6.4-8.9-4.7-21.2,3.9-28h0c9.1-7.2,22.4-5.4,29.3,3.9l114.6,137.5-31.4,28.7Z" fill="#20273f"/>
        <path d="M182.3,262.7h188.2v8.5c0,16.8-13.6,30.4-30.4,30.4h-137.8c-11,0-19.9-8.9-19.9-19.9v-19h0Z" fill="#20273f"/>
        <g>
          <path d="M279.3,462.2h0c6.8,0,12.4-5.3,12.6-12l4.6-119.5h-34.4s4.6,119.5,4.6,119.5c.3,6.7,5.8,12,12.6,12Z" fill="#efefef"/>
          <path d="M279.3,299.6h0c9.5,0,17.2,7.7,17.2,17.2v39.6h-34.4v-39.6c0-9.5,7.7-17.2,17.2-17.2Z" transform="translate(558.6 656) rotate(-180)" fill="#20273f"/>
          <path d="M382.7,460.2h0c-.8,3.9-4.6,6.6-8.5,6l-85.1-12.7,4.9-23.8,83.3,21.7c3.9,1,6.3,4.9,5.5,8.8Z" fill="#efefef"/>
          <path d="M175.8,460.2h0c.8,3.9,4.6,6.6,8.5,6l85.1-12.7-4.9-23.8-83.3,21.7c-3.9,1-6.3,4.9-5.5,8.8Z" fill="#efefef"/>
          <polygon points="268.7 482.3 289.8 482.3 293.9 429.7 264.6 429.7 268.7 482.3" fill="#efefef"/>
          <path d="M289.9,481s0,0-.1,0c-.7,0-1.2-.7-1.1-1.3l2.1-25.8c0-.3.2-.7.5-.9.3-.2.6-.3.9-.3l76.9,11.4,11.2-8.8c-.5-.9-1.7-2.3-4.2-3l-83.7-21.5c-.6-.1-.9-.7-.9-1.2l2.5-89.8c0-.7.6-1.2,1.3-1.2.7,0,1.2.6,1.2,1.3l-2.5,88.8,82.8,21.3c5.1,1.3,6.2,5.2,6.3,5.4.1.5,0,1-.4,1.3l-12.4,9.7c-.3.2-.6.3-.9.3l-76.1-11.3-2,24.5c0,.6-.6,1.1-1.2,1.1Z" fill="#20273f"/>
          <path d="M268.8,481c-.6,0-1.2-.5-1.2-1.1l-2-24.5-76.1,11.3c-.3,0-.7,0-.9-.3l-12.4-9.7c-.4-.3-.6-.8-.4-1.3,0-.2,1.2-4.1,6.3-5.4l82.8-21.3-2.5-88.8c0-.7.5-1.2,1.2-1.3.7,0,1.2.5,1.3,1.2l2.5,89.8c0,.6-.4,1.1-.9,1.2l-83.7,21.5c-2.5.7-3.7,2.1-4.2,3l11.2,8.8,76.9-11.4c.3,0,.7,0,.9.3.3.2.4.5.5.9l2.1,25.8c0,.7-.4,1.3-1.1,1.3,0,0,0,0-.1,0Z" fill="#20273f"/>
          <circle cx="177.3" cy="467.7" r="13.4" fill="#20273f"/>
          <circle cx="381.3" cy="467.7" r="13.4" fill="#20273f"/>
          <circle cx="279.3" cy="486.3" r="13.4" fill="#20273f"/>
        </g>
        <g>
          <g>
            <path d="M409.9,452.3l-4.6-42.4,44.7-5.6,5.4,42.7s-16.9,15.2-45.5,5.3Z" fill="#e0a879"/>
            <path d="M409.9,452.3s-1,34.5.8,41.8c0,0,16.4,3.7,25.8.9,0,0,5-9,16.9-5.9,11.8,3.1,35,7.4,47,3.7,10.5-3.2,28.8-10.3,21.3-21.4-2-3-5.3-5.1-8.8-5.9-6.9-1.6-21.7-5.1-34.3-9-17.1-5.2-23.2-9.5-23.2-9.5,0,0-22.5,6.8-45.5,5.3Z" fill="#a77659"/>
            <path d="M370.6,261.4s-1.7,16.2,9,52c10.7,35.7,24.5,104,24.5,104,0,0,29,4.1,50.5-6.5,0,0-7.9-132.2-12.1-165.5-4.2-33.3-37.2-28.3-37.2-28.3,0,0-33.6-6.6-34.6,44.3Z" fill="#7f93b3"/>
          </g>
          <path d="M462,458.2l-10.9-41.2,43.4-12.2,11.7,41.4s-14.4,17.6-44.2,12Z" fill="#e0a879"/>
          <path d="M462,458.2s4.2,34.3,7,41.2c0,0,16.7,1.3,25.7-3,0,0,3.6-9.6,15.8-8.4,12.2,1.3,35.8,2.1,47-3.3,9.9-4.8,26.9-14.5,17.9-24.3-2.5-2.7-6-4.2-9.6-4.5-7.1-.5-22.2-1.8-35.2-3.7-17.7-2.6-24.3-6-24.3-6,0,0-21.2,10.1-44.2,12Z" fill="#a77659"/>
          <path d="M139.2,213.6c-15.8-16.6-35-43-35.4-66.4-.4-26.8.6-48.2,26.1-57.5,34.3-12.4,61.5,7.3,92.2,37.3s28,25.5,63,43.1c0,0-5.8,63.5-40.8,105.1,0,0-63.6-18.2-105.1-61.6Z" fill="#efefef"/>
          <path d="M120.6,73.6s10.4,8.4,16.6,11.9c0,0-4.3,14.8-19.4,30.6-13.3,13.9-16.6,10-16.6,10,0,0-16.2-12.9-24.3-18.8l43.7-33.7Z" fill="#e0a879"/>
          <path d="M284.4,169.7s117.8,30.3,153.4,46.7c0,0,30.8,45-1.4,73.2-5.7,4.9-87-19.6-100.4-16.9,0,0-79.2,9.5-113.1-8.2,0,0,39.3-32.3,61.6-94.8Z" fill="#7f93b3"/>
          <g>
            <path d="M124.7,138.1c3.2-5.6,10.6-8.9,17-8.3,9.9.9,25,13,39.9,28.7,26.1,27.5,45.3,50,41.4,64.4-10.9,40.4-35.2,17-75.1-19.9-34.4-31.8-30.6-51.8-23.3-64.8Z" fill="#efefef"/>
            <g>
              <path d="M268.5,286.1c3.4,15.2-.5,48.7-5.3,55.7-8.5,12.5-23.7,17-25.4,16.9-7.8-.6,16.7-18.6,16.7-18.6,0,0-14.9,9.6-18.9,10.9-4,1.3-11.1,1.8-9.7-1.5,1.4-3.3,14.5-8.7,19.7-14.2,0,0-26.2,17.4-24.6,6.2,0,0-6.9-1.5-.5-6.9,6.5-5.5,14.8-12,16.1-12.7,0,0-1-9.8,2.2-24.3,1.1-4.8,26.8-23.5,29.6-11.5Z" fill="#e0a879"/>
              <path d="M221.5,343.1c-.5,0-.9-.3-1.1-.7-.3-.6,0-1.4.6-1.6.1,0,11.5-5.3,20-13.2.5-.5,1.3-.4,1.7,0,.5.5.4,1.3,0,1.7-8.8,8.2-20.2,13.5-20.7,13.7-.2,0-.3.1-.5.1Z" fill="#20273f"/>
            </g>
            <path d="M218.1,203.6s40.3,49,52.3,81.8c0,0-22.3,22.8-30.5,14.1-19.5-20.6-52.5-67.4-52.5-67.4l30.7-28.4Z" fill="#efefef"/>
          </g>
          <path d="M244.9,302.7c-.4,0-.7,0-1,0-3.1-.3-4.6-1.9-4.9-2.4-5.6-5.7-45.6-55.2-48.6-58.9-2.5-1.7-33.3-22.7-57.5-50.6-.4-.5-.4-1.3.1-1.7.5-.4,1.3-.4,1.7.1,25,28.7,56.9,50.1,57.2,50.3.1,0,.2.2.3.3.4.5,43.3,53.5,48.6,58.9,0,0,.1.1.1.2,0,0,.9,1.3,3.4,1.5,3.3.3,10.8-1.4,24.7-15.1-4.7-9.5-52.1-102.9-113.4-146-.6-.4-.7-1.2-.3-1.7s1.2-.7,1.7-.3c64.8,45.6,114.1,146.7,114.6,147.7.2.5.1,1-.2,1.4-13.4,13.4-21.6,16.5-26.4,16.5Z" fill="#20273f"/>
          <g>
            <path d="M15.6,35.7c-13.1,22.5-5.4,51.3,17,64.4l22.2,8c47.3,18.9,64.3-17.6,64.3-17.6,13.4-23,2.3-45.5-20.2-58.6l-24.2-14.1C36.7-3.9,15.6,35.7,15.6,35.7Z" fill="#e0a879"/>
            <ellipse cx="89.1" cy="35.9" rx="3.2" ry="3.6" transform="translate(20.8 103.4) rotate(-66.6)" fill="#20273f"/>
            <path d="M103.6,61.5s0,0-.1,0c-.7,0-1.2-.6-1.1-1.3.9-10.8,9.2-11.4,9.3-11.4.7,0,1.3.5,1.3,1.2,0,.7-.5,1.3-1.2,1.3-.3,0-6.3.5-7,9.1,0,.6-.6,1.1-1.2,1.1Z" fill="#20273f"/>
            <path d="M106.9,38.2s3.3-7.8-1.5-10.3c-4.8-2.5-9.1,4.4-9.1,4.4l10.6,5.9Z" fill="#e0a879"/>
            <path d="M61,27s-3-.7-3.7-4.7c0,0-2.4,3.7-1.6,10.6,0,0-3.4-1.8-3.6-5.7,0,0-4.4,6.6-1.3,11.6,0,0-2.6-1.8-4.3-3.6,0,0-2.3,5.5,1.3,9.7,0,0-13.4,16.9.5,30.9,0,0,7,7.7,9.6,17.7,0,0,8.9,4.3,21.5,13.9,0,0,.6,9.2-6.2,12.1s-3.2.8-4.9.7l-9.1-1s-22.3,1-37.8-9.9C6,98.6-.2,69.6,0,67.8c.7-6,7.5-9.4,7.5-9.4,0,0-12.7-4.9.8-24C22.5,14.3,43.1,8.8,48.6,8.1c0,0,8.6-16,29.2,2.6,0,0,5.4,5.5,7.2,13.2,0,0-2-.9-9.6-3.7,0,0-6.3-1.4-14.4,6.8Z" fill="#20273f"/>
            <path d="M54.7,86.3c-2.5,3.3-4.2,13.6,8.2,18.5,12.5,4.9,18.9-10.9,18.9-10.9l-11.4-16.7c-11.7,3.9-13.3,5.8-15.7,9.1Z" fill="#e0a879"/>
            <path d="M61.3,91.8c-.2,0-.5,0-.7-.2-.6-.4-.7-1.2-.3-1.7,1.3-1.9,5.2-4.9,10.6-3.4.7.2,1,.9.8,1.5-.2.7-.9,1-1.5.8-5.1-1.5-7.8,2.2-7.9,2.4-.2.3-.6.5-1,.5Z" fill="#20273f"/>
            <path d="M60.2,69.2s0,0-.1,0c-.2,0-15.7-1.8-16.9-20.7,0-.7.5-1.3,1.2-1.3.7,0,1.3.5,1.3,1.2,1.1,16.8,14.1,18.4,14.7,18.4.7,0,1.2.7,1.1,1.4,0,.6-.6,1.1-1.2,1.1Z" fill="#20273f"/>
          </g>
          <path d="M20.8,99.6c-.4,0-.8-.2-1-.5-14.1-19.9-9.8-30.8-9.6-31.3.3-.6,1-.9,1.6-.7.6.3.9,1,.7,1.6,0,.2-3.8,10.3,9.4,28.9.4.6.3,1.3-.3,1.7-.2.2-.5.2-.7.2Z" fill="#efefef"/>
          <path d="M62.7,112.4s0,0-.1,0c-.1,0-14.6-1.7-18.5-17-.2-.7.2-1.3.9-1.5.7-.2,1.3.2,1.5.9,3.5,13.6,16.3,15.1,16.4,15.1.7,0,1.2.7,1.1,1.4,0,.6-.6,1.1-1.2,1.1Z" fill="#efefef"/>
          <path d="M23.9,29.2c-.3,0-.6-.1-.9-.4-.5-.5-.5-1.3,0-1.7.3-.3,6.9-6.7,18.7-10.1.7-.2,1.3.2,1.5.8.2.7-.2,1.3-.8,1.5-11.2,3.2-17.6,9.4-17.7,9.4-.2.2-.6.4-.9.4Z" fill="#efefef"/>
          <path d="M18.5,44.8c-.2,0-.4,0-.6-.2-.6-.3-.8-1.1-.4-1.7,7.5-12.6,20.1-17.4,20.7-17.6.6-.2,1.3,0,1.6.7.2.6,0,1.3-.7,1.6-.1,0-12.3,4.7-19.4,16.5-.2.4-.6.6-1.1.6Z" fill="#efefef"/>
          <path d="M21.3,112.5c-3.2,0-7.7-1-11.5-5.5-6.9-8.1-2.6-20.7-2.4-21.3.2-.6.9-1,1.6-.8.6.2,1,.9.8,1.6,0,.1-4,11.9,2,18.8,5.9,6.9,13.3,4.1,13.4,4.1.6-.2,1.3,0,1.6.7.2.6,0,1.3-.7,1.6,0,0-1.9.7-4.6.7Z" fill="#20273f"/>
          <path d="M21.4,23.6c-.2,0-.3,0-.5-.1-.6-.3-.9-1-.6-1.6.3-.7,7.7-17.5,27.6-21.9.7-.2,1.3.3,1.5.9.1.7-.3,1.3-.9,1.5-18.6,4.1-25.8,20.3-25.8,20.5-.2.5-.7.7-1.1.7Z" fill="#20273f"/>
          <path d="M94.8,112.4c-.5,0-1-.4-1.2-.9-.2-.7.2-1.3.8-1.5,22.2-6.3,28-30.7,28.1-30.9.2-.7.8-1.1,1.5-.9.7.2,1.1.8.9,1.5,0,.3-6.2,26.1-29.8,32.8-.1,0-.2,0-.3,0Z" fill="#20273f"/>
          <path d="M104.5,137.3s-7.2-10.7-8-15c0,0,17.2-2.6,35.1-40.5,0,0,7.8,3.2,11.4,5.4,0,0-8.7,36.4-38.5,50Z" fill="#efefef"/>
          <path d="M103.7,137.2c-.5,0-.9-.3-1.1-.7-.3-.6,0-1.3.6-1.6,32.2-15.8,37.5-48.2,37.6-48.5.1-.7.7-1.1,1.4-1,.7.1,1.1.7,1,1.4,0,.3-5.5,34-38.9,50.3-.2,0-.4.1-.5.1Z" fill="#20273f"/>
          <path d="M394.7,275.2s.8,16.3,16.7,50c15.9,33.7,39.8,99.2,39.8,99.2,0,0,29.3-.2,49-14,0,0-27.6-129.5-36.7-161.8-9.2-32.3-40.8-38.4-40.8-38.4,0,0-34.4,14.5-27.9,65Z" fill="#7f93b3"/>
          <path d="M517.2,462.4c-.2,0-.5,0-.7-.2-.6-.4-.7-1.1-.3-1.7.7-1.1,7.3-10.5,13.3-10.9,1.8-.1,3.4.6,4.7,2.1.4.5.4,1.3-.1,1.7-.5.4-1.3.4-1.7-.1-.8-.9-1.6-1.3-2.7-1.2-4.1.2-9.6,7.2-11.4,9.8-.2.4-.6.5-1,.5Z" fill="#efefef"/>
          <path d="M534,464.8c-.5,0-1-.3-1.2-.8,0,0-3.2-9.6-8.1-12.1-1.2-.6-2.4-.7-3.6-.3-.6.2-1.3-.1-1.6-.8-.2-.6.1-1.3.8-1.6,1.8-.6,3.7-.5,5.5.4,5.8,2.9,9.2,13.1,9.4,13.5.2.6-.1,1.3-.8,1.6-.1,0-.3,0-.4,0Z" fill="#efefef"/>
          <path d="M528.4,464.8c-.3,0-.5,0-.8-.3-.5-.4-.6-1.2-.2-1.7.9-1.2,9.4-11.5,15.7-11.5s0,0,0,0c1.7,0,3.1.7,4.1,2.1.4.5.3,1.3-.2,1.7-.5.4-1.3.3-1.7-.2-.6-.8-1.3-1.1-2.2-1.1,0,0,0,0,0,0-4.4,0-11.5,7.7-13.8,10.6-.2.3-.6.5-1,.5Z" fill="#efefef"/>
          <path d="M545.7,466.8c-.5,0-1-.4-1.2-.9-2.9-10-6.1-12.3-7.7-12.9-1.6-.5-2.8.4-2.8.4-.5.4-1.3.4-1.7-.2-.4-.5-.4-1.3.2-1.7,0,0,2.2-1.8,5.1-.9,3.8,1.2,6.9,6.1,9.3,14.5.2.7-.2,1.3-.8,1.5-.1,0-.2,0-.3,0Z" fill="#efefef"/>
          <path d="M445.3,410c-.5,0-1-.3-1.1-.8-.2-.6-24.8-61.9-33.9-83.5-8.2-19.4-13.6-37.3-14.7-41-3.2-.7-16.6-3.8-21.9-5-.7-.1-1.1-.8-.9-1.5.2-.7.8-1.1,1.5-.9,6,1.4,22.6,5.1,22.6,5.1.4,0,.8.4.9.9,0,.2,5.7,19.9,14.9,41.4,9.1,21.6,33.7,82.9,34,83.6.3.6,0,1.3-.7,1.6-.2,0-.3,0-.5,0Z" fill="#20273f"/>
          <path d="M466.8,491.6c-.6,0-1.1-.4-1.2-1-.8-4-4.4-29.2-4.5-30.2,0-.7.4-1.3,1-1.4.7,0,1.3.4,1.4,1,0,.3,3.7,26.1,4.5,30.1.1.7-.3,1.3-1,1.5,0,0-.2,0-.2,0Z" fill="#20273f"/>
          <path d="M274.2,165.6c-.2,0-.4,0-.6-.2-33.8-19.3-44.4-29.8-57.9-43.3-2.5-2.5-5.1-5.1-8-7.9-33.7-32.4-65.2-26.6-65.5-26.6-.3,0-.5,0-.8,0l-9.2-4.2c-1.4,2.7-5.2,10.2-10.5,17.9-8.9,13.1-17.3,20.5-25,22.1-.7.1-1.3-.3-1.5-1-.1-.7.3-1.3,1-1.5,16.9-3.5,34.1-39.4,34.2-39.8.3-.6,1-.9,1.6-.6l10,4.5c3.9-.6,34.7-4.1,67.3,27.3,2.9,2.8,5.5,5.4,8,7.9,13.3,13.3,23.9,23.8,57.4,42.9.6.3.8,1.1.5,1.7-.2.4-.6.6-1.1.6Z" fill="#20273f"/>
        </g>
        <g>
          <path d="M56,512h0c-7.2,0-12.7-5.9-11.4-12.2L126,196.1c1-4.9,5.8-8.4,11.4-8.4h0c7.2,0,12.7,5.9,11.4,12.2l-81.4,303.7c-1,4.9-5.8,8.4-11.4,8.4Z" fill="#20273f"/>
          <path d="M582.7,512h0c7.2,0,12.7-5.9,11.4-12.2l-81.4-303.7c-1-4.9-5.8-8.4-11.4-8.4h0c-7.2,0-12.7,5.9-11.4,12.2l81.4,303.7c1,4.9,5.8,8.4,11.4,8.4Z" fill="#20273f"/>
        </g>
        <rect x="82.3" y="179.8" width="472.3" height="25.3" rx="12.7" ry="12.7" fill="#a77659"/>
        <g>
          <g>
            <path d="M325.1,68.3s98.2.4,110,0c0,0,10.1-.8,5.5,10.5-4.6,11.4-42.5,94.8-42.5,94.8,0,0-2.2,7.2-14.6,8.4-12.4,1.3-122.4,0-122.4,0l46.8-101.5s3.8-12.3,17.3-12.2Z" fill="#20273f"/>
            <path d="M367.1,122c-1.1,5.9-6,10.7-10.9,10.8-4.9.1-7.9-4.6-6.8-10.4,1.1-5.9,6-10.7,10.9-10.8s7.9,4.6,6.8,10.4Z" fill="#efefef"/>
          </g>
          <path d="M221.6,161.6h62.8s0,20.5,0,20.5h-85c-5.1,0-5.5-8.3-2-11.5,0,0,8.7-9,24.2-9Z" fill="#20273f"/>
          <path d="M261.8,181.7c-.2,0-.4,0-.5-.1-.6-.3-.9-1-.6-1.6l7.5-16c.3-.6,1-.9,1.6-.6.6.3.9,1,.6,1.6l-7.5,16c-.2.4-.7.7-1.1.7Z" fill="#efefef"/>
        </g>
      </g>
    </g>
  </g>
</svg>