<?xml version="1.0" encoding="UTF-8"?><svg id="Layer" xmlns="http://www.w3.org/2000/svg" viewBox="0 0 512 695.8"><path d="M358.55,4.84s-10.73,4.5-26.45,7.09c-23.88,3.93-30.47,19.47-34.8,32.37-4.33,12.9-21.79,13.48-32.8,16.5-11,3.02-39.14,19.4-14.43,58.24,24.71,38.84,78.95,80.95,107.26,74.81s27.02-9.94,28.56-25.76c1.54-15.82,16.88-5.86,23.85-24.46,6.96-18.6,10.3-23.15,21.47-38.83,10.85-15.24,12.63-58.74-26.08-80.66-38.72-21.92-46.58-19.31-46.58-19.31Z" fill="#563926"/><path d="M283.85,463.51l5.41,209.13s12.06,1.41,17.43-.47l-4.9-209.66-17.94,1Z" fill="#563926"/><path d="M352.22,356.15s77.16,12.88,92.56,37.77c0,0,16.44,30.37-9.93,40.64-26.37,10.27-77.04-3.08-77.04-3.08l-85.94-75.33h80.35Z" fill="#cca47f"/><path d="M408.72,439.75c-24.14,0-49.74-6.64-51.23-7.04-.19-.05-.37-.14-.52-.27l-85.94-75.33c-.4-.35-.54-.91-.35-1.41.19-.5.66-.83,1.2-.83h80.35c.07,0,.14,0,.21.02.19.03,19.61,3.3,40.66,9.59,28.46,8.49,46.22,18.17,52.78,28.77.39.71,8.53,16,3.78,28.95-2.27,6.18-7.09,10.74-14.33,13.56-7.55,2.94-16.96,4-26.6,4ZM358.43,430.32c4.14,1.05,51.31,12.66,75.96,3.05,6.53-2.54,10.86-6.6,12.86-12.06,4.35-11.87-3.51-26.64-3.59-26.78-14.64-23.64-88.33-36.55-91.55-37.1h-76.84l83.16,72.89Z" fill="#563926"/><path d="M351.02,160.36s9.69,21.68,0,84.88c-9.69,63.2-9.24,77.35-9.24,77.35l-55.24-5.48s52.26-143.67,64.48-156.75Z" fill="#fcf9f3"/><path d="M341.78,323.87s-.08,0-.13,0l-55.24-5.48c-.39-.04-.75-.26-.96-.59-.21-.33-.25-.75-.12-1.12,2.14-5.88,52.49-144.06,64.75-157.19.29-.31.72-.46,1.15-.39.42.07.78.35.96.74.4.9,9.73,22.75.1,85.6-9.54,62.17-9.23,76.98-9.22,77.12,0,.37-.14.72-.41.97-.24.22-.55.34-.87.34ZM288.31,316.01l52.2,5.18c.12-4.9,1.16-23.45,9.24-76.13,7.86-51.26,2.83-75.19.82-82.03-13.24,19.45-56.78,138-62.27,152.98Z" fill="#563926"/><path d="M395.89,644.94s2.28-28.88,1.6-35.38,45.77,5.59,45.77,5.59c0,0-2.4,20.37-1.71,26.16.68,5.79-42.12,11.16-45.65,3.63Z" fill="#e8c8ac"/><path d="M410.46,649.93c-7.63,0-14.19-1.17-15.73-4.45-.09-.2-.13-.42-.12-.64.02-.29,2.27-28.83,1.6-35.15-.09-.82.22-1.58.86-2.13,4.89-4.21,39.6,4.55,46.5,6.35.62.16,1.02.75.95,1.39-.02.2-2.37,20.28-1.71,25.86.26,2.23-2.25,4.02-7.9,5.63-5.67,1.62-15.76,3.13-24.46,3.13ZM397.2,644.65c1.81,2.57,12.05,3.46,24.3,2.06,12.63-1.44,18.54-4.19,18.78-5.27-.61-5.13,1.09-20.94,1.58-25.33-19.47-5.01-41.22-8.91-43.13-6.59.69,6.12-1.25,31.51-1.53,35.13Z" fill="#563926"/><path d="M447.51,638.03s-6.16-4.57-14.15,0c-7.99,4.57-19.75,6.51-27.28,2.97-7.53-3.54-12.21-2.4-13.81,2.97-1.6,5.36-2.11,29.16-2.28,32.76s3.08,4.96,9.59,6.16c6.51,1.2,92.68,4.2,103.58,1.54,9.59-2.34,7.88-10.79,6.51-13.87s-8.5-12.32-33.73-19.69c-23.45-6.85-28.42-12.84-28.42-12.84Z" fill="#b26e60"/><path d="M478.17,686.77c-29.64,0-74.17-1.77-78.83-2.63-5.74-1.06-10.87-2.43-10.63-7.48.03-.58.06-1.67.11-3.13.41-12.5,1-25.83,2.22-29.94.77-2.57,2.18-4.33,4.2-5.24,2.8-1.25,6.63-.76,11.38,1.48,6.57,3.09,17.79,1.83,26.1-2.92,8.61-4.93,15.27-.12,15.55.08.08.06.15.13.22.2.07.08,5.3,5.87,27.8,12.44,27.86,8.13,33.66,18.42,34.54,20.4,1.14,2.56,1.87,6.77.18,10.2-1.33,2.7-3.87,4.53-7.55,5.43-3.27.8-13,1.1-25.28,1.1ZM398.65,640.25c-.9,0-1.69.15-2.36.45-1.33.6-2.25,1.78-2.8,3.63-1.29,4.34-1.87,21.83-2.12,29.29-.05,1.47-.08,2.58-.11,3.16-.1,2.1,1.23,3.5,8.54,4.84,6.28,1.16,92.57,4.11,103.04,1.56,2.91-.71,4.88-2.08,5.86-4.07,1.39-2.82.51-6.38-.22-8.03-.49-1.1-5.57-11-32.92-18.98-21.83-6.37-27.96-12.09-28.91-13.1-.78-.52-5.96-3.69-12.67.14-7.82,4.47-20.1,6.94-28.46,3.01-2.69-1.27-5.03-1.91-6.89-1.91Z" fill="#563926"/><path d="M450.87,678.22c-24.67,0-50.82-1.29-61.23-6.17-.64-.3-.91-1.06-.61-1.7.3-.64,1.06-.91,1.7-.61,20.95,9.83,112.05,4.4,112.97,4.35.71-.05,1.31.49,1.35,1.2.04.7-.49,1.31-1.2,1.35-1.95.12-26.62,1.59-52.98,1.59Z" fill="#563926"/><path d="M460.89,661.65c-.15,0-.3-.03-.45-.08-.66-.25-.99-.99-.74-1.65.15-.4,3.82-9.9,10.51-11.92.68-.2,1.39.18,1.59.85.2.68-.18,1.39-.85,1.59-5.48,1.65-8.82,10.29-8.85,10.38-.19.51-.68.82-1.2.82Z" fill="#563926"/><path d="M450.35,658.74c-.15,0-.3-.03-.45-.08-.66-.25-1-.99-.75-1.65.15-.4,3.82-9.93,11.31-12.53.67-.23,1.4.12,1.63.79.23.67-.12,1.4-.79,1.63-6.38,2.21-9.73,10.93-9.76,11.02-.19.51-.68.83-1.2.83Z" fill="#563926"/><path d="M440.52,654.63c-.15,0-.31-.03-.46-.09-.66-.25-.99-.99-.73-1.65.15-.39,3.8-9.68,12.17-12.78.66-.25,1.4.09,1.64.75.25.66-.09,1.4-.75,1.64-7.27,2.7-10.64,11.22-10.67,11.3-.2.51-.68.82-1.19.82Z" fill="#563926"/><path d="M478.01,677.75c-.62,0-1.17-.46-1.26-1.09-.06-.41-1.37-10.04,6.66-18.61.48-.52,1.29-.54,1.81-.06.52.48.54,1.29.06,1.81-7.16,7.64-6.01,16.41-6,16.5.1.7-.38,1.35-1.08,1.45-.06,0-.12.01-.18.01Z" fill="#563926"/><path d="M295.27,653.96s2.28-28.88,1.6-35.38c-.68-6.51,45.77,5.59,45.77,5.59,0,0-2.4,20.37-1.71,26.16.68,5.79-42.12,11.16-45.65,3.63Z" fill="#e8c8ac"/><path d="M309.84,658.95c-7.63,0-14.19-1.17-15.73-4.45-.09-.2-.13-.42-.12-.64.02-.29,2.27-28.83,1.6-35.15-.09-.82.22-1.58.86-2.13,4.9-4.21,39.6,4.55,46.5,6.35.62.16,1.02.75.95,1.39-.02.2-2.37,20.28-1.71,25.86.26,2.23-2.25,4.02-7.9,5.64-5.67,1.62-15.76,3.13-24.45,3.13ZM296.58,653.67c1.81,2.57,12.05,3.46,24.3,2.06,12.63-1.44,18.54-4.19,18.78-5.27-.61-5.13,1.09-20.94,1.58-25.33-19.47-5.01-41.21-8.91-43.13-6.59.69,6.12-1.25,31.51-1.53,35.13Z" fill="#563926"/><path d="M346.89,647.05s-6.16-4.57-14.15,0c-7.99,4.57-19.75,6.51-27.28,2.97-7.53-3.54-12.21-2.4-13.81,2.97-1.6,5.36-2.11,29.16-2.28,32.76s3.08,4.96,9.59,6.16c6.51,1.2,92.68,4.2,103.58,1.54,9.59-2.34,7.88-10.79,6.51-13.87-1.37-3.08-8.5-12.32-33.73-19.69-23.45-6.85-28.42-12.84-28.42-12.84Z" fill="#b26e60"/><path d="M377.55,695.8c-29.64,0-74.17-1.77-78.84-2.63-5.74-1.06-10.88-2.43-10.63-7.48.03-.58.06-1.67.11-3.13.41-12.5,1-25.83,2.22-29.93.77-2.57,2.18-4.33,4.2-5.24,2.8-1.25,6.63-.76,11.38,1.48,6.57,3.09,17.79,1.83,26.1-2.92,8.61-4.92,15.27-.12,15.55.08.08.06.15.13.21.2.09.1,5.35,5.88,27.8,12.44,27.86,8.13,33.66,18.42,34.54,20.4,1.14,2.56,1.87,6.77.18,10.2-1.33,2.7-3.87,4.53-7.55,5.43-3.27.8-13,1.1-25.28,1.1ZM298.03,649.27c-.9,0-1.69.15-2.36.45-1.33.6-2.25,1.78-2.8,3.63-1.29,4.34-1.87,21.82-2.12,29.29-.05,1.47-.08,2.58-.11,3.17-.1,2.1,1.23,3.5,8.54,4.84,6.28,1.16,92.57,4.11,103.04,1.56,2.91-.71,4.88-2.08,5.86-4.07,1.39-2.82.51-6.38-.22-8.03-.49-1.1-5.57-11-32.92-18.98-21.83-6.37-27.96-12.09-28.91-13.1-.78-.52-5.96-3.69-12.67.14-7.82,4.47-20.1,6.94-28.46,3.01-2.69-1.27-5.03-1.91-6.89-1.91Z" fill="#563926"/><path d="M350.26,687.24c-24.67,0-50.82-1.29-61.23-6.17-.64-.3-.91-1.06-.61-1.7s1.06-.92,1.7-.61c20.95,9.83,112.05,4.4,112.97,4.35.71-.04,1.31.49,1.35,1.2.04.7-.49,1.31-1.2,1.35-1.95.12-26.62,1.59-52.98,1.59Z" fill="#563926"/><path d="M360.27,670.68c-.15,0-.3-.03-.45-.08-.66-.25-.99-.99-.74-1.65.15-.4,3.82-9.9,10.51-11.92.68-.2,1.39.18,1.59.85.2.68-.18,1.39-.85,1.59-5.48,1.65-8.82,10.29-8.85,10.38-.19.51-.68.82-1.2.82Z" fill="#563926"/><path d="M349.73,667.77c-.15,0-.3-.03-.45-.08-.66-.25-1-.99-.75-1.65.15-.4,3.82-9.93,11.31-12.53.67-.23,1.4.12,1.63.79.23.67-.12,1.4-.79,1.63-6.38,2.21-9.73,10.93-9.76,11.02-.19.51-.68.83-1.2.83Z" fill="#563926"/><path d="M339.9,663.66c-.15,0-.31-.03-.46-.09-.66-.25-.99-.99-.73-1.65.15-.39,3.8-9.68,12.17-12.78.66-.25,1.4.09,1.64.75.25.66-.09,1.4-.75,1.64-7.27,2.7-10.64,11.22-10.67,11.3-.2.51-.68.82-1.19.82Z" fill="#563926"/><path d="M377.39,686.77c-.62,0-1.17-.46-1.26-1.09-.06-.41-1.37-10.04,6.66-18.61.48-.52,1.29-.54,1.81-.06.52.48.54,1.29.06,1.81-7.16,7.64-6.01,16.41-6,16.5.1.7-.38,1.35-1.08,1.45-.06,0-.12.01-.18.01Z" fill="#563926"/><polygon points="119.5 273.14 62.66 265.84 75.9 167.72 168.58 179.55 119.5 273.14" fill="#563926"/><path d="M312.05,470.31s-238.2-22.37-273.13-27.85c0,0,.68-16.21,3.65-23.97l274.38,25.91-4.91,25.91Z" fill="#563926"/><path d="M480.57,297.41l24.91-39.12c1.07-1.68,1.01-3.83-.16-5.45l-.81-1.13c-.87-1.2-2.24-1.95-3.72-2.01l-23.8-1.09c-2.42-.11-4.74.98-6.19,2.92l-43.44,57.8s32.99,1.5,53.22-11.92Z" fill="#563926"/><path d="M442.99,301.53c-.26,0-.53-.08-.76-.25-.57-.42-.69-1.22-.27-1.79l32.2-43.57c1.75-2.37,4.55-3.67,7.49-3.51l21.9,1.25c.7.04,1.24.65,1.2,1.35-.04.7-.64,1.25-1.35,1.2l-21.9-1.25c-2.09-.12-4.05.81-5.29,2.48l-32.2,43.57c-.25.34-.64.52-1.03.52Z" fill="#fcf9f3"/><path d="M389.15,306.5s14.21,1.71,20.03-3.77,28.76-24.31,36.64-24.14-7.36,18.49-8.22,20.54,25.34,1.71,34.93-4.45c9.59-6.16,15.58-5.06,16.26-2.01.68,3.04-4.62,8.18-8.22,10.06,0,0,.94,7.62-8.22,14.38,0,0-1.46,8.77-8.99,13.5,0,0-5.14,11.24-22.09,13.81-16.95,2.57-52.13,2.74-52.13,2.74v-40.66Z" fill="#e8c8ac"/><path d="M389.15,348.44c-.34,0-.66-.13-.9-.37-.24-.24-.38-.57-.38-.91v-40.66c0-.37.16-.71.43-.96s.63-.36,1-.31c.14.02,13.69,1.57,19-3.43,3.43-3.23,28.15-24.49,37.41-24.49.04,0,.08,0,.13,0,1.91.04,2.77.95,3.15,1.71,1.67,3.32-2.91,10.22-8.16,17.6-.51.72-1.07,1.5-1.47,2.09,4.86.93,24.61-.05,32.48-5.1,6.35-4.08,12.03-5.59,15.56-4.14,1.41.58,2.35,1.62,2.64,2.92.84,3.75-4.53,8.9-8.16,11.07-.02,2.3-.82,8.62-8.37,14.38-.44,2.02-2.46,9.28-9.16,13.66-1.06,2.03-6.95,11.77-22.88,14.18-16.84,2.55-51.96,2.75-52.32,2.75h0ZM390.43,307.9v37.97c6.48-.06,35.82-.47,50.66-2.71,16-2.42,20.91-12.64,21.12-13.08.1-.22.27-.42.48-.55,6.93-4.36,8.39-12.55,8.41-12.63.05-.33.24-.62.5-.82,8.46-6.25,7.72-13.13,7.71-13.19-.07-.53.2-1.04.68-1.29,3.56-1.86,8.03-6.57,7.56-8.65-.11-.48-.48-.86-1.12-1.12-2.1-.86-6.67-.28-13.21,3.93-9.01,5.79-33.45,7.09-36.33,4.69-.55-.46-.74-1.17-.47-1.8.23-.55.92-1.53,2.32-3.51,2.24-3.15,9.08-12.75,7.96-14.97-.12-.24-.63-.29-.92-.3-.03,0-.06,0-.09,0-6.84,0-28.05,16.64-35.64,23.79-5.11,4.81-15.75,4.52-19.63,4.24Z" fill="#563926"/><path d="M454.46,314.16c-.65,0-1.21-.49-1.27-1.15-.07-.7.44-1.33,1.15-1.4.14-.01,13.8-1.46,25.49-9.91.57-.41,1.37-.29,1.79.29.41.57.28,1.37-.29,1.79-12.27,8.86-26.15,10.32-26.73,10.38-.04,0-.08,0-.13,0Z" fill="#563926"/><path d="M453.55,325.5c-.57,0-1.09-.38-1.24-.96-.17-.69.24-1.38.92-1.55,6.55-1.67,18.48-6.98,18.6-7.03.65-.29,1.4,0,1.69.65.29.64,0,1.4-.65,1.69-.5.22-12.25,5.46-19.01,7.18-.1.03-.21.04-.32.04Z" fill="#563926"/><path d="M451.72,335.66c-.66,0-1.21-.5-1.27-1.17-.06-.7.46-1.32,1.16-1.39,4.83-.43,11.11-3.6,11.18-3.63.63-.32,1.4-.07,1.72.56.32.63.07,1.4-.56,1.72-.27.14-6.79,3.42-12.11,3.89-.04,0-.08,0-.11,0Z" fill="#563926"/><path d="M449.79,411.61s9.72,93.37,2.41,205.45c0,0-26.94,8.67-63,1.6,0,0-7.99-133.31-11.19-152.94-3.2-19.63-7.3-39.73,4.11-54.11,11.41-14.37,55.43-29,67.66,0Z" fill="#cca47f"/><path d="M417.67,622.7c-8.55,0-18.27-.73-28.72-2.78-.57-.11-1-.6-1.03-1.18-.08-1.33-8.02-133.47-11.17-152.81l-.52-3.19c-3.07-18.62-6.25-37.88,4.89-51.91.44-.55,1.24-.65,1.8-.21.55.44.65,1.24.21,1.8-10.44,13.15-7.36,31.84-4.37,49.91l.53,3.2c3.06,18.8,10.35,138.92,11.14,152.08,31.37,5.93,55.84-.18,60.57-1.5,7.1-110.29-2.37-203.41-2.47-204.34l-.73-5.5c-.09-.7.4-1.34,1.1-1.44.7-.1,1.34.4,1.43,1.1l.73,5.54c.1.97,9.65,94.8,2.42,205.7-.03.52-.38.97-.88,1.13-.19.06-14.04,4.41-34.93,4.41Z" fill="#563926"/><path d="M104.09,366.76s-4.45,47.59,43.14,60.26c47.59,12.67,140.04,17.81,162.3,19.86,22.26,2.05,73.28-.34,76.01-26.02,2.74-25.68-9.6-47.25-80.12-60.61-70.52-13.35-113.68-19.86-113.68-19.86,0,0-77.04-1.71-87.66,26.37Z" fill="#cca47f"/><path d="M322.37,448.69c-5.11,0-9.59-.22-12.95-.53-3.75-.35-9.46-.78-16.69-1.32-34.45-2.6-106.14-8.01-145.82-18.57-48.08-12.8-44.13-61.13-44.09-61.62.01-.11.04-.23.08-.33,4.58-12.11,21-20.36,48.82-24.52,20.46-3.06,39.87-2.67,40.07-2.67.05,0,.11,0,.16.01.43.06,43.99,6.66,113.73,19.87,61.11,11.57,84.62,29.53,81.16,62-2.44,22.86-40.46,27.69-64.46,27.69ZM105.35,367.05c-.29,3.56-2.81,46.75,42.21,58.74,39.45,10.5,110.98,15.9,145.35,18.5,7.25.55,12.97.98,16.74,1.33,10.9,1,29.2.93,44.93-2.59,12.77-2.86,28.28-9.04,29.7-22.3,2.4-22.52-5.52-45.28-79.09-59.21-68.24-12.92-111.38-19.51-113.55-19.84-2.84-.04-76.03-.98-86.29,25.38Z" fill="#563926"/><path d="M299.44,305.7s26.94-45.2,43.37-85.83,13.24-64.37-8.22-84.92c-21.46-20.54-85-30.13-137.46,6.39-52.46,36.52-103.14,149.13-100.4,222.48,0,0,6.16,13.55,21.23,8.98,15.07-4.57,68.94-27.85,103.64-25.57,34.7,2.28,66.2-21.02,77.84-41.55Z" fill="#fcf9f3"/><path d="M112.06,375.02c-9.04,0-14.6-6.51-16.49-10.66-.07-.15-.11-.32-.11-.48-2.77-74.01,48.18-186.84,100.95-223.58,23.65-16.46,52.46-25.27,81.11-24.83,24.2.38,46.41,7.5,57.97,18.56,11.04,10.57,15.36,17.12,19.14,35.05.02.13,1.57,8.97,1.85,18.51.02.71-.54,1.3-1.24,1.32-.66.04-1.3-.53-1.32-1.24-.27-9.34-1.79-18.01-1.81-18.1-3.64-17.23-7.78-23.52-18.4-33.69-11.11-10.63-32.66-17.47-56.24-17.85-28.11-.42-56.39,8.21-79.61,24.37-52.13,36.3-102.47,147.8-99.86,221.12.85,1.69,6.65,12,19.59,8.08,2.96-.9,7.41-2.51,13.04-4.56,22.01-8,62.97-22.91,91.05-21.06,32.24,2.12,64.3-19.13,76.64-40.9.28-.48,27.09-45.61,43.3-85.68.26-.66,1.01-.97,1.66-.71.65.27.97,1.01.71,1.67-16.28,40.26-43.19,85.55-43.46,86-12.73,22.43-45.77,44.34-79.02,42.17-27.55-1.82-68.18,12.97-90.01,20.91-5.67,2.06-10.15,3.69-13.17,4.61-2.25.68-4.34.98-6.27.98Z" fill="#563926"/><path d="M351.64,162.62s-19.67,22.44-39.99,9.88c-24.81-15.33-21.17-45.69-20.21-54.77,0,0,48.74,2.04,60.2,44.89Z" fill="#e8c8ac"/><path d="M324.58,177.57c-4.37,0-8.97-1.12-13.61-3.98-25.13-15.53-21.91-45.67-20.85-55.58l.04-.41c.07-.67.68-1.16,1.33-1.14.5.02,49.81,2.58,61.38,45.84.11.41,0,.85-.27,1.17-.16.18-12.6,14.11-28.02,14.11ZM292.58,119.1c-1.08,10.25-3.38,38.03,19.74,52.32,17.49,10.81,34.87-5.99,37.9-9.14-10.38-37.11-50.2-42.49-57.63-43.17Z" fill="#563926"/><path d="M385.8,417.9s-10.33,134.22-32.57,209.55c0,0-40.73,2.74-64.92-7.76,0,0,7.3-98.84,9.59-119.39,2.28-20.54,4.34-57.52,2.74-65.97-1.6-8.45,73.08-44.05,85.16-16.43Z" fill="#cca47f"/><path d="M340.9,629.07c-14.04,0-36.99-1.22-53.1-8.21-.5-.22-.81-.72-.77-1.27.07-.99,7.33-99.1,9.59-119.43,2.22-19.94,4.33-57.26,2.75-65.59-.13-.69.32-1.36,1.02-1.49.7-.13,1.36.32,1.49,1.02,1.67,8.83-.5,46.34-2.72,66.35-2.14,19.23-8.77,108.38-9.52,118.43,21.74,9.02,56.62,7.67,62.61,7.36,21.77-74.5,32.16-207.09,32.27-208.43l.09-3.31c.02-.69.59-1.24,1.28-1.24.01,0,.03,0,.04,0,.71.02,1.26.61,1.24,1.32l-.1,3.37c-.11,1.4-10.6,135.28-32.62,209.88-.15.51-.61.88-1.14.91-.56.04-5.37.35-12.42.35Z" fill="#563926"/><path d="M126.92,333.58c-.49,0-.96-.28-1.17-.76-.29-.65,0-1.4.65-1.69,29.88-13.26,65.94-5.64,66.3-5.56.69.15,1.13.83.98,1.52-.15.69-.83,1.13-1.52.98-.35-.08-35.62-7.52-64.72,5.4-.17.07-.34.11-.52.11Z" fill="#563926"/><path d="M184.49,320.09c-.15,0-.31-.03-.46-.08-.32-.12-32.62-12.37-53.37-6.36-.68.2-1.39-.19-1.58-.87-.2-.68.19-1.39.87-1.58,21.59-6.26,53.64,5.91,55,6.43.66.25.99.99.73,1.65-.2.51-.68.82-1.19.82Z" fill="#563926"/><path d="M42.13,442.94S1.71,636.21,0,647.34c0,0,9.76,3.6,16.26,4.45l44.52-206.54-18.66-2.31Z" fill="#563926"/><path d="M150.71,454.69l-26.93,207.46s11.7,3.25,17.29,2.23l27.51-207.9-17.88-1.78Z" fill="#563926"/><path d="M185.61,458.15l-6.07,80.62s3.5,6.33,3.03,13.53c-.47,7.19,4.71,12.33,3.03,19.4s-4.41,15.98-3.96,19.17c.46,3.2,4.01,22.66,1.09,23.51-2.92.86-7.14-.91-7.6,5.94-.46,6.85,1.83,50.68,1.83,50.68h5.02s11.19-53.42,12.1-58.21c.91-4.79-5.25-14.61-3.42-27.16,1.83-12.55,4.07-25.57,3.52-28.31s6.53-39.95,6.53-45.65,2.92-51.74,2.92-51.74l-18.02-1.77Z" fill="#563926"/><path d="M195.41,460.39s-.08,0-.13,0c-.7-.07-1.22-.69-1.15-1.4l2.2-22.4c.07-.7.68-1.22,1.4-1.15.7.07,1.22.69,1.15,1.4l-2.2,22.4c-.06.66-.62,1.15-1.27,1.15Z" fill="#fcf9f3"/><path d="M42.57,418.5l23.34-249.13s1.71-5.48,10.39-5.59c8.67-.11,10.27,8.1,10.27,8.1l-24.8,248.43-19.2-1.81Z" fill="#563926"/><path d="M170.78,166s8.07,3.91,6.01,14.35c-2.05,10.44-8.09,11.81-6.01,21.74,2.08,9.93-8.02,22.39-13.85,19.67-5.82-2.72-2.51-17.65-11.44-20.03,0,0,16.17-25.79,25.29-35.73Z" fill="#cca47f"/><path d="M153.54,281.02s-9.42.68-7.88-9.42,2.91-11.81,1.46-17.46c-1.46-5.65,1.8-10.1,8.3-5.31s-.34,9.93,3.6,15.75c3.94,5.82,7.19,14.89-5.48,16.44Z" fill="#cca47f"/><path d="M337.8,231.68s-3.74-6.25-8.81-3.96c-5.07,2.28-4.56,12.74-11.06,13.76s-9.59.85-10.27,8.21-5.82,14.21,0,15.92,9.36,4.28,9.9,7.53c0,0,16.3-32.22,20.25-41.46Z" fill="#cca47f"/><path d="M104.22,301.87s3.01-5.44,8.26-2.36c5.25,3.08-3.94,10.44.68,18.26,4.62,7.82,9.19,8.93,2.45,15.74-6.73,6.81-7.76,8.69-10.33,13.31s-7.36,2.41-7.96-4.61c-.6-7.03,6.89-40.33,6.89-40.33Z" fill="#cca47f"/><path d="M227.42,142.91c15.43-10.75,36.59-5.37,44.73,11.57,4.36,9.07,7.4,22.42,6.97,42.08-1.37,61.98-3.08,100.21,2.74,117.22,5.82,17.01-72.73,24.24-74.46,16.84-2.32-9.94-10.31-62.71-10.27-117.09,0-14.2,2.65-28.32,8.24-41.37,4.57-10.67,11.54-21.93,22.05-29.25Z" fill="#fcf9f3"/><path d="M222.07,334.8c-5.09,0-9.31-.35-12.03-1.08-2.32-.62-3.59-1.54-3.88-2.82-2.19-9.39-10.34-62.62-10.31-117.38,0-.71.57-1.28,1.28-1.28h0c.71,0,1.28.57,1.28,1.28-.03,54.54,8.06,107.47,10.24,116.8.51,1,7.42,2.78,24.56,1.42,11.69-.93,27.89-3.49,38.3-7.9,4.96-2.1,10.57-5.48,9.14-9.66-5.23-15.28-4.5-46.18-3.28-97.36.15-6.46.31-13.22.47-20.29.38-17.29-1.92-31.25-6.84-41.5-.31-.64-.04-1.4.6-1.71.64-.31,1.4-.04,1.71.6,5.1,10.61,7.49,24.96,7.09,42.66-.16,7.07-.32,13.84-.47,20.3-1.17,49.15-1.94,81.63,3.14,96.48.61,1.79.77,4.52-1.94,7.42-8.38,8.98-39.84,14.02-59.06,14.02Z" fill="#563926"/><path d="M395.08,301.45s5.25,28.53,0,53.87c0,0-106.37,16.21-158.19,3.88,0,0-28.31-7.3-30.82-36.07-2.51-28.76,47.48-26.02,79.21-25.34,31.73.68,109.8,3.65,109.8,3.65Z" fill="#fcf9f3"/><path d="M288.57,365.07c-19.26,0-37.71-1.23-51.97-4.62-.32-.08-29.23-7.88-31.79-37.2-.06-.7.46-1.32,1.16-1.38.7-.06,1.32.46,1.38,1.16,2.4,27.54,29.59,34.87,29.86,34.94,48.47,11.53,146.45-2.26,156.8-3.78,4.32-21.93.83-46.3-.01-51.5-9.38-.35-79.37-2.98-108.74-3.61l-8.44-.2c-.71-.02-1.27-.6-1.25-1.31s.61-1.29,1.31-1.25l8.44.2c31.38.68,109.04,3.62,109.82,3.65.6.02,1.1.46,1.21,1.05.05.29,5.24,29.07,0,54.36-.11.52-.53.92-1.06,1-.77.12-56.46,8.48-106.71,8.48Z" fill="#563926"/><path d="M246.88,309.46c-.33,0-.66-.12-.91-.38-.5-.5-.5-1.31,0-1.81.39-.39,9.77-9.54,30.79-10.96.74-.05,1.31.49,1.36,1.19.05.7-.49,1.31-1.19,1.36-19.98,1.34-29.06,10.13-29.15,10.22-.25.25-.58.37-.9.37Z" fill="#563926"/><path d="M259.89,319.05c-.13,0-.26-.02-.38-.06-.67-.21-1.05-.93-.84-1.6,3.04-9.67,15.06-15.43,15.57-15.67.64-.3,1.4-.03,1.7.61.3.64.03,1.4-.61,1.7-.11.05-11.52,5.54-14.23,14.13-.17.55-.68.9-1.22.9Z" fill="#563926"/><path d="M262.86,234.74s.46,12.68-8.1,10.51c-8.56-2.17-1.71-18.84-9.13-24.09-7.42-5.25-4.34-12.21,3.42-12.55,7.76-.34-1.37-9.47,6.28-10.5,7.65-1.03,10.17,10.96,7.54,19.29-2.63,8.33.29,13.56,0,17.35Z" fill="#cca47f"/><path d="M346.23,330.03c2.61-.81,5.08-2.06,7.14-3.87,2.28-2.01,5.88-4.18,9.65-2.47,6.28,2.85.11,10.04,8.9,11.87s5.59,11.64-7.19,9.47c-12.78-2.17-21.46,4.77-27.85,3.42-6.39-1.34-3.88-8.1-1.48-12.1,1.74-2.9,6.43-4.96,10.84-6.33Z" fill="#cca47f"/><path d="M232.5,357.64s4.67-.46,5.04-5.8c.38-5.35-.86-9.42,1.28-13.44,2.14-4.02.7-9.93-6.33-10.61-7.03-.68-10.96-6.16-12.16-10.02-1.2-3.85-11.83-6.18-14.17.59,0,0-3.9,25.54,26.34,39.28Z" fill="#cca47f"/><path d="M197.33,230.4c-.36,0-.72-.15-.97-.45-8.4-9.84-8.07-22.27-8.05-22.8.02-.71.6-1.25,1.32-1.23.71.02,1.26.62,1.24,1.32,0,.12-.29,11.98,7.44,21.05.46.54.39,1.34-.14,1.8-.24.21-.54.31-.83.31Z" fill="#563926"/><path d="M338.64,349.91c-.69,0-1.37-.06-2.03-.2-2.27-.48-3.81-1.6-4.57-3.33-1.52-3.49.75-8.19,2.25-10.68,1.62-2.69,5.5-5.01,11.55-6.89,2.64-.82,4.88-2.03,6.67-3.61,3.76-3.32,7.57-4.24,11.02-2.67,3.5,1.59,3.86,4.4,4.16,6.66.33,2.5.56,4.31,4.47,5.13,4.75.99,6.38,4.03,5.9,6.6-.7,3.7-5.58,6.74-13.56,5.39-7.07-1.2-12.75.48-17.77,1.96-2.97.88-5.63,1.66-8.1,1.66ZM360.2,324.36c-2.29,0-4.44,1.4-5.99,2.76-2.06,1.81-4.62,3.21-7.6,4.13h0c-5.36,1.66-8.86,3.66-10.12,5.77-1.61,2.68-3,6.27-2.1,8.34.41.94,1.31,1.55,2.75,1.85,2.4.5,5.4-.38,8.88-1.41,5.02-1.48,11.27-3.32,18.92-2.02,6.67,1.13,10.23-1.27,10.62-3.34.31-1.64-1.22-3.06-3.9-3.62-5.69-1.18-6.13-4.57-6.49-7.3-.28-2.12-.48-3.66-2.68-4.66-.77-.35-1.53-.5-2.28-.5ZM346.23,330.03h.01-.01Z" fill="#563926"/><path d="M232.5,358.92c-.18,0-.36-.04-.53-.11-16.03-7.29-22.55-17.91-25.19-25.54-2.87-8.31-1.93-14.82-1.88-15.1.01-.08.03-.15.05-.23,1.14-3.3,4.21-5.22,8.17-5.16,3.41.05,7.52,1.69,8.43,4.61.96,3.08,4.37,8.47,11.07,9.12,3.46.34,6.1,1.91,7.45,4.42,1.29,2.41,1.25,5.5-.12,8.07-1.28,2.4-1.2,4.83-1.11,7.9.05,1.58.1,3.21-.03,5.03-.36,5.08-4.21,6.79-6.19,6.98-.04,0-.08,0-.12,0ZM207.41,318.67c-.27,2.05-2.59,24.79,25.27,37.65.92-.2,3.34-1.05,3.59-4.57.12-1.69.07-3.25.02-4.77-.1-3.18-.19-6.18,1.41-9.18.97-1.82,1.02-3.99.12-5.66-.95-1.76-2.83-2.83-5.45-3.08-7.03-.69-11.73-5.97-13.26-10.91-.4-1.29-2.98-2.76-6.03-2.81-1.65,0-4.58.37-5.67,3.33Z" fill="#563926"/><path d="M317.56,274.42c-.06,0-.13,0-.19-.01-.55-.08-.98-.51-1.07-1.05-.44-2.62-3.63-4.94-9-6.52-1.47-.43-2.51-1.2-3.1-2.28-1.17-2.16-.32-5.01.66-8.31.61-2.05,1.31-4.38,1.52-6.67.72-7.77,4.36-8.31,9.87-9.13l1.48-.22c2.87-.45,4.14-3.41,5.48-6.54,1.24-2.9,2.52-5.89,5.26-7.12,4.83-2.17,8.94,1.98,10.44,4.47.21.35.24.78.08,1.16-3.92,9.17-20.12,41.21-20.28,41.54-.22.44-.66.7-1.14.7ZM331.24,228.5c-.55,0-1.13.11-1.72.38-1.83.82-2.86,3.24-3.96,5.8-1.48,3.46-3.16,7.39-7.43,8.06l-1.5.23c-5.5.82-7.16,1.06-7.7,6.84-.24,2.54-.97,5-1.62,7.17-.79,2.64-1.53,5.14-.87,6.36.25.47.77.81,1.57,1.05,4.72,1.39,7.98,3.34,9.64,5.73,3.77-7.5,15.1-30.09,18.7-38.3-.76-1.06-2.68-3.31-5.12-3.31Z" fill="#563926"/><path d="M256.63,246.78c-.69,0-1.42-.1-2.19-.29-5.37-1.36-5.69-7.13-5.99-12.71-.25-4.63-.52-9.42-3.56-11.58-3.77-2.67-5.46-6.16-4.52-9.35.95-3.21,4.25-5.33,8.63-5.52.97-.04,1.62-.24,1.9-.57.43-.52.25-1.76.07-2.96-.25-1.71-.53-3.65.61-5.17.74-.98,1.91-1.56,3.58-1.79,2.63-.36,4.95.57,6.72,2.67,3.3,3.93,4.25,11.79,2.21,18.27-1.68,5.31-.97,9.31-.4,12.51.29,1.66.55,3.1.46,4.48.02.84.07,7.71-3.59,10.66-1.11.9-2.43,1.35-3.92,1.35ZM256.21,199.32c-.23,0-.47.02-.72.05-.95.13-1.58.39-1.88.79-.5.66-.31,1.98-.12,3.26.24,1.67.52,3.57-.63,4.96-.77.93-2,1.42-3.76,1.5-3.2.14-5.67,1.59-6.29,3.69-.61,2.09.71,4.54,3.55,6.54,4.06,2.87,4.37,8.53,4.64,13.53.32,5.89.76,9.53,4.07,10.37,1.62.41,2.89.23,3.87-.57,2.35-1.9,2.7-6.89,2.64-8.65,0-.05,0-.1,0-.14.08-1.08-.15-2.39-.42-3.91-.59-3.3-1.39-7.82.48-13.73,1.78-5.63,1.02-12.59-1.72-15.86-1.02-1.22-2.27-1.83-3.7-1.83Z" fill="#563926"/><path d="M158.7,223.43c-.81,0-1.58-.17-2.31-.5-3.14-1.47-4-5.36-4.91-9.47-1.02-4.6-2.07-9.35-6.32-10.48-.39-.1-.71-.39-.86-.77s-.11-.8.11-1.15c.66-1.06,16.34-26,25.43-35.92.38-.42,1-.53,1.5-.29.09.04,8.93,4.47,6.71,15.75-.88,4.5-2.46,7.36-3.85,9.89-1.91,3.47-3.29,5.97-2.16,11.35,1.48,7.08-2.74,15.35-7.68,19.26-1.95,1.54-3.89,2.33-5.65,2.33ZM147.42,201.08c4.4,2.1,5.54,7.23,6.56,11.81.77,3.48,1.5,6.78,3.5,7.71,1.35.63,3.28.08,5.29-1.52,4.23-3.35,8.02-10.7,6.76-16.73-1.32-6.3.42-9.46,2.43-13.1,1.3-2.36,2.78-5.04,3.58-9.15,1.46-7.43-2.7-11.2-4.52-12.46-7.82,8.86-20.27,28.2-23.6,33.44Z" fill="#563926"/><path d="M153.17,282.31c-1.23,0-4.63-.24-6.9-2.69-1.78-1.93-2.41-4.69-1.87-8.21.45-2.94.89-5.19,1.24-7,.85-4.39,1.21-6.21.24-9.95-.92-3.59-.17-6.71,1.97-8.16,1.23-.83,3.95-1.73,8.33,1.5,4.21,3.1,3.64,6.51,3.14,9.51-.37,2.24-.73,4.35.76,6.55,2.02,2.99,5.1,8.66,3.06,13.13-1.33,2.91-4.51,4.69-9.45,5.29-.02,0-.04,0-.06,0-.03,0-.2.01-.46.01ZM153.54,281.02h.01-.01ZM150.52,248.08c-.48,0-.9.11-1.24.35-1.18.79-1.55,2.96-.92,5.4,1.11,4.3.67,6.56-.21,11.08-.35,1.79-.78,4.01-1.22,6.9-.41,2.71,0,4.75,1.21,6.08,1.81,1.98,4.97,1.89,5.29,1.87,3.98-.49,6.46-1.77,7.39-3.81,1.58-3.46-1.47-8.59-2.85-10.64-2.06-3.04-1.58-5.89-1.17-8.41.47-2.82.81-4.86-2.13-7.03-1.6-1.18-3.03-1.79-4.15-1.79Z" fill="#563926"/><path d="M101.98,350.53c-.28,0-.57-.03-.85-.09-2.71-.58-4.7-3.77-5.07-8.12-.61-7.14,6.61-39.36,6.92-40.72.03-.12.07-.23.13-.34.07-.12,1.65-2.93,4.62-3.75,1.75-.48,3.57-.18,5.41.9,3.43,2.01,2.27,5.47,1.26,8.53-1.04,3.11-2.21,6.64-.12,10.19,1.08,1.82,2.15,3.27,3.1,4.54,3.32,4.47,4.79,7.06-.84,12.74-6.57,6.64-7.6,8.49-10.07,12.95-1.14,2.06-2.76,3.17-4.47,3.17ZM105.43,302.36c-.62,2.8-7.37,33.27-6.82,39.74.31,3.63,1.8,5.57,3.06,5.84.87.18,1.79-.44,2.51-1.74,2.65-4.76,3.72-6.7,10.54-13.59,4.34-4.39,3.55-5.45.6-9.42-.94-1.26-2.1-2.83-3.25-4.77-2.69-4.55-1.26-8.85-.11-12.3,1.12-3.37,1.38-4.63-.12-5.51-1.22-.71-2.37-.93-3.42-.65-1.62.44-2.69,1.93-2.99,2.39Z" fill="#563926"/><path d="M430.01,525.35c-.22,0-.44-.06-.64-.17-.61-.35-.82-1.14-.46-1.75,3.92-6.75,4.85-15.3,4.86-15.39.07-.7.7-1.21,1.4-1.14.7.07,1.21.7,1.14,1.4-.04.37-.99,9.18-5.19,16.41-.24.41-.67.64-1.11.64Z" fill="#563926"/><path d="M415.06,464.23c-.27,0-.54-.08-.77-.26-1.99-1.49-4.34-8.19-5.01-10.21-.22-.67.14-1.39.81-1.62.68-.22,1.39.14,1.62.81,1.26,3.77,3.19,8.27,4.12,8.97.57.42.68,1.23.26,1.79-.25.33-.63.51-1.02.51Z" fill="#563926"/><path d="M348.97,513.48c-.71,0-1.28-.57-1.28-1.28,0-3.24-1.77-10.82-1.79-10.89-.16-.69.26-1.38.95-1.54.68-.17,1.38.26,1.54.95.08.32,1.86,7.95,1.86,11.48,0,.71-.57,1.28-1.28,1.28Z" fill="#563926"/><path d="M321.35,492.94c-.33,0-.65-.12-.9-.37-.5-.5-.5-1.31,0-1.81.46-.63,1.86-5.07,2.86-8.79.18-.68.89-1.08,1.57-.9.68.18,1.09.89.9,1.57-1.08,4-2.57,8.98-3.53,9.93-.25.25-.58.37-.9.37Z" fill="#563926"/><path d="M201.17,461.01s-.09,0-.13,0l-13.02-1.33c-.7-.07-1.21-.7-1.14-1.4.07-.7.69-1.22,1.4-1.14l13.02,1.33c.7.07,1.21.7,1.14,1.4-.07.66-.62,1.15-1.27,1.15Z" fill="#fcf9f3"/><path d="M77.28,266.15s-.08,0-.13,0c-.7-.07-1.22-.7-1.15-1.4l9.23-92.43c.07-.7.68-1.21,1.4-1.15.7.07,1.22.7,1.15,1.4l-9.23,92.43c-.07.66-.62,1.15-1.27,1.15Z" fill="#fcf9f3"/><path d="M59.24,421.35s-.08,0-.12,0l-14.36-1.36c-.7-.07-1.22-.69-1.15-1.39.07-.7.7-1.21,1.39-1.15l14.36,1.36c.7.07,1.22.69,1.15,1.39-.06.66-.62,1.16-1.27,1.16Z" fill="#fcf9f3"/><path d="M58.96,446.3c-.05,0-.1,0-.16,0l-15.29-1.89c-.7-.09-1.2-.72-1.11-1.43.09-.7.73-1.2,1.43-1.11l15.29,1.89c.7.09,1.2.72,1.11,1.43-.08.65-.63,1.12-1.27,1.12Z" fill="#fcf9f3"/><path d="M166.32,457.52s-.08,0-.13,0l-13.24-1.32c-.7-.07-1.22-.7-1.15-1.4.07-.7.7-1.22,1.4-1.15l13.24,1.32c.7.07,1.22.7,1.15,1.4-.07.66-.62,1.15-1.27,1.15Z" fill="#fcf9f3"/><path d="M299.72,470.43s-.08,0-.12,0l-13.37-1.27c-.7-.07-1.22-.69-1.15-1.39.07-.7.67-1.21,1.39-1.15l13.37,1.27c.7.07,1.22.69,1.15,1.39-.06.66-.62,1.16-1.27,1.16Z" fill="#fcf9f3"/><path d="M256.78,96.69c-.46,0-.9-.25-1.13-.68-.11-.21-2.74-5.29-.65-10.72,1.53-3.97,5.13-7.01,10.69-9.04,3.51-1.28,6.61-2.13,9.34-2.88,5.73-1.57,10.25-2.81,15.63-7.03.56-.44,1.36-.34,1.8.22.44.56.34,1.36-.22,1.8-5.79,4.54-10.77,5.9-16.54,7.48-2.81.77-5.72,1.57-9.14,2.81-4.84,1.76-7.93,4.3-9.18,7.55-1.68,4.35.5,8.56.52,8.6.33.62.09,1.4-.53,1.73-.19.1-.4.15-.6.15Z" fill="#fcf9f3"/><path d="M245.17,100.97c-.25,0-.51-.08-.73-.23-.12-.08-11.77-8.54-5.27-25.41,2.7-6.99,9.22-12.03,18.87-14.57,7.15-1.88,13.43-1.75,13.7-1.74.71.02,1.26.6,1.25,1.31-.02.71-.63,1.3-1.31,1.25-.24,0-24.31-.41-30.13,14.68-5.76,14.95,3.94,22.1,4.36,22.4.57.41.71,1.21.3,1.78-.25.35-.64.54-1.04.54Z" fill="#563926"/><path d="M363.46,138.57s-14.46,16.19-17.06,23.97c0,0-9.81,5.21-28.02-6.45-16.09-10.31-23.75-31.13-23.75-31.13,0,0,18.04-16.74,23.74-31.94l45.08,45.55Z" fill="#e8c8ac"/><path d="M346.4,163.82c-.2,0-.41-.05-.6-.15-.62-.33-.86-1.1-.53-1.73,4.33-8.18,13.75-19.95,16.47-23.29l-42.91-43.35c-6.37,14.76-22.61,29.93-23.33,30.6-.52.48-1.33.45-1.81-.07-.48-.52-.45-1.33.07-1.81.18-.17,17.89-16.72,23.41-31.45.15-.41.5-.71.93-.8.42-.09.87.04,1.18.35l45.08,45.55c.46.47.49,1.21.07,1.72-.12.14-12.06,14.57-16.91,23.75-.23.43-.67.68-1.13.68Z" fill="#563926"/><path d="M440.61,53.19s-1.05-36.42-38.53-49.14c-31.73-10.77-61.74-.41-80.47,35.09-10.83,20.52-10.37,44.43.3,60.26l118.7-46.22Z" fill="#563926"/><path d="M424.84,31.02h0c-22.43-19.97-56.8-17.99-76.77,4.44l-18.34,27.22c-32.32,49.14,5.05,76.77,5.05,76.77,22.93,20.42,50.96,13.07,70.94-9.36l21.5-24.14c19.97-22.43,20.05-54.96-2.37-74.93Z" fill="#e8c8ac"/><path d="M364.29,152.72c-10.86,0-21.24-4.18-30.37-12.31-.17-.12-6.28-4.69-11.49-13.44-.36-.61-.16-1.39.44-1.75s1.39-.16,1.75.44c4.93,8.28,10.85,12.72,10.91,12.76,10.63,9.47,22.91,13.3,35.6,11.15,11.94-2.02,23.57-9.05,33.62-20.34l21.5-24.14c9.57-10.74,14.68-24.06,14.39-37.51-.29-13.66-6.21-26.31-16.66-35.62-21.84-19.45-55.43-17.53-74.91,4.27l-18.29,27.15c-8.19,12.45-12.84,24.62-13.8,36.16-.06.7-.67,1.23-1.38,1.17-.7-.06-1.23-.68-1.17-1.38,1-11.97,5.79-24.54,14.22-37.36l18.35-27.23s.07-.09.1-.14c20.41-22.92,55.66-24.95,78.58-4.54,10.99,9.79,17.21,23.09,17.51,37.47.3,14.09-5.04,28.04-15.04,39.26l-21.5,24.14c-10.44,11.73-22.58,19.04-35.1,21.16-2.44.41-4.87.62-7.27.62Z" fill="#563926"/><ellipse cx="362.49" cy="100.84" rx="4.11" ry="3.75" transform="translate(97.44 367.89) rotate(-60.76)" fill="#563926"/><ellipse cx="390.73" cy="122.14" rx="4.11" ry="3.75" transform="translate(66.99 372.69) rotate(-55.1)" fill="#563926"/><path d="M371.14,124.83c-.22,0-.45-.06-.66-.18-.61-.36-.8-1.15-.44-1.75.19-.34,1.11-2.1-.39-3.23-1.42-1.06-3.49.29-3.51.31-.58.39-1.38.24-1.77-.35s-.24-1.37.34-1.77c.15-.1,3.6-2.4,6.48-.24,2.73,2.05,1.88,5.21,1.05,6.59-.24.4-.66.62-1.1.62Z" fill="#563926"/><path d="M386.84,88.17c-11.8,0-25.25-5.45-40.1-16.26-.57-.42-.7-1.22-.28-1.79.42-.57,1.22-.7,1.79-.28,17.19,12.52,32.31,17.63,44.92,15.18,11.63-2.26,16.85-10.44,16.9-10.52.37-.6,1.16-.78,1.76-.41.6.37.78,1.16.41,1.76-.23.37-5.79,9.17-18.52,11.67-2.23.44-4.52.66-6.89.66Z" fill="#563926"/><path d="M414.06,126.06c-.62,0-1.16-.45-1.26-1.07-.11-.7.36-1.35,1.06-1.47,18.07-2.96,15.73-20.96,15.62-21.73-.1-.7.39-1.35,1.09-1.45.69-.1,1.35.38,1.45,1.08.03.21,2.82,21.25-17.74,24.62-.07.01-.14.02-.21.02Z" fill="#563926"/><path d="M409.48,78.25s-5.12,27.14,7.12,40.54c0,0,14.7-8.72,24.04-29.97,13.18-29.99-.27-54.44-14.59-69.53-13.3-14.01-47.34-23.17-78.24,2.3-30.9,25.47-24.78,69.58-24.78,69.58,0,0,14.15-2.4,28.01-18.42,0,0,34.57,18.29,58.45,5.5Z" fill="#563926"/><path d="M382.74,70.66c-10.56,0-22.91-2.62-34.6-11.44-.56-.43-.68-1.23-.25-1.79.43-.56,1.23-.68,1.79-.25,27.45,20.7,58.76,5.68,59.08,5.53.64-.31,1.4-.05,1.71.58.31.63.05,1.4-.58,1.71-.19.1-11.77,5.67-27.15,5.67Z" fill="#fcf9f3"/><path d="M329.54,61.37c-4.22-2.27-16.29-2.57-19.81,12.51-3.53,15.07,15.66,19.8,15.66,19.8l13.31-23.04c-2.75-4.04-4.94-7-9.16-9.27Z" fill="#e8c8ac"/><path d="M320.54,93.17c-.18,0-.36-.04-.54-.12-5.41-2.52-14.1-8.39-11.51-19.46,1.94-8.3,6.32-11.83,9.65-13.33,4.49-2.03,9.37-1.42,12.01,0,4.44,2.38,6.79,5.52,9.62,9.68.4.58.24,1.38-.34,1.78-.58.4-1.38.24-1.78-.34-2.71-3.98-4.77-6.75-8.71-8.86-1.75-.94-5.8-1.7-9.75.09-4.03,1.82-6.87,5.82-8.21,11.59-2.07,8.85,4.35,13.89,10.1,16.56.64.3.92,1.06.62,1.7-.22.47-.68.74-1.16.74Z" fill="#563926"/><path d="M329.15,79.57c-.09,0-.19,0-.28-.03-.69-.15-1.12-.83-.97-1.52.04-.21.96-4.84-3.84-6.82-.65-.27-.97-1.02-.7-1.67.27-.65,1.02-.96,1.67-.7,5.47,2.25,5.9,7.35,5.37,9.74-.13.6-.66,1-1.25,1Z" fill="#563926"/><path d="M365.95,133.89c-.51,0-1-.31-1.2-.82-3.15-8.25-13.4-10.1-13.5-10.11-.69-.12-1.16-.78-1.05-1.47.12-.69.77-1.16,1.47-1.05.48.08,11.78,2.09,15.46,11.72.25.66-.08,1.4-.74,1.65-.15.06-.3.08-.46.08Z" fill="#563926"/><path d="M374.83,169.03c-.64,0-1.2-.48-1.27-1.13-.01-.13-1.3-12.9,11.5-17.65.66-.25,1.4.09,1.64.75.25.66-.09,1.4-.75,1.64-10.9,4.04-9.9,14.53-9.85,14.97.07.7-.43,1.33-1.13,1.41-.05,0-.09,0-.14,0Z" fill="#fcf9f3"/></svg>