<?xml version="1.0" encoding="UTF-8"?>
<svg id="Layer_1" xmlns="http://www.w3.org/2000/svg" version="1.1" viewBox="0 0 1841.03 1094.87">
  <!-- Generator: Adobe Illustrator 30.2.1, SVG Export Plug-In . SVG Version: 2.1.1 Build 1)  -->
  <defs>
    <style>
      .st0 {
        fill: #355d29;
      }

      .st1 {
        fill: #0d1616;
      }

      .st2 {
        fill: #8566bd;
      }

      .st3 {
        fill: #e1dde8;
      }

      .st4 {
        fill: #f5f5f5;
      }

      .st5 {
        fill: #e3a498;
      }

      .st6 {
        fill: #bc7a48;
      }
    </style>
  </defs>
  <g id="background">
    <rect class="st3" x="-246.92" y="-240.26" width="2340" height="1560"/>
  </g>
  <g id="Man_Playing_with_Birds">
    <g>
      <g>
        <path class="st1" d="M1479.78,321.34s-40,91.2-36.1,307.7h9.2s-3.9-198.8,39.4-301.8l-12.5-5.9Z"/>
        <path class="st1" d="M1382.98,509.64s38.3,53.8,50.8,168.6h-10.3s-9.8-99.5-49.2-162.9l8.7-5.7Z"/>
        <path class="st1" d="M1524.68,471.34s-56.4,37.6-74.8,134.1l-2.6-27.2s12.4-75.1,72-116.1l5.4,9.2Z"/>
        <path class="st1" d="M1396.58,295.14s58.8,181.4,43.4,429.9l8.9-.2s21.1-243-39.4-430l-12.9.3Z"/>
        <path class="st0" d="M1513.78,465.94s48.9,102.8,138.2,100.2c89.2-2.6,122,82.7,122,82.7,0,0,49.9-59.1,18.4-120.7-31.5-61.7-76.8-42-76.8-42,0,0-26-50.7-94.3-55.1-68.2-4.4-107.5,34.9-107.5,34.9Z"/>
        <path class="st0" d="M1405.78,498.64s-40.3,33.9-71,38.3c-30.7,4.4-30,64.7-30,64.7,0,0-30.1-36.3-17.7-76.6,12.3-40.2,74.6-74.5,118.7-26.4Z"/>
        <path class="st0" d="M1473.48,334.24s15.7-65.6,84-58.6c0,0,28-39.4,81.4-12.2,53.4,27.1,53.4,104.1,53.4,104.1,0,0-42.9-41.1-88.4-40.2-45.6.7-87.6,38.4-130.4,6.9Z"/>
        <path class="st0" d="M1409.28,314.54s27-101.5-40.3-132.1-144.5-17.5-144.5-17.5c0,0-51.4-31.5-69.8-45.5,0,0-22.7,59.5,56.9,124.2,79.6,64.8,155.7,32.4,197.7,70.9Z"/>
        <polygon class="st4" points="1327.08 672.04 1540.48 672.04 1500.08 901.04 1372.08 901.04 1327.08 672.04"/>
        <path class="st1" d="M1718.38,496.64s55.1,45.4,55.1,133.8c.1,0,33.3-89.2-55.1-133.8Z"/>
        <path class="st1" d="M1230.78,172.84s117.2,26.8,168,116.2c0,0-43.8-112.7-168-116.2Z"/>
        <path class="st1" d="M1563.28,279.94s65.8,16.6,117,71.7c.1.1-42.2-73.3-117-71.7Z"/>
        <path class="st1" d="M1379.98,510.94s-22.3-22.3-57.7-20.3c-.1,0,32.7-18.7,57.7,20.3Z"/>
      </g>
      <path class="st5" d="M647.18,293.04l42.1,223s7,60.3-40,72.3c-46.9,12-80.9-13.2-90.4-45.9-7.4-25.5-22.1-174.5-25.3-248.9-1-24.1,4.9-48.1,23-64,10.4-9.1,23.8-15.3,39.9-11.8,42.8,9.4,50.7,75.3,50.7,75.3Z"/>
      <g>
        <path class="st5" d="M644.68,281.94s-9.5-67.6-64-115.6-42.7,3.6-32.1,19.3c0,0-90.4-48.9-110.1-42.4-22.1,7.3.3,21.9.3,21.9,0,0-19.9,1.4,6.4,19.1,0,0-19.7,2.5,4.3,18.8,0,0-12.7,2.7,18,21.8,17,10.6,49.6,27.5,49.6,27.5l17,38.6,110.6-9Z"/>
        <path class="st1" d="M445.48,167.44s58.5,28.1,87.9,40.5c-.1,0-50.8-7.3-87.9-40.5Z"/>
        <path class="st1" d="M451.58,187.24s29,15.8,63.9,31c.1,0-47.2-11.6-63.9-31Z"/>
        <path class="st1" d="M455.28,205.74s20.8,12.2,47.5,23.4c0-.1-30.1-5.8-47.5-23.4Z"/>
      </g>
      <polygon class="st6" points="515.58 358.74 679.48 343.34 704.38 495.04 528.28 480.14 515.58 358.74"/>
      <path class="st1" d="M222.98,801.54s-36.3,109-41.3,120.9-45.7,6.9-97.1,46.4-40.1,82.1-40.1,82.1h178.5l31.9-52-2.5,52h69.5l65.2-226.8-164.1-22.6Z"/>
      <path class="st1" d="M440.38,801.54s-36.3,109-41.3,120.9-45.7,6.9-97.1,46.4c-51.4,39.5-40.1,82.1-40.1,82.1h178.5l31.9-52-2.5,52h69.5l65.2-226.8-164.1-22.6Z"/>
      <path class="st1" d="M1063.48,279.54s47.5-58.6-8.2-105.4-167.5,40.2-167.5,40.2c0,0-4.8,82.1,65.5,109.5,70.1,27.3,110.2-44.3,110.2-44.3Z"/>
      <path class="st6" d="M1022.88,371.84s-173.2-28.6-279.3,159.2l85.8,71.5s186.6-178.6,193.5-230.7Z"/>
      <path class="st5" d="M1265.88,926.64l-82.2-211.5s-17.9-58,26.1-78.4c43.9-20.4,79.7,37.3,95,67.7,12,23.7,54.5,147.7,72.6,200.9,7.7,22.8,4,48.2-10.9,67.1-8.6,10.9-20.6,19.4-37.1,18.9-43.8-1.4-63.5-64.7-63.5-64.7Z"/>
      <path class="st6" d="M1106.48,796.64l60.7-205s67.6-161.2-106.5-213.5c-174.1-52.2-263.7,234.4-263.7,234.4l91.1,146.3,218.4,37.8Z"/>
      <path class="st2" d="M560.08,419.74s-132.6-79-238.6,88.1c0,0-89.3,145-155,359.9l188.2,35.7,205.4-483.7Z"/>
      <path class="st2" d="M652.38,620.94l-60.5,309.1-237.2-26.5s47.5-181.7,71.6-270.2c26.8-98.3,86.1-268.2,196.7-205,32.7,18.5,49.6,79.5,29.4,192.6Z"/>
      <path class="st2" d="M685.18,884.04s-116.5-196-173.3-321.8,59.3-171.1,111-147.4c79,36.2,210.1,132.2,408.8,426.5,39.9,59.1,54.5,179.2-63.9,203.6-168.8,34.7-237.3-87.7-282.6-160.9Z"/>
      <path class="st1" d="M354.78,903.44s83.7-409.3,191.3-483.8c0,.1-148.4,60.6-191.3,483.8Z"/>
      <path class="st2" d="M1054.58,975.04s33.9-122.7,51.8-178.4l-193.1-53.7c.1-.1,139.3,211.5,141.3,232.1Z"/>
      <path class="st6" d="M1078.68,384.24s132.3,19.9,191,137.7c0,0,87.1,180.1,112.4,305.5l-162.7,68.7-100-279.1c0-.1-88.9-144.6-40.7-232.8Z"/>
      <g>
        <path class="st5" d="M1275.18,948.24s21.9,72,90.5,95.7c68.7,23.7,38.1-19.6,22.4-30,0,0,102.2,10.8,117.9-2.7,17.7-15.2-8.6-20.1-8.6-20.1,0,0,17.8-8.9-13.2-15.2,0,0,17.2-9.9-11.1-15.8,0,0,10.7-7.3-25-13.3-19.7-3.3-56.3-6.5-56.3-6.5l-14.4-34.8-102.2,42.7Z"/>
        <path class="st1" d="M1490.38,991.34s-64.8-3.7-96.7-4c0,0,49.7-12.5,96.7,4Z"/>
        <path class="st1" d="M1477.18,975.44s-32.8-3.5-70.9-4.3c0,0,48.1-7.3,70.9,4.3Z"/>
        <path class="st1" d="M1466.68,959.74s-23.9-3.4-52.8-3.5c0,0,30-6.2,52.8,3.5Z"/>
      </g>
      <path class="st5" d="M1028.08,337.84s45.7-9.1,47-70-50.8-97.2-86.2-98.1c-39.1-1-85.8,37.4-68.5,102.1,15.6,58,65.3,77.9,107.7,66Z"/>
      <path class="st5" d="M965.68,317.54s3.7,62.8-1.1,87.4,97,16.3,99-10.9c0,0-13.4-43.4-16.7-79.3-.1,0-47.9,20.1-81.2,2.8Z"/>
      <path class="st1" d="M916.78,243.74s144.5-22.7,150.4-69.6-20-58.8-53.3-57.8-46.9,31.4-46.9,31.4c0,0-14.2-28.3-41.1,0s-12.9,44.6-12.9,44.6c0,0-34.4,4.2-22.9,33.4,7.9,20.3,26.7,18,26.7,18Z"/>
      <path class="st1" d="M985.08,784.94s54.7,87.4,67.4,136.7c0,0,0-93-67.4-136.7Z"/>
      <g>
        <path class="st1" d="M471.68,147.74l10.5,36.3s-9.9,4.1-11.6,7.6c-1.7,3.5,13.4-2,13.4-2,0,0,2.4,5,7.2,3.2,4.8-1.9,0-6.6,0-6.6,0,0,6.2,1.4,14.3-.7,8.4-2.2-14.4-4.3-14.4-4.3l-11.4-34.6-8,1.1Z"/>
        <path class="st1" d="M490.08,147.74l10.5,36.3s-9.9,4.1-11.6,7.6c-1.7,3.5,13.4-2,13.4-2,0,0,2.4,5,7.2,3.2,4.8-1.9,0-6.6,0-6.6,0,0,6.2,1.4,14.3-.7,8.4-2.2-14.4-4.3-14.4-4.3l-11.4-34.8-8,1.3Z"/>
        <path class="st1" d="M416.38,145.24s-31.8-3.8-36.8-6.1c-5-2.3-5.7-14.6,13.8-11.9,0,0-16-9.9-5.3-16.1s41.3,26.6,41.3,26.6l-13,7.5Z"/>
        <path class="st4" d="M538.18,77.24s15.9-34.8-11.8-45.2c-31.8-12-44.9,25.8-50.1,39-5.2,13.3-52.7,73.6-54.4,74.2s66.8,12.7,87.9,1.7,31.4-31.5,28.4-69.7Z"/>
        <path class="st2" d="M534.68,36.84s-23.9-20.7-47.9,3.5c0,0-7.7,6.4-14.5,27.2-6.8,20.8-58.6,77.6-58.6,77.6,0,0,50.7,6.9,65.1,6.3,14.4-.6,27.1-34.2,20.2-55.8,0,0,17.3-4.9,8.4-23s-8.2-41.7,27.3-35.8Z"/>
        <path class="st6" d="M538.98,53.04h31.8l-31.8,15.1s-2.7-6.4,0-15.1Z"/>
        <path class="st1" d="M476.18,93.84l-34.3,43.8s22.8,5.8,31.4-9.5c8.7-15.3,2.9-34.3,2.9-34.3Z"/>
      </g>
      <g>
        <path class="st1" d="M1180.58,402.24l-14.4,32.7s8.8,5.1,10,8.5-12.3-3.6-12.3-3.6c0,0-2.9,4.4-7.2,2.1-4.2-2.3.8-6.2.8-6.2,0,0-6,.5-13.3-2.5-7.6-3.1,14.1-2.3,14.1-2.3l15-31.1,7.3,2.4Z"/>
        <path class="st1" d="M1163.28,399.94l-14.4,32.7s8.8,5.1,10,8.5-12.3-3.6-12.3-3.6c0,0-2.9,4.4-7.2,2.1-4.2-2.3.8-6.2.8-6.2,0,0-6,.5-13.3-2.5-7.6-3.1,14.1-2.3,14.1-2.3l15-31.1,7.3,2.4Z"/>
        <path class="st1" d="M1232.78,406.74s30.3.4,35.3-1.1,7.2-13-11.5-12.9c0,0,16.3-7.3,6.9-14.5s-42.1,19.8-42.1,19.8l11.4,8.7Z"/>
        <path class="st4" d="M1126.98,327.74s-10.6-34.6,16.7-41c31.3-7.3,39,29.8,42.2,42.9,3.2,13.1,40.3,75.6,41.8,76.4,1.6.8-64.3,3.6-82.7-9.3-18.3-12.9-25.6-33.4-18-69Z"/>
        <path class="st2" d="M1135.28,290.34s25-16.4,44.5,9.3c0,0,6.4,6.9,10.2,27.4s45.3,80.2,45.3,80.2c0,0-48.4.1-61.9-2.2-13.4-2.3-21.1-35.5-12-54.9,0,0-15.6-6.8-5-22.7s12.9-38.2-21.1-37.1Z"/>
        <path class="st6" d="M1129.18,304.94l-29.9-4,28,18.2s3.4-5.6,1.9-14.2Z"/>
        <path class="st1" d="M1183.08,351.14l26.7,45.4s-22.1,2.6-28.3-12.8c-6.2-15.5,1.6-32.6,1.6-32.6Z"/>
      </g>
      <path class="st4" d="M154.88,947.34s-4.6,25.6,11.1,30.9,24.9-22.2,24.9-22.2c0,0,19.3,10.4,26.8-2.3,7.4-12.7-20-26.7-20-26.7,0,0,25.6-24.2,13.1-35-12.5-10.9-32.4,9.2-32.4,9.2,0,0-7.5-15-23.8-11.8-17.9,3.5-6.5,25-6.5,25,0,0-21.8-2.7-25.4,14.6s32.2,18.3,32.2,18.3Z"/>
      <path class="st4" d="M371.28,956.84s-4.6,25.6,11.1,30.9,24.9-22.2,24.9-22.2c0,0,19.3,10.4,26.8-2.3s-20-26.7-20-26.7c0,0,25.6-24.2,13.1-35-12.5-10.9-32.4,9.2-32.4,9.2,0,0-7.5-15-23.8-11.8-17.9,3.5-6.5,25-6.5,25,0,0-21.8-2.7-25.4,14.6-3.6,17.3,32.2,18.3,32.2,18.3Z"/>
      <path class="st1" d="M619.08,768.94s-61.5-99.8-77.2-144.4c-1-2.8,1.6,97.5,77.2,144.4Z"/>
      <path class="st1" d="M1136.58,665.04s-54.2-109-65.8-166.5c0,0-7.3,106.9,65.8,166.5Z"/>
    </g>
  </g>
</svg>