<?xml version="1.0" encoding="utf-8"?>
<!-- Generator: Adobe Illustrator 28.0.0, SVG Export Plug-In . SVG Version: 6.00 Build 0)  -->
<svg version="1.1" xmlns="http://www.w3.org/2000/svg" xmlns:xlink="http://www.w3.org/1999/xlink" x="0px" y="0px"
	 viewBox="0 0 2340 1560" enable-background="new 0 0 2340 1560" xml:space="preserve">
<g id="background">
	<g>
		<rect fill="#F4EEE6" width="2340" height="1560"/>
	</g>
</g>
<g id="Multitasking_woman">
	<g>
		<g>
			<path fill="#B26E59" d="M1571,458.7c0,0,14.7,49.2,15.4,105.5l-63.8,5.4c0,0-49.6-50-52.6-100.4L1571,458.7z"/>
			<path fill="#1D1418" d="M1453.3,388.3c0,0,28.9-40.9-21.1-82.4c-51.4-42.7-103.4,13.5-107.1,42.3c-2.7,21.2,6.8,62,53,77.8
				C1378.1,426,1422.2,435.9,1453.3,388.3z"/>
			<path fill="#F5F5F5" d="M1435.4,379.6c0,0,20.4-28.9-14.9-58.2c-36.3-30.1-73,9.5-75.6,29.9c-1.9,15,4.8,43.8,37.4,54.9
				C1382.3,406.2,1413.5,413.2,1435.4,379.6z"/>
			<path fill="#1D1418" d="M1424.4,408.9l100.3,101.8c0,0,5.7,3.7,12.3-1.7c6.6-5.3-0.1-12.5-0.1-12.5l-97.1-102L1424.4,408.9z"/>
			<g>
				<path fill="#B26E59" d="M1468.7,476.9c-6.7-0.7-11.1-7.2-9.6-13.8c3-12.8,12.1-43.2,31.4-51.2c16.7-6.9,13,15.6,13,15.6
					s11-9.9,19.6-6.3c13.2,5.6,3.4,20.8,3.4,20.8s15.1-9,22.5-3.2c6.5,5.1,0.1,16.2,0.1,16.2s12.7-8.3,20.6,1
					c9.4,11.2-25.3,31.5-34.3,35.2s-16.4-0.7-18.4-6.1c0,0-13.8,5.3-21.4-4.4c0,0-14.2,6.5-20-4.6
					C1475.5,476.1,1472.4,477.3,1468.7,476.9z"/>
				<path fill="#1D1418" d="M1500.9,429.3c0,0-16.6,32-22.6,40.9C1478.3,470.2,1481.6,444,1500.9,429.3z"/>
				<path fill="#1D1418" d="M1500,474.9c0,0,13.8-15.3,26.5-32.9C1526.5,442,1506.1,453.3,1500,474.9z"/>
				<path fill="#1D1418" d="M1520.8,481.2c0,0,16.4-12.1,25.6-24C1546.4,457.2,1529.1,463.6,1520.8,481.2z"/>
			</g>
			<path fill="#EACEB5" d="M1618.5,543.9c0,0-85.3,14.3-109.3,18.7c0,0,30,161.8,41,222.5c11,60.7,114.2,69.1,119-14.1
				S1618.5,543.9,1618.5,543.9z"/>
			<path fill="#EACEB5" d="M1558.5,727.2c0,0-155.3,91-204.2,152.1s6.2,154,109.6,99.6s193-169.9,193-169.9L1558.5,727.2z"/>
		</g>
		<path fill="#EACEB5" d="M1569.7,1228.5c0,0-11.5-405.4-227.5-462.9c-216-57.5-403.2,135.1-434.9,462.9H1569.7z"/>
		<path fill="#3D8969" d="M1228.1,758.4c0,0-102.8,361.8-121.9,470.1h202.4c0,0,39.9-281.4,15.7-460.4
			C1324.3,768.2,1287.4,757.5,1228.1,758.4z"/>
		<path fill="#EACEB5" d="M1182.1,769.4c0,0-128,37.7-228.2,190.9c-75.2,115-134.7,244.3-46.6,268.2s187.6-110.4,219-180.5
			S1207.5,837.8,1182.1,769.4z"/>
		<path fill="#B26E59" d="M1324.3,1076.3c0,0-141.3-25.6-158.5,15.1c-17.2,40.7,95.4,78.5,160.5,90.8
			C1326.3,1182.3,1358.7,1120,1324.3,1076.3z"/>
		<g>
			<path fill="#EACEB5" d="M1374.2,953.4c0,0,29.1,71.1,78.9,172c49.8,101,150.7,108,168.3,54.5c12.2-37.2-25-131.4-52.4-196.5
				c-19.8-47.2-58.9-98.5-94.1-135.7c-34.5-36.5-96.1-72.1-123.7-66C1302.2,792.6,1374.2,953.4,1374.2,953.4z"/>
			<path fill="#EACEB5" d="M1316.1,1074.9c0,0,76.5,0.5,184.5,0.5c51.5,0,107.7,11.1,107.7,11.1s48.4,131.5-17.6,140.9
				c-66,9.4-282.2-45.5-282.2-45.5S1301.6,1119.6,1316.1,1074.9z"/>
		</g>
		<g>
			<path fill="#B26E59" d="M952.1,666.5c0,0,32-8.5,30.3,10.6s-23.7,34.1-23.7,34.1L952.1,666.5z"/>
			<path fill="#1D1418" d="M879.7,611.7l61.6-4.6c7.5-0.6,14,5,14.5,12.5l10.1,134.5c0.6,7.5-5,14-12.5,14.5l-61.6,4.6
				c-7.5,0.6-14-5-14.5-12.5l-10.1-134.5C866.6,618.8,872.2,612.3,879.7,611.7z"/>
			<path fill="#F5F5F5" d="M886.2,626.6l6.9-0.5c2.3-0.2,4.3,1.6,4.5,3.9l1.4,18.8c0.2,2.3-1.6,4.3-3.9,4.5l-6.9,0.5
				c-2.3,0.2-4.3-1.6-4.5-3.9l-1.4-18.8C882.1,628.7,883.9,626.7,886.2,626.6z"/>
			<path fill="#B26E59" d="M867.3,811.2c0,0-29.8-40.4-28.8-63.5c1-23,9.3-51,47.3-69.7c0,0,19.6-5.3,22.7,4.1
				c3.1,9.3,1.3,16.8,1.3,16.8s17.6,0.3,19.8,12c2.1,11.7-3,19.5-3,19.5s21.5,2.9,22.5,15.1c0.9,12.2-11,22.6-11,22.6s17,14,15,30.1
				C950.9,814.4,867.3,811.2,867.3,811.2z"/>
			<path fill="#1D1418" d="M903,702.3c0,0-27.1,9.5-40.5,44.4C862.5,746.7,857.6,706.5,903,702.3z"/>
			<path fill="#1D1418" d="M919.7,732.6c0,0-32.5,14.7-37,37.6C882.8,770.2,879.2,733.2,919.7,732.6z"/>
			<path fill="#1D1418" d="M935.1,769.7c0,0-16.7,11.1-26.8,3.4C908.3,773.1,916.1,793.3,935.1,769.7z"/>
			<path fill="#EACEB5" d="M868.1,1019.2c0,0-14.5-102.5-10.3-210.2l98.4-16L998,973C998,973,906.3,1060.3,868.1,1019.2z"/>
		</g>
		<g>
			<path fill="#F5F5F5" d="M1133.1,997.8h127.8c9.2,0,16.6-7.4,16.6-16.6v-92.4c0-9.2-7.4-16.6-16.6-16.6h-127.8
				c-9.2,0-16.6,7.4-16.6,16.6v92.4C1116.5,990.3,1123.9,997.8,1133.1,997.8z"/>
			<g>
				<path fill="#3D8969" d="M1178.3,981.1c0,0,7.6-10.7,9.8-14.3c0,0-9.9-0.7-18.6,0C1169.5,966.8,1176.7,979.5,1178.3,981.1z"/>
				<path fill="#3D8969" d="M1157.6,968.4c0,0,75.9,0.2,79.3,0s7.8-1.5,8.3-8.2s0-49.4,0-50.7c0-1.3,0.5-8.8-12.3-9
					c-12.8-0.2-74.4,0-74.4,0s-9.1,0.7-9.8,9c-0.7,8.3,0,47.9,0,47.9S1147.7,967.2,1157.6,968.4z"/>
				<path fill="#F5F5F5" d="M1168.5,952.5c0,0,54.7,0.2,57.6,0c2.9-0.2,3.1-2.2,2.8-3.5c-0.2-0.6-0.4-1-0.7-1.3
					c-0.8-0.6-1.8-0.9-2.8-0.9h-57.5c0,0-3.1,0.3-2.8,3.3C1165.1,950.1,1165.3,952.6,1168.5,952.5z"/>
				<path fill="#F5F5F5" d="M1168.5,936.7c0,0,54.7,0.2,57.6,0c2.9-0.2,3.1-2.2,2.8-3.5c-0.2-0.6-0.4-1-0.7-1.3
					c-0.8-0.6-1.8-0.9-2.8-0.9h-57.5c0,0-3.1,0.3-2.8,3.3C1165.1,934.3,1165.3,936.8,1168.5,936.7z"/>
				<path fill="#F5F5F5" d="M1168.5,920.8c0,0,54.7,0.2,57.6,0c2.9-0.2,3.1-2.2,2.8-3.5c-0.2-0.6-0.4-1-0.7-1.3
					c-0.8-0.6-1.8-0.9-2.8-0.9h-57.5c0,0-3.1,0.3-2.8,3.3C1165.1,918.4,1165.3,920.9,1168.5,920.8z"/>
			</g>
		</g>
		<path fill="#B26E59" d="M1735.7,1205.4H421.1c-17.7,0-32.1,14.4-32.1,32.1l0,0c0,17.7,14.4,32.1,32.1,32.1h1314.6
			c17.7,0,32.1-14.4,32.1-32.1l0,0C1767.8,1219.8,1753.4,1205.4,1735.7,1205.4z"/>
		<g>
			<path fill="#1D1418" d="M976.5,906c0,0-258.4,1.1-289.5,0c0,0-26.6-2.2-14.4,27.7s112,249.5,112,249.5s5.7,18.9,38.3,22.2
				c32.7,3.3,322.1,0,322.1,0L1022,938.2C1022,938.2,1012,905.9,976.5,906z"/>
			
				<ellipse transform="matrix(0.8793 -0.4763 0.4763 0.8793 -391.7006 549.9106)" fill="#F5F5F5" cx="889.1" cy="1047.8" rx="21.9" ry="29.5"/>
		</g>
		<path fill="#1D1418" d="M1235.6,1151.5h-165.3v53.9h223.8c13.5,0,17.6-23.2,5.3-30.3l-20.9-12.1
			C1265.5,1155.5,1250.7,1151.5,1235.6,1151.5z"/>
		<g>
			<g>
				<path fill="#1D1418" d="M582.2,786.9c0,0-39.4,42.8-41.9,116.4s3.4,150.9,2.5,173.8h-14.2c0,0,3.4-63,0.1-125.3
					c-3.1-58.6,13.2-135.5,40.6-167.3L582.2,786.9z"/>
				<path fill="#3D8969" d="M552.6,819.5c0,0-18.5-36.2-28.3-62.2c-13.5-35.9-21.1-59.5,11-85.4c43-34.7-18.3-70.3,41.1-121.4
					c59.4-51.1,15.8-80.3,47.7-111c0,0,26.9,25.2,12.6,77.5c-17.2,62.5,56.1,52.2,17.3,112.7c-38.8,60.5,21.6,51.2-6.2,111
					S552.6,819.5,552.6,819.5z"/>
				<path fill="#1D1418" d="M523.7,872.1c0,0,56.1,105.2,38.4,205h-16.5c0,0,33.6-71-35.5-205H523.7z"/>
				<path fill="#3D8969" d="M530.9,898c0,0,24.5-144-36.2-159.3c-66-16.6-53.5-67.9-66.1-89.2c-24.1-40.8-88.7-65.7-125.8-70.1
					c0,0,5.3,43.9,12.1,80c8.7,46.2,9.6,54.7,55.5,79.4s-17.6,74.9,50.2,111.7C479.3,882.4,530.9,898,530.9,898z"/>
				<path fill="#1D1418" d="M321.3,596c0,0,151.9,154.8,198.3,285.4C519.6,881.4,405.7,697,321.3,596z"/>
				<path fill="#1D1418" d="M557.5,797.6c0,0,69.8-94.1,67.4-339.3C624.9,458.2,619.4,646.7,557.5,797.6z"/>
			</g>
			<path fill="#EACEB5" d="M476.1,938.5c0,0,65.1-14.5,128.3,0c0,0-2.9,38.1-33.4,124.3c0,0,27,95.1,33.4,148.7
				c0,0-64.6,10.2-128.3,0c0,0,25.1-123.6,34.1-148.7C510.2,1062.8,483.7,971.8,476.1,938.5z"/>
		</g>
		<g>
			<path fill="#B26E59" d="M1689.5,965c0,0,39.5-27.3,87.2-30.7c47.7-3.4,94.4-0.7,93.9,21.6c-0.5,22.3-163,91.1-169.4,92.5
				S1689.5,965,1689.5,965z"/>
			<path fill="#EACEB5" d="M1737.7,1063.8c0,0-158,116.1-200.7,117.4c-42.7,1.3-86.8-16.5-97.7-63.5
				c-10.9-47,249.8-163.5,249.8-163.5S1723,987.9,1737.7,1063.8z"/>
			<g>
				<path fill="#F5F5F5" d="M2033.3,965c0,0-126.3,24-143.6,24.6l-170.4-12.3c0,0-2.8-69.8,0-88.8l14.5-7.8l-15.8-7.3
					c0,0-1.2-83.8,0-107.8l17.4-7.8l-18-5.6v-78.8l157.9-25.7l161.8,23.5v75.4l-21.2,10.1l21.2,5l-2.8,100.6l-15.6,10.1l14.5,7.3
					V965z"/>
				<path fill="#1D1418" d="M1746.1,881.2l131.3,20.1l122.4-26.8c0,0-117.5,18.4-122.4,17.9C1872.4,891.8,1746.1,881.2,1746.1,881.2
					z"/>
				<path fill="#1D1418" d="M1814.9,839.4l62.4,9.6l122.4-26.8c0,0-117.5,18.4-122.4,17.9C1872.4,839.4,1814.9,839.4,1814.9,839.4z"
					/>
				<path fill="#1D1418" d="M1794.2,837.6l-55-5.3C1739.1,832.3,1758.4,824.5,1794.2,837.6z"/>
				<path fill="#1D1418" d="M1814.9,943.4l62.4,9.6l122.4-26.8c0,0-117.5,18.4-122.4,17.9C1872.4,943.4,1814.9,943.4,1814.9,943.4z"
					/>
				<path fill="#1D1418" d="M1794.2,941.6l-55-5.3C1739.1,936.3,1758.4,928.5,1794.2,941.6z"/>
				<path fill="#1D1418" d="M1999.8,757.2c0,0-73.2,11.2-89.4,12.3C1910.4,769.5,1930,751,1999.8,757.2z"/>
				<path fill="#1D1418" d="M1877.4,771.7c0,0-74.8-0.3-131.3-15.8C1746.1,755.9,1815.9,755.5,1877.4,771.7z"/>
				<path fill="#1D1418" d="M1999.8,686.2c0,0-99.2,20.1-117.6,21c-18.4,0.8-143-21-143-21s129.2,8.7,138.2,10.5
					C1886.4,698.5,1999.8,686.2,1999.8,686.2z"/>
			</g>
			<path fill="#B26E59" d="M1731,1009.5c0,0,43.7,20.9,73,15.4c29.3-5.5,114.2-11.4,118.7-12.4c12.7-3,22-9.6,9.9-17.9
				c0,0-9.9-5.5-32.8-3c0,0,22.4-12.4,23.8-22.9c1.5-10.4-15.9-12.9-38.3,5c0,0,27.3-16.9,10.4-25.3c-16.9-8.4-71.6,35.3-71.6,35.3
				S1756,969.9,1731,1009.5z"/>
			<path fill="#1D1418" d="M1879.5,979.8c0,0-54.4,41-82.7,36.5C1796.8,1016.3,1832.9,1004.4,1879.5,979.8z"/>
			<path fill="#1D1418" d="M1892.4,995.4c0,0-12.9,21.7-49.4,20.1C1843,1015.5,1866.1,1007.8,1892.4,995.4z"/>
		</g>
		<g>
			<path fill="#F5F5F5" d="M1394.3,1075.4c0,0,72.9-16.9,145.7,0c0,0-9.7,103.3-16.9,136.1c0,0-5.4,8-59.5,7.9c0,0-35.2,0-51.6-4.9
				C1412,1214.4,1398.7,1115.4,1394.3,1075.4z"/>
			<path fill="#1D1418" d="M1528,1085.2c0,0-63.5,30.8-123.5,0C1404.4,1085.2,1462.1,1094.9,1528,1085.2z"/>
			<path fill="#F5F5F5" d="M1531.1,1104.1c0,0,46.3-6.9,43.4,44.1s-55.7,40.9-55.7,40.9l1.8-24.2c0,0,24.6,10.9,31.8-14.8
				s-24.5-26.4-24.5-26.4L1531.1,1104.1z"/>
		</g>
		<g>
			<g>
				<g>
					<g>
						<path fill="#B26E59" d="M1262.7,622.5c0,0,25.1-5.9,53.7,7.1c35.5,16.1,55.8,54.7,48.4,93.2c-3.4,17.9-12.8,37.4-34,53.7
							c0,0-44.1,40.8-101.9-0.3c-57.8-41.1-31.7-94.9-20.8-112.7C1208.2,663.5,1229.4,628.5,1262.7,622.5z"/>
					</g>
				</g>
			</g>
			<path fill="#1D1418" d="M1312.3,640.6c0,0-43.1-2.2-33.5-46.8c9.6-44.6,47.2-68.6,47.2-68.6l-10.8,58.3l45.4-41.2l-16.8,48.3
				l46.6-35.8C1390.4,554.8,1404.1,633,1312.3,640.6z"/>
			<path fill="#1D1418" d="M1202.6,673.1c0,0,21.7-55.5,80.4-52.6c0,0,70.7,0.2,82.5,74.8c0,0-25.1,29.1-26.7,29.8
				c-1.6,0.7,1.3-28.2-1-36.6c-1-3.5-37.1,29.3-37.1,29.3l7.8-45.9c0,0-56.1,45.1-60.8,45.2c-4.7,0.1-1.5-54.1-1.5-54.1l-38.7,35.3
				L1202.6,673.1z"/>
		</g>
		<g>
			<path fill="#B26E59" d="M1142.3,1151.9c-8.2-2.5-12.1-11.8-8.6-19.6c6.9-15.3,25.6-51.1,51.7-56.4c22.6-4.6,12.5,22.7,12.5,22.7
				s16.2-9.8,26.1-3.1c15.1,10.2-0.8,26.8-0.8,26.8s21.1-7.6,28.9,1.4c6.9,8-3.8,20.3-3.8,20.3s17.9-7.3,25.5,6.3
				c9.1,16.3-39.4,33.3-51.5,35.8s-20.3-4.9-21.6-12.1c0,0-18.6,3.3-25.7-10.8c0,0-19.3,4.7-23.9-10.6
				C1151.1,1152.7,1147,1153.4,1142.3,1151.9z"/>
			<path fill="#1D1418" d="M1194.3,1100.3c0,0-28.5,36.1-38.2,45.7C1156,1146,1166.5,1113.9,1194.3,1100.3z"/>
			<path fill="#1D1418" d="M1182.1,1157.1c0,0,21.1-15.9,41.1-34.7C1223.2,1122.4,1195,1131.5,1182.1,1157.1z"/>
			<path fill="#1D1418" d="M1206.5,1170c0,0,23.5-11.2,37.9-23.8C1244.4,1146.2,1221.2,1150,1206.5,1170z"/>
		</g>
		<g>
			<path fill="#3D8969" d="M1095.7,359.1v94.4l87.7,42.5C1183.4,495.9,1230.1,380.9,1095.7,359.1z"/>
			<path fill="#EACEB5" d="M1083.1,359.1v90.7l-92.8,3C990.3,452.9,990.8,363.1,1083.1,359.1z"/>
			<path fill="#1D1418" d="M990.3,467.6h96.8l91.8,41.6c0,0-32.4,65.4-113.5,50.7C1065.3,559.8,991.3,539,990.3,467.6z"/>
		</g>
	</g>
</g>
</svg>
