<?xml version="1.0" encoding="UTF-8"?>
<svg id="icon" xmlns="http://www.w3.org/2000/svg" version="1.1" viewBox="0 0 512 793.3">
  <!-- Generator: Adobe Illustrator 29.1.0, SVG Export Plug-In . SVG Version: 2.1.0 Build 142)  -->
  <g>
    <path d="M196.7,746.6s-3.7,19.6-3.6,42c0,0,108.5,10.5,209,0,0,0,0-18.6-3.4-42,0,0-90-10.6-202,0Z" fill="#483432"/>
    <path d="M110.9,464.7l357.9,17.5s4-14.9-20.4-30c0,0-12.5-8.6-12.3-25.8.2-17.1-13.9-24-17.1-26.5-3.2-2.5-13-11.8-12.4-24.3,1-18.4-3.8-24.1-15.3-31.2-2.9-1.8-10.2-7.2-13.5-19-3.2-11.3-3.3-12.5-6.7-22.8-9.3-28.4-64.8-68.2-120.4-33.8,0,0-17,10.1-28.9,30.6-1.9,3.3-11.6,24.3-13.7,26-8.5,6.6-13.4,8.4-20.7,31.9-4.8,15.6-14.7,21.5-17.6,23.8-3,2.5-16.6,10.2-20,27.5-1.8,9.4-5.8,20.9-16.5,25-6.5,2.5-22.7,5.8-22.5,31Z" fill="#483432"/>
    <g>
      <path d="M13.7,455.7s-32.5,67,3,79.4c29.8,10.4,47.1-10,64-49.4,17.2-40.1,70.1-124,68.4-138.6-3.1-26.7-19.9-32.5-49.5-4.9-29.9,27.9-59.1,56.8-86,113.4Z" fill="#d2a989"/>
      <path d="M1,516.9s3.9,35.1,64.6,36c60.7.9,127.1,2,166.3-12,39.2-14,5.7-76.1-48.5-77.4-55-1.3-140.6,17.7-140.6,17.7,0,0-50.3,6.7-41.9,35.7Z" fill="#d2a989"/>
      <path d="M138.6,464.9s-7.4,28.7,0,88.2c0,0,75.6,14,88.8-14.6,11.6-25.2,28-62.7,23.3-76.4,0,0-60.2-6.6-112.1,2.8Z" fill="#edeae2"/>
    </g>
    <path d="M287.5,462.2s-97.1-3.5-108.9,30.2c-14.3,40.9-10.5,89.5.9,129.3,8.8,31,14.7,94.3,17.2,124.9,0,0,31.4,9.3,90.1,8.9,86-.6,111.9-8.9,111.9-8.9l13.6-120.1c-20.3-78,13.6-129.9,13.6-129.9-19.3-15.6-46.3-21.3-46.3-21.3-67.2-21.5-92-13.2-92-13.2Z" fill="#edeae2"/>
    <g>
      <path d="M283.5,262.5h0c41.6,1.2,74.4,35.8,73.2,77.5l-7.4,44.9c-14.1,80.3-78.1,72.7-78.1,72.7-42.5-1.2-63.8-35.3-62.7-76.9l1.3-44.8c1.2-41.6,32-74.5,73.6-73.4Z" fill="#d2a989"/>
      <path d="M211.1,307.4c-4.1,9-.5,19.7,8.3,24.1.1,0,.2.1.3.2,6.9,3.3,14.6,3.3,21.4.5,1.6-.7,4.4-1.2,7.4-2.2,11.3-3.7,26.7-3.5,31.6,11.2,7.1,21.3,16.8,37.7,29,33.8,5.5-1.7,51-69.4,36-94.3,0,0-21.3-37.4-76.4-22.5,0,0-39.9,10.2-57.7,49.2Z" fill="#483432"/>
      <path d="M351.6,427.2s-70.5-52.5-56.8-111.9c9.1-39.5,35.6-34.8,51.2-23.6,16.6,11.8,25.4,31.2,24.5,51.1-1.4,28.3-2.4,80.3-18.9,84.5Z" fill="#483432"/>
      <path d="M282.6,288.8c41.2,22.2,37.8,80.3,37.8,80.3l16.9,14.3s15.3-49-16.3-85.4c-46.7-53.8-99.8-20-102.4-3.8,0,0,17.9-30.2,64-5.4Z" fill="#e0bf7c"/>
      <path d="M328,364.8c6.6-.6,22.1,5.7,18.3,26.8-3.8,21.1-30.8,16.6-30.8,16.6l-13.1-29.6c15.2-12.7,19-13.2,25.6-13.7Z" fill="#d2a989"/>
      <path d="M316.4,389.7c-.2,0-.4,0-.5,0-1.1-.3-1.7-1.4-1.4-2.5,2.4-8.8,9.9-11.5,13.6-11.7,1.1,0,2.1.8,2.1,1.9,0,1.1-.8,2-1.9,2.1-.3,0-7.6.6-9.9,8.7-.2.9-1.1,1.5-1.9,1.5Z" fill="#483432"/>
      <path d="M240.8,397c-.9,0-1.7-.6-1.9-1.4,0,0-1-3.1-3.3-3.2-2.4-.1-2.9,2.4-3,2.9-.2,1.1-1.2,1.8-2.3,1.7-1.1-.2-1.8-1.2-1.7-2.3.3-2.2,2.2-6.4,6.8-6.4s.2,0,.3,0c4.1.2,6.3,3.9,7,6.1.3,1.1-.3,2.2-1.4,2.5-.2,0-.4,0-.6,0Z" fill="#483432"/>
      <path d="M257.8,415c-.3,0-.6,0-.9-.2-17.2-8.5-23.3-1-23.6-.7-.7.9-1.9,1-2.8.4-.9-.7-1.1-1.9-.4-2.8.3-.4,8.2-10.7,28.6-.6,1,.5,1.4,1.7.9,2.7-.4.7-1.1,1.1-1.8,1.1Z" fill="#483432"/>
      <path d="M258.7,383.2c-5.5,0-9.9-3-10.1-3.1-.9-.6-1.1-1.9-.5-2.8.6-.9,1.9-1.1,2.8-.5.3.2,7.5,5.1,14.2.3.9-.6,2.2-.4,2.8.5.6.9.4,2.2-.5,2.8-3,2.1-6,2.8-8.7,2.8Z" fill="#483432"/>
      <path d="M219.7,382.6c-3.8,0-6.9-1.7-8.4-3.1-.8-.8-.9-2-.1-2.8.7-.8,2-.9,2.8-.1.2.2,5.4,4.7,12.1-.3.9-.7,2.2-.5,2.8.4.7.9.5,2.2-.4,2.8-3.1,2.3-6.1,3.1-8.8,3.1Z" fill="#483432"/>
    </g>
    <path d="M248.9,444.1s.9,19.5-.2,30.9c0,0,6.6,16.2,48.3,16.8,28.8.4,38.6-13.8,38.6-13.8,0,0,0-46.7-.3-62.7l-86.4,28.8Z" fill="#d2a989"/>
    <path d="M267.7,459.7c-11.2,0-18.9-2.3-19.6-2.5-1.1-.3-1.7-1.5-1.3-2.5.3-1.1,1.5-1.7,2.5-1.3.3.1,33.9,10.1,63.1-13.1.9-.7,2.1-.5,2.8.3.7.9.5,2.1-.3,2.8-16.6,13.2-34.2,16.3-47.2,16.3Z" fill="#483432"/>
    <path d="M456.8,423.3c-1.1,0-2-.8-2-1.9-.7-15.1-5.3-16.8-20.2-22.4-3.4-1.3-7.2-2.7-11.6-4.6-21.7-9.1-21-26.4-20.9-27.1,0-1.1,1-1.9,2.1-1.9,1.1,0,2,1,1.9,2.1,0,.6-.5,15.2,18.5,23.2,4.3,1.8,8.1,3.2,11.5,4.5,15.1,5.7,22,8.3,22.8,26,0,1.1-.8,2.1-1.9,2.1,0,0,0,0,0,0Z" fill="#483432"/>
    <path d="M419.9,435s0,0-.1,0c-1.1,0-2-1-1.9-2.1.7-11.3-4-14.6-10.9-19.6l-2.1-1.5c-6.7-4.8-17.9-12.8-16.3-31.7,1.4-16-4.9-19.3-13.5-23.8-.7-.4-1.4-.7-2.1-1.1-10.3-5.5-13.4-18.5-13.5-19.1-.3-1.1.4-2.2,1.5-2.4,1.1-.3,2.2.4,2.4,1.5,0,.1,2.9,11.8,11.5,16.5.7.4,1.4.8,2.1,1.1,8.9,4.7,17.3,9.1,15.7,27.7-1.4,16.6,8.2,23.5,14.6,28l2.1,1.5c7.2,5.2,13.4,9.7,12.6,23.1,0,1.1-.9,1.9-2,1.9Z" fill="#edeae2"/>
    <path d="M421.8,464.2c-.2,0-.5,0-.7-.1-13.8-5-18.8-10.9-19.7-23.5v-1.8c-.7-8.3-.9-12.1-14-20.2-17-10.5-13.5-24.1-13.4-24.6.3-1.1,1.4-1.7,2.5-1.4,1.1.3,1.7,1.4,1.4,2.5-.1.5-2.7,11.3,11.6,20.2,14.2,8.8,15.2,13.8,15.8,23.3v1.7c.9,11,4.7,15.5,17.2,20,1,.4,1.6,1.5,1.2,2.6-.3.8-1.1,1.3-1.9,1.3Z" fill="#edeae2"/>
    <path d="M144.2,448.6c-1,0-1.8-.7-2-1.7-.2-1.1.6-2.1,1.7-2.3h0c.7-.1,17.2-3.1,20.3-22.5,4.3-26,19.9-30.1,20.5-30.2,1.1-.3,2.2.4,2.4,1.5.3,1.1-.4,2.2-1.5,2.4-.5.1-13.7,3.8-17.5,27-1.9,11.6-8.2,18.1-13.2,21.4-5.4,3.6-10.3,4.4-10.5,4.5-.1,0-.2,0-.3,0Z" fill="#edeae2"/>
    <path d="M305.4,385.7s0,0,0,0c-9.6-.3-25.5-.8-31.6-24.5-5.3-20.5-12.7-28.5-18-31.5-5.1-2.9-8.9-1.9-9.1-1.8-1.1.3-2.2-.3-2.5-1.4s.3-2.2,1.3-2.5c.2,0,5.5-1.6,12,2.1,8.8,4.9,15.6,16.4,20.1,34.1,5.3,20.7,18.4,21.2,27.9,21.5,1.1,0,2,1,1.9,2.1,0,1.1-.9,1.9-2,1.9Z" fill="#483432"/>
    <path d="M165.6,454.5c-.9,0-1.8-.7-2-1.6-.2-1.1.5-2.2,1.6-2.4.6-.1,13.8-3.1,14.8-19.6,1.1-18.1,11.7-22,12.2-22.2,1.1-.4,2.2.2,2.6,1.2.4,1-.2,2.2-1.2,2.6-.4.1-8.6,3.4-9.5,18.6-.6,10.3-5.5,16-9.4,19.1-4.3,3.3-8.4,4.2-8.6,4.2-.1,0-.3,0-.4,0Z" fill="#edeae2"/>
    <path d="M155.2,401.1c-.7,0-1.5-.4-1.8-1.1-.2-.5-5.7-12.5,9.1-25.8,14.3-12.9,27.5-12.6,28-12.6,1.1,0,2,1,1.9,2.1,0,1.1-.9,2-2.1,1.9-.1,0-12.2-.2-25.2,11.5-12.5,11.2-8.3,20.7-8.1,21.1.5,1,0,2.2-1,2.7-.3.1-.6.2-.9.2Z" fill="#483432"/>
    <g>
      <path d="M116.5,376.1c-16-15-11.4-41.6,8.4-51.2,13.3-6.4,34.5-16.4,48.8-21.5,22.1-8,49.3-12,51.6-10,10.4,9.4-41.2,21.9-41.2,21.9,0,0,32.8-.8,39.9,1.7,7,2.5,17.6,9.6,12,12.7-5.6,3.1-28.6-4.6-44.6,2,0,0,56,4.2,41.5,18.3,0,0,8.2,9.6-6.9,10.3-15.1.6-34,.7-36.7.2,0,0-24.2,18.9-50.3,22.9-8.7,1.3-16.5-1.8-22.4-7.3Z" fill="#d2a989"/>
      <path d="M232.9,352c-.2,0-.3,0-.5,0-.2,0-22.1-5.1-42.8-3.2-1.1.1-2.1-.7-2.2-1.8,0-1.1.7-2.1,1.8-2.2,21.3-1.9,43.1,3.1,44.1,3.3,1.1.3,1.8,1.3,1.5,2.4-.2.9-1,1.6-2,1.6Z" fill="#483432"/>
    </g>
    <path d="M64.2,517.8c-.4,0-.9-.1-1.2-.4-.9-.7-1-1.9-.4-2.8,10.2-13.1,20.8-40,20.9-40.3.4-1,1.6-1.5,2.6-1.1,1,.4,1.5,1.6,1.1,2.6-.4,1.1-11,27.7-21.5,41.3-.4.5-1,.8-1.6.8Z" fill="#483432"/>
    <path d="M172.3,553.6c0,0-.1,0-.2,0-1.1,0-1.9-1.1-1.8-2.2,3.9-46,25.9-67.8,26.8-68.7.8-.8,2.1-.8,2.8,0,.8.8.8,2.1,0,2.8-.2.2-21.8,21.7-25.6,66.1,0,1-1,1.8-2,1.8Z" fill="#483432"/>
    <path d="M397.5,484.4c-9-1.5-19,4.1-23.9,12.2-7.6,12.3-11,24.9-8.9,56.8,3.5,55.4,11.4,168.5,44.6,178.5,51.6,15.6,56.6-74.1,39.5-179.6-8.7-53.6-30.6-64.5-51.3-67.9Z" fill="#d2a989"/>
    <path d="M364.1,575.8s17.4-12.1,43.7-12.9c28.9-.9,43.7,7.3,43.7,7.3,0,0-1.5-46.1-19.2-66.9-20.9-24.4-47.2-25.4-59.9-11-12.7,14.4-12.1,73.1-8.3,83.5Z" fill="#edeae2"/>
    <path d="M457.7,653.8s-5.1,76.8-11.4,134.7c0,0-25,2-61.9,1.8,0,0-4.8-71-6.5-128.1-1-33.2,64.7-34.9,79.8-8.4Z" fill="#d2a989"/>
    <ellipse cx="294.1" cy="484.2" rx="62.5" ry="21.6" fill="#d2a989"/>
    <path d="M445.4,664.8c-1.9,0-4.1-.6-6.4-2.3-.9-.7-1.1-1.9-.4-2.8.7-.9,1.9-1.1,2.8-.4,4.2,3.1,7.2.5,7.5.2.8-.8,2.1-.8,2.8,0,.8.8.8,2,0,2.8-1.1,1.1-3.4,2.5-6.3,2.5Z" fill="#483432"/>
  </g>
  <g>
    <circle cx="135.9" cy="103.5" r="53" fill="#8e9dbc"/>
    <circle cx="463.4" cy="99" r="48.6" fill="#8e9dbc"/>
    <circle cx="404.6" cy="147.1" r="52.5" fill="#8e9dbc"/>
    <circle cx="211.4" cy="79.1" r="53" fill="#8e9dbc"/>
    <circle cx="398.6" cy="60.8" r="43.1" fill="#8e9dbc"/>
    <circle cx="204.3" cy="147.6" r="53" fill="#8e9dbc"/>
    <circle cx="314.7" cy="132.1" r="80.1" fill="#8e9dbc"/>
    <circle cx="307.3" cy="60.8" r="60.8" fill="#8e9dbc"/>
  </g>
  <path d="M385.8,219.6s-21.9,19-20.3,32.8c1.6,13.8,19.3,6.2,20.3-32.8Z" fill="#8e9dbc"/>
  <path d="M66.7,222.9s-21.9,19-20.3,32.8c1.6,13.8,19.3,6.2,20.3-32.8Z" fill="#8e9dbc"/>
  <path d="M182.5,231.1s-21.9,19-20.3,32.8c1.6,13.8,19.3,6.2,20.3-32.8Z" fill="#8e9dbc"/>
  <path d="M127.2,190.5s-21.9,19-20.3,32.8c1.6,13.8,19.3,6.2,20.3-32.8Z" fill="#8e9dbc"/>
  <path d="M102.6,269.8s-21.9,19-20.3,32.8c1.6,13.8,19.3,6.2,20.3-32.8Z" fill="#8e9dbc"/>
  <path d="M495.7,242.5s-21.9,19-20.3,32.8,19.3,6.2,20.3-32.8Z" fill="#8e9dbc"/>
  <path d="M442.1,278.8s-21.9,19-20.3,32.8c1.6,13.8,19.3,6.2,20.3-32.8Z" fill="#8e9dbc"/>
  <path d="M444.1,213.9s-21.9,19-20.3,32.8,19.3,6.2,20.3-32.8Z" fill="#8e9dbc"/>
</svg>