<?xml version="1.0" encoding="utf-8"?>
<!-- Generator: Adobe Illustrator 28.0.0, SVG Export Plug-In . SVG Version: 6.00 Build 0)  -->
<svg version="1.1" xmlns="http://www.w3.org/2000/svg" xmlns:xlink="http://www.w3.org/1999/xlink" x="0px" y="0px"
	 viewBox="0 0 2340 1560" enable-background="new 0 0 2340 1560" xml:space="preserve">
<g id="background">
	<g>
		<rect fill="#E0D9D3" width="2340" height="1560"/>
	</g>
</g>
<g id="Problem_Solving">
	<g>
		<g>
			<path fill="#0E141D" d="M1703.7,872.3c0,0,21.4,22,26.5,89.6s-8,87.7-13.2,140.1s0.6,127.4,0.6,127.4s-3.5,3.6-7.5-2.1
				c0,0-5.5-60.4,1.2-128.7c6.6-68.4,20.5-82.5,13.1-147.4c0,0-5.4-49.6-25.3-76.4L1703.7,872.3z"/>
			<g>
				<path fill="#4B8B77" d="M1704.6,878.9c0,0,21.3-101.8-88.1-115.2C1616.5,763.7,1593.8,857,1704.6,878.9z"/>
				<path fill="#0E141D" d="M1622.2,770.7c0,0,48,38.7,79.1,102.7C1701.3,873.4,1652.1,800.8,1622.2,770.7z"/>
			</g>
			<g>
				<path fill="#4B8B77" d="M1727.7,938.5c0,0-41.4-95.2,62.8-130.4C1790.5,808.1,1831.6,894.7,1727.7,938.5z"/>
				<path fill="#0E141D" d="M1786.4,816.1c0,0-39.1,47.5-56.6,116.4C1729.8,932.5,1763.3,851.6,1786.4,816.1z"/>
			</g>
			<g>
				<path fill="#4B8B77" d="M1721,1063.2c0,0,4-138.1,149.4-121.5C1870.3,941.6,1870.8,1069.2,1721,1063.2z"/>
				<path fill="#0E141D" d="M1860.9,948.9c0,0-73.9,35.1-134,108.2C1726.9,1057.2,1813,978.6,1860.9,948.9z"/>
			</g>
			<g>
				<path fill="#4B8B77" d="M1726.6,1012.2c0,0,14-137.4-132.4-139.9C1594.2,872.3,1577.2,998.7,1726.6,1012.2z"/>
				<path fill="#0E141D" d="M1602.6,880.8c0,0,68.7,44.4,118.8,124.7C1721.4,1005.5,1646.3,916.5,1602.6,880.8z"/>
			</g>
			<g>
				<path fill="#4B8B77" d="M1716.6,1083.6c0,0-43.8-107.5-153.4-51.7C1563.3,1031.9,1600.5,1132.4,1716.6,1083.6z"/>
				<path fill="#0E141D" d="M1572.9,1034.9c0,0,68.5,5.8,137.3,45.7C1710.2,1080.6,1619.3,1044.2,1572.9,1034.9z"/>
			</g>
			<path fill="#C98C50" d="M1600.2,1139.2c0,0,105.9-2.3,223.9,0c0,0,9.6,82.6-15.6,131.2c-15.9,30.8-53.4,61.9-106.3,57.3
				C1646.5,1322.9,1589.4,1260.5,1600.2,1139.2z"/>
			<path fill="#0E141D" d="M1609.1,1161.3c0,0,112,6.1,207,0C1816.1,1161.3,1681.6,1154,1609.1,1161.3z"/>
		</g>
		<path fill="#0E141D" d="M1182.8,239.6c0,0,10.6-13.7,37-4.7c35.2,12,36.8,39.1,39.6,53.9c5.8,31.2,24.2,38.5,46,45.5
			c29.5,9.4,34,26.4,43.1,42.6c11.2,20.1,36.5,18.3,52.4,40.6c15.8,22.1,14.9,38.1,14.9,38.1l-245.9,0c0,0-54.2,1.1-59-37.9
			c-4.8-39,25.2-42.3,17.5-78.4c-6.3-29.4-6.2-44.9-5.2-53.5C1127.6,249.4,1165.1,225.9,1182.8,239.6z"/>
		<path fill="#C98C50" d="M772.1,404.4l232.5-44.2l13.7,74.6c0,0,44.9-10.5,53.8,27.8c10.2,44.1-33.7,50.8-33.7,50.8l16.2,74.6
			l-82.7,19.4c0,0,12.8,45.2-31.6,50.8c-41.7,5.3-46.6-33.9-46.6-33.9l-78.2,16.4l-14-73.9c0,0,43-17.5,36.5-53.8
			c-6.9-38.8-51.5-33.7-51.5-33.7L772.1,404.4z"/>
		<path fill="#4B8B77" d="M473.4,393.5l236.6,1l-0.8,75.8c0,0,46.1-1.8,47.5,37.6c1.6,45.3-46.1,43.4-46.1,43.4l-0.6,81.8h-76.9
			c0,0,0.4,45.7-42.7,45.7c-38.2,0-39.5-44.8-39.5-44.8l-81.2-0.4L470,550c0,0,46.9-0.4,47.5-37.3c0.6-41.6-44.1-42.9-44.1-42.9
			L473.4,393.5z"/>
		<path fill="#F4EEE6" d="M710,633.9l-0.3,81.1c0,0-36.5-0.1-37.1,41.4c-0.5,35.8,36.7,35.8,36.7,35.8l-0.3,80.6l-75.8-0.8
			c0,0,1.8,46.1-37.6,47.5c-45.3,1.6-43.4-46.1-43.4-46.1l-82.5,0V633.9l79.8,0.3c0,0,4.4,45.5,41.3,46.1
			c41.6,0.6,42.9-46.4,42.9-46.4H710z"/>
		<g>
			<path fill="#ECBBB3" d="M1259.6,1245.6c0,0-15.8-159.8-24.2-199.8c-8.4-40-24.2-58.3-24.2-58.3h-86.7c0,0,41.9,196.5,54,258.3
				C1178.4,1245.8,1228.3,1248.9,1259.6,1245.6z"/>
			<path fill="#ECBBB3" d="M1490.8,1170.5c0,0-74.2-166.5-105.3-204.7l-98-2.1c0,0,18.7,59.7,27.1,71.6
				c8.4,11.9,105.5,178.2,105.5,178.2L1490.8,1170.5z"/>
			<path fill="#4B8B77" d="M1438.5,941.2c-5-4.1-9.8-7.4-13.4-11.2c-30-32.3-45.9-67.4-46.5-100.3c-0.2-11.4-0.6-22.4-0.1-33.4
				c5.6-111.3-54.8-158.8-54.8-158.8s-175.3,9.9-159.9,10.2c15.4,0.3,91.8,307.6,118.8,365.5h138.6h17.2h57.2
				C1495.8,1013.1,1490.8,984.7,1438.5,941.2z"/>
			<path fill="#0E141D" d="M1178.4,1245.8c0,0,0.7,13-0.3,22.7c-1,9.8-18.7,14.7-30.6,15.1s-75.9-4.9-67.6,44.5h180.7
				c0,0,12.2-5.4,9.8-24.9c-2.4-19.5-10.9-57.6-10.9-57.6L1178.4,1245.8z"/>
			<path fill="#0E141D" d="M1420.2,1213.5c0,0,4.5,7.2,8.1,16.3s6.1,19.8-13.5,28.9c-10.8,5-74.2,32.4-45.8,69.5h19.4
				c21,0,41.4-7,58-19.9l82.6-64.1c0,0,8.3-10.4-2.9-26.6c-11.2-16.2-35.3-47.1-35.3-47.1L1420.2,1213.5z"/>
			<path fill="#4B8B77" d="M1085.7,1013.1h175.6c-25.3-34-27.4-71.4-28.5-83.2c-3.3-33.7-2.4-202.3,1.4-221.1
				c3.9-18.8-16.7-68.9-16.7-68.9h-117.2c0,0-16.2,68.9-14.5,193.1C1087.3,941.7,1085.7,1013.1,1085.7,1013.1z"/>
			<path fill="#F4EEE6" d="M1100.3,639.5c0,0,84.6,22.8,223.4-2.1c0,0,0.4-85.2,5.7-144.3c5.3-59.1,11.5-112.9-65.2-146.5
				s-161.3,29.5-163.9,90C1097.7,497.1,1100.3,639.5,1100.3,639.5z"/>
			<path fill="#0E141D" d="M1226.5,837.3c0,0-17.8-54.2-22.9-73.6C1203.7,763.7,1229.9,786.5,1226.5,837.3z"/>
			<path fill="#0E141D" d="M1226.5,837.3c0,0-31.6-23.4-49.1-49.2c0,0,31.1,19.7,45.6,36.7L1226.5,837.3z"/>
			<path fill="#4B8B77" d="M1274.9,351.7c0,0-43.3,70.1-12,297.3l-28.3,2c0,0-27.1-213.4,20.1-308
				C1254.8,343,1269.9,346.5,1274.9,351.7z"/>
			<path fill="#4B8B77" d="M1160.1,353.4c0,0-33.5,68.5-8.8,295.6l-22.2,2c0,0-28.8-187.4,8.3-282.1
				C1137.4,368.9,1152.5,354.6,1160.1,353.4z"/>
			<g>
				<path fill="#ECBBB3" d="M1045.3,570c0,0,74-1.4,126.6-17.7C1238.4,531.8,1294,474,1294,474s-14.8-40.4-32.7-46.1
					c-3.9-1.2-7.5-1.9-10.8-2.2c-7.8-0.6-21.5,6.8-27.5,11.8c-18.8,15.5-69.8,66-179.2,68.6C1043.8,506.1,1052.3,527.1,1045.3,570z"
					/>
				<path fill="#ECBBB3" d="M1045.3,570c0,0-48.7,0.9-67.3-6.7c-18.6-7.6-1.7-13.4-1.7-13.4s-17.8-1.4-17-7.3s8.6-6.9,8.6-6.9
					s-14.1-3.7-11-10.4c3.1-6.7,10.2-4.2,10.2-4.2s-12.4-4.1-6.8-10.6c5.7-6.4,44.4,1.8,44.4,1.8s-27.9-8.4-23.6-16.1
					c5.7-10.1,62.7,9.6,62.7,9.6S1056.1,524.5,1045.3,570z"/>
				<path fill="#0E141D" d="M979.1,550c0,0,16.8,5.3,30.7,2.3C1009.8,552.3,999.1,547.1,979.1,550z"/>
				<path fill="#0E141D" d="M969.3,536.1c0,0,26.9,5.1,40.7,1.8C1010,538,989.6,532.2,969.3,536.1z"/>
				<path fill="#0E141D" d="M967.9,521.5c0,0,27.2,6.6,41.2,4.4C1009.2,525.9,990.7,520.1,967.9,521.5z"/>
			</g>
			<path fill="#F4EEE6" d="M1186.7,449.3l48.1,78.7c0,0,109.1-66.6,92.1-106.2C1303.5,367.4,1235.6,402.4,1186.7,449.3z"/>
			<g>
				<path fill="#C98C50" d="M1423,1260.7c0,0,44.1-18.1,39.9-37.7s-31.4-22.4-40.4-2.7c-9,19.7-4,40.6-4,40.6s7.5-1.5,7.7-14.8
					c0.1-10.2,5.9-33.4,19.6-26.8c13.7,6.6-4,20.4-12.4,25.7C1425,1250.3,1420.5,1251.4,1423,1260.7z"/>
				<path fill="#C98C50" d="M1426.2,1254.2c0,0-33.4-34.1-49.9-22.7c-16.5,11.3-8.9,37.5,12.7,38.4s39.1-11.6,39.1-11.6
					s-4.2-6.4-16.6-1.6c-9.5,3.7-33.2,7.1-32.3-8.1c1-15.2,20.4-4,28.5,1.8C1415.8,1256.3,1418.5,1260.1,1426.2,1254.2z"/>
			</g>
			<g>
				<path fill="#C98C50" d="M1159.2,1287.5c0,0,47.7,0.8,51.5-18.9c3.8-19.7-20-33-36.1-18.4c-16,14.6-19.6,35.7-19.6,35.7
					s7.5,1.6,12.9-10.5c4.2-9.3,18.6-28.4,28.6-16.9s-11.7,17.2-21.6,18.7C1165.2,1278.7,1160.6,1278,1159.2,1287.5z"/>
				<path fill="#C98C50" d="M1164.7,1282.9c0,0-17.3-44.5-36.9-40.6c-19.7,3.9-23,31-3.5,40.3c19.5,9.4,40.5,4.7,40.5,4.7
					s-1.4-7.5-14.6-8c-10.2-0.3-33.3-6.5-26.5-20.1c6.9-13.6,20.4,4.4,25.5,12.9C1154.3,1280.7,1155.4,1285.2,1164.7,1282.9z"/>
			</g>
			<path fill="#ECBBB3" d="M1236,338.5c0,0-11.1,37.6-44,42.5c-32.9,4.9-26.5-30.7-26.5-30.7S1207.7,330.4,1236,338.5z"/>
			<g>
				<g>
					<g>
						<path fill="#ECBBB3" d="M1174.9,241.5c0,0,17.8-3.4,37.5,6.6c24.4,12.4,37.5,40.2,31.1,67c-3,12.5-10.2,25.8-25.5,36.6
							c0,0-32.2,27.3-71.6-3.4c-39.3-30.7-19.3-67.6-11-79.8C1135.4,268.6,1151.4,244.7,1174.9,241.5z"/>
					</g>
				</g>
				<path fill="#0E141D" d="M1140.1,251.3c0,0,7.8,20,46,32.9c19.4,6.5,53.5,14.9,62.6,12.2c0,0-9-58.8-62.9-56.4
					C1185.7,240,1157.5,239.6,1140.1,251.3z"/>
				<path fill="#0E141D" d="M1193.8,259.1c0,0-36.6,34.4-70.4,36.5c0,0,1.1-39.4,36.2-48.8S1193.8,259.1,1193.8,259.1z"/>
			</g>
			<path fill="#0E141D" d="M1222.5,348.3c0,0-23.2,22.8-57,11C1165.5,359.3,1191.2,385.9,1222.5,348.3z"/>
		</g>
	</g>
</g>
</svg>
