<?xml version="1.0" encoding="UTF-8"?>
<svg xmlns="http://www.w3.org/2000/svg" version="1.1" viewBox="0 0 512 614.1">
  <!-- Generator: Adobe Illustrator 28.7.1, SVG Export Plug-In . SVG Version: 1.2.0 Build 142)  -->
  <g>
    <g id="icon">
      <g>
        <rect x="1.3" y="504.1" width="509.3" height="27.2" fill="#ede8e6"/>
        <rect x="1.3" y="585.6" width="509.3" height="27.2" fill="#ede8e6"/>
        <rect x="1.3" y="413.3" width="509.3" height="27.2" fill="#ede8e6"/>
        <path d="M388.9,33.1c3.6,4,6.2,8.6,8,13.6,2.2,6.1,6.6,16.1,6.3,35.8-.5,32-19.2,51.5,14,62.6,43.3,14.5,48.7,35.3,23.6,58.4-9.8,9-29.6,20.8-68.3,3.8-44.9-19.7-38.7-47.5-37.9-52,2.5-14.9,55.1-41.3,37-90.8-9.2-25,.8-49.8,17.4-31.4Z" fill="#0e1a36"/>
        <path d="M412.6,158.8c-5.6-1.2-17.3,2.2-20.1,7-4.4,7.3-8,20.2-5.9,39.8,3.6,34.1,13.4,90.6,30.9,104.5,26.8,21.4,43-50.4,22.7-114.6-8.6-27.3-14.7-34-27.6-36.7Z" fill="#e0bfa4"/>
        <path d="M510.7,532.6H1.3c-.7,0-1.3-.6-1.3-1.3s.6-1.3,1.3-1.3h509.3c.7,0,1.3.6,1.3,1.3s-.6,1.3-1.3,1.3Z" fill="#0e1a36"/>
        <path d="M510.7,505.5H1.3c-.7,0-1.3-.6-1.3-1.3s.6-1.3,1.3-1.3h509.3c.7,0,1.3.6,1.3,1.3s-.6,1.3-1.3,1.3Z" fill="#0e1a36"/>
        <path d="M510.7,614.1H1.3c-.7,0-1.3-.6-1.3-1.3s.6-1.3,1.3-1.3h509.3c.7,0,1.3.6,1.3,1.3s-.6,1.3-1.3,1.3Z" fill="#0e1a36"/>
        <path d="M510.7,587H1.3c-.7,0-1.3-.6-1.3-1.3s.6-1.3,1.3-1.3h509.3c.7,0,1.3.6,1.3,1.3s-.6,1.3-1.3,1.3Z" fill="#0e1a36"/>
        <path d="M510.7,442.1H1.3c-.7,0-1.3-.6-1.3-1.3s.6-1.3,1.3-1.3h509.3c.7,0,1.3.6,1.3,1.3s-.6,1.3-1.3,1.3Z" fill="#0e1a36"/>
        <path d="M510.7,414.9H1.3c-.7,0-1.3-.6-1.3-1.3s.6-1.3,1.3-1.3h509.3c.7,0,1.3.6,1.3,1.3s-.6,1.3-1.3,1.3Z" fill="#0e1a36"/>
        <path d="M254.2,315.2s-33.2,32.5-25.6,82c8.1,53.1,96.1,36.4,96.1,36.4,0,0,50.4,2.4,82.5-36.3s22.8-56.1-.7-73.9-21.9-30-21.9-30h-114.2l-16.2,21.7Z" fill="#0e1a36"/>
        <g>
          <polygon points="199.2 415.8 222.1 415.8 204.1 393.9 199.2 415.8" fill="#3d70cc"/>
          <polygon points="52.1 408.7 81 393.7 204.1 393.9 179.6 408.7 52.1 408.7" fill="#0e1a36"/>
          <g>
            <polygon points="190.6 418 204.1 368.6 119.9 368.6 104.6 418 190.6 418" fill="#e0bfa4"/>
            <polygon points="176.8 413 190.2 363.6 106 363.6 90.8 413 176.8 413" fill="#e0bfa4"/>
            <polygon points="188.9 368.6 200 372.3 188.5 413 177.6 410 188.9 368.6" fill="#ede8e6"/>
            <path d="M183.4,411.5c0,0-.2,0-.2,0-.5-.1-.8-.6-.6-1.1l10.7-38.9c.1-.5.6-.8,1.1-.6.5.1.8.6.6,1.1l-10.7,38.9c-.1.4-.5.7-.9.7Z" fill="#0e1a36"/>
          </g>
          <g>
            <polygon points="164.2 424.4 177.6 375 93.4 375 78.1 424.4 164.2 424.4" fill="#d1816e"/>
            <polygon points="150.3 419.4 163.8 370 79.6 370 64.3 419.4 150.3 419.4" fill="#d1816e"/>
            <polygon points="162.4 375 173.5 378.7 162.1 419.4 151.1 416.4 162.4 375" fill="#ede8e6"/>
            <path d="M155,417.8c0,0-.2,0-.2,0-.5-.1-.8-.6-.6-1.1l10.7-39.1c.1-.5.6-.8,1.1-.6.5.1.8.6.6,1.1l-10.7,39.1c-.1.4-.5.7-.9.7Z" fill="#0e1a36"/>
            <path d="M158.7,418.8c0,0-.2,0-.2,0-.5-.1-.8-.6-.6-1.1l10.7-38.9c.1-.5.6-.8,1.1-.6.5.1.8.6.6,1.1l-10.7,38.9c-.1.4-.5.7-.9.7Z" fill="#0e1a36"/>
          </g>
          <polygon points="204.1 393.9 204.1 509.3 179.6 527.7 179.6 408.7 204.1 393.9" fill="#3d70cc"/>
          <rect x="52.1" y="408.7" width="127.5" height="118.9" fill="#3d70cc"/>
          <polygon points="179.6 408.7 148.8 436 21 436 52.1 408.7 179.6 408.7" fill="#3d70cc"/>
          <rect x="64.3" y="510.8" width="58.7" height="5.3" fill="#ede8e6"/>
          <rect x="64.3" y="499.6" width="38.5" height="5.3" fill="#ede8e6"/>
          <path d="M179.6,525.3h0c-.5,0-.9-.4-.9-.9,0-.9.5-94.1,0-114.1,0-.5.4-.9.9-.9,0,0,0,0,0,0,.5,0,.9.4.9.9.5,20,0,113.2,0,114.1,0,.5-.4.9-.9.9Z" fill="#0e1a36"/>
          <path d="M148.8,436.9H53.7c-.5,0-.9-.4-.9-.9s.4-.9.9-.9h94.7l26.4-23.4c.4-.3.9-.3,1.3,0,.3.4.3.9,0,1.3l-26.7,23.6c-.2.1-.4.2-.6.2Z" fill="#0e1a36"/>
          <path d="M204.1,415.4c-.5,0-.9-.4-.9-.9v-17.9c0-.5.4-.9.9-.9s.9.4.9.9v17.9c0,.5-.4.9-.9.9Z" fill="#0e1a36"/>
        </g>
        <g>
          <path d="M290,22.9c-5.3,4.9-9.1,11.1-11.5,17.8-4.2,11.7-25.6,62-46.8,84.8-11.5,12.4-47,33-21.4,72.1,21.4,32.6,73,51.8,101,37.8,15.2-7.6,35.4-19.8,36.8-67.5,1.9-60.9-13.4-186.7-58.1-145Z" fill="#0e1a36"/>
          <path d="M339.9,5.4h0c-28.7-1.9-53.5,19.8-55.3,48.5l-2,30.9c5.3,44.9,27.8,54,48.5,55.3h0c29.3,1.9,50.8-20,52.7-48.7l2-30.9c1.9-28.7-17.2-53.3-45.9-55.2Z" fill="#d1816e"/>
          <ellipse cx="357.1" cy="78.3" rx="3.9" ry="3.6" transform="translate(255.5 429.5) rotate(-86.2)" fill="#0e1a36"/>
          <path d="M341.4,89.6s0,0,0,0c-.7,0-1.3-.7-1.2-1.4,0-.4,0-2.2-1.6-2.5-1.6-.3-2.7,1.7-2.7,1.7-.4.6-1.2.9-1.8.5-.6-.4-.9-1.2-.5-1.8.8-1.4,2.8-3.5,5.6-3.1,3.3.6,4,3.7,3.8,5.3,0,.7-.6,1.2-1.3,1.2Z" fill="#0e1a36"/>
          <path d="M345.4,104.4c-.3,0-.6-.1-.9-.3-.3-.3-8.1-7-19-2.3-.7.3-1.5,0-1.8-.7-.3-.7,0-1.5.7-1.8,12.5-5.4,21.5,2.4,21.9,2.8.6.5.6,1.3.1,1.9-.3.3-.6.4-1,.4Z" fill="#0e1a36"/>
          <path d="M324.4,7.8c-17.4-14.1-58,26.7-41.7,56.6l7.7,4.2s33.4-26.1,35.7-45c0,0,2.9-12.1-1.6-15.8Z" fill="#0e1a36"/>
          <path d="M313.2,27.1s50.3,47.6,75.9,45.7c0,0,23.1-25.8-16.1-58.9-35.8-30.2-65.8-4.1-59.9,13.2Z" fill="#0e1a36"/>
          <path d="M291.4,70s10-33.3,47.6-31.5c37.5,1.8,49.1,55.5,49.1,55.5,0,0,6.9-3.4,3.2-30-3.2-22.6-22.2-48.7-60.4-45.8-34.9,2.7-58.8,34.9-53.1,54.1l13.7-2.4Z" fill="#3d70cc"/>
          <path d="M285,65.7c-4.4-1.1-15.7,1.4-15.5,16.3.3,14.8,19.2,14.7,19.2,14.7l7-24.5c-3.5-3.1-6.2-5.3-10.7-6.5Z" fill="#d1816e"/>
          <path d="M286.6,80.2c-.7,0-1.3-.6-1.3-1.3,0-.5-.3-4.6-5.1-5.3-.7-.1-1.2-.8-1.1-1.5.1-.7.8-1.2,1.5-1.1,5.7.8,7.3,5.5,7.4,7.9,0,.7-.6,1.4-1.3,1.4,0,0,0,0,0,0Z" fill="#0e1a36"/>
          <path d="M388.6,69.5c4.6.2,14.6,5.9,10.1,20-4.5,14.1-22.6,8.6-22.6,8.6l.4-25.5c4.2-2,7.5-3.3,12.1-3.1Z" fill="#d1816e"/>
          <path d="M381.2,83.8c-.1,0-.3,0-.4,0-.7-.2-1.1-1-.8-1.7.7-2.3,3.6-6.3,9.3-5.4.7.1,1.2.8,1.1,1.5-.1.7-.8,1.2-1.5,1.1-4.7-.7-6.2,3.2-6.4,3.6-.2.6-.7.9-1.3.9Z" fill="#0e1a36"/>
        </g>
        <path d="M346.3,142.8s77.6-1.6,84.9,34.8c6.9,34.2-17,58-25.5,80-6.6,17.1-10.9,32.1-2.5,64.5,0,0-31.9,17.4-64.9,17.8-57.3.7-89.2-18.9-89.2-18.9,0,0,6.9-14.8,8.4-25.7,3.4-24.4-8.2-61.4-8.2-61.4-5.1-57.4-11-71-11-71,12-7.9,37.4-12.8,37.4-12.8,40.1-9,70.6-7.2,70.6-7.2Z" fill="#e0bfa4"/>
        <path d="M338.2,341.3h0c-.7,0-1.3-.6-1.3-1.4.8-64.8-9-141.6-9.1-142.3,0-.7.4-1.4,1.2-1.5.7,0,1.4.4,1.5,1.2,0,.8,9.9,77.7,9.1,142.7,0,.7-.6,1.3-1.3,1.3Z" fill="#0e1a36"/>
        <path d="M358.5,129s-1.4,10.4-.4,18.2c0,0-17.9,12.6-45.2,8.9-27.3-3.7-23.2-7.9-23.2-7.9,0,0,4.7-15.9,3.3-31.4l65.5,12.3Z" fill="#d1816e"/>
        <path d="M373.9,144.7s-30.5,50.8-46.9,50.8c-16.6,0-46.9-46.2-46.9-46.2,0,0,24.1-7.4,44.1-8.8,0,0,26.9-.2,49.7,4.2Z" fill="#d1816e"/>
        <path d="M333.4,142.7c-9.4,0-20.8-2.8-32.7-12.5-.6-.5-.7-1.3-.2-1.9s1.3-.7,1.9-.2c27,21.9,50.9,7.3,51.9,6.6.6-.4,1.5-.2,1.8.4s.2,1.5-.4,1.8c-.2,0-9.1,5.6-22.3,5.6Z" fill="#0e1a36"/>
        <path d="M398.5,273c-.1,0-.3,0-.4,0-.7-.2-1.1-1-.9-1.7.1-.4,11.2-35.5,13.4-70.2,0-.7.7-1.3,1.4-1.3.7,0,1.3.7,1.3,1.4-2.3,35.1-13.4,70.5-13.5,70.9-.2.6-.7.9-1.3.9Z" fill="#0e1a36"/>
        <path d="M238.2,162.8c6.2-1.9,11.4-1.8,17.1,1.3,8.7,4.7,38.1,47.8,43,59.1,8.3,19.3,14.5,31.7,7.9,42.9-22.8,38.7-68.8,13.9-81.4-50.2-4.9-24.9-1.7-48.5,13.4-53.1Z" fill="#e0bfa4"/>
        <path d="M253.3,218.2s-4.9,67.8,31.8,63.2c19.5-2.4,29.6-23.8,28.7-50.5-1-27.1-3.7-122.4-8.5-130.1-8.8-14.2-20.6-45.9-32.9,2.2-6.3,24.6-19,82.8-19.1,115.2Z" fill="#d1816e"/>
        <g>
          <path d="M291.1,109.9c-13.1-3.9-17.9-19.9-9.6-30.8,5.6-7.3,14.6-18.7,21.1-25.5,10.1-10.6,24.1-20.4,25.9-19.9,8.4,2.3-16.8,23.6-16.8,23.6,0,0,18-9.6,22.6-10.1,4.6-.6,12.5.4,10.2,3.7-2.2,3.3-17.1,5.4-24.2,13.5,0,0,32.3-13.2,28.1-1.4,0,0,7.2,3.1-1,7.6-8.2,4.5-18.7,9.8-20.3,10.3,0,0-8.2,17.2-21.6,26.7-4.5,3.2-9.7,3.6-14.5,2.2Z" fill="#d1816e"/>
          <path d="M312.5,184.9c-.7,0-1.3-.6-1.3-1.3,0-.5-2.3-47.9-5.6-76.7,0-.5.2-1,.5-1.2.1,0,13.3-9.7,19.8-25.2.1-.3.4-.6.7-.7.1,0,14.3-6.5,20.1-10.2,0,0,.1,0,.2-.1,0,0,3.1-1.3,3-3.4,0-.3-.5-1.1-1.6-1.6-2.3.6-14.3,3.9-24.3,10-.6.4-1.5.2-1.8-.4-.4-.6-.2-1.5.4-1.8,11.3-7,24.8-10.3,25.4-10.4.2,0,.5,0,.7,0,2.4.7,3.5,2.7,3.8,3.7,0,0,0,.1,0,.2.4,3.8-3.7,5.9-4.5,6.2-5.5,3.5-17.3,9-19.9,10.1-6.1,14.1-17.1,23.2-19.9,25.4,3.3,29,5.5,75.6,5.5,76.1,0,.7-.5,1.4-1.3,1.4,0,0,0,0,0,0Z" fill="#0e1a36"/>
        </g>
        <path d="M277.6,88.2s1.2-24.3,7-34.4c5-8.7,9.1,1.7,6.3,17.3-1.3,7.1-13.3,17-13.3,17Z" fill="#d1816e"/>
        <path d="M273.6,95.7c-.2,0-.3,0-.5,0-.7-.3-1.1-1-.8-1.7,0-.2,1.6-4.4,4-7.2.2-1.8.8-9,2.1-16.5,2.2-12.1,4.9-18.8,8.5-20.6,0,0,.2,0,.2,0,.2,0,1.5-.4,3,.7,2,1.6,3,5.3,3.1,11,6.4-7.1,23.8-25.5,34.8-28.7.1,0,.2,0,.3,0,.2,0,1.8,0,2.6,1.4.8,1.3.6,3.2-.8,5.8-1.4,2.7-5.7,7.2-9.6,11.1,6.2-3.1,13.9-6.1,18.8-4.9,4.3,1,6.3,2.3,6.5,4.2.2,2-2,3.3-3.4,3.9-.3.1-.9.4-1.7.7-2.5,1-8,3.2-12.6,5.6,5.8-1.8,13.1-3.8,17.3-3.3,3.1.3,4.8,1.3,5.3,2.8.7,2.1-1.3,4.1-1.6,4.3-.5.5-1.4.5-1.9,0-.5-.5-.5-1.4,0-1.9.5-.4.9-1.2.8-1.5,0-.2-.7-.8-3.1-1-6.9-.8-24.3,6.1-24.5,6.1-.5.2-1.2,0-1.5-.4-.4-.5-.4-1.1,0-1.6,2.8-4.1,12.5-8.3,20.6-11.6.8-.3,1.3-.5,1.6-.6,1.1-.5,1.6-1,1.8-1.2-.2-.2-.9-1-4.4-1.8-6.6-1.6-21.3,6.7-26.4,10-.6.4-1.4.2-1.8-.3s-.4-1.3.2-1.8c.1-.1,14.4-13,17.1-18,1-1.9,1-2.9.9-3.1,0,0-.1,0-.2-.1-12.8,3.9-35.5,30.3-35.7,30.6-.4.4-1,.6-1.5.4-.5-.2-.9-.7-.8-1.3.5-9.4-1.2-11.9-2-12.5-.2-.2-.4-.2-.5-.3-4.8,2.9-8.1,23.1-9,35.3,0,.3-.1.6-.3.8-2.2,2.4-3.8,6.6-3.8,6.7-.2.5-.7.9-1.3.9Z" fill="#0e1a36"/>
        <path d="M335.1,554.9s.5-11.8,1.7-41.8c3.1-80.9,3-93.2-18.2-104.5-10.8-5.7-38-26.2-42.9,19.5-4.9,45.7,17.8,126.8,17.8,126.8h41.6Z" fill="#d1816e"/>
        <path d="M343.4,348.9l-6,159c-9.4,4.4-19.1,4.4-27.7,4.4-19.5,0-40.9-4.4-40.9-4.4,0,0-9-88.5-6.9-171.4.2-6,38.2-33.7,61-26.9,22.8,6.8,19.7,26.6,20.6,39.2Z" fill="#0e1a36"/>
        <path d="M253.1,350.9c-.2,0-.4,0-.6-.2-.7-.3-.9-1.2-.6-1.8.5-.9,12.4-22.9,32.6-32.7.7-.3,1.5,0,1.8.6.3.7,0,1.5-.6,1.8-19.5,9.4-31.3,31.3-31.4,31.5-.2.5-.7.7-1.2.7Z" fill="#ede8e6"/>
        <path d="M340.4,430.1s0,0-.1,0c-.7,0-1.3-.7-1.2-1.5,0-.7,6.3-72.5,1-101.8-.1-.7.4-1.4,1.1-1.6.7-.1,1.4.4,1.6,1.1,5.3,29.7-1,101.8-1,102.5,0,.7-.6,1.2-1.3,1.2Z" fill="#ede8e6"/>
        <path d="M422.9,561.6s1.1-33.2,6.4-60c5.6-28.2-63.2-41.9-59,2.3,3.3,34.6,9.3,53.7,9.3,53.7l43.3,3.9Z" fill="#d1816e"/>
        <path d="M432.4,319.5s23.4,23.3,3,186.8c0,0-15.8,5-43.6,5.3-14.5.2-26.9-4.7-26.9-4.7,0,0-12.9-68.9-11.6-168.6,0,0,17.8-17.3,34-23,33.4-11.7,45.1,4.2,45.1,4.2Z" fill="#0e1a36"/>
        <path d="M335.7,553v-13.7s-19.7-3.1-46.3.4l3,14.5s33.4,8.7,43.2-1.2Z" fill="#3d70cc"/>
        <path d="M288.2,553.8s-.8,6.2-6.3,14.6c-8.9,13.6-9.6,33.9-.6,35.1,9.8,1.4,39.1,1,50,0,10.9-1,16.1-1.9,11.3-23.6-1.9-8.8-2.5-22.2-6.9-28.2-6.7-9.3-15.1,6.2-24.7,4.2-10.7-2.2-19.1-14.4-22.8-2Z" fill="#ede8e6"/>
        <path d="M424,551.9v-13.7s-20.8-3.1-48.9.4l3.2,14.5s35.3,8.7,45.7-1.2Z" fill="#3d70cc"/>
        <path d="M376.5,552.8s-.8,6.2-6.3,14.6c-8.9,13.6-9.6,33.9-.6,35.1,9.8,1.4,39.1,1,50,0,10.9-1,16.1-1.9,11.3-23.6-1.9-8.8-2.5-22.2-6.9-28.2-6.7-9.3-15.1,6.2-24.7,4.2-10.7-2.2-19.1-14.4-22.8-2Z" fill="#ede8e6"/>
        <g>
          <path d="M292.9,305.4c-7.8,5.4-14.7,10.6-20.3,18.4-10,14-8.9,32.2-8.1,34,3.7,8.2,13.4-25.3,13.4-25.3,0,0-4.5,19.8-4.3,24.6.2,4.8,2.4,12.6,5.4,9.8,3-2.8,3.6-19,7.5-26.7,0,0-8.3,35,3.1,28.9,0,0,4.3,6.8,7.6-2.2,3.3-9.1,7-20.6,7.2-22.3,0,0,15.7-6.3,20.9-14.4s9.2-53.5-32.4-24.6Z" fill="#d1816e"/>
          <path d="M289.8,368.8s0,0-.1,0c-.7,0-1.3-.7-1.2-1.4,0-.5,1.1-13.4,6.4-26,.3-.7,1.1-1,1.8-.7.7.3,1,1.1.7,1.8-5.1,12.3-6.2,25.1-6.2,25.2,0,.7-.6,1.2-1.3,1.2Z" fill="#0e1a36"/>
        </g>
        <path d="M301.2,303.7c3.3-4.4,8.2-7.2,13.7-8.1,11.4-1.9,40.5-7.6,57.9-14.7s48-17.8,63-4.2c12,10.8,7.4,30.9-7.2,39.2-14.6,8.3-99.9,16.2-110.6,15.7-9.2-.4-27.5-13.5-16.8-27.9Z" fill="#d1816e"/>
        <path d="M386.2,578.7c-.4,0-.8-.2-1.1-.5-.4-.6-.3-1.4.3-1.9.6-.4,13.8-10,27.3-10.6.8,0,1.4.5,1.4,1.3,0,.7-.5,1.4-1.3,1.4-12.7.6-25.7,10-25.9,10.1-.2.2-.5.3-.8.3Z" fill="#0e1a36"/>
        <path d="M412.8,578.7c-.3,0-.6,0-.8-.3-.1,0-13.1-9.5-25.9-10.1-.7,0-1.3-.7-1.3-1.4,0-.7.6-1.3,1.4-1.3,13.5.7,26.8,10.2,27.3,10.6.6.4.7,1.3.3,1.9-.3.4-.7.5-1.1.5Z" fill="#0e1a36"/>
        <path d="M299.3,578.7c-.4,0-.8-.2-1.1-.5-.4-.6-.3-1.4.3-1.9.6-.4,13.8-10,27.3-10.6.8,0,1.4.5,1.4,1.3,0,.7-.5,1.4-1.3,1.4-12.7.6-25.7,10-25.9,10.1-.2.2-.5.3-.8.3Z" fill="#0e1a36"/>
        <path d="M325.9,578.7c-.3,0-.6,0-.8-.3-.1,0-13.1-9.5-25.9-10.1-.7,0-1.3-.7-1.3-1.4,0-.7.7-1.3,1.4-1.3,13.5.7,26.8,10.2,27.3,10.6.6.4.7,1.3.3,1.9-.3.4-.7.5-1.1.5Z" fill="#0e1a36"/>
        <path d="M355.6,426.5c-.7,0-1.3-.6-1.3-1.3,0-.3-.7-28.5,1.4-53.8,0-.7.7-1.3,1.4-1.2.7,0,1.3.7,1.2,1.4-2,25.2-1.4,53.3-1.4,53.5,0,.7-.6,1.4-1.3,1.4,0,0,0,0,0,0Z" fill="#ede8e6"/>
        <path d="M263.4,429.5c-.7,0-1.3-.5-1.3-1.3,0-.3-1.8-32.1,3.6-57.1.2-.7.9-1.2,1.6-1,.7.2,1.2.9,1,1.6-5.3,24.6-3.5,56-3.5,56.3,0,.7-.5,1.4-1.3,1.4,0,0,0,0,0,0Z" fill="#ede8e6"/>
        <path d="M303.9,605.7c-9.3,0-18.1-.3-22.8-.9-2.6-.4-4.7-2.1-6-4.9-3.5-7.7-1-22.1,5.7-32.3,5.2-8,6-13.9,6.1-14,0,0,0-.1,0-.2,1-3.3,2.4-5.3,4.4-6.1,3-1.2,6.5.7,10.4,2.9,2.9,1.6,6.2,3.5,9.6,4.2,3.7.8,7.3-1.5,10.8-3.7,4.8-2.9,10.2-6.3,14.7,0,3.3,4.6,4.5,12.6,5.7,20.3.5,3,.9,5.9,1.4,8.4,2.4,11.2,2.4,17.4-.2,20.9-2.5,3.5-7.3,3.9-12.3,4.4-5.8.5-16.9.9-27.6.9ZM289.5,554.1c-.1,1-1.2,7-6.4,15-6.7,10.3-8.2,23.6-5.5,29.7.9,2,2.2,3.1,3.9,3.4,9.8,1.4,39,1,49.7,0,5.3-.5,8.7-1,10.4-3.3,2-2.8,2-8.5-.3-18.7-.6-2.6-1-5.5-1.5-8.6-1.1-7.1-2.3-15.1-5.2-19.2-2.9-4.1-5.8-2.5-11.1.7-3.8,2.3-8.1,5-12.8,4-3.8-.8-7.3-2.8-10.4-4.5-3.4-1.9-6.3-3.5-8.1-2.8-1.1.4-2,1.9-2.8,4.3Z" fill="#0e1a36"/>
        <path d="M392.2,604.7c-9.3,0-18.1-.3-22.8-.9-2.6-.4-4.7-2.1-6-4.9-3.5-7.7-1-22.1,5.7-32.3,5.2-8,6-13.9,6.1-14,0,0,0-.1,0-.2,1-3.3,2.4-5.3,4.4-6.1,3-1.2,6.5.7,10.4,2.9,2.9,1.6,6.2,3.5,9.6,4.2,3.7.8,7.3-1.5,10.8-3.7,4.8-2.9,10.2-6.3,14.7,0,3.3,4.6,4.5,12.6,5.7,20.3.5,3,.9,5.9,1.4,8.4,2.4,11.2,2.4,17.4-.2,20.9-2.5,3.5-7.3,3.9-12.3,4.4-5.8.5-16.9.9-27.6.9ZM377.8,553.1c-.1,1-1.2,7-6.4,15-6.7,10.3-8.2,23.6-5.5,29.7.9,2,2.2,3.1,3.9,3.4,9.8,1.4,39,1,49.7,0,5.3-.5,8.7-1,10.4-3.3,2-2.8,2-8.5-.3-18.7-.6-2.6-1-5.5-1.5-8.6-1.1-7.1-2.3-15.1-5.2-19.2-2.9-4-5.8-2.5-11.1.7-3.8,2.3-8.1,5-12.8,4-3.8-.8-7.3-2.8-10.4-4.5-3.4-1.9-6.3-3.5-8.1-2.8-1.1.4-2,1.9-2.8,4.3Z" fill="#0e1a36"/>
        <path d="M201.1,141.8c-.4,0-.9-.2-1.1-.6-.4-.6-.2-1.5.4-1.8.5-.3,47.8-30.2,67.9-73.1.3-.7,1.1-1,1.8-.6.7.3,1,1.1.6,1.8-20.4,43.7-68.4,74-68.9,74.3-.2.1-.5.2-.7.2Z" fill="#0e1a36"/>
        <path d="M454.2,200.2c-.2,0-.4,0-.6-.1-.7-.3-.9-1.1-.6-1.8,5.3-11.1,6.5-19.3,3.6-26-3.3-8-12.4-14.3-28.5-19.8-32.7-11.2-31-49.1-31-49.5,0-.7.6-1.3,1.4-1.3.7,0,1.3.7,1.3,1.4,0,.4-1.5,36.2,29.2,46.8,16.9,5.8,26.4,12.6,30.1,21.3,3.1,7.5,1.9,16.4-3.7,28.2-.2.5-.7.8-1.2.8Z" fill="#0e1a36"/>
        <path d="M217.3,191.7c-.4,0-.9-.2-1.1-.6-15.7-25.2,5.4-46.2,5.6-46.4.5-.5,1.4-.5,1.9,0,.5.5.5,1.4,0,1.9-.8.8-19.7,19.7-5.2,43.1.4.6.2,1.5-.4,1.8-.2.1-.5.2-.7.2Z" fill="#ede8e6"/>
        <path d="M224.4,162.1c-.2,0-.4,0-.6-.1-.7-.3-1-1.1-.6-1.8.2-.5,6.1-12.8,20.2-25.1,16.7-14.6,22.8-33.6,22.8-33.8.2-.7,1-1.1,1.7-.9.7.2,1.1,1,.9,1.7-.2.8-6.3,19.9-23.6,35.1-13.6,11.9-19.5,24.1-19.5,24.2-.2.5-.7.8-1.2.8Z" fill="#ede8e6"/>
        <path d="M390.8,141.6c-.3,0-.7-.1-1-.4-5.1-5.2-6.9-13-5.2-22.5,1.2-7.1,3.9-12.6,4-12.8.3-.7,1.1-.9,1.8-.6.7.3.9,1.1.6,1.8-.1.2-10.1,21.2.8,32.3.5.5.5,1.4,0,1.9-.3.3-.6.4-.9.4Z" fill="#ede8e6"/>
      </g>
    </g>
  </g>
</svg>