<?xml version="1.0" encoding="UTF-8"?><svg id="Layer" xmlns="http://www.w3.org/2000/svg" viewBox="0 0 729.48 512"><path d="M626.36,73.39s7.23,10.39,20.16,21.93c19.64,17.53,16.63,35.63,13.09,50.01-3.54,14.37,12.16,25.08,20.5,34.26,8.34,9.19,24.63,40.62-20.69,61.89-45.33,21.27-119.67,28.33-142.09,6.2-22.42-22.14-19.02-24.88-11.22-40.3,7.8-15.42-12.09-15.22-7.64-36.36,4.44-21.14,4.03-27.26,2.91-48.17-1.09-20.32,22.63-61.3,70.96-58.87,48.33,2.43,54.03,9.41,54.03,9.41Z" fill="#43474c"/><path d="M667.03,216.95c-.38,0-.74-.2-.94-.55-.3-.52-.12-1.18.4-1.48h0s4.64-2.73,5.65-7.82c.75-3.8-.62-8.01-4.09-12.51-2.42-3.14-4.63-5.57-6.77-7.93-4.35-4.79-8.11-8.92-10.76-16.41-.2-.57.1-1.19.66-1.39.56-.2,1.19.09,1.39.66,2.51,7.07,5.96,10.87,10.32,15.67,2.07,2.27,4.41,4.85,6.88,8.06,3.87,5.03,5.38,9.84,4.49,14.28-1.22,6.07-6.47,9.13-6.69,9.26-.17.1-.36.14-.54.14Z" fill="#fcf9f3"/><path d="M675.19,227.64c-.58,0-1.06-.45-1.08-1.03-.03-.6.43-1.11,1.03-1.14.56-.03,13.86-.94,17.34-18.27,3.5-17.46-19.02-31.22-19.25-31.36-.51-.31-.68-.98-.37-1.49s.98-.68,1.49-.37c.25.15,6.06,3.66,11.5,9.53,7.31,7.88,10.35,16.22,8.76,24.12-1.98,9.91-7.11,14.83-11.06,17.2-4.31,2.59-8.14,2.81-8.3,2.82-.02,0-.04,0-.05,0Z" fill="#43474c"/><rect x="19.33" y="1.09" width="417.98" height="509.83" fill="#abb0b7"/><path d="M437.31,512H19.33c-.6,0-1.09-.49-1.09-1.09V1.09c0-.6.49-1.09,1.09-1.09h417.98c.6,0,1.09.49,1.09,1.09v509.83c0,.6-.49,1.09-1.09,1.09ZM20.42,509.83h415.81V2.17H20.42v507.65Z" fill="#43474c"/><rect x="34.59" y="14.79" width="387.47" height="482.42" fill="#fcf9f3"/><path d="M422.06,498.3H34.59c-.6,0-1.09-.49-1.09-1.09V14.79c0-.6.49-1.09,1.09-1.09h387.47c.6,0,1.09.49,1.09,1.09v482.42c0,.6-.49,1.09-1.09,1.09ZM35.68,496.12h385.29V15.88H35.68v480.25Z" fill="#43474c"/><path d="M307.27,432.04c-6.76,4.46-16.84,3.88-23.68-.47-10.49-6.67-20.69-18.88-30.29-44.18-8.48-22.35-8.84-28.61-22.42-76.94-7.71-27.45,4.41-35.2,14.02-39.18,10.64-4.4,35.21-31.87,57.77,21.71,7.3,17.34,16.78,41.56,22.84,66.07,11.06,44.73-2.67,62.71-18.24,72.98Z" fill="#efd3bd"/><path d="M296.16,436.22c-4.56,0-9.24-1.25-13.14-3.73-12.37-7.87-22.13-22.08-30.72-44.71-5.59-14.73-7.69-22.59-12.29-39.82-2.45-9.2-5.51-20.64-10.16-37.21-7.68-27.33,3.8-35.98,14.65-40.47,1.55-.64,3.45-1.82,5.65-3.19,6.95-4.31,16.46-10.22,27.08-6.84,9.98,3.18,18.63,13.75,26.45,32.32,10.62,25.23,18.11,46.89,22.89,66.23,11.78,47.64-5.03,65.13-18.7,74.15h0c-3.31,2.18-7.46,3.27-11.72,3.27ZM270.83,261.43c-7.46,0-14.28,4.23-19.54,7.5-2.28,1.42-4.26,2.64-5.97,3.35-10.65,4.4-20.56,12.35-13.39,37.88,4.66,16.58,7.72,28.04,10.17,37.24,4.58,17.15,6.66,24.98,12.22,39.61,8.42,22.17,17.9,36.04,29.86,43.65,6.74,4.29,16.41,4.49,22.5.48l.6.91-.6-.91c27.08-17.86,23.73-47.76,17.78-71.81-4.76-19.23-12.21-40.79-22.79-65.91-7.45-17.7-15.9-28.16-25.11-31.09-1.94-.62-3.86-.89-5.74-.89Z" fill="#43474c"/><path d="M353.75,248.6l-296.6-12.22s-2.17-12.95,19.1-23.92c0,0,10.95-6.39,12.09-20.9,1.14-14.51,13.3-19.3,16.09-21.17,2.79-1.87,11.64-9.05,12.03-19.64.58-15.65,8.18-21.59,14.99-25.28,2.46-1.33,8.92-5.34,12.6-15.11,3.52-9.35,3.67-10.35,7.21-18.8,9.82-23.36,58.63-52.94,101.9-19.56,0,0,13.28,9.85,21.5,28.11,1.31,2.91,12.48,14.04,12.46,16.34-.2,27.91,7.37,14.84,11.61,35.35,2.81,13.58,10.04,20,12.72,21.54,1.03.59,12.96,9.89,14.41,24.84.78,8.07,3.2,18.14,11.68,22.45,5.14,2.61,18.26,6.62,16.2,27.97Z" fill="#43474c"/><path d="M317.99,327.98s-25.35-2.32-64.53,47.48c0,0,6.34-122.5,0-152.65,0,0,27.65,10.56,42.4,41.26,12.81,26.66,19.7,51.83,22.13,63.9Z" fill="#8fa3b0"/><path d="M253.46,376.55c-.23,0-.47-.08-.67-.23-.47-.37-.55-1.05-.18-1.53,34.36-43.67,58.08-47.65,64.05-47.9-1.59-7.43-7.67-32.98-21.78-62.34-14.38-29.93-41.54-40.61-41.81-40.72-.56-.21-.84-.84-.63-1.4.21-.56.85-.84,1.4-.63.28.11,28.23,11.07,42.99,41.81,15.22,31.69,21.18,59,22.22,64.16.07.34-.03.68-.26.94s-.56.39-.91.36c-.26-.02-25.35-1.52-63.58,47.07-.21.27-.53.41-.86.41Z" fill="#43474c"/><path d="M75.7,496.03s-19.76-164.15,0-255.29c12.32-56.81,55.92-55.76,130.64-36.99,21.09,5.3,39.46,13.3,47.64,20.46,18.89,16.55,21.75,39.04,18.42,68.16-3.27,28.62,19.93,50.52,4.58,84.07-3.63,7.93-18.74,24.63-18.74,24.63-11.78,23.47-13.74,53.95-17.83,94.96H75.7Z" fill="#8fa3b0"/><path d="M74.85,489.49c-.55,0-1.02-.41-1.08-.97-4.1-38.31-16.17-169.42.87-248.01,4.27-19.7,12.42-33.05,24.91-40.8,22.76-14.13,59.25-9.02,107.06,2.99,15.12,3.8,27.2,8.44,36.91,14.17.52.31.69.97.38,1.49s-.97.69-1.49.38c-9.53-5.63-21.42-10.19-36.34-13.94-47.26-11.87-83.27-16.97-105.38-3.25-11.96,7.43-19.79,20.32-23.93,39.42-16.97,78.28-4.93,209.09-.84,247.32.06.6-.37,1.13-.96,1.2-.04,0-.08,0-.12,0Z" fill="#43474c"/><path d="M240.41,497.12s-.07,0-.11,0c-.6-.06-1.03-.59-.97-1.19.39-3.88.75-7.67,1.11-11.37,3.39-34.94,6.07-62.54,16.83-83.97.04-.09.1-.17.17-.24.15-.17,15.04-16.67,18.56-24.36,8.98-19.63,4.45-35.43.07-50.71-3-10.45-6.09-21.25-4.75-33.03.07-.6.61-1.03,1.2-.96.6.07,1.03.61.96,1.2-1.3,11.35,1.61,21.47,4.68,32.19,4.49,15.66,9.13,31.85-.18,52.22-3.54,7.74-17.39,23.21-18.83,24.8-10.52,21.05-13.18,48.43-16.54,83.08-.36,3.7-.73,7.49-1.11,11.37-.06.56-.53.98-1.08.98Z" fill="#43474c"/><path d="M250.33,221.25s14.24,41.72-29.29,33.73c-43.53-8-60.33-48.91-63.9-61.64,0,0,21.96,2.13,52.41,11.09,29.88,8.78,40.79,16.83,40.79,16.83Z" fill="#efd3bd"/><path d="M231.17,257.08c-3.13,0-6.58-.34-10.33-1.03-48.42-8.89-63.22-56.96-64.75-62.41-.1-.35-.02-.72.21-.99.23-.28.58-.42.94-.38.22.02,22.41,2.25,52.61,11.13,29.72,8.74,40.67,16.66,41.13,16.99.18.13.31.31.38.52.27.78,6.41,19.2-2.52,29.56-3.8,4.41-9.72,6.62-17.66,6.62ZM158.65,194.6c3.06,9.74,18.56,51.22,62.59,59.31,12.46,2.29,21.19.65,25.95-4.87,7.51-8.7,2.99-24.61,2.22-27.11-1.88-1.27-13.43-8.6-40.17-16.47-25.34-7.45-44.98-10.18-50.59-10.86Z" fill="#43474c"/><path d="M115.53,230.07c8.47-1.07,17.73,4.16,22.17,11.45,6.81,11.18,10.78,27.47,8.1,55.86-2.37,25.07-4.95,31.16-14.57,83.17-5.47,29.54-20.54,31.23-31.47,30.52-12.11-.79-48.11,13.76-44.53-47.39,1.16-19.78,3.46-47.1,9.12-73.09,10.34-47.44,31.68-58.05,51.18-60.53Z" fill="#efd3bd"/><path d="M83.52,413.14c-6.65,0-13.76-1.28-19.41-6.71-7.95-7.63-11.21-21.64-9.97-42.81,1.68-28.79,4.68-52.75,9.14-73.26,11-50.49,35.01-59.21,52.1-61.37h0c8.58-1.09,18.35,3.95,23.23,11.96,8.03,13.18,10.65,31.14,8.25,56.53-1.56,16.53-3.23,24.94-6.9,43.36-1.96,9.84-4.39,22.08-7.69,39.91-5.44,29.37-20.29,32.21-32.61,31.41-1.77-.12-4.12.12-6.83.39-2.84.28-6.03.6-9.33.6ZM115.66,231.14h0c-33.95,4.3-44.69,34.16-50.25,59.68-4.45,20.39-7.42,44.25-9.1,72.92-1.18,20.22,1.95,34.05,9.3,41.12,7.73,7.42,18.88,6.32,27.02,5.52,2.81-.28,5.24-.52,7.19-.39,12.15.79,25.24-2.11,30.33-29.64,3.3-17.84,5.74-30.1,7.7-39.94,3.65-18.35,5.31-26.72,6.86-43.14,2.35-24.89-.17-42.43-7.95-55.19-4.39-7.21-13.46-11.91-21.1-10.94Z" fill="#43474c"/><path d="M116.78,194.97c30.05-2.31,36.1,52.36,33.15,94.3-1.92,27.31-12.1,56.84-12.1,56.84,0,0-45.1-59.63-76.7-41.96,0,0,6.03-105.36,55.64-109.18Z" fill="#8fa3b0"/><path d="M131.23,380.55s-16.2,71.16-25.2,115.48h-63.1s8.62-105.36,13.07-138.39c4.44-33.04,57.55,14.57,75.23,22.91Z" fill="#efd3bd"/><path d="M137.83,347.2c-.34,0-.66-.16-.87-.43-.45-.59-44.89-58.68-75.3-41.66-.34.19-.76.18-1.1-.02-.33-.2-.53-.57-.52-.96,0-.25.87-25.22,8.22-51.22,9.8-34.65,26.65-55.39,48.72-59.98.58-.12,1.16.25,1.29.84.12.59-.26,1.16-.84,1.29-47.54,9.88-54.33,93.67-55.12,107.28,13.14-6.15,30.27-.87,49.71,15.34,11.98,9.99,21.62,21.46,25.18,25.9,1.15-5.99,4.32-22.28,7.18-35.01.09-.44,2.35-11.52,10.96-15.05.55-.23,1.19.04,1.42.59.23.55-.04,1.19-.59,1.42-7.52,3.08-9.63,13.38-9.65,13.48-3.55,15.82-7.58,37.1-7.62,37.31-.08.42-.4.76-.82.86-.08.02-.17.03-.25.03Z" fill="#43474c"/><path d="M106.03,497.12c-.07,0-.14,0-.22-.02-.59-.12-.97-.69-.85-1.28,8.9-43.83,25.04-114.8,25.2-115.51.13-.58.72-.96,1.3-.82.59.13.95.72.82,1.3-.16.71-16.3,71.65-25.19,115.46-.11.51-.56.87-1.06.87Z" fill="#43474c"/><path d="M42.93,497.12s-.06,0-.09,0c-.6-.05-1.05-.57-1-1.17.09-1.1,8.68-110.79,13.08-143.48.08-.59.62-1.01,1.22-.93.59.08,1.01.63.93,1.22-4.39,32.63-12.98,142.26-13.06,143.36-.04.57-.52,1-1.08,1Z" fill="#43474c"/><path d="M261.1,57.39c-11.54-8.24-23.03-10.56-36.32-11.7-18.2-1.55-49.34,1.07-65.69,29.63-21.31,37.21-14.28,53.93,6.18,86.32,20.46,32.39,83.49,19.28,109.79-11.99,20.37-24.21,10.45-61.69,4.8-71.27-7.43-12.6-12.66-16.64-18.76-21Z" fill="#43474c"/><path d="M233.56,50.81h0c-30.83-4.41-59.4,17-63.81,47.83l-.26,34.04c.22,60.99,48.35,63.46,48.35,63.46,31.52,4.51,51.54-17.91,55.95-48.74l4.75-33.19c4.41-30.83-14.16-58.99-44.99-63.41Z" fill="#efd3bd"/><ellipse cx="258.57" cy="135.61" rx="4.26" ry="3.89" transform="translate(118.71 391.9) rotate(-89.05)" fill="#43474c"/><ellipse cx="221.4" cy="133.63" rx="4.26" ry="3.89" transform="translate(84.13 352.79) rotate(-89.05)" fill="#43474c"/><path d="M240.41,83.13s11.9-11.03,10.54,18.83c-.23,5.05-1.36,10.04-3.45,14.64-.7,1.54-.09,4.54,2.98,2.83,7.67-4.26,12.05-20.56,6.1-33.38,0,0-8.06-17.96-16.17-2.92Z" fill="#43474c"/><path d="M249.72,79.57s16.54,13.15,9.67,38.74c0,0,3.72,1.34,6.47-5.13,2.4-5.65.13-22.94-8.17-34.95,0,0-3.8-5.31-7.97,1.33Z" fill="#43474c"/><path d="M226.65,77.43s-9.89,7.38-11.23,24.2c-.38,4.73.42,9.47,2,13.94.51,1.44.57,2.75-.99,2.6-7-.66-11.27-24.86,1.26-37.97,0,0,2.25-4.94,8.95-2.78Z" fill="#43474c"/><path d="M255.61,79.4s11.11,9.12,13.42,24.4c.65,4.3.23,8.68-.92,12.88-.37,1.35-.34,2.55,1.07,2.32,6.36-1.06,5.6-25.08-2.71-35.01,0,0-4.87-6.99-10.86-4.58Z" fill="#43474c"/><path d="M260.74,84.81s9.98,5.32,13.52,20.37c.99,4.24.93,8.63.11,12.91-.26,1.37-.15,1.93,1.25,2.22,11.81,2.42,11.68-30.11-3.32-36.11,0,0-5.8-2.27-11.57.61Z" fill="#43474c"/><path d="M240.41,83.13s-17.35-17.64-10.37,34.1c0,0-1.46,2.3-5.24-.03-5.98-3.69-8.99-26.97.57-39.5,0,0,8.79-7.38,15.03,5.43Z" fill="#43474c"/><path d="M219.99,79.56s-18.05,11.54-14.92,36.64c0,0-2.94,1.97-5.02-2.04-4.03-7.75.03-21.8,9.27-33.11,0,0,7.04-8.45,10.67-1.49Z" fill="#43474c"/><path d="M278.83,79.6s8.37,16.4-27.97,1.01c0,0-6.65-4.16-10.45,2.52,0,0-8.67-9.45-14.17-3.82l-6.6-.3s-6.08,1.07-10.95,3.6c0,0-3.29,5.84-7.34,18.79-8.72,27.82-22.61,27.3-24.15,26.96-36.21-8.17-12.86-51.91-8.82-56.86,15.46-18.94,47.44-24.22,52.2-23.85,28.71,2.24,47.11,13,58.26,31.95Z" fill="#43474c"/><path d="M245.13,148.15c-.56,0-1.03-.42-1.08-.99-.03-.27-.33-2.65-2.54-2.68h-.03c-1.99,0-2.94,2.53-2.95,2.56-.21.56-.83.85-1.39.65-.56-.2-.86-.82-.65-1.38.06-.16,1.47-4,4.99-4h.07c3.37.05,4.53,3.07,4.67,4.66.05.6-.39,1.13-.98,1.18-.03,0-.07,0-.1,0Z" fill="#43474c"/><path d="M238.7,185.22s-2.75,29.84-2.46,38.34c0,0-12.88,7.29-37.76-.8-17.16-5.58-29.74-22.96-29.74-22.96,0,0,4.46-33.86,3.81-51.54l66.14,36.96Z" fill="#efd3bd"/><path d="M236.25,224.64c-.58,0-1.06-.46-1.08-1.05-.18-5.17.72-17.82,1.52-27.52.05-.6.59-1.03,1.17-1,.6.05,1.04.57,1,1.17-.79,9.64-1.69,22.2-1.51,27.27.02.6-.45,1.1-1.05,1.12-.01,0-.03,0-.04,0Z" fill="#43474c"/><path d="M168.75,200.88s-.09,0-.14,0c-.59-.08-1.01-.62-.93-1.22.04-.34,4.44-33.97,3.8-51.35-.02-.6.45-1.1,1.05-1.13.58-.04,1.1.45,1.13,1.05.65,17.56-3.78,51.38-3.82,51.72-.07.55-.54.94-1.08.94Z" fill="#43474c"/><path d="M229.25,197.88c-12.11,0-33.42-3.25-49.38-23.38-.37-.47-.29-1.15.18-1.53.47-.38,1.15-.29,1.53.18,22.61,28.52,56.37,21.93,56.71,21.86.6-.12,1.16.26,1.28.84.12.59-.25,1.16-.84,1.29-.11.02-3.78.74-9.47.74Z" fill="#43474c"/><path d="M103.43,194.42c-.58,0-1.06-.46-1.08-1.05-.17-4.7,3.42-11.3,14.01-15.74,10.12-4.25,14.52-10.95,13.45-20.49-1.25-11.13,5.47-14.84,5.76-14.99.53-.29,1.19-.08,1.47.45.28.53.08,1.18-.44,1.47-.25.13-5.7,3.25-4.62,12.83,1.17,10.48-3.79,18.13-14.77,22.74-9.58,4.02-12.81,9.87-12.68,13.66.02.6-.45,1.1-1.05,1.12-.01,0-.03,0-.04,0Z" fill="#fcf9f3"/><path d="M310.88,197.99c-.53,0-1-.39-1.07-.94-.84-6.02-2.26-11.07-12.01-16.73-7.55-4.38-8.18-9.01-8.89-14.37-.31-2.28-.62-4.64-1.49-7.3-2.35-7.25-6.47-8.82-6.51-8.84-.56-.2-.86-.82-.66-1.38.2-.56.81-.86,1.37-.67.21.07,5.16,1.86,7.87,10.22.92,2.84,1.27,5.42,1.57,7.68.7,5.19,1.2,8.93,7.83,12.78,10.58,6.14,12.18,11.92,13.07,18.31.08.6-.33,1.14-.93,1.23-.05,0-.1.01-.15.01Z" fill="#fcf9f3"/><path d="M130.27,187.9c-.42,0-.83-.25-1-.67-.23-.55.03-1.19.58-1.42,10.12-4.25,14.52-10.95,13.45-20.49-1.25-11.13,5.47-14.84,5.76-14.99.53-.29,1.19-.08,1.47.45.28.53.08,1.18-.44,1.47-.25.13-5.7,3.25-4.62,12.83,1.17,10.48-3.79,18.13-14.77,22.74-.14.06-.28.08-.42.08Z" fill="#fcf9f3"/><path d="M163.28,101.29c-.05,0-.11,0-.17-.01-.59-.09-1-.65-.91-1.24.05-.3,4.94-30.3,33.9-41.58.56-.22,1.19.06,1.41.62.22.56-.06,1.19-.62,1.41-27.76,10.82-32.49,39.6-32.54,39.88-.08.54-.55.92-1.07.92Z" fill="#fcf9f3"/><path d="M167.21,122.89c-4.92.67-15.23,7.77-9,22.57,6.23,14.8,25.21,7.07,25.21,7.07l2.07-24.07c-4.77-1.72-13.36-6.24-18.28-5.57Z" fill="#efd3bd"/><path d="M172.81,155.63c-7.46,0-12.92-3.37-15.6-9.75-3.39-8.05-1.89-13.61-.04-16.86,2.49-4.37,6.88-6.8,9.9-7.21,3.99-.54,9.95,1.97,14.74,3.99,1.5.63,2.91,1.23,4.06,1.64.56.2.86.83.65,1.39-.2.57-.83.86-1.39.65-1.2-.43-2.64-1.04-4.17-1.68-4.54-1.92-10.18-4.3-13.6-3.83-2.09.28-6.03,2.15-8.3,6.13-2.31,4.05-2.25,9.21.16,14.94,3.55,8.43,11.59,9.05,17.71,8.08.59-.1,1.15.31,1.24.9.09.59-.31,1.15-.9,1.24-1.55.25-3.03.37-4.45.37Z" fill="#43474c"/><path d="M177.19,138.42c-.42,0-.82-.24-1-.65-.1-.22-2.23-4.83-7.65-3.52-.59.14-1.17-.22-1.31-.8-.14-.58.22-1.17.8-1.31,5.8-1.41,9.18,2.5,10.16,4.76.24.55-.02,1.19-.57,1.43-.14.06-.29.09-.43.09Z" fill="#43474c"/><path d="M332.41,202.59c-.59,0-1.08-.48-1.09-1.07-.09-7.35-.21-17.43-13.14-24.96-17.5-10.19-20.71-20.57-20.84-21-.17-.58.16-1.18.74-1.35.58-.18,1.18.16,1.35.73.03.1,3.19,10.04,19.85,19.74,13.99,8.15,14.13,19.38,14.22,26.81,0,.6-.47,1.09-1.07,1.1h-.01Z" fill="#43474c"/><path d="M70.77,212.17c-.38,0-.74-.2-.94-.54-.3-.52-.12-1.18.4-1.48,5.87-3.39,12.41-10.3,12.87-17.45.52-8.09,1.17-18.05,14.6-23.56,15.22-6.24,18.42-13.34,18.45-13.41.24-.55.88-.81,1.42-.57.55.23.81.86.58,1.41-.13.32-3.46,7.94-19.63,14.58-12.18,5-12.75,13.82-13.25,21.61-.52,8.03-7.6,15.6-13.96,19.27-.17.1-.36.15-.54.15Z" fill="#43474c"/><path d="M221.29,164.57c.92-.16,1.84-.25,2.77-.24,1.97.03,5.04.35,7.69,1.87,4.31,2.45,8.48,2.9,8.39-3.05-.09-5.96-6.96-8.92-11.4-9.43-4.81-.55-11.99,1.78-12.73,7.17-.59,4.26,3.53,3.99,5.27,3.69Z" fill="#fcf9f3"/><path d="M236.81,168.98c-1.55,0-3.44-.62-5.59-1.84-2.41-1.38-5.23-1.7-7.17-1.73-.79,0-1.63.06-2.57.22h0c-1.39.24-3.96.42-5.47-1.04-.93-.9-1.29-2.2-1.06-3.86.84-6.14,8.77-8.69,13.93-8.1,4.92.56,12.27,3.82,12.36,10.49.04,2.63-.7,4.41-2.19,5.29-.64.38-1.39.56-2.24.56ZM223.9,163.24c.06,0,.12,0,.18,0,2.2.03,5.4.41,8.22,2.01,2.54,1.45,4.6,1.92,5.65,1.3.96-.57,1.14-2.16,1.12-3.39-.07-5.23-6.44-7.91-10.43-8.36-4.4-.5-10.9,1.63-11.53,6.23-.13.94.01,1.62.42,2.01.59.58,1.94.75,3.6.46,1-.17,1.92-.26,2.79-.26ZM221.29,164.57h.01-.01Z" fill="#43474c"/><path d="M53.63,407.94c-2.45,0-3.75-1.02-3.82-1.09-.47-.38-.54-1.06-.16-1.53.38-.46,1.05-.54,1.52-.17.1.08,2.02,1.44,5.95-.15.56-.22,1.19.04,1.42.6.23.56-.04,1.19-.6,1.42-1.69.69-3.13.92-4.3.92Z" fill="#43474c"/><path d="M408.27,239.29s-4.23,17.28-26.5,32.17c-22.27,14.88-49.54,2.6-51.84-5.76-2.3-8.36,12.55-35.96,12.55-35.96,0,0,33.66-41.36,65.79,9.56Z" fill="#efd3bd"/><path d="M358.65,279.5c-7.58,0-13.62-1.88-16.23-2.85-7.17-2.67-12.48-6.86-13.53-10.67-2.39-8.68,12.02-35.62,12.64-36.76.03-.06.07-.12.11-.17.58-.71,14.34-17.33,32.97-16.19,12.59.76,24.23,9.46,34.57,25.86.16.25.21.55.14.84-.18.72-4.58,17.87-26.95,32.81-8.25,5.51-16.66,7.14-23.73,7.14ZM343.38,230.35c-4.11,7.65-14.19,28.58-12.41,35.06.71,2.59,4.76,6.44,12.19,9.21,4.81,1.79,21.76,6.79,38-4.06,19.74-13.19,25.09-28.36,25.92-31.09-9.88-15.5-20.85-23.73-32.59-24.44-16.96-1.03-30.09,14.12-31.11,15.32Z" fill="#43474c"/><path d="M386.28,268.23s-18.2,54.22-29.36,96.59c-9.37,35.57-14.67,75.77-55.97,72.94-35-2.39-30.33-51.63-10.97-93.18,8.25-17.69,33.28-68.47,40.49-84.42,7.21-15.95,48.96-7.52,55.81,8.07Z" fill="#efd3bd"/><path d="M275.14,408.22c-.57,0-1.05-.44-1.08-1.02-1.1-17.36,4.34-40.35,14.94-63.08,3.65-7.83,10.52-22.01,17.8-37.02,9.18-18.93,18.67-38.5,22.68-47.39.25-.55.89-.79,1.44-.54.55.25.79.89.54,1.44-4.03,8.91-13.52,28.5-22.71,47.44-7.28,15.01-14.15,29.18-17.79,36.99-10.45,22.41-15.82,45.01-14.74,62.02.04.6-.42,1.12-1.02,1.15-.02,0-.05,0-.07,0Z" fill="#43474c"/><path d="M304.97,438.99c-1.33,0-2.69-.05-4.09-.14-5.52-.38-13.93-2.84-19.35-7.35-.46-.38-.52-1.07-.14-1.53s1.07-.52,1.53-.14c4.82,4.01,12.76,6.48,18.11,6.85,36.22,2.47,43.94-28.5,52.1-61.3.89-3.57,1.81-7.26,2.75-10.84,11.05-41.92,29.2-96.11,29.38-96.66.19-.57.81-.87,1.38-.68.57.19.88.81.68,1.38-.18.54-18.31,54.67-29.34,96.52-.94,3.57-1.86,7.25-2.74,10.81-7.72,31.03-15.69,63.08-50.26,63.08Z" fill="#43474c"/><path d="M330.47,260.16s4.62-24.74,24.34-48.1c19.18-22.72,27.55-35.82,34.24-32.47,6.69,3.35-9.06,26.8-9.06,26.8,0,0,11.49-3.76,12.69,7.64,0,0,10.25-1.17,10,10.7,0,0,9.79-.6,9.11,8.03-.67,8.63-10.82,16.57-16.37,16.36-5.52-.21-5.38-8.64-5.38-8.64,0,0-5.39,2.75-10.43-1.78-5.04-4.53-.09-10.36-.09-10.36,0,0-8.48.16-11.03-8.01,0,0-21.76,41.99-38.02,39.83Z" fill="#efd3bd"/><path d="M330.47,261.25c-.06,0-.13,0-.19-.02-.59-.11-.98-.67-.88-1.26.05-.25,4.74-25.31,24.58-48.61,4.26-4.99,7.95-9.49,11.2-13.45,12.2-14.85,18.32-22.3,24.35-19.29,1.03.51,1.73,1.42,2.05,2.62,1.5,5.68-5.95,18.32-9.27,23.57,2.05-.24,4.93-.18,7.34,1.38,2.13,1.38,3.46,3.64,3.98,6.72,1.56.03,4.52.39,6.87,2.54,2.05,1.87,3.15,4.63,3.26,8.2,1.7.08,4.92.55,7.06,2.73,1.57,1.6,2.26,3.77,2.05,6.46-.71,9.14-11.16,17.36-17.25,17.37-.08,0-.16,0-.24,0-4.95-.18-6.09-5.5-6.35-8.2-2.14.6-6.23,1.03-10.14-2.49-3.63-3.26-3.74-6.23-3.33-7.97-2.77-.39-8.47-2.02-10.54-8.64-.18-.57.14-1.18.71-1.36.57-.18,1.18.14,1.36.71,2.29,7.31,9.89,7.23,9.97,7.24.4,0,.79.22.98.58.19.36.17.8-.07,1.13-.07.11-1.84,2.91,2.37,6.69,4.4,3.95,9.02,1.71,9.21,1.61.34-.17.75-.15,1.07.05.32.2.52.56.51.93,0,.07-.05,7.38,4.34,7.54,2.42.08,6.15-1.75,9.24-4.58,3.53-3.24,5.72-7.17,6.01-10.78.16-2.03-.32-3.64-1.43-4.76-2.27-2.32-6.49-2.1-6.54-2.1-.31.01-.6-.09-.82-.3-.22-.21-.34-.5-.33-.81.07-3.45-.78-6.02-2.55-7.64-2.54-2.33-6.21-1.96-6.25-1.96-.29.03-.58-.05-.8-.23-.22-.18-.37-.45-.4-.73-.31-2.91-1.36-4.97-3.13-6.12-3.28-2.14-8.1-.62-8.15-.6-.44.14-.92,0-1.2-.38-.28-.37-.29-.87-.04-1.26,3.34-4.97,11.72-18.98,10.4-23.99-.16-.61-.45-1-.92-1.23-4.48-2.24-10.59,5.2-21.7,18.72-3.26,3.97-6.96,8.47-11.23,13.48-19.45,22.83-24.05,47.34-24.09,47.59-.1.53-.55.89-1.07.89Z" fill="#43474c"/><path d="M390.04,241.57c-.28,0-.56-.11-.78-.33-.42-.43-.41-1.12.02-1.54.09-.09,9.27-9.12,12.43-15.46.27-.54.92-.76,1.46-.49.54.27.76.92.49,1.46-3.32,6.67-12.46,15.66-12.85,16.04-.21.21-.48.31-.76.31Z" fill="#43474c"/><path d="M379.52,229.43c-.32,0-.64-.14-.85-.41-.37-.47-.3-1.15.17-1.53,5.51-4.4,12.89-14.02,12.97-14.12.36-.48,1.05-.57,1.52-.2.48.36.57,1.05.2,1.52-.31.4-7.62,9.93-13.34,14.5-.2.16-.44.24-.68.24Z" fill="#43474c"/><path d="M366.05,223.67c-.28,0-.56-.11-.78-.33-.42-.43-.41-1.12.02-1.54,5-4.9,13.75-15.98,13.84-16.09.37-.47,1.05-.55,1.53-.18s.55,1.05.18,1.53c-.36.46-8.93,11.3-14.03,16.3-.21.21-.49.31-.76.31Z" fill="#43474c"/><path d="M361.24,248.55s3.86-5.25,5.86-10.67c0,0,15.31-7.45,15.67-12.45s-6.55-6.15-19.33-1.57c-12.29,4.41-13.73,6.65-17.55,10.89-3.81,4.25-8.54,19.9-9.45,26.03-.91,6.13,17.26-.71,24.79-12.24Z" fill="#efd3bd"/><path d="M362.05,254.17c-.15,0-.29-.03-.43-.09-.55-.24-.8-.88-.56-1.43.03-.08,3.39-7.82,4.99-15.01.07-.32.29-.6.59-.74,5.7-2.77,14.83-8.36,15.06-11.55.07-1.01-.23-1.77-.93-2.3-2.38-1.8-8.71-1.12-16.94,1.83-12.05,4.32-14.94,6.59-18.68,10.76-.4.45-1.09.48-1.53.08-.45-.4-.48-1.09-.08-1.53,3.9-4.35,7.1-6.88,19.56-11.35,9.19-3.29,15.93-3.83,18.99-1.52,1.29.98,1.91,2.42,1.79,4.18-.06.93-1.14,5.89-15.8,13.12-1.68,7.24-4.87,14.58-5,14.89-.18.41-.58.65-1,.65Z" fill="#43474c"/><rect x="1.09" y="1.09" width="18.25" height="509.83" fill="#abb0b7"/><path d="M19.33,512H1.09c-.6,0-1.09-.49-1.09-1.09V1.09C0,.49.49,0,1.09,0h18.25c.6,0,1.09.49,1.09,1.09v509.83c0,.6-.49,1.09-1.09,1.09ZM2.17,509.83h16.07V2.17H2.17v507.65Z" fill="#43474c"/><path d="M99.08,462.65c-.21,0-.43-.06-.62-.19-.49-.34-.62-1.02-.27-1.51L374.21,62.24c.34-.49,1.02-.62,1.51-.27.49.34.62,1.02.27,1.51L99.98,462.18c-.21.3-.55.47-.89.47Z" fill="#fcf9f3"/><path d="M159.19,419.65c-.21,0-.43-.06-.62-.19-.49-.34-.62-1.02-.27-1.51L366.68,116.93c.34-.49,1.02-.62,1.51-.27.49.34.62,1.02.27,1.51l-208.39,301.01c-.21.3-.55.47-.89.47Z" fill="#fcf9f3"/><path d="M87.25,261.43c-.3,0-.6-.12-.81-.36l-52.66-58.84c-.4-.45-.36-1.13.08-1.53.45-.4,1.13-.36,1.53.08l52.02,58.12,51.02-35.64-52.29-82.81c-.18-.29-.22-.66-.09-.98l16.12-40.74L33.75,15.48c-.38-.46-.31-1.15.15-1.53.46-.38,1.15-.32,1.53.15l68.84,83.75c.25.3.32.72.17,1.09l-16.15,40.82,52.55,83.22c.31.49.18,1.14-.3,1.47l-52.66,36.78c-.19.13-.41.2-.62.2Z" fill="#43474c"/><path d="M34.59,376.55c-.15,0-.3-.03-.45-.1-.55-.25-.79-.89-.54-1.44l52.66-115.12c.25-.54.89-.79,1.44-.54.55.25.79.89.54,1.44l-52.66,115.12c-.18.4-.58.63-.99.63Z" fill="#43474c"/><path d="M422.06,498.3c-.31,0-.61-.13-.83-.38l-111.18-129.96c-.23-.27-.32-.64-.22-.98l7.12-26.94c.08-.32.31-.58.61-.72.3-.13.65-.12.94.03l49.43,25.82,54.31,9.22c.59.1.99.66.89,1.25-.1.59-.66.98-1.25.89l-54.48-9.25c-.11-.02-.22-.06-.32-.11l-48.37-25.27-6.62,25.07,110.81,129.53c.39.46.34,1.14-.12,1.53-.2.18-.46.26-.71.26Z" fill="#43474c"/><path d="M258.24,498.3c-.2,0-.41-.06-.59-.18-.5-.33-.64-1-.32-1.5l28.96-44.35,23.54-85.3c.16-.58.76-.92,1.34-.76.58.16.92.76.76,1.34l-23.58,85.47c-.03.11-.08.21-.14.31l-29.06,44.49c-.21.32-.56.49-.91.49Z" fill="#43474c"/><path d="M724.99,510.91s7.71-90.5,0-137.85c-7.71-47.35-18.72-120.75-55.42-139.84-36.7-19.09-107.9-32.3-151.21,3.67-43.31,35.97-32.3,68.6-35.97,125.69-3.67,57.09-5.14,148.32-5.14,148.32h247.74Z" fill="#abb0b7"/><path d="M724.99,512s-.06,0-.09,0c-.6-.05-1.04-.58-.99-1.17.08-.9,7.61-90.91,0-137.58l-.61-3.77c-7.56-46.57-18.98-116.94-54.24-135.28-20.44-10.63-47.61-17.61-72.68-18.69-21.93-.94-53.17,2.15-77.34,22.23-33.84,28.11-34.13,53.49-34.57,91.92-.11,9.84-.24,21-1.01,33-3.63,56.41-5.12,147.36-5.14,148.27-.01.6-.55,1.07-1.1,1.07-.6,0-1.08-.5-1.07-1.1.01-.91,1.51-91.92,5.14-148.38.77-11.94.89-22.59,1.01-32.88.43-37.63.74-64.83,35.35-93.57,24.71-20.52,56.51-23.69,78.83-22.73,25.37,1.09,52.88,8.17,73.58,18.93,36.23,18.84,47.75,89.86,55.38,136.86l.61,3.77c7.64,46.94.09,137.21,0,138.12-.05.57-.52.99-1.08.99Z" fill="#43474c"/><path d="M497.81,512c-.06,0-.13,0-.19-.02-.59-.11-.98-.67-.88-1.26.09-.49,8.79-49.56,8.79-71.96,0-5.92-.34-15.63-.77-27.92-1.2-34.22-3.03-85.94.79-113.16.08-.59.63-1.01,1.23-.93.59.08,1.01.63.93,1.23-3.78,27.03-1.97,78.64-.77,112.79.43,12.32.78,22.04.78,28,0,22.59-8.74,71.85-8.83,72.34-.09.53-.55.9-1.07.9Z" fill="#43474c"/><path d="M655.63,512h0c-.6,0-1.08-.49-1.08-1.09,0-.96.43-95.79-4.87-119.38-5.33-23.72-15.08-75.85-15.18-76.38-.11-.59.28-1.16.87-1.27.59-.1,1.16.28,1.27.87.1.52,9.84,52.62,15.16,76.3,5.35,23.82,4.94,115.95,4.92,119.86,0,.6-.49,1.08-1.09,1.08Z" fill="#43474c"/><path d="M635.56,292.06s-.09,0-.13,0c-.6-.07-1.02-.62-.95-1.21.04-.33,1.04-8.18,4.9-17.65,3.58-8.78,10.41-20.58,22.58-26.94.53-.28,1.19-.07,1.47.46.28.53.07,1.19-.46,1.47-22.24,11.63-26.3,42.62-26.34,42.93-.07.55-.54.95-1.08.95Z" fill="#43474c"/><path d="M620.47,217.11s-8.89,38.25-48.04,37.95c-39.15-.3-30.88-32.03-30.88-32.03,0,0,30.56-16.16,78.92-5.91Z" fill="#efd3bd"/><path d="M572.89,256.15c-.15,0-.31,0-.46,0-13.1-.1-22.45-3.68-27.79-10.64-7.43-9.69-4.28-22.23-4.14-22.76.08-.29.27-.54.54-.69.32-.17,7.94-4.14,21.62-6.9,12.59-2.54,32.87-4.44,58.04.89.29.06.53.23.69.48s.21.55.14.83c-.09.39-9.47,38.79-48.64,38.79ZM542.5,223.77c-.47,2.3-2.15,12.59,3.87,20.43,4.91,6.39,13.68,9.68,26.07,9.77.15,0,.3,0,.44,0,33.79,0,44.42-29.94,46.24-36.04-24.28-4.96-43.83-3.11-56.03-.65-11.56,2.33-18.8,5.6-20.59,6.48Z" fill="#43474c"/><path d="M543.92,193.33s3.85,23.3,1.7,31.95c0,0,5.97,10.5,29.49,10.4,20.78-.09,39.95-14.75,39.95-14.75,0,0-6.81-25.89-3.18-43.16l-67.95,15.56Z" fill="#efd3bd"/><path d="M545.61,226.36s-.06,0-.09,0c-.6-.05-1.04-.57-1-1.17.89-11.29-1.66-31.52-1.69-31.73-.07-.55.29-1.07.84-1.2l67.95-15.56c.36-.08.74.02,1,.28.27.26.38.64.3,1-3.53,16.82,3.1,42.41,3.17,42.66.15.58-.19,1.17-.77,1.33-.57.15-1.17-.19-1.33-.77-.27-1.03-6.43-24.78-3.51-42.01l-65.37,14.97c.51,4.25,2.39,20.99,1.58,31.2-.05.57-.52,1-1.08,1Z" fill="#43474c"/><path d="M522.82,69.96s22.19-32.83,64.02-22.67c35.41,8.6,56.93,35.6,53.44,79.12-2.02,25.16-16.37,46.85-35.39,55.17l-82.07-111.61Z" fill="#43474c"/><path d="M550.23,58.8h0c32.23-5.27,62.64,16.58,67.91,48.81l.98,35.69c1.05,63.96-49.37,67.56-49.37,67.56-32.95,5.39-54.41-17.7-59.69-49.93l-5.68-34.7c-5.27-32.23,13.61-62.15,45.84-67.43Z" fill="#efd3bd"/><path d="M560.43,212.72c-26.4,0-46.17-19.37-51.45-51.62l-5.68-34.7c-2.63-16.06.58-31.9,9.03-44.6,8.61-12.95,22.01-21.5,37.72-24.07,15.88-2.59,31.81,1.14,44.87,10.53,13.06,9.39,21.69,23.3,24.28,39.18,0,.05.01.1.01.15l.98,35.69c.27,16.65-2.65,30.93-8.68,42.46-.28.53-.93.74-1.47.46-.53-.28-.74-.93-.46-1.47,5.86-11.21,8.7-25.14,8.43-41.41l-.98-35.6c-2.52-15.27-10.82-28.66-23.4-37.69-12.59-9.05-27.95-12.66-43.26-10.15-15.11,2.47-27.98,10.69-36.26,23.13-8.14,12.24-11.23,27.53-8.69,43.05l5.68,34.7c5.67,34.67,28.61,53.93,58.44,49.03.18-.02,8.25-.65,17.67-5.41.54-.27,1.19-.06,1.46.48.27.54.06,1.19-.48,1.46-9.83,4.96-18.05,5.6-18.39,5.62-3.21.53-6.34.78-9.39.78Z" fill="#43474c"/><ellipse cx="566.79" cy="159.25" rx="4.47" ry="4.08" transform="translate(376.54 716.4) rotate(-86.84)" fill="#43474c"/><ellipse cx="528.45" cy="162.35" rx="4.08" ry="4.47" transform="translate(-6.59 23.25) rotate(-2.5)" fill="#43474c"/><path d="M545.61,176.15h-.03c-.6-.01-1.07-.51-1.06-1.11.04-1.66,1.04-4.87,4.53-5.14,3.68-.26,5.44,3.64,5.51,3.81.24.55-.02,1.19-.57,1.43-.55.24-1.19-.01-1.43-.56-.02-.04-1.2-2.69-3.35-2.51-2.43.19-2.52,2.91-2.52,3.03-.01.59-.5,1.06-1.09,1.06Z" fill="#43474c"/><path d="M589.14,141.85c-19.31,0-33.76-4.45-43.05-13.26-10.13-9.62-10.12-20.81-10.11-21.28,0-.6.49-1.07,1.09-1.07h.01c.6,0,1.08.5,1.08,1.1,0,.11.02,10.77,9.48,19.72,10.22,9.67,27.15,13.82,50.33,12.33.59-.03,1.11.42,1.15,1.02.04.6-.42,1.12-1.02,1.15-3.09.2-6.08.3-8.96.3Z" fill="#43474c"/><path d="M505.49,152.26c-.26,0-.52-.09-.72-.27-16.7-14.88-2.07-32.34-1.92-32.52.39-.46,1.08-.51,1.53-.12.46.39.51,1.08.12,1.53-.03.04-3.46,4.1-4.92,9.76-1.92,7.45.31,14.09,6.64,19.72.45.4.49,1.09.09,1.53-.22.24-.51.36-.81.36Z" fill="#43474c"/><path d="M536.81,111.11s-11.11,27.91-30.16,33.08c0,0-8.42-16.57-4.61-41.53,5.37-35.22,31.97-49.83,53.92-55.34,20.38-5.12,56.97,6.31,70.51,47.7,13.53,41.39-17.79,78.33-17.79,78.33,0,0-11.59-10.45-14.98-33.24,0,0-42.4-3.35-56.87-29.01Z" fill="#43474c"/><path d="M599.06,129.29c-35.52,0-54.45-30.42-54.65-30.74-.31-.51-.15-1.18.36-1.49.52-.31,1.18-.15,1.49.36.2.33,20.31,32.54,57.75,29.5.6-.03,1.12.4,1.17,1,.05.6-.4,1.12-1,1.17-1.75.14-3.46.21-5.13.21Z" fill="#fcf9f3"/><path d="M620.04,142.2c5.2.38,16.45,7.13,10.9,23.03-5.55,15.9-25.92,9.06-25.92,9.06l1.2-28.91c4.88-2.11,8.62-3.55,13.82-3.17Z" fill="#efd3bd"/><path d="M614.58,176.84c-1.52,0-2.95-.12-4.19-.28-.6-.08-1.01-.62-.94-1.22.08-.6.62-1.02,1.22-.94,6.95.91,15.93,0,19.25-9.53,2.15-6.17,1.87-11.59-.82-15.69-2.65-4.03-6.91-5.74-9.13-5.9-4.92-.35-8.46.99-13.3,3.09-.55.24-1.19-.01-1.43-.57-.24-.55.01-1.19.57-1.43,4.98-2.16,8.93-3.65,14.33-3.26,3.18.23,7.91,2.48,10.79,6.87,2.15,3.27,4.07,8.97,1.06,17.6-3.22,9.24-11.13,11.25-17.4,11.25Z" fill="#43474c"/><path d="M610.54,159.05c-.12,0-.25-.02-.37-.07-.56-.2-.85-.82-.65-1.39.87-2.42,4.12-6.71,10.26-5.62.59.1.98.67.88,1.26-.11.59-.66.98-1.26.88-5.84-1.03-7.76,4-7.84,4.22-.16.44-.58.71-1.02.71Z" fill="#43474c"/><path d="M545.1,187.49c-.37,0-.72-.19-.93-.52-.31-.51-.15-1.18.36-1.49,8.77-5.33,20.07-1.85,20.55-1.7.57.18.89.79.71,1.36-.18.57-.79.89-1.36.71-.11-.03-10.86-3.32-18.77,1.48-.18.11-.37.16-.56.16Z" fill="#43474c"/><path d="M516.46,214.59c-.24,0-.48-.08-.68-.24-.47-.37-.54-1.06-.17-1.53.31-.39,7.48-9.6-.32-19.86-.36-.48-.27-1.16.21-1.52.48-.36,1.16-.27,1.52.21,8.84,11.64.37,22.43.28,22.54-.21.27-.53.41-.85.41Z" fill="#fcf9f3"/><path d="M660.23,417.45c-.37,0-.74-.19-.94-.54-.3-.52-.13-1.18.39-1.49.21-.13,21.63-12.57,43.72-13.06.65-.02,1.1.46,1.11,1.06.01.6-.46,1.1-1.06,1.11-21.53.48-42.46,12.64-42.67,12.76-.17.1-.36.15-.55.15Z" fill="#43474c"/><path d="M666.81,419.29c-.49,0-.93-.33-1.05-.83-.14-.58.22-1.17.8-1.31.75-.18,18.65-4.45,32.53-3.04.6.06,1.03.59.97,1.19-.06.6-.57,1.02-1.19.97-13.5-1.38-31.61,2.94-31.8,2.99-.08.02-.17.03-.26.03Z" fill="#43474c"/></svg>