<?xml version="1.0" encoding="UTF-8"?><svg id="icon" xmlns="http://www.w3.org/2000/svg" viewBox="0 0 700.72 512"><path d="M467.36,511.68H.94c-.52,0-.94-.42-.94-.94s.42-.94.94-.94h466.42c.52,0,.94.42.94.94s-.42.94-.94.94Z" fill="#ed9280"/><path d="M268.81,323.04s-21.83-35.89-61.81,15.87c-39.99,51.75-110.62,127.77-65.29,153.06,35.44,19.77,65.39-8.46,77.98-35.42,12.59-26.96,63.21-111.83,49.13-133.5Z" fill="#a3caf6"/><path d="M165.51,499.54c-8.08,0-16.19-2.26-24.26-6.76-8.08-4.51-12.98-10.89-14.56-18.97-5.64-28.83,30.72-74.24,62.8-114.3,5.96-7.44,11.59-14.47,16.77-21.18,15.08-19.52,29.41-29.04,42.56-28.31,13.39.75,20.4,11.88,20.79,12.51,11.6,17.89-18.28,74.98-38.05,112.76-4.59,8.78-8.56,16.36-11.02,21.64-9.32,19.96-24.73,35.05-41.23,40.38-4.57,1.48-9.17,2.21-13.79,2.21ZM247.39,311.86c-12.16,0-25.49,9.28-39.66,27.62-5.19,6.72-10.82,13.75-16.79,21.2-30.25,37.78-67.9,84.8-62.42,112.77,1.49,7.62,5.95,13.41,13.63,17.69,12.21,6.81,24.52,8.29,36.57,4.4,16.01-5.17,31-19.9,40.11-39.4,2.48-5.32,6.46-12.91,11.06-21.71,18.38-35.13,49.15-93.93,38.13-110.88,0,0,0-.02-.01-.02-.07-.11-6.83-10.95-19.32-11.63-.43-.02-.86-.04-1.29-.04Z" fill="#5b4037"/><path d="M219.37,289.98s62.5,113.59,16.33,115.76c-20.94.99-40.24-78.46-45.13-111.17-1.88-12.55,9.33-14.26,10.89-14.85,4.51-1.69,10.91-.98,17.91,10.26Z" fill="#f6cdb1"/><path d="M235.33,406.68c-22.06,0-41.18-81.9-45.68-111.98-1.21-8.07,2.45-13.34,10.86-15.68.28-.08.49-.13.63-.18,4.59-1.72,11.61-1.27,19.03,10.64,0,.01.02.03.03.04.11.21,11.39,20.78,20.74,44.27,12.62,31.75,15.88,53.46,9.68,64.54-2.91,5.2-7.91,8.01-14.86,8.33-.14,0-.28,0-.42,0ZM205.15,279.97c-1.12,0-2.24.21-3.36.63-.17.06-.44.14-.78.24-4.76,1.32-10.92,4.17-9.51,13.6,2.57,17.16,8.67,44.86,16.51,68.06,9.36,27.69,19.14,42.74,27.65,42.31,6.35-.3,10.7-2.71,13.31-7.38,14.1-25.19-29.47-105.25-30.41-106.97-4.35-6.97-8.85-10.49-13.41-10.49Z" fill="#5b4037"/><path d="M294.38,488.89s-5.25-38.05-9.69-57.86c-4.2-18.74-45.48-19.1-36.09,8.99,7.34,21.98,16.28,56.23,16.28,56.23l29.51-7.36Z" fill="#f6cdb1"/><path d="M264.87,497.18c-.42,0-.79-.28-.9-.7-.09-.34-9.01-34.47-16.26-56.17-3.19-9.55-.47-15.13,2.38-18.13,4.61-4.86,13.23-6.6,21.45-4.32,7.45,2.06,12.7,6.9,14.06,12.96,4.39,19.62,9.65,57.56,9.7,57.94.07.47-.24.92-.7,1.04l-29.51,7.36c-.08.02-.15.03-.23.03ZM264.29,418.74c-5.19,0-9.93,1.67-12.84,4.73-3.58,3.77-4.26,9.39-1.96,16.25,6.61,19.78,14.6,49.84,16.06,55.39l27.79-6.93c-.8-5.69-5.54-39.02-9.56-56.96-1.2-5.38-5.96-9.7-12.73-11.57-2.26-.62-4.55-.93-6.75-.93Z" fill="#5b4037"/><path d="M256.59,485.77s-1.16,5.09-1.83,11.44c-.53,4.99-.59,13.44-.59,13.44l20.7-.05.25-2.88c5.59,2.19,9.69,3.24,24.53,3.33,8.84.05,37.81-.1,43.43-.62,0,0,3.98-11.88-13.01-18.04-16.98-6.16-17.96-1.6-32.24-13.87,0,0-6.43-.94-19.51,3.97-7.19,2.7-19.81-1.38-21.72,3.28Z" fill="#ed9280"/><path d="M303.52,512c-1.55,0-2.88,0-3.89,0-13.81-.08-18.51-1.01-23.7-2.95l-.14,1.64c-.04.48-.44.85-.93.86l-20.7.05c-.26-.03-.49-.1-.67-.28-.18-.18-.27-.42-.27-.67,0-.35.06-8.56.59-13.54.67-6.33,1.84-11.5,1.85-11.55.01-.05.03-.1.05-.15,1.31-3.2,5.96-3.07,11.34-2.91,3.9.11,7.93.23,10.92-.89,13.16-4.94,19.7-4.06,19.98-4.02.17.03.34.1.47.22,9.22,7.92,12.64,8.66,18.85,10.01,3.22.7,7.23,1.57,13.1,3.69,17.64,6.4,13.62,19.09,13.58,19.22-.12.35-.43.6-.8.63-5.01.46-28.38.63-39.63.63ZM275.11,506.79c.12,0,.23.02.34.06,5.62,2.2,9.6,3.18,24.19,3.26,8.02.05,35.73-.08,42.68-.56.51-2.37,1.36-11.22-12.59-16.28-5.75-2.08-9.69-2.94-12.86-3.62-6.24-1.35-10.04-2.17-19.45-10.23-1.29-.1-7.56-.27-18.8,3.95-3.34,1.25-7.75,1.12-11.63,1.01-4.44-.13-8.63-.25-9.52,1.68-.15.68-1.18,5.47-1.8,11.25-.42,3.91-.54,10.07-.57,12.41l18.9-.05.17-2.03c.02-.29.19-.56.44-.71.15-.09.32-.14.49-.14Z" fill="#5b4037"/><path d="M307.16,489.8c-.27,0-.54-.12-.72-.33-.2-.24-.27-.56-.18-.86.18-.62,4.47-15.11,12.57-16.78,3.18-.66,5.64.4,6.73,2.91,1.45,3.33-.02,8.07-3.22,10.34-5.05,3.6-14.68,4.68-15.09,4.72-.03,0-.07,0-.1,0ZM320.61,473.5c-.43,0-.9.05-1.4.15-5.68,1.17-9.45,10.5-10.7,14.08,2.85-.44,9.2-1.66,12.75-4.19,2.67-1.9,3.57-5.83,2.59-8.07-.57-1.31-1.68-1.98-3.24-1.98Z" fill="#5b4037"/><path d="M306.99,489.8s-.02,0-.02,0c-.41-.01-10.09-.29-15.43-3.46-3.37-2.01-5.24-6.61-4.06-10.04.88-2.59,3.24-3.85,6.47-3.45,8.21,1,13.69,15.09,13.92,15.69.11.29.07.62-.11.87-.18.25-.46.4-.76.4ZM292.81,474.64c-1.83,0-3.05.77-3.56,2.26-.79,2.32.43,6.16,3.25,7.83,3.75,2.23,10.17,2.92,13.05,3.12-1.54-3.46-6.08-12.45-11.82-13.15-.32-.04-.63-.06-.92-.06Z" fill="#5b4037"/><path d="M277.59,339.5s-12.96-43.23-41.32-24.93c-35.13,22.68,13.39,145.94,14.48,155.13,0,0,32.11-.78,47.24-7.48,0,0-6.11-70.88-20.4-122.72Z" fill="#a3caf6"/><path d="M250.76,470.63c-.47,0-.87-.35-.93-.82-.18-1.5-1.83-6.63-4.11-13.74-11.85-36.85-39.6-123.14-9.95-142.29,7.24-4.68,14.18-5.85,20.61-3.48,6.21,2.29,12.01,8.03,16.77,16.61,3.56,6.42,5.27,12.08,5.35,12.31,0,0,0,.01,0,.02,14.15,51.32,20.37,122.17,20.43,122.88.03.4-.19.77-.55.94-15.12,6.71-46.27,7.53-47.59,7.56,0,0-.02,0-.02,0ZM249.76,310.99c-4.13,0-8.48,1.46-12.98,4.36-28.45,18.37,0,106.84,10.71,140.14,2.08,6.47,3.55,11.04,4.04,13.24,4.96-.17,31.8-1.37,45.47-7.11-.67-7.37-6.94-73.39-20.31-121.87-.16-.54-7.01-22.56-20.97-27.7-1.93-.71-3.92-1.07-5.97-1.07Z" fill="#5b4037"/><path d="M231.94,492.85s2.57-38.33,2.25-58.63c-.31-19.21-40.66-27.92-37.17,1.49,2.73,23.01,4.54,58.36,4.54,58.36l30.38-1.22Z" fill="#f6cdb1"/><path d="M201.56,495.01c-.5,0-.91-.39-.93-.89-.02-.35-1.84-35.58-4.53-58.3-1.19-10,2.61-14.91,6.01-17.27,5.5-3.82,14.29-3.78,21.88.11,6.88,3.52,11.04,9.34,11.14,15.55.32,20.11-2.22,58.32-2.25,58.7-.03.48-.42.85-.9.87l-30.38,1.22s-.03,0-.04,0ZM212.13,417.57c-3.4,0-6.55.84-8.96,2.51-4.27,2.97-6.07,8.33-5.22,15.52,2.46,20.71,4.19,51.76,4.49,57.5l28.62-1.15c.37-5.73,2.48-39.34,2.19-57.71-.09-5.51-3.87-10.71-10.12-13.91-3.58-1.84-7.44-2.76-11.01-2.76ZM231.94,492.85h0,0Z" fill="#5b4037"/><path d="M197.05,485.77s-1.16,5.09-1.83,11.44c-.53,4.99-.59,13.44-.59,13.44l20.7-.05.25-2.88c5.59,2.19,9.69,3.24,24.53,3.33,8.84.05,37.81-.1,43.43-.62,0,0,3.98-11.88-13.01-18.04-16.98-6.16-17.96-1.6-32.24-13.87,0,0-6.43-.94-19.51,3.97-7.19,2.7-19.81-1.38-21.72,3.28Z" fill="#ed9280"/><path d="M243.99,512c-1.56,0-2.88,0-3.89,0-13.81-.08-18.51-1.01-23.7-2.95l-.14,1.64c-.04.48-.44.85-.93.86l-20.7.05h0c-.25,0-.49-.1-.66-.28-.18-.18-.27-.42-.27-.67,0-.35.06-8.56.59-13.54.67-6.33,1.84-11.49,1.85-11.55.01-.05.03-.1.05-.15,1.31-3.2,5.95-3.07,11.34-2.91,3.9.11,7.93.23,10.92-.89,13.16-4.94,19.71-4.06,19.98-4.02.18.03.34.1.47.22,9.22,7.92,12.64,8.66,18.85,10.01,3.22.7,7.23,1.57,13.1,3.69,17.64,6.4,13.62,19.09,13.58,19.22-.12.35-.43.6-.8.63-5.02.46-28.38.63-39.63.63ZM215.58,506.79c.12,0,.23.02.34.06,5.62,2.2,9.6,3.18,24.19,3.26,8.02.05,35.73-.08,42.68-.56.51-2.37,1.36-11.22-12.59-16.28-5.75-2.08-9.69-2.94-12.86-3.62-6.24-1.35-10.04-2.17-19.45-10.23-1.28-.1-7.56-.27-18.8,3.95-3.34,1.25-7.74,1.12-11.63,1.01-4.44-.13-8.63-.26-9.52,1.68-.15.68-1.18,5.47-1.8,11.25-.42,3.91-.54,10.07-.57,12.41l18.9-.05.17-2.03c.02-.29.19-.56.44-.71.15-.09.32-.14.49-.14Z" fill="#5b4037"/><path d="M247.62,489.8c-.27,0-.54-.12-.72-.33-.2-.24-.27-.56-.18-.86.18-.62,4.47-15.11,12.57-16.78,3.19-.66,5.64.4,6.73,2.91,1.45,3.33-.02,8.07-3.22,10.34-5.05,3.6-14.68,4.68-15.09,4.72-.03,0-.07,0-.1,0ZM261.08,473.5c-.43,0-.9.05-1.4.15-5.68,1.17-9.45,10.5-10.7,14.08,2.85-.44,9.2-1.66,12.75-4.19,2.67-1.9,3.57-5.83,2.59-8.07-.57-1.31-1.68-1.98-3.24-1.98Z" fill="#5b4037"/><path d="M247.46,489.8s-.02,0-.02,0c-.41-.01-10.09-.29-15.43-3.46-3.37-2.01-5.24-6.61-4.06-10.04.88-2.59,3.24-3.85,6.47-3.45,8.21,1,13.69,15.09,13.92,15.69.11.29.07.62-.11.87-.18.25-.46.4-.76.4ZM233.27,474.64c-1.83,0-3.05.77-3.56,2.25-.79,2.32.43,6.16,3.25,7.83,3.75,2.23,10.17,2.92,13.05,3.12-1.54-3.46-6.08-12.45-11.82-13.15-.32-.04-.63-.06-.92-.06Z" fill="#5b4037"/><path d="M195.28,296.17c9.96,6.63,21.15-2.4,23.32-7.03,1.67-3.55-.21-16.36-1.38-22.95-1.29-7.25-7.11-17.86-11.85-19.32-4.44-1.36,5.32,19.09,5.32,19.09,0,0-7.17-12.07-9.53-14.39s-7.23-5.18-7.39-2.36c-.16,2.82,7.22,11.27,8.95,16.98,0,0-12.47-21.52-15.29-13.03,0,0-5.41-1.4-2.76,4.74,2.65,6.14,6.28,13.7,6.97,14.68,0,0,.71,5.54.13,12.89-.31,3.89.52,8.72,3.5,10.7Z" fill="#f6cdb1"/><path d="M195.28,297.11c-.18,0-.36-.05-.52-.16-3.38-2.25-4.23-7.44-3.91-11.55.5-6.39.01-11.44-.1-12.49-1.02-1.68-4.53-9.09-6.93-14.63-1.03-2.39-1.08-4.09-.15-5.18.87-1.02,2.29-1.07,3.18-.98.68-1.38,1.64-1.78,2.37-1.86,1.43-.15,3.16.94,4.91,2.61-.88-1.58-1.35-2.78-1.3-3.71.07-1.26.82-1.74,1.26-1.91,2.18-.84,6.14,2.09,7.72,3.65.76.74,1.96,2.41,3.27,4.35-1.48-4.09-2.32-7.68-1.32-8.84.26-.3.84-.75,1.87-.43,5.47,1.68,11.26,13.14,12.5,20.05,1.02,5.73,3.2,19.49,1.31,23.51-.22.47-.78.67-1.25.45-.47-.22-.67-.78-.45-1.24,1.36-2.89.06-13.87-1.46-22.39-1.25-6.97-6.86-17.18-11.15-18.57-.39,1.81,2.9,10.46,6.39,17.77.22.45.04.99-.4,1.23-.44.23-.99.08-1.24-.35-2.46-4.14-7.58-12.44-9.38-14.2-2.33-2.29-5.24-3.55-5.75-3.23,0,0-.04.06-.05.26-.06,1.11,1.91,4.18,3.65,6.89,2.05,3.19,4.37,6.8,5.27,9.77.14.45-.09.94-.52,1.13-.43.19-.94.02-1.18-.39-3.6-6.2-9.86-14.8-12.5-14.54-.44.05-.81.5-1.09,1.34-.15.47-.65.74-1.12.61-.51-.13-1.7-.24-2.11.25-.19.22-.52.98.45,3.22,2.74,6.34,6.29,13.68,6.88,14.51.09.12.14.27.16.42.03.23.72,5.72.14,13.08-.27,3.42.38,8.05,3.08,9.85.43.29.55.87.26,1.3-.18.27-.48.42-.78.42Z" fill="#5b4037"/><path d="M140.94,505.77s-65.65,1-61.63-53.9c0,0,.82-12.74,10.19-23.07l67.49,4.86s8.62,62.3-16.05,72.11Z" fill="#a3caf6"/><path d="M137,507.17c-1.14,0-30.35-.21-47.08-18.05-8.79-9.38-12.68-21.94-11.55-37.33.03-.53.95-13.17,10.43-23.63.19-.21.46-.32.76-.3l67.49,4.86c.46.03.83.4.87.86.01.16,1.16,15.97-.73,32.79-2.57,22.82-9.24,36.52-19.82,40.73-.11.04-.22.07-.34.07h-.03ZM137.03,506.24h0,0ZM89.89,429.76c-8.75,9.9-9.64,22.04-9.65,22.16-1.09,14.85,2.63,26.93,11.05,35.91,15.74,16.8,43.13,17.44,45.56,17.46,22.09-9.05,19.69-63.46,19.26-70.76l-66.22-4.77Z" fill="#5b4037"/><path d="M185.74,281.89s-9.48,5.49-5.25,11.74,13.35,7.29,18.05,1.92c4.7-5.37-2.63-18.26-12.8-13.66Z" fill="#5b4037"/><path d="M93.36,399.13c5.47-20.52-3.69-62.92-5.03-69.63-1.98-9.89-2.73-21.37,9.77-28.83,4.72-2.82,16.86-6.5,23.52-7.37,33.4-4.33,55.57.39,72.27,7.24,12.4,5.08,6.3,19.06,6.64,34.8.11,5.02,3.32,15.18,3.69,30.91.25,10.61-10.36,17.45-14.38,26.05-13.05,27.92-3.74,58.94-3.74,58.94,0,0-50.33,9.46-103.68-11.25,0,0,3.78-14.02,10.93-40.86Z" fill="#f2f2f2"/><path d="M129.49,292.43c-9.21,1.16-11.54,2.14-11.54,2.14,4.2,5.85,15.93,21.34,26.3,31.89,8.46,8.6,19.59,9.32,25.48,8.61,14.06-1.7,16.64-8.2,17.72-11.28,4.49-12.83,3.75-24.57,3.75-24.57-16.86-6.75-19.74-12.06-61.71-6.8Z" fill="#f6cdb1"/><path d="M176.1,206.38s-35.86,3.64-38.43,23.97l.21,22.39c.82,40.11,32.51,41.21,32.51,41.21,20.78,2.62,33.7-12.35,36.26-32.68l2.56-20.29-33.11-34.6Z" fill="#f6cdb1"/><path d="M174.97,295.18c-1.53,0-3.1-.1-4.7-.3-.24,0-32.5-1.58-33.32-42.11l-.21-22.4s0-.08,0-.13c2.42-19.22,16.24-28.23,38.9-25.38.51.06.88.53.81,1.05-.06.51-.53.87-1.05.81-15.17-1.91-33.86.65-36.8,23.7l.21,22.33c.79,38.71,30.35,40.23,31.6,40.28,18.75,2.36,32.56-10.15,35.3-31.86l2.56-20.29c.06-.51.53-.88,1.05-.81.51.06.88.53.81,1.05l-2.56,20.29c-2.64,20.99-15.23,33.79-32.6,33.79Z" fill="#5b4037"/><ellipse cx="197.56" cy="254.8" rx="2.8" ry="2.56" transform="translate(-67.02 439.06) rotate(-87.07)" fill="#5b4037"/><path d="M188.92,272.13c-.28,0-.56-.13-.74-.37-.15-.2-3.86-4.81-13.86-2.85-.51.1-1-.23-1.1-.74-.1-.51.23-1,.74-1.1,11.23-2.2,15.53,3.32,15.71,3.56.31.41.23,1-.19,1.31-.17.13-.37.19-.56.19Z" fill="#5b4037"/><path d="M186.85,262.53s-.04,0-.05,0c-.52-.03-.91-.47-.88-.99.01-.25,0-1.56-1.21-1.76-1.14-.19-1.95,1.25-1.96,1.26-.25.45-.81.62-1.27.38-.45-.24-.62-.81-.38-1.26.52-.98,1.92-2.55,3.91-2.23,2.34.38,2.84,2.6,2.78,3.72-.03.5-.44.88-.93.88Z" fill="#5b4037"/><path d="M181.02,286.42s-1.35,7.31-1.06,12.9c0,0-11.71,8.36-28.53,4.74-16.82-3.61-13.48-10.75-13.48-10.75,0,0,3.13-11.04,2.96-22.11l40.11,15.22Z" fill="#f6cdb1"/><path d="M175.91,294.99c-7.45,0-21.17-2.03-30.62-15.42-.3-.42-.2-1.01.23-1.3.42-.3,1.01-.2,1.3.23,12.77,18.1,33.81,14.32,34.02,14.28.52-.1,1,.24,1.09.74.1.51-.23,1-.74,1.09-.07.01-2.1.38-5.28.38Z" fill="#5b4037"/><path d="M194.75,225.88c-1.61,3.04-5.68,7.12-11.73,8.17-1.87.33-3.77.43-5.67.38-5.11-.14-23.26.29-30.58,12.66,0,0-2.69,26.96-14.45,31.58l-7.88-6.3s-14.28-25.79,3.59-52.37c0,0,17.18-22.38,40.7-21.64.94.03,26.01,27.52,26.01,27.52Z" fill="#5b4037"/><path d="M144.25,239.47c-.14,0-.28-.03-.41-.1-.46-.23-.66-.79-.43-1.25,4.89-10.01,14.4-14.68,28.23-13.88,8.61.5,11.01-3.3,11.11-3.46.27-.44.84-.58,1.28-.32.44.26.59.83.33,1.27-.12.2-2.99,4.95-12.83,4.38-13.18-.77-21.85,3.43-26.44,12.83-.16.33-.5.52-.84.52Z" fill="#f2f2f2"/><path d="M200.57,231.91c5.34,5.18,8.84,7.48,8.64,9.07-.49,3.88-1.51,12-1.51,12,0,0-19.87-20.92-18.42-32.83,0,0,2.04,2.79,11.29,11.76Z" fill="#5b4037"/><path d="M143.44,242.07c-3.26-.28-10.89,2.8-9.02,13.19,1.87,10.39,15.17,8.16,15.17,8.16l4.79-15.15c-2.81-1.79-7.68-5.93-10.93-6.21Z" fill="#f6cdb1"/><path d="M147.78,253.71c-.44,0-.83-.31-.92-.76-.07-.34-.75-3.27-4.19-3.18-.5,0-.94-.4-.95-.92,0-.52.4-.94.92-.95.05,0,.09,0,.14,0,3.97,0,5.61,3.06,5.92,4.7.1.51-.24,1-.74,1.09-.06.01-.12.02-.18.02Z" fill="#5b4037"/><ellipse cx="172.05" cy="250.86" rx="2.8" ry="2.56" transform="translate(-106.05 374.11) rotate(-79.46)" fill="#5b4037"/><path d="M186.31,296.78s-9.48,5.49-5.25,11.74,13.35,7.29,18.05,1.92c4.7-5.37-2.63-18.26-12.8-13.66Z" fill="#5b4037"/><path d="M128.24,259.69c-.41,0-.78-.27-.9-.68-.05-.19-5.24-19.37,8.21-36.1.32-.4.91-.47,1.32-.14.4.32.47.91.14,1.32-12.83,15.97-7.92,34.24-7.87,34.43.14.5-.15,1.01-.65,1.15-.08.02-.17.04-.25.04Z" fill="#f2f2f2"/><path d="M144.65,214.38c-.24,0-.48-.09-.66-.27-.37-.36-.37-.96,0-1.32.28-.29,7.14-7.03,22.24-7.94.52-.04.96.36.99.88.03.52-.36.96-.88.99-14.39.86-20.96,7.32-21.02,7.39-.18.18-.42.28-.66.28Z" fill="#f2f2f2"/><path d="M126.13,271.03s-10.89,1.14-9.59,8.57c1.31,7.43,9.2,12.11,15.68,9.13,6.49-2.98,5.07-17.74-6.1-17.7Z" fill="#5b4037"/><path d="M120.57,284.85s-10.89,1.14-9.59,8.57c1.31,7.43,9.2,12.11,15.68,9.13s5.07-17.74-6.1-17.7Z" fill="#5b4037"/><path d="M156.94,454.28c-19.64,0-46.93-2.58-74.85-13.42-.45-.17-.69-.66-.56-1.12.06-.22,6.06-22.39,10.93-40.85,2.33-8.84,3.39-27.82-4.81-68.05l-.23-1.16c-2.1-10.48-2.53-22.21,10.21-29.82,5.06-3.02,17.36-6.65,23.88-7.49.44-.06.87.21,1.01.63.05.16,5.71,16.66,21.46,31.83,9.05,8.72,21.76,11.94,31.62,8.01,10.42-4.15,16.59-15.64,17.37-32.35.06-1.25.21-4.57,2.24-4.57h.02c4.26.05,10.78,21.51,11.03,33.19.04,1.83-.14,5.12-.37,9.28-.41,7.5-.97,17.77-.73,27.83.16,7.07-4.18,12.46-8.39,17.66-2.39,2.96-4.66,5.76-6.08,8.81-12.75,27.28-3.78,57.97-3.69,58.28.08.25.04.53-.1.76-.14.23-.37.38-.63.43-.24.04-11.71,2.12-29.34,2.12ZM83.55,439.41c48.09,18.41,94.08,12.22,101.38,11.07-1.45-5.63-7.66-33.5,4.07-58.58,1.52-3.25,3.96-6.27,6.32-9.19,3.99-4.94,8.12-10.05,7.97-16.44-.24-10.13.33-20.45.74-27.98.22-4.12.4-7.37.36-9.13-.27-12.91-6.89-30.03-9.09-31.3-.13.24-.38.92-.47,2.73h0c-.81,17.49-7.4,29.56-18.54,34-10.53,4.19-24.04.82-33.61-8.4-14.19-13.67-20.37-28.43-21.67-31.85-6.94,1.04-18.18,4.6-22.43,7.14-11.71,6.99-11.41,17.51-9.34,27.84l.23,1.15c8.27,40.59,7.17,59.87,4.79,68.9-4.34,16.47-9.59,35.87-10.71,40.05ZM193.9,300.54h0,0Z" fill="#5b4037"/><path d="M194.3,311.89s13.23,8.59,9.6,23.8c-3.63,15.22-10.6,17.29-18.73,19.87,0,0,5.81-9.41-3.66-18.14-9.47-8.73.76-24.64,5.47-26.01l7.32.48Z" fill="#5b4037"/><path d="M191.11,314.86c-2.8,0-4.78-.96-4.89-1.01-.46-.23-.65-.79-.42-1.25.23-.46.79-.65,1.25-.43h0s3.24,1.54,7.02.38c.5-.15,1.02.12,1.17.62.15.49-.13,1.02-.62,1.17-1.25.38-2.43.52-3.5.52Z" fill="#f2f2f2"/><path d="M245.01,315.74s-20.39-37.1-64.21,18.21c-58.34,73.64-120.5,139.77-70.11,165.25,39.4,19.92,74.64-10.91,87.6-40.11,12.95-29.2,62.81-120.69,46.73-143.35Z" fill="#a3caf6"/><path d="M135.53,507.24c-7.13,0-14.41-1.29-21.74-3.89-.49-.17-.74-.71-.57-1.19.17-.49.71-.74,1.19-.57,18.14,6.43,36.02,4.62,51.71-5.23,13.06-8.2,24.17-21.57,31.31-37.64,2.23-5.03,5.58-11.95,9.44-19.95,17.6-36.41,50.37-104.17,37.38-122.48-.02-.03-.04-.06-.06-.09-.06-.11-6-10.63-17.97-11.62-13.03-1.09-28.08,9-44.69,29.96-6.69,8.44-13.47,16.82-20.02,24.91-30.07,37.15-58.48,72.24-65.29,98.78-.13.5-.64.8-1.14.67-.5-.13-.8-.64-.67-1.14,6.91-26.94,35.44-62.18,65.65-99.5,6.55-8.09,13.33-16.46,20.01-24.9,17.03-21.5,32.61-31.81,46.33-30.66,12.68,1.06,18.89,11.61,19.41,12.53,13.56,19.27-18.24,85.03-37.25,124.34-3.86,7.99-7.2,14.88-9.42,19.89-7.28,16.41-18.65,30.07-32.02,38.47-9.85,6.18-20.53,9.3-31.59,9.3Z" fill="#5b4037"/><path d="M254.52,340.58s-5.83-48.74-38.71-33.02c-40.74,19.47-22.93,152.76-23.5,163.13,0,0,31.46,4.85,48.44-.14,0,0,19-70.16,13.77-129.97Z" fill="#a3caf6"/><path d="M97.55,299.94c-5.23,1.3-11.64,7.71-11.75,18.94-.08,8.27,2.89,20.13,12.63,35.27,16.89,26.25,38.14,59.26,55.35,44.76,22.63-19.06,3.24-40.3-23.06-75.58-6.17-8.27-24.57-25.53-33.17-23.39Z" fill="#f6cdb1"/><path d="M144.74,403.39c-.72,0-1.45-.06-2.19-.17-15.13-2.28-31.64-27.94-44.91-48.57-10.69-16.62-12.85-28.63-12.78-35.78.11-11.02,6.35-18.33,12.47-19.84h0c9.61-2.37,28.57,16.26,34.15,23.74,2.2,2.95,4.34,5.79,6.42,8.55,22.83,30.27,37.91,50.27,16.49,68.31-2.97,2.5-6.2,3.76-9.64,3.76ZM97.77,300.85c-4.38,1.08-10.93,6.79-11.04,18.04-.07,6.9,2.04,18.52,12.48,34.75,13.06,20.3,29.32,45.57,43.61,47.73,3.75.57,7.14-.47,10.35-3.17,20.06-16.89,6.2-35.28-16.78-65.75-2.08-2.76-4.23-5.61-6.43-8.56-6.7-8.99-24.45-24.96-32.2-23.04h0Z" fill="#5b4037"/><path d="M164.54,286.65s18.94,128.26-25.08,114.18c-19.97-6.38-10.33-87.57-3.5-119.93,2.62-12.42,13.72-10.11,15.38-10.12,4.82,0,10.56,2.89,13.2,15.86Z" fill="#f6cdb1"/><path d="M121.68,301.91s8.56,13.24-.98,25.65c-9.54,12.4-16.74,11.45-25.21,10.47,0,0,9.15-6.21,4.08-18.05-5.07-11.84,10.77-22.18,15.62-21.5l6.49,3.43Z" fill="#5b4037"/><path d="M121.96,304.3c-.07,0-.14,0-.21-.02-6.55-1.49-8.52-4.62-8.6-4.75-.27-.44-.13-1.02.31-1.28.44-.27,1.01-.13,1.28.31.04.06,1.75,2.62,7.42,3.91.5.11.82.62.71,1.12-.1.43-.49.73-.91.73Z" fill="#f2f2f2"/><path d="M220.18,473.76c-13.86,0-27.16-2.01-28.01-2.14-.48-.07-.82-.5-.79-.98.08-1.52-.26-6.05-.75-12.33-1.67-21.8-5.15-67.17.28-102.89.08-.51.55-.87,1.07-.78.51.08.86.55.78,1.07-5.4,35.51-1.93,80.73-.26,102.47.43,5.65.74,9.66.76,11.72,4.96.7,31.55,4.13,46.73-.08,1.69-6.47,18.53-72.84,13.61-129.14-.03-.2-3.6-24.75-17.87-33.34-5.91-3.56-12.93-3.91-20.84-1.03-.49.18-1.02-.07-1.2-.56-.18-.49.07-1.02.56-1.2,8.47-3.08,16.03-2.68,22.45,1.19,7.89,4.75,12.57,13.96,15.11,20.85,2.73,7.41,3.61,13.62,3.65,13.88,5.19,59.34-13.6,129.64-13.79,130.34-.08.31-.33.56-.64.65-5.9,1.73-13.45,2.31-20.84,2.31Z" fill="#5b4037"/><path d="M146.06,264.55s-.02,0-.03,0c-4.09-.11-11.15-1.45-12.53-9.12-1.03-5.74.76-9.16,2.45-11.01,2.28-2.5,5.52-3.45,7.57-3.28,2.31.2,5.16,2.01,7.9,3.94.42.3.52.88.23,1.3-.3.42-.88.52-1.3.23-2.4-1.69-5.11-3.45-6.98-3.6-1.34-.12-4.05.5-6.03,2.67-2.02,2.21-2.7,5.47-1.99,9.42,1.09,6.06,6.44,7.47,10.74,7.59.52.01.92.44.91.96-.01.51-.43.91-.93.91Z" fill="#5b4037"/><path d="M146.3,403.34c-3.55,0-7.47-1.08-11.74-3.24-.46-.23-.64-.8-.41-1.26.23-.46.8-.64,1.26-.41,7.61,3.86,13.95,4.03,18.83.51,23.41-16.91,9.52-111.19,9.37-112.14-2.03-9.98-6.15-15.07-12.25-15.07,0,0-.02,0-.02,0-.18,0-.46-.02-.81-.05-4.92-.42-11.69.1-13.66,9.42-3.94,18.69-9.39,56.89-8.25,85.54.02.52-.38.95-.9.97-.52.01-.95-.38-.97-.9-1.15-28.82,4.33-67.22,8.29-86,1.68-7.98,6.95-11.65,15.65-10.9.29.02.46.05.65.05h.02c8.86,0,12.55,9.03,14.09,16.61.04.29,3.62,24.3,4.2,50.14.78,34.94-4.04,56.41-14.32,63.84-2.67,1.93-5.68,2.89-9.03,2.89Z" fill="#5b4037"/><path d="M159.3,287.8c-9.89,6.73-21.17-2.18-23.39-6.79-1.7-3.53.04-16.36,1.15-22.96,1.22-7.26,6.93-17.94,11.65-19.44,4.42-1.41-5.13,19.14-5.13,19.14,0,0,7.05-12.15,9.38-14.49,2.33-2.34,7.17-5.25,7.36-2.43.19,2.82-7.11,11.34-8.78,17.07,0,0,12.25-21.64,15.16-13.18,0,0,5.4-1.45,2.81,4.71s-6.14,13.76-6.82,14.75c0,0-.65,5.54,0,12.89.35,3.89-.43,8.73-3.39,10.74Z" fill="#f6cdb1"/><path d="M157.2,262.44c-.11,0-.21-.02-.32-.06-.49-.18-.74-.71-.56-1.2,3.25-8.92,9.39-16.72,9.65-17.05.32-.4.91-.47,1.31-.15.4.32.47.91.15,1.31-.06.08-6.21,7.9-9.36,16.53-.14.38-.5.62-.88.62Z" fill="#5b4037"/><path d="M164.14,285.79c-.36,0-.7-.21-.86-.56-2.66-5.97-1.58-20.51-1.53-21.13.01-.17.07-.32.16-.46.58-.84,4.05-8.21,6.73-14.58.95-2.25.6-3,.41-3.22-.42-.48-1.63-.36-2.11-.23-.48.13-.97-.13-1.13-.6-.29-.84-.66-1.28-1.11-1.33-2.67-.27-8.82,8.43-12.35,14.67-.23.41-.74.58-1.18.4-.44-.18-.67-.67-.53-1.12.87-2.98,3.15-6.61,5.17-9.82,1.71-2.73,3.65-5.81,3.58-6.93-.01-.2-.06-.26-.06-.26-.5-.31-3.4.98-5.71,3.29-1.78,1.78-6.82,10.13-9.23,14.3-.25.43-.8.59-1.24.36-.44-.23-.63-.77-.42-1.22,3.42-7.35,6.62-16.03,6.21-17.83-4.27,1.43-9.79,11.7-10.96,18.69-1.02,6.04-1.87,16.49-1.52,24.78.02.52-.38.95-.9.97-.01,0-.03,0-.04,0-.5,0-.91-.39-.93-.9-.35-8.42.52-19.03,1.55-25.16,1.16-6.92,6.84-18.44,12.29-20.17,1.03-.33,1.62.12,1.88.41,1.01,1.15.21,4.75-1.23,8.86,1.29-1.96,2.48-3.64,3.23-4.39,1.56-1.57,5.49-4.54,7.68-3.72.44.16,1.19.63,1.28,1.89.06.93-.4,2.14-1.26,3.73,1.73-1.69,3.45-2.8,4.88-2.66.74.07,1.7.46,2.39,1.83.9-.1,2.31-.06,3.19.95.94,1.08.91,2.77-.1,5.18-2.33,5.54-5.75,12.96-6.77,14.68-.13,1.87-.91,14.84,1.39,20,.21.47,0,1.02-.48,1.24-.12.05-.25.08-.38.08Z" fill="#5b4037"/><path d="M69.28,511.68H24.13c-.52,0-.94-.42-.94-.94V47.57c0-.52.42-.94.94-.94s.94.42.94.94v462.24h43.28V94.76c0-.52.42-.94.94-.94s.94.42.94.94v415.99c0,.52-.42.94-.94.94Z" fill="#ed9280"/><path d="M467.36,511.68c-.25,0-.5-.1-.68-.29L23.45,48.22c-.23-.24-.31-.58-.22-.9L36.48.68c.09-.32.35-.57.67-.65.32-.08.66.01.9.25l447.57,454.15c.24.25.33.61.23.94l-17.58,55.66c-.1.32-.36.55-.68.63-.07.02-.14.02-.21.02ZM25.17,47.31l441.77,461.64,16.94-53.62L37.84,2.74l-12.66,44.58Z" fill="#ed9280"/><path d="M699.78,456.02h-214.84c-.25,0-.49-.1-.67-.28L36.71,1.59c-.26-.27-.34-.67-.2-1.02C36.66.23,37,0,37.38,0h194.5c.24,0,.48.09.65.26l467.91,454.15c.27.27.36.67.22,1.02-.14.35-.49.58-.87.58ZM485.33,454.15h212.14L231.49,1.87H39.61l445.72,452.28Z" fill="#ed9280"/><path d="M683.13,511.68h-215.78c-.3,0-.58-.14-.75-.38-.18-.24-.23-.55-.14-.83l17.58-55.66c.12-.39.48-.65.89-.65h214.84c.3,0,.57.14.75.38.18.24.23.54.15.83l-16.65,55.66c-.12.4-.48.67-.9.67ZM468.63,509.81h213.8l16.09-53.79h-212.9l-16.99,53.79Z" fill="#ed9280"/><path d="M102.87,265.32c-.45,0-.85-.32-.92-.78-3.24-19.6.31-34.67,3.86-43.87,3.86-10,8.43-15.29,8.62-15.51.34-.39.93-.43,1.32-.09.39.34.43.93.09,1.32-.18.21-18.09,21.21-12.04,57.84.08.51-.26.99-.77,1.08-.05,0-.1.01-.15.01Z" fill="#ed9280"/><path d="M94.03,281.5c-.41,0-.79-.28-.9-.7-9.14-34.44,2.31-63.36,2.43-63.65.19-.48.74-.71,1.22-.52.48.19.71.74.52,1.22-.11.28-11.33,28.65-2.36,62.47.13.5-.17,1.01-.66,1.14-.08.02-.16.03-.24.03Z" fill="#ed9280"/><path d="M538.97,410.74c-.18,0-.36-.05-.52-.16-.53-.35-53.24-35.31-71.41-49.03-7.74-5.84-18.72-24.49-32.66-55.42-9.57-21.25-17.31-41.28-18.48-44.32l-29.17-10.97c-.48-.18-.73-.72-.55-1.2.18-.48.72-.73,1.2-.55l29.56,11.12c.25.09.45.29.54.54.33.86,32.73,85.77,50.66,99.3,18.12,13.68,70.78,48.61,71.31,48.96.43.29.55.87.26,1.3-.18.27-.48.42-.78.42Z" fill="#ed9280"/><path d="M495.1,348.43c-.15,0-.31-.04-.45-.11-16.65-9.08-55.7-33.23-56.09-33.47-.44-.27-.57-.85-.3-1.29.27-.44.85-.57,1.29-.3.39.24,39.39,24.36,56,33.42.45.25.62.82.37,1.27-.17.31-.49.49-.82.49Z" fill="#ed9280"/></svg>