<?xml version="1.0" encoding="UTF-8"?>
<svg id="icon" xmlns="http://www.w3.org/2000/svg" version="1.1" viewBox="0 0 512 638.4">
  <!-- Generator: Adobe Illustrator 29.1.0, SVG Export Plug-In . SVG Version: 2.1.0 Build 142)  -->
  <path d="M380.7,598.6s-9.7,28.4-31.4,17.1-26.6-29.9-29.1-51.9c-2.5-22,0-50.7,0-50.7l60.5,85.5Z" fill="#483432"/>
  <path d="M267.6,523.3s40.1,17.8,79.3,0l-5.4-101.7h-70.3l-3.6,101.7Z" fill="#e0bf7c"/>
  <path d="M388.8,415s103.1,72,121.2,166.4c13.5,70.5-45.8,63.2-93.9,43.7-28.2-11.5-54.1-29.5-75-53.7-1.4-1.6-2.7-3.2-4.1-4.9,0,0-13.7-23.4-18.8-37,0,0-26.8-21-22.7-84.6l93.3-29.9Z" fill="#e0bf7c"/>
  <path d="M386.1,587.1c-.4,0-.9-.2-1.2-.5-.3-.3-31.7-34.1-62.5-54-.8-.5-1-1.5-.5-2.2.5-.8,1.5-1,2.2-.5,31.2,20.2,62.8,54.2,63.2,54.5.6.7.6,1.7,0,2.3-.3.3-.7.4-1.1.4Z" fill="#483432"/>
  <path d="M235,598.6s9.7,28.4,31.4,17.1c21.7-11.2,26.6-29.9,29.1-51.9s0-50.7,0-50.7l-60.5,85.5Z" fill="#483432"/>
  <path d="M226.9,415s-103.1,72-121.2,166.4c-13.5,70.5,45.8,63.2,93.9,43.7,28.2-11.5,54.1-29.5,75-53.7,1.4-1.6,2.7-3.2,4.1-4.9,0,0,13.7-23.4,18.8-37,0,0,26.8-21,22.7-84.6l-93.3-29.9Z" fill="#e0bf7c"/>
  <path d="M230.4,587.1c-.4,0-.8-.1-1.1-.4-.7-.6-.7-1.6-.1-2.3.3-.4,33.4-37.5,62.5-54.6.8-.5,1.8-.2,2.2.6.5.8.2,1.8-.6,2.2-28.7,16.9-61.4,53.6-61.7,53.9-.3.4-.8.5-1.2.5Z" fill="#483432"/>
  <path d="M331.6,159s49.8-4.2,67.7,39.8c14.2,34.8,33.5,73.4,22.5,107.6-16,49.4,8.5,110-13,125.5,0,0-31.3,13-95.8,14.8-66.9,1.8-100.8-9-100.8-9,0,0-14.7-1.9-16.3-21.8-2.4-29-8-116.6-8-116.6,22.9-66.2,1.6-82.5,1.6-82.5,5.1-18.1,27.8-31.2,27.8-31.2,56.6-32.3,114.3-26.6,114.3-26.6Z" fill="#8e9dbc"/>
  <ellipse cx="317.2" cy="180.2" rx="50.3" ry="21.3" fill="#d2a989"/>
  <path d="M227.8,190.6c8.6-.7,17.7,5.1,21.8,12.6,6.3,11.6,11.3,31.2,7.1,59.7-7.1,49.4-28.2,125.3-55.5,142.5-42,26.4-57.6-66-26.6-157.7,15.7-46.4,33.4-55.6,53.2-57.1Z" fill="#d2a989"/>
  <path d="M246.3,322.5s-19.8,1.3-44.2-3.7c-28.3-5.8-45.3-16.1-45.3-16.1,0,0,8.4-65.3,41.5-100.9,17.1-18.5,41.7-16.2,52.7-2.4,33,41.6-.4,114-4.7,123Z" fill="#8e9dbc"/>
  <path d="M246.3,324.1c-.3,0-.5,0-.8-.2-.8-.4-1.1-1.4-.6-2.2.2-.3,19.3-35.5,18.4-86.1,0-.9.7-1.6,1.6-1.7,0,0,0,0,0,0,.9,0,1.6.7,1.6,1.6,1,51.5-18.6,87.4-18.8,87.8-.3.5-.9.8-1.4.8Z" fill="#483432"/>
  <g>
    <path d="M323.7,18.5h0c-34.6-2.1-64.3,24.2-66.4,58.8l-2.3,37.2c6.7,54.1,33.8,64.9,58.8,66.4h0c35.4,2.2,61.1-24.4,63.3-59l2.3-37.2c2.1-34.6-21-64.1-55.6-66.2Z" fill="#d2a989"/>
    <path d="M273.7,83.8c-.9,0-1.6-.7-1.6-1.5,0-.9.6-1.7,1.5-1.7,5.6-.3,6.5-8.3,6.5-13,.2-22.4,11.8-23.5,12.3-23.5.9,0,1.7.6,1.7,1.5,0,.9-.6,1.7-1.5,1.7-.4,0-9.1,1.2-9.3,20.3-.1,13.7-6.1,16-9.6,16.2,0,0,0,0,0,0Z" fill="#483432"/>
    <path d="M331,142.6c-.3,0-.6,0-.9-.3-.5-.3-11.7-7.6-23.1-.5-.8.5-1.8.2-2.2-.5-.5-.8-.2-1.8.5-2.2,13.2-8.3,26,.2,26.6.5.7.5.9,1.5.4,2.3-.3.5-.8.7-1.4.7Z" fill="#483432"/>
    <path d="M325,50.8s1.1-5.6,6.2-9.1c0,0-8.9-1.5-15.9,6.7,0,0,.6-6.9,4.2-9.2,0,0-7.8-.7-13.2,8.6,0,0-1.6-5.5,0-8.6,0,0-8.3,0-11.4,8.6,0,0-24.8,1.5-25,35.3,0,0,1.6,7.8-8.4,22.6,0,0-4.7,11.2-2.6,26.2,0,0-10.8,7.3-17.1-5.6,0,0-2.1-8.3-3.7-14.5,0,0-18.1-23.2-11.5-48.6,6.6-25.4,34-46.3,36.6-46.8,2.6-.5,14.9,2,14.9,2,0,0-4.1-19.9,32.7-18.3,34.3,1.5,67.7,31.1,74.3,40.1,0,0,21,21.9,5.5,54.5,0,0-9.3,22.5-13.5,28.3,0,0,2.3-20-8-52.5,0,0-9.3-21.8-29.1-23.3,0,0-10.6-2.3-15,3.7Z" fill="#483432"/>
    <path d="M255.4,88.3c-5.4-1.3-18.9,1.8-18.5,19.7.4,17.9,23.2,17.6,23.2,17.6l8.2-29.6c-4.2-3.7-7.5-6.4-12.9-7.7Z" fill="#d2a989"/>
    <path d="M259.8,109c-.9,0-1.6-.7-1.6-1.6,0-.6-.4-5.6-6.1-6.4-.9-.1-1.5-.9-1.4-1.8.1-.9.9-1.5,1.8-1.4,6.9,1,8.8,6.6,8.9,9.5,0,.9-.7,1.6-1.6,1.7,0,0,0,0,0,0Z" fill="#483432"/>
    <path d="M385.6,89c5.5.2,17.7,7,12.3,24.1-5.3,17-27.2,10.5-27.2,10.5l.3-30.7c5.1-2.4,9-4.1,14.5-3.8Z" fill="#d2a989"/>
    <path d="M378.3,106.2c-.2,0-.3,0-.5,0-.8-.3-1.3-1.2-1-2,.9-2.7,4.4-7.6,11.2-6.6.9.1,1.5,1,1.4,1.8-.1.9-.9,1.5-1.8,1.4-5.7-.8-7.5,3.9-7.7,4.4-.2.7-.9,1.1-1.5,1.1Z" fill="#483432"/>
    <path d="M288.7,18.9c-.2,0-.4,0-.6-.1-.8-.3-1.2-1.3-.9-2.1,0-.2,2-5,8.7-7.7,9.7-4,23.9-1.8,42.2,6.6.8.4,1.2,1.3.8,2.2-.4.8-1.3,1.2-2.2.8-21.6-9.9-33.4-9-39.5-6.6-5.4,2.2-6.9,5.8-7,5.9-.3.6-.9,1-1.5,1Z" fill="#edeae2"/>
    <path d="M234,77.7c-.3,0-.7-.1-1-.3-.1-.1-13.1-10.4-7.2-28.1,2.4-7.3,8.3-13.5,17.1-18,6.5-3.3,12.2-4.5,12.5-4.6.9-.2,1.7.4,1.9,1.3.2.9-.4,1.7-1.3,1.9-.2,0-21.9,4.7-27.1,20.4-5.2,15.5,5.7,24.1,6.1,24.5.7.6.8,1.6.3,2.3-.3.4-.8.6-1.3.6Z" fill="#483432"/>
    <path d="M399,54c-.6,0-1.2-.4-1.5-1-10.9-25.2-34.5-25.4-34.8-25.4h0c-.9,0-1.6-.7-1.6-1.6,0-.9.7-1.6,1.6-1.6h0c.4,0,26.1.3,37.8,27.4.4.8,0,1.8-.8,2.1-.2,0-.4.1-.6.1Z" fill="#483432"/>
    <path d="M386.8,73.3c0,0-.2,0-.3,0-.9-.1-1.5-1-1.3-1.9h0c.1-.7,2.6-17.9-14.4-27.6-.8-.4-1.1-1.4-.6-2.2.4-.8,1.4-1.1,2.2-.6,19,10.8,16,30.7,16,30.9-.1.8-.8,1.4-1.6,1.4Z" fill="#edeae2"/>
    <path d="M263.3,64.2c-.2,0-.3,0-.5,0-.9-.3-1.3-1.2-1.1-2,6-19.1,18.4-21.9,18.9-22,.9-.2,1.7.4,1.9,1.3.2.9-.4,1.7-1.2,1.9-.5.1-11.1,2.7-16.5,19.8-.2.7-.9,1.1-1.6,1.1Z" fill="#edeae2"/>
  </g>
  <path d="M316.1,182.7c-12.7,0-28.3-3.5-43-16.3-.7-.6-.8-1.6-.2-2.3.6-.7,1.6-.8,2.3-.2,31,27,66.2,10.6,66.5,10.4.8-.4,1.8,0,2.2.8.4.8,0,1.8-.8,2.2-.2,0-11.5,5.4-27.1,5.4Z" fill="#483432"/>
  <path d="M422.2,218.8c-7.8.7-13.6,3.1-18.6,9.2-7.8,9.3-35.2,83.1-12.2,116.5,31,45.2,83.2,8,69.1-71-5.4-30.7-19.4-56.2-38.3-54.6Z" fill="#d2a989"/>
  <path d="M387.1,290.5s37.7,13.8,77.2-1.6c0,0,6.8-39.9-11.9-79-19.3-40.4-60.9-41.1-71.4-38.1,0,0-3.2,69.3,6.1,118.7Z" fill="#8e9dbc"/>
  <path d="M442.6,272.1s19.4,83.4-25,87.7c-23.5,2.3-37-25.2-42.9-56.8-6-32.1-27.8-145-24.2-155.3,6.6-19,12.2-59.4,39.3-6.1,13.9,27.3,44.1,92.5,52.8,130.4Z" fill="#d2a989"/>
  <g>
    <path d="M369.8,154.6c14.4-8,15.8-28.2,3.2-38.7s-22.1-18.2-31.5-24.5c-14.6-9.8-33.7-17.7-35.7-16.6-9.3,5,26,23.4,26,23.4,0,0-23.7-6.6-29.3-6-5.6.6-14.5,3.8-11,7,3.5,3.3,21.6,1.9,32,9.5,0,0-41.4-7.1-33.5,5.8,0,0-7.7,5.5,3.2,8.7,10.8,3.2,24.6,6.7,26.6,6.8,0,0,14.1,18.1,32.4,25.8,6.1,2.6,12.3,1.7,17.6-1.2Z" fill="#d2a989"/>
    <path d="M355.1,193.9c-.8,0-1.5-.6-1.6-1.4-1.9-12.8-3.4-25-4.6-36.4-3.8-1.8-19.1-9.6-30-24.6-3.3-.7-18.7-4-26.1-6.7-1-.2-6.4-1.5-7-6.1,0,0,0-.2,0-.2,0-1.3.8-3.8,3.4-5.3.3-.1.5-.2.8-.2.7,0,17.5.3,32.6,5.6.8.3,1.3,1.2,1,2.1-.3.8-1.2,1.3-2.1,1-13.3-4.6-28.3-5.3-31.1-5.4-1.2.8-1.4,1.9-1.4,2.3.5,2.4,4.4,3.2,4.4,3.2,0,0,.2,0,.3,0,7.9,2.9,26.2,6.7,26.4,6.8.4,0,.8.3,1,.6,11.8,16.5,29.7,24.3,29.9,24.4.5.2.9.7,1,1.3,1.2,11.6,2.8,24.1,4.7,37.2.1.9-.5,1.7-1.4,1.8,0,0-.2,0-.2,0Z" fill="#483432"/>
  </g>
  <path d="M379.9,127.1c-.7,0-1.3-.5-1.6-1.2-4.4-14.6-13.7-38.2-20.2-40.3-.1,0-.4.2-.6.6-.7,1-1.9,4.4,1.1,15.1.2.7,0,1.4-.6,1.8-.6.4-1.3.4-1.9,0-.3-.3-34-25.3-50.1-26.6,0,0-.2.1-.2.2,0,0-.3,1,1.9,3.4,4.5,5.2,24.7,16.6,24.9,16.7.7.4,1,1.3.7,2.1s-1.3,1.1-2,.8c-6.9-2.6-26.3-8.4-33.7-4.8-3.8,1.9-4.6,3-4.7,3.3.2.2,1,.7,2.4,1,.4,0,1.1.2,2.1.3,10.4,1.7,23,4.1,27.3,8.2.5.5.7,1.3.3,1.9s-1,1-1.7.9c-.2,0-22.5-3.5-30.4-.8-2.7.9-3.3,1.7-3.3,2,0,.3.7,1.1,1.4,1.5.8.5,1,1.4.6,2.2-.5.8-1.4,1-2.2.6-.3-.2-3.3-2-3-4.6.2-2,2-3.6,5.5-4.8,4.8-1.6,13.9-1.3,21.1-.7-6-1.6-13-2.7-16.1-3.2-1-.2-1.8-.3-2.2-.4-1.7-.3-4.7-1.3-5-3.7-.3-2.2,1.7-4.3,6.5-6.6,5.5-2.7,15.3-1.2,23.4.8-5.7-3.6-11.8-7.8-14.2-10.5-2.3-2.7-3.1-4.8-2.5-6.6.6-1.9,2.5-2.3,2.7-2.4.1,0,.3,0,.4,0,13.9.8,39.1,17.9,48.5,24.6-1.5-6.7-1.2-11.3.7-13.7,1.1-1.3,2.5-1.7,3.3-1.7.1,0,.2,0,.3,0,4.6,1.2,9.7,8.6,15.5,22.6,4.2,10,7.2,19.9,7.2,20,.3.9-.2,1.8-1.1,2-.2,0-.3,0-.5,0Z" fill="#483432"/>
  <path d="M231.2,340.1s-72.9,11.6-65.5,45.9c6.2,28.7,25.9,34.1,65.5,25,39.6-9.1,127.2-30.7,133.9-42.5,6.7-11.9,20.8-31.8-16.3-38.7-33.3-6.3-92.2,6.5-117.7,10.4Z" fill="#d2a989"/>
  <path d="M200.8,354.3c-.5,0-1-.2-1.3-.7-.5-.7-.3-1.8.4-2.3,16.1-11.1,35.8-13.2,36.7-13.3.9,0,1.7.6,1.8,1.5s-.6,1.7-1.5,1.8c-.2,0-19.7,2.1-35.2,12.7-.3.2-.6.3-.9.3Z" fill="#483432"/>
  <g>
    <path d="M307.6,364.1c-7.2-17,5.4-35.9,23.8-36.5,12.4-.4,32.1-.9,44.8,0,19.7,1.4,42,7.5,43.1,9.8,4.8,10.8-39.1,2.8-39.1,2.8,0,0,25.5,10.5,30.1,14.8,4.5,4.3,10.3,13.4,4.9,13.9-5.3.5-20.4-13.2-35-13.6,0,0,41.6,22.3,25.7,28.2,0,0,3,10.2-8.8,5.5-11.8-4.6-26.4-11-28.3-12.3,0,0-25,6.3-46.5.5-7.2-1.9-12.1-7-14.8-13.2Z" fill="#d2a989"/>
    <path d="M406,385.2c-.3,0-.7-.1-1-.3-.2-.1-15.3-11.4-31.8-17-.8-.3-1.3-1.2-1-2.1.3-.9,1.2-1.3,2.1-1,17,5.8,32.1,17,32.7,17.5.7.5.9,1.6.3,2.3-.3.4-.8.6-1.3.6Z" fill="#483432"/>
  </g>
  <path d="M191.3,157.3s-25.8-13.1-42.6-32.8c0,0-19.5,1-72.4,7.9-52.9,6.9-86.4-7.4-73.4-48.2C12.7,53,42.5,8.9,121.7,17.5c67.3,7.3,71,68,53.3,87.8,0,0-.6,21.5,16.3,52Z" fill="#edeae2"/>
  <g>
    <path d="M101.2,45.7c-12.5-13.9-38-2.6-44.6,10.2-6.6,12.8-5.1,31.7,11,43,16.2,11.3,37.8-12,41.1-22.9,0,0,5-16.4-7.6-30.3ZM106.2,75.4c-3,9.9-22.6,31-37.3,20.8-14.6-10.3-16-27.4-10-39,6-11.6,29-21.8,40.4-9.2,11.4,12.6,6.9,27.5,6.9,27.5Z" fill="#483432"/>
    <path d="M98.2,56.2c-12.5-13.9-38-2.6-44.6,10.2-6.6,12.8-5.1,31.7,11,43,16.2,11.3,37.8-12,41.1-22.9,0,0,5-16.4-7.6-30.3ZM103.2,85.9c-3,9.9-22.6,31-37.3,20.8-14.6-10.3-16-27.4-10-39,6-11.6,29-21.8,40.4-9.2,11.4,12.6,6.9,27.5,6.9,27.5Z" fill="#483432"/>
    <path d="M114.8,50.7c-12.5-13.9-38-2.6-44.6,10.2-6.6,12.8-5.1,31.7,11,43,16.2,11.3,37.8-12,41.1-22.9,0,0,5-16.4-7.6-30.3ZM119.8,80.4c-3,9.9-22.6,31-37.3,20.8-14.6-10.3-16-27.4-10-39,6-11.6,29-21.8,40.4-9.2,11.4,12.6,6.9,27.5,6.9,27.5Z" fill="#483432"/>
    <path d="M145,50.3c-12.5-13.9-38-2.6-44.6,10.2-6.6,12.8-5.1,31.7,11,43,16.2,11.3,37.8-12,41.1-22.9,0,0,5-16.4-7.6-30.3ZM150,80c-3,9.9-22.6,31-37.3,20.8-14.6-10.3-16-27.4-10-39,6-11.6,29-21.8,40.4-9.2,11.4,12.6,6.9,27.5,6.9,27.5Z" fill="#483432"/>
    <path d="M130.5,73.9s11.5-19,2-33.2c-9.5-14.2-28.7-13.1-34.9-7.7-6.2,5.4-12,18.1-3.7,26.9,8.2,8.8,20.1.7,19.6-8.5-.4-9.2-6.5-15-14.4-16.4l-1.2,1.7s12.6.8,13.5,14.9c0,0,.4,7.8-8.8,10,0,0-10.2-.4-10.4-12.2-.2-11.8,7.4-15.5,12.3-17.6,4.9-2.1,19.1,0,25.4,9.2,6.3,9.3,6.3,19.1-1.2,31.7l1.9,1.1Z" fill="#483432"/>
    <path d="M102,62.5s-21.4,6-24.1,22.9c-2.7,16.9,12,29.2,20.2,29.4s21.1-5.1,21.1-17.2c0-12-14.2-14.2-20.1-7.2-5.9,7-5,16.1-.2,22.6l2.9.3s-9.9-10.6-1-21.5c0,0,5.1-6,13.3-1.3,0,0,7.2,7.3-.7,16-7.9,8.7-15.9,6.3-20.9,4.5-5-1.8-14-13-12.3-24.1,1.7-11.1,8.4-18.2,22.5-22.4l-.7-2.1Z" fill="#483432"/>
    <path d="M46.5,67s16.4-37,53-29.9l1.1-1.6s-37.1-9.8-56.1,30.9l2.1.7Z" fill="#483432"/>
    <path d="M124.7,54.2c-9-15.3-22.9-10.8-26.6-1.4-3.7,9.4,2.2,17.7,4.8,20.7s13.1,8.3,19.7,7.5c0,0,11.2-11.5,2.1-26.8ZM121.4,78.9c-5.8.7-15.1-4-17.3-6.6-2.3-2.6-7.5-10-4.2-18.2,3.3-8.2,15.5-12.2,23.4,1.2,7.9,13.5-1.9,23.6-1.9,23.6Z" fill="#483432"/>
    <path d="M133.5,100c15.7,8.4,25.2-2.8,23.5-12.7-1.7-9.9-11.1-14-14.9-15.1s-15.5-.2-20.8,3.9c0,0-3.5,15.6,12.2,24ZM123.4,77.3c4.6-3.6,14.9-4.5,18.2-3.4,3.3,1,11.6,4.6,13.1,13.3,1.5,8.7-6.8,18.5-20.6,11.2-13.8-7.3-10.7-21.1-10.7-21.1Z" fill="#483432"/>
    <path d="M141.5,80.3c17.8.9,21.6-13.2,15.9-21.5-5.8-8.3-16-7.9-19.9-7.4-3.9.5-14.1,6.3-17.2,12.3,0,0,3.4,15.7,21.2,16.6ZM122.6,64c2.7-5.2,11.7-10.4,15.1-10.8,3.4-.5,12.4-.7,17.5,6.5,5.1,7.3,1.7,19.7-13.9,18.9s-18.6-14.6-18.6-14.6Z" fill="#483432"/>
    <path d="M72.5,62s-32.9-5.6-46.7,22.1c-13.8,27.7,14.8,32.8,24.9,24.7,10.1-8.2,8.8-32.3,18.9-42.4l-.5-2.4s-7.4,5.5-10.6,22.1c-3.2,16.6-7.5,22.9-16.7,24.1-9.2,1.2-17.8-3.7-17.7-13.2.2-9.5,8-21.5,18.7-27.8,10.8-6.3,28.8-5.4,28.8-5.4l.8-1.7Z" fill="#483432"/>
    <path d="M91.5,48.2s-32.1-5.5-45.9,22.2c-13.8,27.7,14.8,32.8,24.9,24.7,10.1-8.2,8.8-32.3,18.9-42.4l-1-2s-6.8,5.1-10,21.7c-3.2,16.6-7.5,22.9-16.7,24.1-9.2,1.2-17.8-3.7-17.7-13.2.2-9.5,8-21.5,18.7-27.8,10.8-6.3,28.8-5.4,28.8-5.4v-1.8Z" fill="#483432"/>
  </g>
  <path d="M446.2,328c0,0-.1,0-.2,0-.9-.1-1.5-.9-1.4-1.8,2.1-16.4,0-29.5,0-29.7-.1-.9.5-1.7,1.3-1.9.9-.1,1.7.5,1.9,1.3,0,.6,2.2,13.8,0,30.6-.1.8-.8,1.4-1.6,1.4Z" fill="#483432"/>
  <path d="M415.6,363.4c-.4,0-.8-.1-1.1-.4-.2-.2-17.1-15.5-34.7-21.1-.8-.3-1.3-1.1-1.1-1.9.2-.8,1-1.4,1.9-1.2.3,0,27.5,5.2,37,1.2.3-.1.5-.2.6-.3-2.8-3.2-26.3-8.9-34.7-9.7-.9,0-1.6-.9-1.5-1.8,0-.9.9-1.5,1.8-1.5,3.8.4,12.7,2,21,4.3,16.2,4.4,16.6,7,16.8,8.3.2,1-.2,2.5-2.7,3.6-5.9,2.5-17.3,1.9-26.2.9,13.2,6.9,23.5,16.3,24.1,16.8.7.6.7,1.6,0,2.3-.3.3-.8.5-1.2.5Z" fill="#483432"/>
</svg>