<?xml version="1.0" encoding="UTF-8"?>
<svg xmlns="http://www.w3.org/2000/svg" version="1.1" viewBox="0 0 512 759.2">
  <!-- Generator: Adobe Illustrator 28.6.0, SVG Export Plug-In . SVG Version: 1.2.0 Build 709)  -->
  <g>
    <g id="icon">
      <g>
        <g>
          <path d="M150.5,120.7s13.6-32.1,50.6-23.7c42.7,9.7,29.7,63.9,29.7,63.9,0,0-52.5,22-68.3,11.4-15.7-10.7-12-51.6-12-51.6Z" fill="#20273f"/>
          <path d="M216.7,147.7s41.3-55.4,87.9-26.4c59.4,36.9,9.4,91.3,9.4,91.3,0,0-77.2-23.9-94.7-43.9-8.9-10.3-2.6-20.9-2.6-20.9Z" fill="#20273f"/>
        </g>
        <path d="M309.3,147.7c-.4,0-.9-.2-1.2-.6,0,0-5.9-7.2-15.2-12.1-12.3-6.4-24.5-6-36.4,1.3-.7.4-1.6.2-2.1-.5-.4-.7-.2-1.6.5-2.1,30.6-18.8,55.3,11.2,55.6,11.5.5.6.4,1.6-.2,2.1-.3.2-.6.3-.9.3Z" fill="#efefef"/>
        <path d="M292.7,155.6c-.4,0-.9-.2-1.2-.6h0c-.4-.4-8.8-10.6-21.8-4.8-.8.3-1.7,0-2-.8-.3-.8,0-1.7.8-2,15.1-6.8,25.3,5.5,25.4,5.6.5.6.4,1.6-.2,2.1-.3.2-.6.3-1,.3Z" fill="#efefef"/>
        <path d="M238.9,116.9c-.5,0-1-.3-1.3-.7-8.4-13.5-18.7-21.4-30.8-23.5-21-3.7-40.3,11.4-40.5,11.6-.7.5-1.6.4-2.1-.2-.5-.7-.4-1.6.2-2.1.8-.7,20.6-16.1,42.9-12.2,13,2.3,24,10.7,32.9,24.9.4.7.2,1.6-.5,2.1-.2.2-.5.2-.8.2Z" fill="#20273f"/>
        <path d="M214.5,139.2s0,0,0,0c-.8,0-1.5-.7-1.4-1.6.3-7.7-1.4-13.7-5.3-17.8-5.3-5.7-13-6-13-6-.8,0-1.5-.7-1.5-1.5,0-.8.7-1.5,1.5-1.5.4,0,8.9.3,15.2,6.9,4.5,4.8,6.5,11.5,6.1,20,0,.8-.7,1.4-1.5,1.4Z" fill="#efefef"/>
        <path d="M317.1,530.3l17.3-73.2-78.5-4.2s-12.3,65-7.9,93.7c4.5,28.7,60.6,2.9,69-16.3Z" fill="#e0a879"/>
        <path d="M435.4,675.6s-60.6-87.3-82.8-113.8c-22.2-26.5-31.6-58.8-14.6-70.9,11.4-8.1,49.4-1,80.2,41.9,30.9,42.9,61.2,124.8,61.2,124.8l-44,18Z" fill="#e0a879"/>
        <path d="M401.3,718.8s17.8-14.6,22.5-22.1c4.8-7.5,5.8-14.2,5.8-14.2l8.5-4.7s-.8,21.4-14.3,30.5c-13.5,9-20,15.5-20,15.5l-2.5-5Z" fill="#20273f"/>
        <path d="M430.4,668.4s7,16-5.8,32c-11,13.8-43,29-27.9,44.7,7,7.3,41.2-17.1,68.1-30,26.9-12.8,35.9-13.5,38.2-29,2.3-15.5-19.8-20.8-28.5-41.1l-44.1,23.4Z" fill="#efefef"/>
        <path d="M406.1,758.2l103-55.6c2.8-1.5,3.7-5,2.1-7.9h0c-1.6-2.8-5.1-3.9-7.9-2.4l-103,55.6c-2.8,1.5-3.7,5-2.1,7.9h0c1.6,2.8,5.1,3.9,7.9,2.4Z" fill="#20273f"/>
        <path d="M398.2,755.7s-17.9-20.5,3.2-37.2c0,0,9.2,6.4,26.9-8.4,17.7-14.8,19.2-35.7,19.2-35.7,0,0,26.9-11.6,39.1-18.5,0,0,20.4,18.3,25.3,40.7l-113.6,59.2Z" fill="#20273f"/>
        <path d="M423.5,716.9c-.1,0-.2,0-.4,0-8.1-1.9-11.4-7.2-11.5-7.4-.4-.7-.2-1.6.5-2.1.7-.4,1.6-.2,2.1.5.1.2,2.9,4.5,9.7,6.1.8.2,1.3,1,1.1,1.8-.2.7-.8,1.2-1.5,1.2Z" fill="#20273f"/>
        <path d="M433,707.2c-.1,0-.2,0-.4,0-8.1-1.9-11.4-7.2-11.5-7.4-.4-.7-.2-1.6.5-2.1.7-.4,1.6-.2,2.1.5.1.2,2.9,4.5,9.7,6.1.8.2,1.3,1,1.1,1.8-.2.7-.8,1.2-1.5,1.2Z" fill="#20273f"/>
        <path d="M340.6,545s-22.4-34.3-13.3-70.2c9.1-35.9,63.8-20.1,63.8-20.1l13.1,73.2s-36.5,42.7-63.7,17.1Z" fill="#e0a879"/>
        <g>
          <path d="M.1,248.4s-3.3,52.5,23.3,52.7c22.3.2,29.3-17.4,31.6-47.7,2.4-30.8,13.3-87.8,8.8-97.2-8.2-17.2-20.7-17.2-34.3,8.1C16,189.8,4.5,211.8.1,248.4Z" fill="#e0a879"/>
          <path d="M6.8,289.8s9.3,23.2,50.8,12.5c41.6-10.7,87.2-22.4,111.3-39.4,24.1-16.9,4.7-60.8-32.5-51.6-37.8,9.4-107.7,46.3-107.7,46.3,0,0-33.1,14-21.9,32.2Z" fill="#efefef"/>
        </g>
        <path d="M378,239c62.3,32.3,41.6,132.9,41.6,132.9l-11.9,119.7-164.8,2.2c-7.3-103.1,31.4-194.7,31.4-194.7,0,0,20.4-2.4,55.9-13.5,20.3-6.3,47.8-46.6,47.8-46.6Z" fill="#20273f"/>
        <path d="M275.4,711.7s-16.9-111.7-24.1-144c-7.2-32.3-3.9-56.2,17-62,14.1-3.9,43-21.2,50.1,29.5,7.1,50.6,4.4,176.6,4.4,176.6h-47.5Z" fill="#e0a879"/>
        <path d="M205.9,163.9s-84.4,6.6-97.5,69.8c-5.4,26.1,20.9,55.2,62.9,63.7,20.7,4.2,44.2-2,99.6,18.4,0,0,87.7-17.1,107.1-76.8,0,0-84.9-75.1-172-75.1Z" fill="#efefef"/>
        <path d="M172.3,209.1c19.5-18.5,11.7-37.9,11.7-37.9,0,0-22.6,4.3-30.3,9.3-21,13.7-27.5,21.7-35.6,36.8,0,0,29.3,15.5,54.1-8.2Z" fill="#e0a879"/>
        <path d="M221.5,722.4s22.6-4.4,30.3-8.6c7.8-4.3,11.8-9.7,11.8-9.7h9.7c0,0-10.9,18.4-27.1,19.9-16.2,1.5-24.9,4.1-24.9,4.1l.2-5.6Z" fill="#20273f"/>
        <path d="M272.3,692s-2.7,17.4-21.6,25.3c-16.2,6.9-51.6,5-45.9,26,2.7,9.8,44.4,4.6,74.1,6.1,29.7,1.5,38,5.3,47.4-7.3,9.4-12.6-3.7-27.8-3.3-49.7l-50.8-.5Z" fill="#efefef"/>
        <path d="M206.9,759.2h117.5c3.2-.1,5.7-2.7,5.7-6h0c0-3.2-2.6-5.9-5.8-5.8h-117.5c-3.2.1-5.7,2.7-5.7,6h0c0,3.2,2.6,5.9,5.8,5.8Z" fill="#20273f"/>
        <path d="M201.1,753.4s-5.9-26.3,20.7-31c0,0,5,10,27.8,5.3,22.8-4.6,34.1-22.2,34.1-22.2,0,0,29.3,2.6,43.4,2.2,0,0,9.1,25.6,2.7,47.4l-128.7-1.8Z" fill="#20273f"/>
        <path d="M242.6,731.5c-.4,0-.7-.1-1-.4-6.2-5.5-6.6-11.8-6.6-12,0-.8.6-1.5,1.4-1.6.8,0,1.5.6,1.6,1.4,0,.2.4,5.3,5.6,10,.6.6.7,1.5.1,2.1-.3.3-.7.5-1.1.5Z" fill="#20273f"/>
        <path d="M255.6,727.5c-.4,0-.7-.1-1-.4-6.2-5.5-6.6-11.8-6.6-12,0-.8.6-1.5,1.4-1.6.8,0,1.5.6,1.6,1.4,0,.2.4,5.3,5.6,10,.6.6.7,1.5.1,2.1-.3.3-.7.5-1.1.5Z" fill="#20273f"/>
        <g>
          <path d="M242.9,375.5s-1.9-22.7,11.2-26.5c13.1-3.8,36-9.7,59.7-10.1s43.5-7.2,51.2,20.8c7.6,28,11.2,82.4,10.8,83.6s-104.9,13.9-112.7,14.7-16.1-5.8-17-9.6c-2.2-8.7.8-25.7,0-34.1-1.3-14.2-3.3-30.6-3.1-38.8Z" fill="#7f93b3"/>
          <path d="M261.5,376.3c-.7,0-1.4-.6-1.5-1.3-.1-.8.5-1.6,1.3-1.7.2,0,18.1-2.4,45-4.6,26.7-2.1,49.7-7.7,49.9-7.8.8-.2,1.6.3,1.8,1.1.2.8-.3,1.6-1.1,1.8-.2,0-23.4,5.7-50.4,7.9-26.8,2.2-44.6,4.5-44.8,4.6,0,0-.1,0-.2,0Z" fill="#efefef"/>
          <path d="M290.8,440.6s-1.7-22.2-4.3-29.2c-2.6-7-1.9-17.4-1.9-19.9,0,0,31.9-5.3,55.3-6.5,0,0,.8,17.3,3.3,24.2,2.5,6.9,4,20,3.4,24.8,0,0-35.1,5.2-55.8,6.6Z" fill="#efefef"/>
          <path d="M261.6,454.1c-1.9,0-1.9-1.1-2.3-8.4-.4-9-1.3-25.7-6-37.9-7.1-18.4-2.5-45.8-2.3-47,.1-.8.9-1.4,1.7-1.2.8.1,1.4.9,1.2,1.7,0,.3-4.6,27.8,2.1,45.4,4.9,12.7,5.7,29.7,6.2,38.9.1,2.6.3,5.2.4,6.1.2.3.3.6.3.9,0,.8-.7,1.5-1.5,1.5ZM261.6,451.1h0ZM261.6,451.1h0,0ZM261.6,451.1h0,0ZM261.6,451.1h0,0Z" fill="#efefef"/>
        </g>
        <path d="M184.6,182.6c-2.6,3.1-4.6,6.6-5.7,10.5-16.5,57.6,71.1,135.8,80,148.4,9.2,13.1,11.2,39.3,11.2,39.3l13.5-1.1s-3.2-28.4-10.7-40c-7.5-11.6-52.6-63.3-69.6-93-14.9-26,34.3-66.8,6.1-72.8-9.2-1.9-18.8,1.5-24.9,8.7h0Z" fill="#20273f"/>
        <path d="M354.7,370.7l-11.4,1.4s-8.6-49.5-20.4-72.6c-11.7-23.1-33-43.9-36.9-47.4-71.7-65.3-51.2-68.9-51.2-68.9,0,0,95.9,97,103.1,117.8,7.2,20.8,16.5,64.4,16.7,69.8Z" fill="#20273f"/>
        <g>
          <path d="M213.6,301.1s-3,76.8,8.2,121.2c0,0,32.7,12.6,34.5-1.2,4.2-32.5,5.3-114.5,5.3-114.5l-47.9-5.6Z" fill="#e0a879"/>
          <path d="M215.7,175.9c-7.4-.9-15.5,3.6-19.4,10-6,9.8-5.2,32-1,56.6,7.4,43.1,15,76.3,30.9,82.6,44.8,17.8,39.9-20.8,33.4-83.1-5.6-53.7-26.8-64-43.9-66.2Z" fill="#efefef"/>
          <g>
            <path d="M218.6,402.1c.1,17.9,13.4,54.5,20.5,61.1,12.8,11.7,31.1,12.9,33,12.3,8.6-2.7-23.7-16.5-23.7-16.5,0,0,19.3,6.9,24.1,7.3,4.8.4,12.9-.9,10.5-4.2-2.4-3.3-18.6-5.9-25.8-10.8,0,0,34,12.6,29.3.4,0,0,7.4-3.5-1.3-7.9-8.7-4.4-19.8-9.5-21.4-10,0,0-1.5-11.3-8.9-26.6-2.5-5.1-36.3-19.3-36.2-5.1Z" fill="#e0a879"/>
            <path d="M285.9,453.8c0,0-.2,0-.3,0-.6-.1-14.8-3-26.8-9.9-.7-.4-1-1.3-.6-2.1.4-.7,1.3-1,2.1-.6,11.6,6.6,25.8,9.6,25.9,9.6.8.2,1.3,1,1.2,1.8-.1.7-.8,1.2-1.5,1.2Z" fill="#20273f"/>
          </g>
        </g>
        <path d="M67.2,159.4s-17,6.7-27.2-11.4c-10.2-18.2,2.5-33.5,2.5-33.5,0,0-6.9-18.4,9.6-40,11.8-15.4,45.5-34.3,80.8-16.6,53.8,27,41.6,78.5,41.6,78.5l-107.4,23Z" fill="#20273f"/>
        <path d="M73.9,78.5h0c25-14.8,55.9-11.5,70.7,13.5l12.3,29.3c21.5,52.7-19.1,71.9-19.1,71.9-25.6,15.1-50.8,2.9-65.6-22.1l-15.9-26.9c-14.8-25-7.5-50.9,17.5-65.7Z" fill="#e0a879"/>
        <path d="M161.7,114.3s-36.2,1.1-46.5-27.4c-10.4-28.5,37.4-8.6,37.4-8.6,0,0,21.5,21.5,9.1,36Z" fill="#20273f"/>
        <ellipse cx="77.7" cy="153.8" rx="3.6" ry="4" transform="translate(-60.2 50.4) rotate(-26.3)" fill="#20273f"/>
        <ellipse cx="110.1" cy="134.2" rx="3.6" ry="4" transform="translate(-48.1 62.8) rotate(-26.3)" fill="#20273f"/>
        <path d="M135.7,79.4s-4.1,14.9-14.2,22.8c-16.8,13.1-32.3-1.3-32.3-1.3,0,0-12.2,34.4-43.5,19.9-6.3-2.9,2.3-56.1,47.8-52.2,46.9,4,42.2,10.9,42.2,10.9Z" fill="#20273f"/>
        <path d="M100.1,172c-.1,0-.3,0-.5,0-.8-.2-1.2-1.1-1-1.9,0-.1,4.7-14.5,21.6-12.9.8,0,1.4.8,1.4,1.6,0,.8-.8,1.5-1.6,1.4-14.4-1.4-18.3,10.3-18.4,10.8-.2.6-.8,1.1-1.4,1.1Z" fill="#20273f"/>
        <path d="M92,84.9c38-3.8,55.8,26.2,55.8,26.2l7.2-3.6s-5.5-33-40.4-41c-70-16-84.1,54-75,56.3,0,0,9.9-33.6,52.3-37.9Z" fill="#a77659"/>
        <path d="M75,199.8c-.5,0-.9-.2-1.2-.6-.5-.7-.4-1.6.3-2.1.1,0,2.8-2.2,3.1-6.5.4-4.9-2.4-10.9-8.1-17.2-13-14.3-11.6-24.9-11.5-25.3.1-.8.9-1.4,1.7-1.3.8.1,1.4.9,1.3,1.7,0,.2-1.1,9.8,10.8,22.8,6.5,7.1,9.5,13.7,8.9,19.6-.5,5.6-4.2,8.4-4.3,8.5-.3.2-.6.3-.9.3Z" fill="#20273f"/>
        <path d="M55.7,156.3s15-19.9,5.5-39.8l-18.2,4.1,12.7,35.6Z" fill="#20273f"/>
        <path d="M96.2,158.5c-.6,0-1.1-.3-1.4-.8-.7-1.5-1.4-4.7,1.6-6.6,2.5-1.6,5.3-.3,6.6.7.7.5.8,1.5.2,2.1-.5.7-1.5.8-2.1.2,0,0-1.8-1.3-3-.5-1.4.9-.6,2.5-.5,2.7.4.7,0,1.7-.7,2-.2.1-.4.2-.7.2Z" fill="#20273f"/>
        <path d="M150,102.4c3.9-2.6,15.4-4,20.2,10.2,4.8,14.2-13.3,20.5-13.3,20.5l-14.9-21c2.3-4.1,4.1-7.2,8-9.8Z" fill="#e0a879"/>
        <path d="M152,120.1c-.6,0-1.2-.4-1.4-1-.8-2.3-.8-7.4,4.4-10.2.7-.4,1.7-.1,2,.6.4.7.1,1.7-.6,2-4.2,2.2-3.1,6.1-2.9,6.6.2.8-.2,1.6-1,1.9-.2,0-.3,0-.5,0Z" fill="#20273f"/>
        <path d="M153,138.1h0c-.8,0-1.5-.7-1.5-1.5,0-.5,0-12.3-12.8-18.2-14.9-6.8-11.8-22.5-11.8-22.7.2-.8,1-1.3,1.8-1.2.8.2,1.3,1,1.2,1.8-.1.6-2.6,13.6,10.1,19.3,14.7,6.7,14.6,20.4,14.6,21,0,.8-.7,1.5-1.5,1.5Z" fill="#20273f"/>
        <path d="M113.7,186.4s8.6,14.8,14.3,25.6c2.8,5.3,9.3,7.3,14.5,4.4,6.1-3.3,14.6-8.3,24.4-15.3,19.9-14.2,11.5-21.6,11.5-21.6,0,0-15.1-21.1-21.1-35.6l-43.6,42.4Z" fill="#e0a879"/>
        <path d="M123.6,200.4c-.7,0-1.3-.4-1.5-1.1-.2-.8.2-1.6,1-1.9.3,0,25.9-7.6,33.9-30.3.3-.8,1.1-1.2,1.9-.9.8.3,1.2,1.1.9,1.9-8.6,24.1-34.8,31.9-35.9,32.2-.1,0-.3,0-.4,0Z" fill="#20273f"/>
        <g>
          <path d="M55.9,181.7c-12.2,6.8-27.4-1.1-29.3-14.9s-3.5-17.7-3.9-27.3c-.6-14.9,3.5-31.8,5.1-32.8,7.7-4.5,5.3,29.2,5.3,29.2,0,0,2-14.9,8.7-23.8,2.8-3.8,9.2-8.8,10-4.8.8,4-8.3,16.4-7.4,27.4,0,0,13.3-33.1,19-21.6,0,0,7.4-3.1,4.9,6.2-2.5,9.3-6.1,20.7-6.9,22.2,0,0,5.8,11.6,3.2,28.2-.9,5.5-4.3,9.7-8.7,12.2Z" fill="#e0a879"/>
          <path d="M53.2,140.1c-.1,0-.2,0-.3,0-.8-.2-1.3-1-1.1-1.8,2.9-13.3,10.2-25.6,10.5-26.1.4-.7,1.4-1,2.1-.5.7.4,1,1.4.5,2.1,0,.1-7.3,12.4-10.2,25.2-.2.7-.8,1.2-1.5,1.2Z" fill="#20273f"/>
        </g>
        <g>
          <rect x="281.6" y="1.5" width="68.8" height="40.6" rx="6" ry="6" fill="#efefef"/>
          <path d="M276.5,7.6h5.2v28.4h-5.2c-2.8,0-5-2.2-5-5V12.6c0-2.8,2.2-5,5-5Z" fill="#efefef"/>
          <path d="M327.8,9.4h10.5c1.7,0,3,1.3,3,3v18.9c0,1.7-1.3,3-3,3h-10.5V9.4h0Z" fill="#e0a879"/>
        </g>
        <path d="M243.1,330.5c-.3,0-.7,0-1,0h-.5c-11.9-.8-22.5-7.6-28.4-18.3-5.6-10.1-13.1-26.8-17.5-49.6-.2-.8.4-1.6,1.2-1.8.8-.2,1.6.4,1.8,1.2,4.3,22.4,11.7,38.9,17.2,48.8,5.4,9.7,15.3,16.1,26,16.7h.4c7.5.4,14.5-4,17.4-11,1.2-2.9,1.9-5.9,2-8.9,0-.5,2.2-43.8-5.7-87.3-.1-.8.4-1.6,1.2-1.8.8-.1,1.6.4,1.8,1.2,8,43.8,5.8,87.5,5.7,88,0,3.3-.8,6.7-2.2,10-3.3,7.8-11,12.9-19.3,12.9Z" fill="#20273f"/>
        <path d="M378.9,243.3c-.4,0-.7-.1-1-.4-.4-.3-35.4-31.1-58.5-44.4-.7-.4-1-1.3-.6-2.1.4-.7,1.3-1,2.1-.6,23.4,13.5,58.7,44.5,59,44.8.6.6.7,1.5.1,2.1-.3.3-.7.5-1.1.5Z" fill="#20273f"/>
        <path d="M209.2,302.1s0,0,0,0c-.2,0-18.8-1.1-25.7-1.7-5.9-.6-36.4-4.3-56.3-21.6-.5-.4-12.7-10.2-14.8-33.6,0-.8.5-1.6,1.4-1.6.8,0,1.6.5,1.6,1.4,1.1,11.5,4.7,19.5,7.7,24.1,3.1,5,6.1,7.4,6.1,7.4,19.2,16.7,48.9,20.3,54.6,20.9,6.9.7,25.4,1.7,25.6,1.7.8,0,1.5.8,1.4,1.6,0,.8-.7,1.4-1.5,1.4Z" fill="#20273f"/>
        <path d="M36.2,307c-9.3,0-15.2-2.7-22.7-7.3-5.9-3.6-9.5-10.5-9.5-18,0-6.9,3.2-12.8,8.3-15.8,9.3-5.5,72.3-39.5,99.4-47.7,1-2.4,4.7-10.4,9.1-15.2.6-.6,1.5-.7,2.1,0,.6.6.7,1.5,0,2.1-4.8,5.2-8.8,14.9-8.8,15-.2.4-.5.7-1,.9-25.2,7.4-86.5,40.1-99.4,47.6-4.2,2.5-6.7,7.4-6.8,13.3,0,6.4,3,12.3,8,15.3,12.5,7.6,20.1,9.8,49.4,1.8,29.2-7.9,66.6-19.5,66.9-19.6.8-.2,1.6.2,1.9,1,.2.8-.2,1.6-1,1.9-.4.1-37.8,11.7-67,19.6-13.1,3.5-22.1,5.1-29.1,5.1Z" fill="#20273f"/>
        <g>
          <path d="M344.4,43.6h-56.7c-4.2,0-7.6-3.4-7.6-7.6V7.6c0-4.2,3.4-7.6,7.6-7.6h56.7c4.2,0,7.6,3.4,7.6,7.6v28.5c0,4.2-3.4,7.6-7.6,7.6ZM287.7,3c-2.5,0-4.5,2-4.5,4.5v28.5c0,2.5,2,4.5,4.5,4.5h56.7c2.5,0,4.5-2,4.5-4.5V7.6c0-2.5-2-4.5-4.5-4.5h-56.7Z" fill="#20273f"/>
          <path d="M281.6,37.5h-5.2c-3.6,0-6.5-2.9-6.5-6.5V12.6c0-3.6,2.9-6.5,6.5-6.5h5.2c.8,0,1.5.7,1.5,1.5v28.4c0,.8-.7,1.5-1.5,1.5ZM276.5,9.1c-1.9,0-3.5,1.6-3.5,3.5v18.3c0,1.9,1.6,3.5,3.5,3.5h3.7V9.1h-3.7Z" fill="#20273f"/>
        </g>
        <path d="M307.3,752.7c-3.8,0-8.2-.3-13.6-.7-4.3-.3-9.1-.7-14.7-1-9.3-.5-19.7-.3-29.8-.1-27,.5-43.7.4-45.7-7.1-1.2-4.3-.8-8.1,1.1-11.2,4.5-7.4,16.8-9.8,28.6-12.2,6.4-1.3,12.5-2.5,17-4.4,17.8-7.5,20.7-24,20.7-24.2.1-.7.8-1.3,1.5-1.3h0l50.8.5c.4,0,.8.2,1.1.5.3.3.4.7.4,1.1-.2,8.8,1.9,16.7,3.8,23.6,2.8,10.2,5.1,19-.8,27-5.7,7.7-11.2,9.6-20.4,9.6ZM264.9,747.7c4.9,0,9.7,0,14.2.3,5.7.3,10.5.7,14.8,1,18.1,1.4,24.2,1.8,31.3-7.7,5.1-6.8,3-14.5.3-24.4-1.8-6.7-3.9-14.3-3.9-22.9l-48-.4c-1,4.3-5.6,18.2-22.2,25.2-4.8,2-11,3.3-17.6,4.6-11.2,2.2-22.8,4.5-26.6,10.8-1.5,2.4-1.7,5.3-.8,8.8,1.5,5.6,23.4,5.2,42.8,4.9,5.2,0,10.6-.2,15.8-.2Z" fill="#20273f"/>
        <path d="M400.6,748c-2.1,0-3.8-.6-5-1.8-3.1-3.2-4.6-6.7-4.4-10.4.5-8.6,10.1-16.6,19.3-24.3,5-4.2,9.8-8.2,12.9-12,12-15,5.8-29.8,5.6-30.4-.3-.7,0-1.6.7-1.9l44.1-23.4c.4-.2.8-.2,1.2,0,.4.1.7.4.9.8,3.8,8.9,10.4,15,16.3,20.3,7.3,6.7,13.6,12.4,12.3,21.7-2,13.4-8.9,16.5-25.6,24-3.9,1.7-8.3,3.7-13.4,6.2-8.4,4-17.4,9.1-26.2,14.1-18.3,10.3-31.2,17.4-38.6,17.4ZM432.3,669.2c1.4,4.3,4.7,18.2-6.5,32.2-3.3,4.1-8.1,8.1-13.3,12.4-8.8,7.3-17.8,14.8-18.3,22.2-.2,2.8,1,5.5,3.5,8.1,4,4.2,23.1-6.6,39.9-16.1,8.8-5,18-10.1,26.4-14.2,5.1-2.4,9.6-4.4,13.5-6.2,16.6-7.4,22.2-9.9,23.9-21.7,1.1-7.7-4.4-12.7-11.3-19-5.7-5.2-12.2-11.1-16.3-19.8l-41.5,22Z" fill="#20273f"/>
        <path d="M139.8,223.8c-12.5,0-21.4-4.8-21.5-4.8-.7-.4-1-1.3-.6-2,.4-.7,1.3-1,2.1-.6.2.1,22.1,11.7,44.7-2.9,13.4-8.7,18-19.2,19.5-26.6,1.4-6.7.4-12.2-.7-13.9-.5-.7-.3-1.6.4-2.1.7-.5,1.6-.3,2.1.4,1.7,2.5,2.7,8.6,1.2,16.2-1.6,7.9-6.6,19.2-20.9,28.5-9.3,6-18.5,7.9-26.3,7.9Z" fill="#20273f"/>
      </g>
    </g>
  </g>
</svg>