<?xml version="1.0" encoding="UTF-8"?>
<svg xmlns="http://www.w3.org/2000/svg" version="1.1" viewBox="0 0 744.4 512">
  <!-- Generator: Adobe Illustrator 28.6.0, SVG Export Plug-In . SVG Version: 1.2.0 Build 709)  -->
  <g>
    <g id="icon">
      <g>
        <path d="M73.6,233.4s-46,15.4-61.4,53.1c-15.4,37.7-6.8,201.1-6.8,201.1l730.2-.5s17-139.1-.2-245.7l-661.9-8.1Z" fill="#efefef"/>
        <path d="M5.4,488.9c-.7,0-1.3-.6-1.3-1.3,0-.4-2.1-41.4-2.4-86.5-.3-60.7,2.8-99.4,9.3-115.2,15.4-37.8,61.8-53.7,62.2-53.9.7-.2,1.5.1,1.7.8.2.7-.1,1.5-.8,1.7-.5.2-45.6,15.7-60.6,52.3-15.1,37-6.8,198.9-6.7,200.5,0,.7-.5,1.4-1.3,1.4,0,0,0,0,0,0Z" fill="#20273f"/>
        <path d="M735.6,488.5c0,0-.1,0-.2,0-.7,0-1.3-.8-1.2-1.5.2-1.4,16.8-140.1-.1-245.3-.1-.7.4-1.4,1.1-1.5.7-.1,1.4.4,1.5,1.1,17,105.5.3,244.6.2,246,0,.7-.7,1.2-1.3,1.2Z" fill="#20273f"/>
        <path d="M218.7,284.6c-1.7,6.5-6.9,11.5-13.4,13-19.8,4.5-61.5,9.4-96.6-17.7-48-37-88.1-35.2-101.3-51.8-13.2-16.6-6-19.7.7-24.4,6.7-4.7,57.8-61.1,69.1-85.8C109.2,47.4,151.8,25,179.9,4.4c17.4-12.8,21.7,5.9,25.3,12.8,17.3,34,105.2,51.6,126.1,49.2,13.2-1.5,23.3,28.8-21.1,48.4s-80.5,127.9-91.4,169.9Z" fill="#a77659"/>
        <path d="M96.3,197.9s35.7-.2,54.9,37.3c22.4,43.6,79.2,95.5,124.1,35.9,39-51.9,1.3-95.4-56.3-106.5-35.7-6.9-52.1-12.2-84.4-39.4-12.8-10.8-26.2-24.3-59-30.6-32.8-6.3-41.1,101.3,20.8,103.3Z" fill="#20273f"/>
        <g>
          <path d="M465.3,275.3s104.7,1.5,264.4-2l-67.8-126.5s-96.5-63.7-198.1-10.1c0,0,1.5,19.3,1.5,138.6Z" fill="#7f93b3"/>
          <path d="M216,233.7s14.7,50.7,89.6,54.7c24.9,1.3,68-12.6,97-11.4,10.7.4,40-.3,62.6-1.7,0,0,6.8-13.8,12.6-60.7,8.6-69,22.5-79.9,22.5-79.9l-139.3-44.6c-90-11.2-116.7-7.4-116.7-7.4-13.5,17.8-18.8,41-18.8,41-21.1,72.4-9.5,110-9.5,110Z" fill="#7f93b3"/>
          <g>
            <g>
              <path d="M64.9,77.9h0c23-29.8,65.7-35.3,95.5-12.3l28.9,29.3c51.1,53,11.6,95.6,11.6,95.6-23.5,30.4-59.7,27.9-89.4,4.9l-32-24.7c-29.8-23-37.4-63-14.4-92.7Z" fill="#e0a879"/>
              <path d="M59.1,154.6c4.4,7.8,14.1,10.9,22,6.7.1,0,.2-.1.3-.2,6-3.3,10.2-8.9,11.8-15.3.4-1.6,1.4-3.8,2.3-6.6,3.3-10.2,17.1-20,29-12.4,23.8,15.2,32.5,3.1,36.1-7.8,1.6-4.9,30.2-87.3,4.1-89.5,0,0-89.3-19.6-110.8,56.9,0,0-13.8,34.5,5.3,68.3Z" fill="#20273f"/>
              <path d="M133.4,188.2c-.3,0-.7-.1-.9-.4-1.4-1.3-3.3-4.7-.8-8,2.7-3.4,7.4-1.8,7.6-1.7.7.2,1.1,1,.8,1.7-.2.7-1,1.1-1.7.8,0,0-3.1-1-4.6.8-1.6,2.1.4,4.1.6,4.4.5.5.5,1.4,0,1.9-.3.3-.6.4-1,.4Z" fill="#20273f"/>
              <path d="M148.9,196.9c-.5,0-1-.3-1.2-.8,0-.2-2-4.8.4-10,2.1-4.7,6.9-8.4,14.3-10.8.7-.2,1.5.1,1.7.8.2.7-.1,1.5-.8,1.7-6.6,2.2-10.9,5.4-12.7,9.4-1.9,4.2-.4,7.8-.4,7.8.3.7,0,1.5-.7,1.8-.2,0-.3.1-.5.1Z" fill="#20273f"/>
              <path d="M130.1,164.4c-.7,0-1.3-.6-1.3-1.3,0-.7.6-1.4,1.3-1.4h0c.4,0,10.6-.4,13.6-9,.2-.7,1-1.1,1.7-.8.7.2,1.1,1,.8,1.7-3.7,10.3-15.6,10.7-16.1,10.8,0,0,0,0,0,0Z" fill="#20273f"/>
              <path d="M116.3,196.9c-.3,0-.6,0-.8-.3-.6-.4-.7-1.3-.3-1.9,5.3-7,2.7-12.3,2.6-12.5-.3-.7,0-1.5.6-1.8.6-.3,1.5-.1,1.8.5.2.3,3.6,6.9-2.8,15.4-.3.3-.7.5-1.1.5Z" fill="#20273f"/>
            </g>
            <path d="M183.8,198.4s11.5,4.3,30.4,11.3c0,0,17.2-4.9,27.2-30,6.7-17,3.2-36.2,3.2-36.2,0,0-30.6-18.3-43.2-25.4l-17.6,80.4Z" fill="#e0a879"/>
            <path d="M182.2,209.4c-.5,0-.9-.2-1.2-.7-.4-.6-.1-1.5.5-1.8,1-.6,25.1-14.8,18.9-47.9-.1-.7.3-1.4,1.1-1.6.7-.1,1.4.3,1.6,1.1,3.5,18.3-2.2,31.1-7.5,38.6-5.8,8.2-12.4,12-12.6,12.1-.2.1-.4.2-.7.2Z" fill="#20273f"/>
            <path d="M182.2,136.8s36.1-9,77.8,32.4c41.9,41.6,132.9,67.8,166.2-15.1,29-72.1-36.1-98.7-110.2-90.4-45.9,5.2-64.2-3.3-113.2-22.1-19.4-7.4-40.5-17.8-82.7-12.9-42.2,4.8-13.9,128.2,62.1,108.1Z" fill="#20273f"/>
            <path d="M155,113.8c3.4-5,16.6-12.3,29.2,2.3,12.7,14.7-11.8,40.6-11.8,40.6l-22.3-17.1c-.3-17.9,1.5-20.8,4.9-25.8Z" fill="#e0a879"/>
            <path d="M164.5,136.2c-.4,0-.8-.2-1.1-.6-5.8-8.1-.6-15.5-.5-15.6.4-.6,1.3-.7,1.9-.3.6.4.7,1.3.3,1.9-.2.3-4.1,6,.5,12.5.4.6.3,1.4-.3,1.9-.2.2-.5.3-.8.3Z" fill="#20273f"/>
            <path d="M93.5,142.2c-.1,0-.2,0-.3,0-.7-.2-1.2-.9-1-1.6,0-.2,1-3.8,5.4-6.3,6-3.5,15.1-3.5,27.1,0,14.1,4.1,18.9-3.5,22.4-9,.4-.6,1.2-.8,1.8-.4.6.4.8,1.2.4,1.8-3.5,5.5-9.3,14.7-25.4,10.1-14-4-21.3-2.4-25-.3-3.4,2-4.1,4.6-4.1,4.7-.1.6-.7,1-1.3,1Z" fill="#20273f"/>
          </g>
          <path d="M361.3,325.3s56.5-36.2,73.2-6.6c14,24.8-1.3,43.5-33.7,64.8-32.9,21.7-96.4,67-109.5,67.9-24.2,1.5-32.3-20.2-15.9-41.6,22-28.7,47.7-57.1,85.8-84.5Z" fill="#e0a879"/>
          <path d="M436,350.3s17.6-26.5-23.8-62.4c-41.4-35.8-80.9-62.6-116.1-75.6-35.3-13-89,24.3-52.2,56.6s138.2,86.2,138.2,86.2c0,0,43,20.2,54-4.8Z" fill="#e0a879"/>
          <path d="M327.2,326.5s41.3-35.6,45.6-72.6c0,0-58.5-49.6-86.9-50.3-47.1-1.1-68.5,32.2-55,52.4,0,0,24.6,38.9,96.4,70.5Z" fill="#7f93b3"/>
          <g>
            <path d="M316.9,419.7c-9.1-16.1-16.1-36.9-29.8-24.4-17.3,15.8-41.2,60.5-41.4,73.3-.2,22.7,14.7,41.5,16.8,42.8,10.2,6-4.7-37.4-4.7-37.4,0,0,10.1,24.7,13.9,29.7,3.8,5,12.1,11.8,13.2,6.5,1.1-5.3-10.4-23.2-12.1-34.5,0,0,17.4,44,25.1,28.8,0,0,9.8,4.2,6.5-8.1-3.3-12.3-8-27.5-9-29.6,0,0,14.4-6.6,22.8-27.2,2.8-6.9,1.8-13.9-1.5-19.8Z" fill="#e0a879"/>
            <path d="M297.1,505.8c-.5,0-.9-.2-1.2-.7,0-.2-9.9-16.9-13.7-34.5-.2-.7.3-1.4,1-1.6.7-.2,1.4.3,1.6,1,3.7,17.2,13.3,33.6,13.4,33.7.4.6.2,1.5-.5,1.8-.2.1-.4.2-.7.2Z" fill="#20273f"/>
          </g>
          <path d="M372.8,255.2c-.3,0-.6-.1-.9-.3-.4-.3-39.3-34.6-81-48-.7-.2-1.1-1-.9-1.7.2-.7,1-1.1,1.7-.9,42.2,13.5,81.6,48.2,82,48.5.6.5.6,1.3.1,1.9-.3.3-.6.5-1,.5Z" fill="#20273f"/>
          <path d="M349.9,336.3c-.3,0-.7-.1-.9-.4-.5-.5-.6-1.4,0-1.9.2-.3,6.2-6.5,18.3-12.9.7-.3,1.5,0,1.8.6.3.7,0,1.5-.6,1.8-11.7,6.2-17.6,12.3-17.6,12.3-.3.3-.6.4-1,.4Z" fill="#20273f"/>
          <path d="M596.7,136.6s109.3,14,136.7,16.4c0,0,9.4,59,6.2,121.3h-51.9c0-.1-91-137.7-91-137.7Z" fill="#7f93b3"/>
        </g>
        <path d="M127.5,228.8c-.4,0-.8-.2-1.1-.5-17.8-23.8-52.2-16.4-52.6-16.4-.7.2-1.4-.3-1.6-1-.2-.7.3-1.4,1-1.6.4,0,36.4-7.8,55.3,17.4.4.6.3,1.4-.3,1.9-.2.2-.5.3-.8.3Z" fill="#20273f"/>
        <path d="M339.4,130.7c-11.7,0-23.5-1.6-35.6-4.7-33.8-8.8-57.8-27.5-66.6-35.1-18.1-15.7-35.1-23.1-46.1-26.6-12-3.8-19.8-3.8-19.9-3.8-.7,0-1.3-.6-1.3-1.3,0-.7.6-1.3,1.3-1.3h0c1.4,0,32.4.4,67.8,31.1,8.6,7.5,32.3,25.9,65.5,34.5,32.4,8.4,63.7,5.3,93-9.4.7-.3,1.5,0,1.8.6.3.7,0,1.5-.6,1.8-19,9.5-38.9,14.3-59.3,14.3Z" fill="#efefef"/>
        <path d="M341.1,163.8c-13.8,0-28.3-2.8-43.2-8.3-30-11.1-54.5-30.7-64.3-40.5-26.1-26.2-52-37.7-69.1-42.8-18.5-5.5-30.9-4.8-31.1-4.8-.7,0-1.4-.5-1.4-1.3,0-.7.5-1.4,1.3-1.4.5,0,13-.7,32,4.9,17.4,5.2,43.8,16.9,70.3,43.5,9.6,9.6,33.8,28.9,63.3,39.9,37.6,13.9,70.7,10.2,98.4-11.1.6-.4,1.4-.3,1.9.2.5.6.3,1.4-.2,1.9-15.4,11.9-32.8,18.5-51.5,19.7-2.1.1-4.2.2-6.3.2Z" fill="#efefef"/>
        <path d="M228.9,319.7c-.2,0-.3,0-.5,0-35-12.7-53.1-35.4-62.2-52.3-9.8-18.2-11.3-33.2-11.4-33.9,0-.7.5-1.4,1.2-1.5.7,0,1.4.5,1.5,1.2,0,.2,1.5,15.2,11.1,33,8.8,16.4,26.5,38.5,60.7,50.9.7.3,1.1,1,.8,1.7-.2.5-.7.9-1.3.9Z" fill="#20273f"/>
        <path d="M351.9,67.3s0,0,0,0c-52.9-2-94.5-9.5-120.1-15.4-27.7-6.4-43.2-12.4-43.3-12.5-.7-.3-1-1-.8-1.7s1-1,1.7-.8c.6.2,61.7,23.8,162.5,27.7.7,0,1.3.7,1.3,1.4,0,.7-.6,1.3-1.3,1.3Z" fill="#20273f"/>
        <path d="M457.8,147.9c-.5,0-.9-.3-1.2-.7-.4-.7-.1-1.5.5-1.8,3.4-1.9,11.6-2.1,18.2-2.4,1.1,0,2.3,0,3.4-.1-7.6-2-21.2-3.8-21.4-3.8-.7,0-1.2-.8-1.1-1.5,0-.7.8-1.3,1.5-1.1.8.1,20.2,2.7,25.7,5.2.4.2,1.8.8,1.6,2.1-.3,1.6-1.9,1.7-9.6,2-6,.2-14.2.5-17,2-.2.1-.4.2-.6.2ZM482.7,144.2h0,0Z" fill="#20273f"/>
        <path d="M477.4,207.4c-.2,0-.4,0-.6-.1-2.8-1.4-10-1-15.2-.8-6.8.3-8.8.4-9.4-1.2-.3-.8.1-1.7,1.2-2.4,6.3-4.5,22.9-6.8,23.6-6.9.7-.1,1.4.4,1.5,1.1s-.4,1.4-1.1,1.5c-.2,0-13.9,2-20.7,5.5,1.4,0,3.2-.1,4.8-.2,6.1-.3,13.1-.6,16.5,1,.7.3.9,1.1.6,1.8-.2.5-.7.8-1.2.8Z" fill="#20273f"/>
        <path d="M456.8,158.7c-.6,0-1.1-.4-1.3-.9-.2-.7.1-1.5.9-1.7.5-.2,13.5-4.4,24.1-1.6.7.2,1.1.9,1,1.6s-.9,1.1-1.6,1c-9.8-2.6-22.5,1.5-22.6,1.6-.1,0-.3,0-.4,0Z" fill="#20273f"/>
        <path d="M454.8,193.9c-.5,0-1-.3-1.2-.8-.3-.7,0-1.5.7-1.8.5-.2,13.1-5.5,23.9-3.5.7.1,1.2.8,1.1,1.6-.1.7-.8,1.2-1.6,1.1-10-1.8-22.3,3.3-22.4,3.3-.2,0-.3.1-.5.1Z" fill="#20273f"/>
        <path d="M479.8,185.7c-.1,0-.2,0-.3,0-10.8-2.6-23.2-.5-23.4-.5-.7.1-1.4-.4-1.5-1.1-.1-.7.4-1.4,1.1-1.5.5,0,13-2.2,24.4.5.7.2,1.2.9,1,1.6-.1.6-.7,1-1.3,1Z" fill="#20273f"/>
        <path d="M478.7,175.1c-.1,0-.3,0-.4,0-5.7-1.8-12.2-1.7-16.8-1.7-4.5,0-6.6,0-7.1-1.6-.4-1.4.8-2.5,3.2-4.2,9.8-6.5,22.7-2.4,23.2-2.2.7.2,1.1,1,.9,1.7-.2.7-1,1.1-1.7.9-.1,0-12.2-3.8-20.9,1.9-.5.3-.9.6-1.2.8,1,0,2.3,0,3.6,0,4.6,0,11.5-.1,17.7,1.8.7.2,1.1,1,.9,1.7-.2.6-.7.9-1.3.9Z" fill="#20273f"/>
        <path d="M463.4,224.7c-4.6,0-8.3-.9-8.6-.9-.7-.2-1.2-.9-1-1.6s.9-1.2,1.6-1c.1,0,13,3,20.2-2.5.4-.3.7-.6.9-.8-1.3-.3-4.2-.2-6.6-.2-5,0-11.3,0-16.3-1.4-.7-.2-1.1-.9-.9-1.7.2-.7.9-1.1,1.7-.9,4.7,1.3,10.7,1.3,15.6,1.3,6,0,8.9,0,9.6,2,.5,1.5-.9,2.8-2.3,3.9-4,3.1-9.4,3.9-13.8,3.9Z" fill="#20273f"/>
        <path d="M459.2,265.4c-.6,0-1.1-.3-1.3-.9-.2-.7.1-1.5.8-1.7,8.8-3.1,21.2-2,21.7-2,.7,0,1.3.7,1.2,1.5,0,.7-.7,1.3-1.5,1.2-.1,0-12.3-1.1-20.6,1.8-.1,0-.3,0-.4,0Z" fill="#20273f"/>
        <path d="M478.8,258.4c-.2,0-.5,0-.7-.2-7.3-4.4-21.6-2.7-21.8-2.7-.7,0-1.4-.4-1.5-1.2,0-.7.4-1.4,1.2-1.5.6,0,15.3-1.8,23.5,3.1.6.4.8,1.2.5,1.8-.3.4-.7.7-1.2.7Z" fill="#20273f"/>
        <path d="M456.5,237.4c-.6,0-1.1-.4-1.3-.9-.2-.7.2-1.5.9-1.7,12.3-4,22.3-.6,22.7-.5.7.2,1.1,1,.8,1.7-.2.7-1,1.1-1.7.8-.1,0-9.6-3.2-21,.5-.1,0-.3,0-.4,0Z" fill="#20273f"/>
        <path d="M643.8,188.1c-.4,0-.7-.2-1-.5-.5-.6-.4-1.4.1-1.9,10.4-9.1,12.4-22.1,12.4-22.3.1-.7.8-1.2,1.5-1.1.7.1,1.2.8,1.1,1.5,0,.6-2.1,14.1-13.3,23.9-.3.2-.6.3-.9.3Z" fill="#20273f"/>
        <path d="M99.6,280.1s0,0,0,0c-43.3-2.9-63-1.7-63.2-1.7-.8,0-1.4-.5-1.4-1.3s.5-1.4,1.3-1.4c.2,0,20-1.2,63.5,1.7.7,0,1.3.7,1.2,1.4,0,.7-.6,1.2-1.3,1.2Z" fill="#20273f"/>
        <path d="M439.7,287.6c-.7,0-1.3-.6-1.3-1.3,0-.7.6-1.3,1.3-1.4,2,0,200.6-1.9,262.2-3.9.7,0,1.4.6,1.4,1.3,0,.7-.6,1.4-1.3,1.4-61.7,1.9-260.3,3.8-262.3,3.9h0Z" fill="#20273f"/>
        <path d="M500.4,442.6c-.7,0-1.3-.5-1.3-1.3-3.8-65.4,0-123.5,0-124.1,0-.7.7-1.3,1.4-1.2.7,0,1.3.7,1.2,1.4,0,.6-3.8,58.5,0,123.7,0,.7-.5,1.4-1.3,1.4,0,0,0,0,0,0Z" fill="#20273f"/>
        <path d="M63.8,368.8c-.7,0-1.3-.6-1.3-1.3-1.7-32.9,1.4-89.7,1.5-90.2,0-.7.7-1.3,1.4-1.3.7,0,1.3.7,1.3,1.4,0,.6-3.2,57.2-1.5,89.9,0,.7-.5,1.4-1.3,1.4,0,0,0,0,0,0Z" fill="#20273f"/>
      </g>
    </g>
  </g>
</svg>