<svg xmlns="http://www.w3.org/2000/svg" xmlns:xlink="http://www.w3.org/1999/xlink" viewBox="0 0 1600 1200" width="1600" height="1200" preserveAspectRatio="xMidYMid meet" style="width: 100%; height: 100%; transform: translate3d(0px, 0px, 0px); content-visibility: visible;"><defs><clipPath id="__lottie_element_2"><rect width="1600" height="1200" x="0" y="0"></rect></clipPath><g id="__lottie_element_3"><g transform="matrix(1,0,0,1,1099.0469970703125,616.0210571289062)" opacity="1" style="display: block;"><g opacity="1" transform="matrix(1,0,0,1,0,0)"><path fill="rgb(255,162,144)" fill-opacity="1" d=" M-72.13400268554688,127.41500091552734 C-56.40800094604492,124.13600158691406 -3.3410000801086426,118.02100372314453 139.54800415039062,-58.02000045776367 C171.44200134277344,-97.31400299072266 120.31900024414062,-145.0330047607422 81.5479965209961,-124.0199966430664 C74.71700286865234,-120.31800079345703 -39.00299835205078,-49.84600067138672 -113.87300109863281,13.284000396728516 C-189.39500427246094,86.8489990234375 -130.34800720214844,139.5540008544922 -72.13400268554688,127.41500091552734z"></path></g></g></g><mask id="__lottie_element_3_1" mask-type="alpha"><use xlink:href="#__lottie_element_3"></use></mask><g id="__lottie_element_19"><g transform="matrix(1,0,0,1,1273.7669677734375,469.216064453125)" opacity="1" style="display: block;"><g opacity="1" transform="matrix(1,0,0,1,0,0)"><path fill="rgb(255,162,144)" fill-opacity="1" d=" M14.848999977111816,29.06800079345703 C14.848999977111816,29.06800079345703 48.500999450683594,2.6549999713897705 58.67499923706055,-13.583999633789062 C68.8489990234375,-29.822999954223633 51.43600082397461,-48.99700164794922 33.2400016784668,-30.40999984741211 C15.043999671936035,-11.822999954223633 -3.934000015258789,4.807000160217285 -29.95599937438965,2.6549999713897705 C-55.97800064086914,0.503000020980835 -73.51799774169922,12.065999984741211 -52.06399917602539,26.52400016784668 C-34.06399917602539,38.65399932861328 -9.215999603271484,43.742000579833984 14.848999977111816,29.06800079345703z"></path></g></g></g><mask id="__lottie_element_19_1" mask-type="alpha"><use xlink:href="#__lottie_element_19"></use></mask><g id="__lottie_element_40"><g transform="matrix(1,0,0,1,1273.7669677734375,469.216064453125)" opacity="1" style="display: block;"><g opacity="1" transform="matrix(1,0,0,1,0,0)"><path fill="rgb(255,162,144)" fill-opacity="1" d=" M14.848999977111816,29.06800079345703 C14.848999977111816,29.06800079345703 48.500999450683594,2.6549999713897705 58.67499923706055,-13.583999633789062 C68.8489990234375,-29.822999954223633 51.43600082397461,-48.99700164794922 33.2400016784668,-30.40999984741211 C15.043999671936035,-11.822999954223633 -3.934000015258789,4.807000160217285 -29.95599937438965,2.6549999713897705 C-55.97800064086914,0.503000020980835 -73.51799774169922,12.065999984741211 -52.06399917602539,26.52400016784668 C-34.06399917602539,38.65399932861328 -9.215999603271484,43.742000579833984 14.848999977111816,29.06800079345703z"></path></g></g></g><mask id="__lottie_element_40_1" mask-type="alpha"><use xlink:href="#__lottie_element_40"></use></mask><g id="__lottie_element_49"><g transform="matrix(1,0,0,1,472.58099365234375,615.5010375976562)" opacity="1" style="display: block;"><g opacity="1" transform="matrix(1,0,0,1,0,0)"><path fill="rgb(255,162,144)" fill-opacity="1" d=" M84.63600158691406,-18.281999588012695 C9.765999794006348,-81.41200256347656 -62.75,-119.7979965209961 -69.58100128173828,-123.5 C-108.35199737548828,-144.51300048828125 -159.47500610351562,-96.79399871826172 -127.58100128173828,-57.5 C15.307999610900879,118.54100036621094 63.69300079345703,124.00399780273438 79.41899871826172,127.28299713134766 C137.63299560546875,139.4219970703125 171.98399353027344,68.23999786376953 84.63600158691406,-18.281999588012695z"></path></g></g></g><mask id="__lottie_element_49_1" mask-type="alpha"><use xlink:href="#__lottie_element_49"></use></mask><g id="__lottie_element_61"><g transform="matrix(1,0,0,1,309.82598876953125,469.2160339355469)" opacity="1" style="display: block;"><g opacity="1" transform="matrix(1,0,0,1,0,0)"><path fill="rgb(255,162,144)" fill-opacity="1" d=" M-14.848999977111816,29.06800079345703 C-14.848999977111816,29.06800079345703 -48.500999450683594,2.6549999713897705 -58.67499923706055,-13.583999633789062 C-68.8489990234375,-29.822999954223633 -51.43600082397461,-48.99700164794922 -33.2400016784668,-30.40999984741211 C-15.043999671936035,-11.822999954223633 3.934000015258789,4.807000160217285 29.95599937438965,2.6549999713897705 C55.97800064086914,0.503000020980835 73.51799774169922,12.065999984741211 52.06399917602539,26.52400016784668 C34.06399917602539,38.65399932861328 9.215999603271484,43.742000579833984 -14.848999977111816,29.06800079345703z"></path></g></g></g><mask id="__lottie_element_61_1" mask-type="alpha"><use xlink:href="#__lottie_element_61"></use></mask><g id="__lottie_element_79"><g transform="matrix(0.9999945759773254,0.003298666328191757,-0.003298666328191757,0.9999945759773254,309.948974609375,469.3270263671875)" opacity="1" style="display: block;"><g opacity="1" transform="matrix(1,0,0,1,0,0)"><path fill="rgb(255,162,144)" fill-opacity="1" d=" M-14.848999977111816,29.06800079345703 C-14.848999977111816,29.06800079345703 -48.500999450683594,2.6549999713897705 -58.67499923706055,-13.583999633789062 C-68.8489990234375,-29.822999954223633 -51.43600082397461,-48.99700164794922 -33.2400016784668,-30.40999984741211 C-15.043999671936035,-11.822999954223633 3.934000015258789,4.807000160217285 29.95599937438965,2.6549999713897705 C55.97800064086914,0.503000020980835 73.51799774169922,12.065999984741211 52.06399917602539,26.52400016784668 C34.06399917602539,38.65399932861328 9.215999603271484,43.742000579833984 -14.848999977111816,29.06800079345703z"></path></g></g></g><mask id="__lottie_element_79_1" mask-type="alpha"><use xlink:href="#__lottie_element_79"></use></mask><g id="__lottie_element_121"><g transform="matrix(1,0,0,1,0,0.00103759765625)" opacity="1" style="display: block;"><g opacity="1" transform="matrix(1,0,0,1,0,0)"><g opacity="1" transform="matrix(1,0,0,1,793.27099609375,627.0430297851562)"><path fill="rgb(255,162,144)" fill-opacity="1" d=" M92.38999938964844,27.298999786376953 C89.74800109863281,32.808998107910156 81.55000305175781,32.56100082397461 75.71800231933594,34.37699890136719 C37.53300094604492,46.266998291015625 -3.128000020980835,50.13999938964844 -42.874000549316406,45.67399978637695 C-55.88999938964844,44.209999084472656 -68.98899841308594,41.808998107910156 -80.80400085449219,36.14899826049805 C-85.53299713134766,33.875 -90.38099670410156,30.645999908447266 -91.875,25.617000579833984 C-92.89600372314453,22.187000274658203 -93.38400268554688,20.024999618530273 -93.01599884033203,18.291000366210938 C-91.53700256347656,11.265000343322754 -87.37899780273438,-4.228000164031982 -85.90799713134766,-11.253999710083008 C-85.00700378417969,-15.539999961853027 -84.23400115966797,-19.893999099731445 -83.34100341796875,-24.209999084472656 C-83.34100341796875,-24.209999084472656 -83.33300018310547,-24.209999084472656 -83.33300018310547,-24.209999084472656 C-82.80699920654297,-26.770000457763672 -82.2300033569336,-29.32200050354004 -81.56199645996094,-31.82900047302246 C-80.30799865722656,-36.505001068115234 -76.56999969482422,-37.07600021362305 -72.3290023803711,-38.0890007019043 C-65.6709976196289,-39.68000030517578 -58.96799850463867,-41.069000244140625 -52.22700119018555,-42.255001068115234 C-38.70800018310547,-44.6349983215332 -25.038999557495117,-46.202999114990234 -11.333000183105469,-46.95399856567383 C2.3289999961853027,-47.70500183105469 16.042999267578125,-47.64400100708008 29.69700050354004,-46.76599884033203 C43.26100158691406,-45.89500045776367 56.77199935913086,-44.22200012207031 70.14099884033203,-41.73699951171875 C74.30000305175781,-40.9640007019043 78.697998046875,-39.987998962402344 81.68599700927734,-36.99300003051758 C85.01100158691406,-33.667999267578125 85.8219985961914,-28.660999298095703 86.46700286865234,-24 C87.57099914550781,-15.95300006866455 88.67400360107422,-7.913000106811523 89.78500366210938,0.12600000202655792 C90.29499816894531,3.8269999027252197 90.80599975585938,7.533999919891357 91.31600189208984,11.234999656677246 C91.93199920654297,15.708999633789062 94.34200286865234,23.222999572753906 92.38999938964844,27.298999786376953z"></path></g></g></g></g><mask id="__lottie_element_121_1" mask-type="alpha"><use xlink:href="#__lottie_element_121"></use></mask><g id="__lottie_element_133"><g transform="matrix(1,0,0,1,566.2789916992188,813.4860229492188)" opacity="1" style="display: block;"><g opacity="1" transform="matrix(1,0,0,1,0,0)"><path fill="rgb(239,236,223)" fill-opacity="1" d=" M158.55099487304688,-73.74199676513672 C158.55099487304688,-73.74199676513672 -107.8010025024414,-123.35399627685547 -213.06199645996094,-92.44100189208984 C-270.1319885253906,-75.68099975585938 -319.75799560546875,34.28300094604492 -178.10499572753906,82.08000183105469 C-80.14600372314453,115.13300323486328 132.06500244140625,102.26399993896484 217.60000610351562,90.96199798583984 C303.135009765625,79.66000366210938 284.99200439453125,-58.94300079345703 158.55099487304688,-73.74199676513672z"></path></g></g></g><mask id="__lottie_element_133_1" mask-type="alpha"><use xlink:href="#__lottie_element_133"></use></mask><g id="__lottie_element_139"><g transform="matrix(1,0,0,1,1035.2650146484375,799.2020263671875)" opacity="1" style="display: block;"><g opacity="1" transform="matrix(1,0,0,1,0,0)"><path fill="rgb(239,236,223)" fill-opacity="1" d=" M-163.1790008544922,-63.722999572753906 C-163.1790008544922,-63.722999572753906 81.77799987792969,-132.5919952392578 209.86500549316406,-100.76599884033203 C267.5899963378906,-86.4229965209961 316.8219909667969,-11.548999786376953 178.56100463867188,45.32099914550781 C82.9489974975586,84.64800262451172 -125.09200286865234,114.19000244140625 -211.1790008544922,108.45099639892578 C-297.2659912109375,102.71199798583984 -288.39599609375,-40.76599884033203 -163.1790008544922,-63.722999572753906z"></path></g></g></g><mask id="__lottie_element_139_1" mask-type="alpha"><use xlink:href="#__lottie_element_139"></use></mask></defs><g clip-path="url(#__lottie_element_2)"><g transform="matrix(1,0,0,1,0,0)" opacity="1" style="display: block;"><g opacity="1" transform="matrix(1,0,0,1,797.8099975585938,910.9760131835938)"><path fill="rgb(58,80,130)" fill-opacity="1" d=" M686.85498046875,82.6510009765625 C674.4539794921875,67.94200134277344 655.5,39.17900085449219 636.2689819335938,9.11299991607666 C605.447021484375,-39.07500076293945 573.9149780273438,-90.61000061035156 567.5050048828125,-92.99700164794922 C559.541015625,-95.9540023803711 -571.8790283203125,-95.9540023803711 -579.843017578125,-92.99700164794922 C-588.1370239257812,-89.91200256347656 -634.280029296875,-8.654000282287598 -662.72900390625,44.29800033569336 C-669.093017578125,56.14400100708008 -674.572021484375,66.5739974975586 -678.5430297851562,74.39399719238281 C-678.5430297851562,74.39399719238281 -686.7999877929688,82.6510009765625 -686.7999877929688,82.6510009765625 C-687.551025390625,86.40399932861328 -687.0029907226562,91.76399993896484 -686.9130249023438,92.40899658203125 C-686.6939697265625,93.36299896240234 -597.7410278320312,94.0739974975586 -465.20001220703125,94.54100036621094 C-184.5469970703125,95.52999877929688 291.5429992675781,95.43000030517578 534.448974609375,94.25 C627.9140014648438,93.7959976196289 686.85498046875,93.18199920654297 686.85498046875,92.40899658203125 C686.8619995117188,92.36399841308594 687.60498046875,84.90299987792969 686.85498046875,82.6510009765625z"></path></g><g opacity="1" transform="matrix(1,0,0,1,797.781982421875,902.3289794921875)"><path fill="rgb(102,122,196)" fill-opacity="1" d=" M686.8679809570312,91.11100006103516 C686.8679809570312,91.11100006103516 639.2520141601562,8.729999542236328 639.2520141601562,8.729999542236328 C639.2520141601562,8.729999542236328 579.81298828125,-94.10800170898438 579.81298828125,-94.10800170898438 C579.81298828125,-94.10800170898438 -578.4719848632812,-94.10800170898438 -578.4719848632812,-94.10800170898438 C-579.302978515625,-94.10800170898438 -580.0700073242188,-93.6719970703125 -580.489013671875,-92.9540023803711 C-584.7960205078125,-85.58599853515625 -609.0360107421875,-44.10100173950195 -633.2919921875,-2.3529999256134033 C-659.8629760742188,43.37900161743164 -686.4550170898438,89.4280014038086 -686.885009765625,91.2979965209961 C-686.885009765625,92.25499725341797 -597.8770141601562,92.96700286865234 -465.1730041503906,93.43499755859375 C-187.5030059814453,94.41300201416016 281.4729919433594,94.322998046875 526.6539916992188,93.177001953125 C624.6409912109375,92.71900177001953 686.8829956054688,92.09200286865234 686.8829956054688,91.2979965209961 C686.8900146484375,91.25299835205078 686.8679809570312,91.11100006103516 686.8679809570312,91.11100006103516z"></path></g></g><g transform="matrix(1,0,0,1,806.9949951171875,874.7449951171875)" opacity="1" style="display: block;"><g opacity="1" transform="matrix(1,0,0,1,0,0)"><path fill="rgb(74,99,168)" fill-opacity="1" d=" M-406.24200439453125,4.785999774932861 C-406.24200439453125,4.785999774932861 -461.0369873046875,18.297000885009766 -455.7829895019531,39.314998626708984 C-448.9280090332031,66.73699951171875 -343.9389953613281,64.83599853515625 -292.89599609375,56.57899856567383 C-285.8659973144531,55.44200134277344 -276.2799987792969,74.0770034790039 -259.1180114746094,76.09600067138672 C-233.5970001220703,79.0989990234375 -180.22000122070312,54.02899932861328 -164.53900146484375,51.32500076293945 C-142.77099609375,47.571998596191406 -54.608001708984375,40.40299987792969 -52.694000244140625,42.31700134277344 C-50.44200134277344,44.569000244140625 -48.941001892089844,47.571998596191406 -45.82600021362305,49.18600082397461 C-42.196998596191406,51.066001892089844 147.7239990234375,37.81399917602539 155.22999572753906,37.81399917602539 C162.73599243164062,37.81399917602539 216.08999633789062,60.36000061035156 242.03399658203125,58.4640007019043 C267.82598876953125,56.57899856567383 286.07598876953125,45.138999938964844 289.75299072265625,45.388999938964844 C476.5010070800781,58.08100128173828 496.64898681640625,-1.7330000400543213 396.9339904785156,-11.727999687194824 C293.0920104980469,-22.13599967956543 16.048999786376953,-78.48400115966797 -149.5330047607422,-76.28199768066406 C-286.8210144042969,-76.91899871826172 -312.4649963378906,-31.25 -406.24200439453125,4.785999774932861z"></path></g></g><g transform="matrix(1,0,0,1,1035.2650146484375,799.2020263671875)" opacity="1" style="display: block;"><g opacity="1" transform="matrix(1,0,0,1,0,0)"><path fill="rgb(239,236,223)" fill-opacity="1" d=" M-163.1790008544922,-63.722999572753906 C-163.1790008544922,-63.722999572753906 81.77799987792969,-132.5919952392578 209.86500549316406,-100.76599884033203 C267.5899963378906,-86.4229965209961 316.8219909667969,-11.548999786376953 178.56100463867188,45.32099914550781 C82.9489974975586,84.64800262451172 -125.09200286865234,114.19000244140625 -211.1790008544922,108.45099639892578 C-297.2659912109375,102.71199798583984 -288.39599609375,-40.76599884033203 -163.1790008544922,-63.722999572753906z"></path></g></g><g mask="url(#__lottie_element_139_1)" style="display: block;"><g transform="matrix(1,0,0,1,1060.1729736328125,698.748046875)" opacity="1"><g opacity="1" transform="matrix(1,0,0,1,0,0)"><path fill="rgb(219,214,193)" fill-opacity="1" d=" M-86.08699798583984,14.557999610900879 C-57.130001068115234,62.297000885009766 28.576000213623047,62.566001892089844 86.08699798583984,-16.746000289916992 C86.08699798583984,-16.746000289916992 -23.47800064086914,-47.268001556396484 -23.47800064086914,-47.268001556396484 C-23.47800064086914,-47.268001556396484 -86.08699798583984,14.557999610900879 -86.08699798583984,14.557999610900879z"></path></g></g></g><g transform="matrix(1,0,0,1,566.2789916992188,813.4860229492188)" opacity="1" style="display: block;"><g opacity="1" transform="matrix(1,0,0,1,0,0)"><path fill="rgb(239,236,223)" fill-opacity="1" d=" M158.55099487304688,-73.74199676513672 C158.55099487304688,-73.74199676513672 -107.8010025024414,-123.35399627685547 -213.06199645996094,-92.44100189208984 C-270.1319885253906,-75.68099975585938 -319.75799560546875,34.28300094604492 -178.10499572753906,82.08000183105469 C-80.14600372314453,115.13300323486328 132.06500244140625,102.26399993896484 217.60000610351562,90.96199798583984 C303.135009765625,79.66000366210938 284.99200439453125,-58.94300079345703 158.55099487304688,-73.74199676513672z"></path></g></g><g mask="url(#__lottie_element_133_1)" style="display: block;"><g transform="matrix(1,0,0,1,577.8259887695312,728.5540161132812)" opacity="1"><g opacity="1" transform="matrix(1,0,0,1,0,0)"><path fill="rgb(219,214,193)" fill-opacity="1" d=" M76.43499755859375,-2.98799991607666 C41.29999923706055,-9.741999626159668 -29.218000411987305,-20.726999282836914 -76.43499755859375,-15.770000457763672 C-16.434999465942383,46.577999114990234 70.17400360107422,1.7079999446868896 76.43499755859375,-2.98799991607666z"></path></g></g></g><g transform="matrix(1,0,0,1,0,0.00103759765625)" opacity="1" style="display: block;"><g opacity="1" transform="matrix(1,0,0,1,787.218994140625,321.8210144042969)"><path fill="rgb(96,82,74)" fill-opacity="1" d=" M77.1760025024414,1.6050000190734863 C76.40299987792969,-16.170000076293945 76.3499984741211,-34.13199996948242 72.38700103759766,-51.479000091552734 C68.4229965209961,-68.83399963378906 60.0620002746582,-85.86599731445312 45.755001068115234,-96.44999694824219 C31.447999954223633,-107.03399658203125 10.496999740600586,-109.66799926757812 -4.184999942779541,-99.60199737548828 C-5.01800012588501,-100.052001953125 -5.866000175476074,-100.46499633789062 -6.7220001220703125,-100.83300018310547 C-22.386999130249023,-107.73100280761719 -41.90399932861328,-102.93599700927734 -54.935001373291016,-91.60099792480469 C-68.6709976196289,-79.63600158691406 -76.03500366210938,-61.7400016784668 -79.13500213623047,-43.78499984741211 C-82.23500061035156,-25.829999923706055 -81.52899932861328,-7.4770002365112305 -81.7770004272461,10.741000175476074 C-82.1969985961914,42.064998626708984 -85.47100067138672,73.3499984741211 -91.53600311279297,104.08100128173828 C-91.53600311279297,104.08100128173828 -92.92400360107422,104.14900207519531 -92.92400360107422,104.14900207519531 C-31.0049991607666,106.9260025024414 31.05699920654297,106.43900299072266 92.92400360107422,102.6780014038086 C82.91799926757812,69.98799896240234 78.66200256347656,35.76599884033203 77.1760025024414,1.6050000190734863z M-3.6440000534057617,-78.82499694824219 C-3.8239998817443848,-79.03500366210938 -4.005000114440918,-79.25199890136719 -4.170000076293945,-79.47000122070312 C-4.139999866485596,-79.89800262451172 -4.15500020980835,-80.31099700927734 -4.206999778747559,-80.71600341796875 C-3.6440000534057617,-78.8239974975586 -3.3510000705718994,-78.48699951171875 -3.6440000534057617,-78.82499694824219z"></path></g><g opacity="1" transform="matrix(1,0,0,1,829.6669921875,359.4150085449219)"><path fill="rgb(84,70,62)" fill-opacity="1" d=" M23.125999450683594,-65.85800170898438 C23.125999450683594,-65.85800170898438 22.215999603271484,-56.36899948120117 13.208000183105469,-37.60300064086914 C6.802000045776367,-24.256000518798828 3.1740000247955322,-18.88599967956543 2.6989998817443848,-12.081999778747559 C2.075000047683716,-3.140000104904175 3.6070001125335693,11.357000350952148 4.951000213623047,14.940999984741211 C7.203000068664551,20.945999145507812 23.716999053955078,34.457000732421875 44.590999603271484,42.92599868774414 C44.590999603271484,42.92599868774414 41.731998443603516,74.24099731445312 41.731998443603516,74.24099731445312 C41.731998443603516,74.24099731445312 -39.33599853515625,50.220001220703125 -39.33599853515625,50.220001220703125 C-39.33599853515625,50.220001220703125 -44.590999603271484,-63.875999450683594 -44.590999603271484,-63.875999450683594 C-44.590999603271484,-63.875999450683594 18.909000396728516,-74.24099731445312 18.909000396728516,-74.24099731445312 C18.909000396728516,-74.24099731445312 23.125999450683594,-65.85800170898438 23.125999450683594,-65.85800170898438z"></path></g><g opacity="1" transform="matrix(1,0,0,1,755.051025390625,351.0870056152344)"><path fill="rgb(84,70,62)" fill-opacity="1" d=" M-30.000999450683594,-51.24700164794922 C-26.27199935913086,-41.28499984741211 -20.267000198364258,-31.525999069213867 -15.762999534606934,-26.27199935913086 C-13.6899995803833,-23.854000091552734 -13.51099967956543,-14.26200008392334 0.7509999871253967,2.252000093460083 C2.8929998874664307,4.732999801635742 2.0859999656677246,29.083999633789062 -2.252000093460083,33.02799987792969 C-10.508999824523926,40.534000396728516 -30.025999069213867,45.03799819946289 -55.547000885009766,54.79600143432617 C-55.547000885009766,54.79600143432617 55.547000885009766,40.534000396728516 55.547000885009766,40.534000396728516 C55.547000885009766,40.534000396728516 -20.267000198364258,-54.79600143432617 -20.267000198364258,-54.79600143432617 C-20.267000198364258,-54.79600143432617 -30.000999450683594,-51.24700164794922 -30.000999450683594,-51.24700164794922z"></path></g></g><g transform="matrix(1,0,0,1,0,0.00103759765625)" opacity="1" style="display: block;"><g opacity="1" transform="matrix(1,0,0,1,975.3289794921875,640.8920288085938)"><path fill="rgb(59,114,59)" fill-opacity="1" d=" M-62.202999114990234,54.402000427246094 C-62.112998962402344,54.51499938964844 -62.02299880981445,54.61899948120117 -61.93299865722656,54.731998443603516 C-25.902999877929688,98.26899719238281 80.68699645996094,-33.090999603271484 64.1729965209961,-54.10900115966797 C43.78300094604492,-93.36699676513672 -89.61000061035156,-0.5210000276565552 -62.202999114990234,54.402000427246094z"></path></g><g opacity="1" transform="matrix(1,0,0,1,930.6799926757812,542.9349975585938)"><path fill="rgb(88,166,95)" fill-opacity="1" d=" M-105.85800170898438,-149.06399536132812 C-82.63200378417969,-149.06399536132812 -19.954999923706055,-136.87899780273438 18.746999740600586,-99.52200317382812 C59.191001892089844,-60.48899841308594 87.80400085449219,1.062000036239624 108.8219985961914,43.847999572753906 C61.94499969482422,46.827999114990234 -26.974000930786133,97.00800323486328 -19.01799964904785,149.06399536132812 C-19.20199966430664,148.6490020751953 -19.31999969482422,148.2100067138672 -19.57200050354004,147.8350067138672 C-39.17300033569336,118.71800231933594 -81.44200134277344,43.608001708984375 -86.09600067138672,31.195999145507812 C-114.79199981689453,-56.97800064086914 -109.61100006103516,-140.05599975585938 -105.85800170898438,-149.06399536132812z"></path></g><g opacity="1" transform="matrix(1,0,0,1,0,0)"><g opacity="1" transform="matrix(1,0,0,1,987.114013671875,665.2949829101562)"><path fill="rgb(255,162,144)" fill-opacity="1" d=" M47.069000244140625,-77.98999786376953 C115.31999969482422,27.270000457763672 37.79899978637695,90.85800170898438 -3.635999917984009,75.79100036621094 C-7.940000057220459,74.22599792480469 -49.417999267578125,56.22600173950195 -66.65599822998047,25.173999786376953 C-66.65599822998047,25.173999786376953 -66.65599822998047,25.166000366210938 -66.65599822998047,25.166000366210938 C-69.5510025024414,20.19300079345703 -72.08200073242188,14.055000305175781 -74.11299896240234,7.182000160217285 C-62.15999984741211,-35.4010009765625 5.401000022888184,-72.6520004272461 47.069000244140625,-77.98999786376953z"></path></g><g opacity="1" transform="matrix(1,0,0,1,976.2039794921875,640.4550170898438)"><path fill="rgb(238,130,104)" fill-opacity="1" d=" M63.26499938964844,-53.66999816894531 C63.24300003051758,-53.65599822998047 46.27399826049805,-37.237998962402344 28.926000595092773,-17.93400001525879 C18.743999481201172,-6.604000091552734 18.3799991607666,-18.763999938964844 34.143001556396484,-38.28099822998047 C45.000999450683594,-51.7239990234375 -41.40999984741211,-3.505000114440918 -53.082000732421875,53.66999816894531 C-58.33599853515625,45.41299819946289 -60.979000091552734,39.34000015258789 -62.84000015258789,34.15299987792969 C-62.99300003051758,33.505001068115234 -63.11899948120117,32.87699890136719 -63.26499938964844,32.233001708984375 C-50.965999603271484,-12.288999557495117 22.231000900268555,-51.04399871826172 63.26499938964844,-53.66999816894531z"></path></g></g></g><g transform="matrix(1,0,0,1,0,0.00103759765625)" opacity="1" style="display: block;"><g opacity="1" transform="matrix(1,0,0,1,608.2650146484375,640.8920288085938)"><path fill="rgb(59,114,59)" fill-opacity="1" d=" M62.202999114990234,54.402000427246094 C62.112998962402344,54.51499938964844 62.02299880981445,54.61899948120117 61.93299865722656,54.731998443603516 C25.902999877929688,98.26899719238281 -80.68699645996094,-33.090999603271484 -64.1729965209961,-54.10900115966797 C-43.78300094604492,-93.36699676513672 89.61000061035156,-0.5210000276565552 62.202999114990234,54.402000427246094z"></path></g><g opacity="1" transform="matrix(1,0,0,1,652.9140014648438,542.9349975585938)"><path fill="rgb(88,166,95)" fill-opacity="1" d=" M105.85800170898438,-149.06399536132812 C82.63200378417969,-149.06399536132812 19.954999923706055,-136.87899780273438 -18.746999740600586,-99.52200317382812 C-59.191001892089844,-60.48899841308594 -87.80400085449219,1.062000036239624 -108.8219985961914,43.847999572753906 C-61.94499969482422,46.827999114990234 26.974000930786133,97.00800323486328 19.01799964904785,149.06399536132812 C19.20199966430664,148.6490020751953 19.31999969482422,148.2100067138672 19.57200050354004,147.8350067138672 C39.17300033569336,118.71800231933594 81.44200134277344,43.608001708984375 86.09600067138672,31.195999145507812 C114.79199981689453,-56.97800064086914 109.61100006103516,-140.05599975585938 105.85800170898438,-149.06399536132812z"></path></g><g opacity="1" transform="matrix(1,0,0,1,0,0)"><g opacity="1" transform="matrix(1,0,0,1,588.2839965820312,665.698974609375)"><path fill="rgb(255,162,144)" fill-opacity="1" d=" M-38.87300109863281,-78.39299774169922 C-110.9209976196289,-25.422000885009766 -81.0459976196289,69.64900207519531 -37.5880012512207,77.08399963378906 C3.7809998989105225,84.16100311279297 53.249000549316406,61.9640007019043 74.85199737548828,24.770999908447266 C74.85199737548828,24.770999908447266 74.85199737548828,24.76300048828125 74.85199737548828,24.76300048828125 C77.74700164794922,19.790000915527344 80.27799987792969,13.652000427246094 82.30899810791016,6.7789998054504395 C70.35600280761719,-35.80400085449219 2.7950000762939453,-73.05500030517578 -38.87300109863281,-78.39299774169922z"></path></g><g opacity="1" transform="matrix(1,0,0,1,607.3900146484375,640.4550170898438)"><path fill="rgb(238,130,104)" fill-opacity="1" d=" M-63.26499938964844,-53.66999816894531 C-63.24300003051758,-53.65599822998047 -44.49100112915039,-41.645999908447266 -28.73699951171875,-19.141000747680664 C-20.00200080871582,-6.6620001792907715 -21.231000900268555,-19.141000747680664 -36.99399948120117,-38.65800094604492 C-47.85200119018555,-52.10100173950195 41.40999984741211,-3.505000114440918 53.082000732421875,53.66999816894531 C58.33599853515625,45.41299819946289 60.979000091552734,39.34000015258789 62.84000015258789,34.15299987792969 C62.99300003051758,33.505001068115234 63.11899948120117,32.87699890136719 63.26499938964844,32.233001708984375 C50.965999603271484,-12.288999557495117 -22.231000900268555,-51.04399871826172 -63.26499938964844,-53.66999816894531z"></path></g></g></g><g transform="matrix(1,0,0,1,0,0.00103759765625)" opacity="1" style="display: block;"><g opacity="1" transform="matrix(1,0,0,1,792.864013671875,609.4149780273438)"><path fill="rgb(59,114,59)" fill-opacity="1" d=" M-110.6240005493164,-1.6119999885559082 C-110.6240005493164,-1.6119999885559082 -126.15599822998047,22.739999771118164 -58.08000183105469,28.413000106811523 C104.05599975585938,41.92399978637695 117.56800079345703,7.394999980926514 110.81400299072266,2.1080000400543213 C110.81400299072266,2.1080000400543213 29.94499969482422,-31.525999069213867 29.94499969482422,-31.525999069213867 C29.94499969482422,-31.525999069213867 -88.1050033569336,-28.635000228881836 -88.1050033569336,-28.635000228881836 C-88.1050033569336,-28.635000228881836 -110.6240005493164,-1.6119999885559082 -110.6240005493164,-1.6119999885559082z"></path></g></g><g transform="matrix(1,0,0,1,0,0.00103759765625)" opacity="1" style="display: block;"><g opacity="1" transform="matrix(1,0,0,1,0,0)"><g opacity="1" transform="matrix(1,0,0,1,793.27099609375,627.0430297851562)"><path fill="rgb(255,162,144)" fill-opacity="1" d=" M92.38999938964844,27.298999786376953 C89.74800109863281,32.808998107910156 81.55000305175781,32.56100082397461 75.71800231933594,34.37699890136719 C37.53300094604492,46.266998291015625 -3.128000020980835,50.13999938964844 -42.874000549316406,45.67399978637695 C-55.88999938964844,44.209999084472656 -68.98899841308594,41.808998107910156 -80.80400085449219,36.14899826049805 C-85.53299713134766,33.875 -90.38099670410156,30.645999908447266 -91.875,25.617000579833984 C-92.89600372314453,22.187000274658203 -93.38400268554688,20.024999618530273 -93.01599884033203,18.291000366210938 C-91.53700256347656,11.265000343322754 -87.37899780273438,-4.228000164031982 -85.90799713134766,-11.253999710083008 C-85.00700378417969,-15.539999961853027 -84.23400115966797,-19.893999099731445 -83.34100341796875,-24.209999084472656 C-83.34100341796875,-24.209999084472656 -83.33300018310547,-24.209999084472656 -83.33300018310547,-24.209999084472656 C-82.80699920654297,-26.770000457763672 -82.2300033569336,-29.32200050354004 -81.56199645996094,-31.82900047302246 C-80.30799865722656,-36.505001068115234 -76.56999969482422,-37.07600021362305 -72.3290023803711,-38.0890007019043 C-65.6709976196289,-39.68000030517578 -58.96799850463867,-41.069000244140625 -52.22700119018555,-42.255001068115234 C-38.70800018310547,-44.6349983215332 -25.038999557495117,-46.202999114990234 -11.333000183105469,-46.95399856567383 C2.3289999961853027,-47.70500183105469 16.042999267578125,-47.64400100708008 29.69700050354004,-46.76599884033203 C43.26100158691406,-45.89500045776367 56.77199935913086,-44.22200012207031 70.14099884033203,-41.73699951171875 C74.30000305175781,-40.9640007019043 78.697998046875,-39.987998962402344 81.68599700927734,-36.99300003051758 C85.01100158691406,-33.667999267578125 85.8219985961914,-28.660999298095703 86.46700286865234,-24 C87.57099914550781,-15.95300006866455 88.67400360107422,-7.913000106811523 89.78500366210938,0.12600000202655792 C90.29499816894531,3.8269999027252197 90.80599975585938,7.533999919891357 91.31600189208984,11.234999656677246 C91.93199920654297,15.708999633789062 94.34200286865234,23.222999572753906 92.38999938964844,27.298999786376953z"></path></g><g opacity="1" transform="matrix(1,0,0,1,793.406005859375,642.031005859375)"><path fill="rgb(238,130,104)" fill-opacity="1" d=" M0.27399998903274536,-4.203000068664551 C-2.696000099182129,-4.203000068664551 -4.326000213623047,2.874000072479248 -1.3619999885559082,3.9049999713897705 C1.6019999980926514,4.935999870300293 2.930000066757202,3.1080000400543213 2.930000066757202,1.2799999713897705 C2.930000066757202,-0.5479999780654907 1.6019999980926514,-4.203000068664551 0.27399998903274536,-4.203000068664551z"></path></g></g></g><g mask="url(#__lottie_element_121_1)" style="display: block;"><g transform="matrix(1,0,0,1,792.5490112304688,600.1390380859375)" opacity="1"><g opacity="1" transform="matrix(1,0,0,1,0,0)"><path fill="rgb(238,130,104)" fill-opacity="1" d=" M94.14700317382812,27.86199951171875 C28.304000854492188,28.06599998474121 -36.5989990234375,-11.003000259399414 -94.14700317382812,5.21999979019165 C-93.62100219726562,2.6600000858306885 -92.88400268554688,0.14499999582767487 -92.375,-2.3989999294281006 C-85.59200286865234,-36.3120002746582 84.99600219726562,-38.380001068115234 90.8280029296875,3.7360000610351562 C91.93199920654297,11.782999992370605 93.03600311279297,19.822999954223633 94.14700317382812,27.86199951171875z"></path></g></g></g><g transform="matrix(1,0,0,1,0,0.00103759765625)" opacity="1" style="display: block;"><g opacity="1" transform="matrix(1,0,0,1,791.7329711914062,377.739990234375)"><path fill="rgb(255,162,144)" fill-opacity="1" d=" M25.621000289916992,34.14699935913086 C12.057000160217285,41.03799819946289 -5.64300012588501,41.65399932861328 -20.167999267578125,37.150001525878906 C-26.13599967956543,35.303001403808594 -39.03099822998047,28.308000564575195 -35.930999755859375,22.88800048828125 C-28.243999481201172,9.437000274658203 -24.93400001525879,-4.014999866485596 -27.68899917602539,-26.714000701904297 C-27.749000549316406,-27.20199966430664 -27.80900001525879,-27.690000534057617 -27.868999481201172,-28.184999465942383 C-27.868999481201172,-28.184999465942383 -27.87700080871582,-28.184999465942383 -27.87700080871582,-28.184999465942383 C-28.32699966430664,-31.65999984741211 -28.920000076293945,-35.34600067138672 -29.6560001373291,-39.27899932861328 C-29.6560001373291,-39.27899932861328 -29.79800033569336,-40.029998779296875 -29.79800033569336,-40.029998779296875 C-12.428000450134277,-34.564998626708984 6.381999969482422,-33.74700164794922 24.156999588012695,-37.69499969482422 C23.714000701904297,-34.21200180053711 23.429000854492188,-30.804000854492188 23.30900001525879,-27.479000091552734 C22.82900047302246,-14.972999572753906 24.562000274658203,-3.6089999675750732 28.26300048828125,6.314000129699707 C28.270999908447266,6.328999996185303 28.270999908447266,6.335999965667725 28.277999877929688,6.343999862670898 C30.312000274658203,11.809000015258789 32.946998596191406,16.83799934387207 36.130001068115234,21.386999130249023 C38.12699890136719,24.23900032043457 28.72100067138672,32.57099914550781 25.621000289916992,34.14699935913086z"></path></g><g opacity="1" transform="matrix(1,0,0,1,0,0)"><g opacity="1" transform="matrix(1,0,0,1,795.6519775390625,504.114013671875)"><path fill="rgb(88,166,95)" fill-opacity="1" d=" M-113.41200256347656,103.75399780273438 C-97.2959976196289,90.1449966430664 -42.85300064086914,89.49199676513672 -3.819999933242798,96.24800109863281 C36.349998474121094,103.20099639892578 85.26000213623047,115.73400115966797 108.0260009765625,107.4749984741211 C91.63700103759766,66.28399658203125 89.60800170898438,6.364999771118164 113.47799682617188,-17.30900001525879 C113.08699798583984,-60.35200119018555 63.06999969482422,-110.83999633789062 29.152000427246094,-110.14600372314453 C19.027000427246094,-91.55899810791016 -19.3700008392334,-84.1729965209961 -36.832000732421875,-110.19499969482422 C-64.6760025024414,-108.7969970703125 -112.10800170898438,-67.00499725341797 -113.47799682617188,-9.482999801635742 C-93.32599639892578,27.4950008392334 -104.91999816894531,88.66500091552734 -113.41200256347656,103.75399780273438z"></path></g><g opacity="1" transform="matrix(1,0,0,1,687.5369873046875,549.2139892578125)"><path fill="rgb(76,135,78)" fill-opacity="1" d=" M-9.121000289916992,-58.159000396728516 C-9.050000190734863,-56.257999420166016 -2.2950000762939453,-48.75199890136719 1.4579999446868896,-37.49300003051758 C3.4860000610351562,-31.409000396728516 6.7129998207092285,-10.470000267028809 4.50600004196167,14.28499984741211 C2.561000108718872,36.10300064086914 -5.296999931335449,58.5880012512207 -5.296999931335449,58.5880012512207 C-5.296999931335449,58.5880012512207 4.456999778747559,49.242000579833984 8.21399974822998,13.550000190734863 C11.217000007629395,-14.973999977111816 5.934999942779541,-35.61399841308594 4.50600004196167,-39.76100158691406 C2.9600000381469727,-44.249000549316406 -9.246000289916992,-61.51100158691406 -9.121000289916992,-58.159000396728516z"></path></g><g opacity="1" transform="matrix(1,0,0,1,899.4979858398438,548.97802734375)"><path fill="rgb(76,135,78)" fill-opacity="1" d=" M9.230999946594238,-62.22800064086914 C9.15999984741211,-60.32699966430664 0.9039999842643738,-48.31700134277344 -2.8489999771118164,-37.05799865722656 C-4.876999855041504,-30.974000930786133 -6.603000164031982,-14.538999557495117 -4.395999908447266,10.215999603271484 C-2.4509999752044678,32.034000396728516 4.177999973297119,62.57699966430664 4.177999973297119,62.57699966430664 C4.177999973297119,62.57699966430664 -4.3470001220703125,45.17300033569336 -8.104000091552734,9.480999946594238 C-11.107000350952148,-19.042999267578125 -7.326000213623047,-35.17900085449219 -5.896999835968018,-39.32600021362305 C-4.35099983215332,-43.81399917602539 9.355999946594238,-65.58000183105469 9.230999946594238,-62.22800064086914z"></path></g></g></g><g transform="matrix(1,0,0,1,791.9299926757812,366.8060302734375)" opacity="1" style="display: block;"><g opacity="1" transform="matrix(1,0,0,1,0,0)"><path fill="rgb(238,130,104)" fill-opacity="1" d=" M28.06599998474121,17.249000549316406 C26.437000274658203,13.71399974822998 19.388999938964844,-0.3370000123977661 8.90999984741211,-2.9570000171661377 C4.540999889373779,-4.052999973297119 -15.109999656677246,-5.209000110626221 -27.88599967956543,-15.777999877929688 C-27.945999145507812,-16.266000747680664 -28.006000518798828,-16.753999710083008 -28.06599998474121,-17.249000549316406 C-28.06599998474121,-17.249000549316406 -5.885000228881836,-1.1790000200271606 23.11199951171875,-16.54400062561035 C22.631999969482422,-4.038000106811523 24.364999771118164,7.326000213623047 28.06599998474121,17.249000549316406z"></path></g></g><g transform="matrix(1,0,0,1,0,0.00103759765625)" opacity="1" style="display: block;"><g opacity="1" transform="matrix(1,0,0,1,790.3740234375,748.5189819335938)"><path fill="rgb(239,236,223)" fill-opacity="1" d=" M-133.65499877929688,-19.733999252319336 C-116.26200103759766,-64.52799987792969 -95.74800109863281,-106.14399719238281 -90.11900329589844,-103.80500030517578 C-74.13800048828125,-96.35099792480469 -47.948001861572266,-92.57499694824219 -20.16699981689453,-91.4489974975586 C30.334999084472656,-89.4000015258789 86.08399963378906,-96.10299682617188 95.28700256347656,-105.30599975585938 C99.73699951171875,-107.5270004272461 122.32499694824219,-61.893001556396484 132.2259979248047,-23.878000259399414 C194.6699981689453,142.04600524902344 -188.9340057373047,153.33900451660156 -133.65499877929688,-19.733999252319336z"></path></g><g opacity="1" transform="matrix(1,0,0,1,846.4030151367188,686.2410278320312)"><path fill="rgb(219,214,193)" fill-opacity="1" d=" M75.7760009765625,36.715999603271484 C75.7760009765625,36.715999603271484 75.78399658203125,36.71500015258789 75.78399658203125,36.71500015258789 C75.66400146484375,36.26499938964844 75.53600311279297,35.814998626708984 75.40799713134766,35.356998443603516 C65.14700317382812,-1.9270000457763672 43.650001525878906,-45.35100173950195 39.257999420166016,-43.159000396728516 C30.05500030517578,-33.95600128173828 -25.694000244140625,-27.253000259399414 -76.19599914550781,-29.302000045776367 C-76.19599914550781,-29.302000045776367 -47.816001892089844,-25.893999099731445 -14.788000106811523,-26.645000457763672 C18.239999771118164,-27.395999908447266 29.312000274658203,-30.190000534057617 33.25299835205078,-28.145999908447266 C40.15299987792969,-24.569000244140625 52.76900100708008,-7.129000186920166 56.52199935913086,11.63700008392334 C59.395999908447266,26.0049991607666 49.6619987487793,39.82099914550781 45.507999420166016,41.40599822998047 C43.31100082397461,42.10599899291992 42.21699905395508,42.724998474121094 43.01100158691406,43.16400146484375 C44.439998626708984,43.952999114990234 76.19599914550781,38.26900100708008 76.19599914550781,38.26900100708008 C76.05999755859375,37.75299835205078 75.91600036621094,37.23400115966797 75.7760009765625,36.715999603271484z"></path></g><g opacity="1" transform="matrix(1,0,0,1,675.593994140625,714.6060180664062)"><path fill="rgb(219,214,193)" fill-opacity="1" d=" M16.839000701904297,13.798999786376953 C16.839000701904297,13.798999786376953 16.854999542236328,13.800000190734863 16.854999542236328,13.800000190734863 C16.854999542236328,13.800000190734863 16.833999633789062,13.795999526977539 16.797000885009766,13.788000106811523 C16.2450008392334,13.63599967956543 15.5649995803833,13.479999542236328 14.734999656677246,13.321999549865723 C9.402999877929688,12.053999900817871 -4.307000160217285,8.361000061035156 -6.114999771118164,3.5390000343322754 C-8.366999626159668,-2.4660000801086426 -6.744999885559082,-15.548999786376953 -6.744999885559082,-15.548999786376953 C-10.557000160217285,-6.785999774932861 -14.276000022888184,2.239000082015991 -17.64900016784668,10.883000373840332 C-17.64900016784668,10.883000373840332 -17.649999618530273,10.883000373840332 -17.649999618530273,10.883000373840332 C-17.649999618530273,10.883000373840332 -17.722000122070312,11.067999839782715 -17.722000122070312,11.067999839782715 C-17.857999801635742,11.416999816894531 -17.996999740600586,11.770999908447266 -18.131999969482422,12.119000434875488 C-18.131999969482422,12.119000434875488 -18.128000259399414,12.119000434875488 -18.128000259399414,12.119000434875488 C-18.128000259399414,12.119000434875488 -18.875999450683594,14.04800033569336 -18.875999450683594,14.04800033569336 C-18.875999450683594,14.04800033569336 14.152000427246094,15.548999786376953 17.155000686645508,15.548999786376953 C18.615999221801758,15.548999786376953 20.298999786376953,14.76200008392334 16.839000701904297,13.798999786376953z"></path></g></g><g transform="matrix(1,0,0,1,0,0.00103759765625)" opacity="1" style="display: block;"><g opacity="1" transform="matrix(1,0,0,1,0,0)"><g opacity="1" transform="matrix(1,0,0,1,0,0)"><g opacity="1" transform="matrix(1,0,0,1,788.5430297851562,293.7200012207031)"><path fill="rgb(255,162,144)" fill-opacity="1" d=" M-61.64099884033203,-13.145999908447266 C-61.64099884033203,-13.145999908447266 -61.64099884033203,-13.145999908447266 -61.64099884033203,-13.145999908447266 C-64.18299865722656,-11.258999824523926 -65.35900115966797,-8.015000343322754 -65.7490005493164,-4.873000144958496 C-66.44999694824219,0.777999997138977 -62.01599884033203,16.082000732421875 -47.75400161743164,22.086999893188477 C-38.31800079345703,50.395999908447266 -17.768999099731445,64.27999877929688 2.046999931335449,64.19499969482422 C22.833999633789062,64.1050033569336 42.816001892089844,48.64400100708008 48.32699966430664,18.33300018310547 C55.83300018310547,13.079000473022461 64.09100341796875,4.072000026702881 65.58899688720703,-4.689000129699707 C66.30699920654297,-8.885000228881836 65.4010009765625,-13.619000434875488 62.13999938964844,-16.354999542236328 C58.87900161743164,-19.090999603271484 52.832000732421875,-18.447999954223633 49.82899856567383,-13.944000244140625 C46.220001220703125,-30.444000244140625 37.30500030517578,-47.2869987487793 22.94099998474121,-56.172000885009766 C8.57699966430664,-65.05699920654297 -10.225000381469727,-66.96099853515625 -25.555999755859375,-59.87300109863281 C-33.45500183105469,-56.22100067138672 -40.117000579833984,-50.15700149536133 -44.845001220703125,-42.882999420166016 C-49.57400131225586,-35.608001708984375 -52.42499923706055,-27.069000244140625 -52.73400115966797,-18.381000518798828 C-52.777000427246094,-17.17099952697754 -50.915000915527344,-10.053000450134277 -51.50699996948242,-10.940999984741211 C-54.5099983215332,-15.444999694824219 -59.30799865722656,-14.876999855041504 -61.64099884033203,-13.145999908447266z"></path></g><g opacity="1" transform="matrix(1,0,0,1,838.02197265625,307.0140075683594)"><path fill="rgb(238,130,104)" fill-opacity="1" d=" M-1.152999997138977,5.039999961853027 C-1.152999997138977,5.039999961853027 -0.4020000100135803,-2.4660000801086426 0.3490000069141388,-4.7179999351501465 C1.100000023841858,-6.96999979019165 1.152999997138977,3.325000047683716 1.152999997138977,3.325000047683716 C1.152999997138977,3.325000047683716 -1.152999997138977,5.039999961853027 -1.152999997138977,5.039999961853027z"></path></g><g opacity="1" transform="matrix(1,0,0,1,739.864990234375,312.41400146484375)"><path fill="rgb(238,130,104)" fill-opacity="1" d=" M0.9240000247955322,3.3929998874664307 C0.9240000247955322,3.3929998874664307 0.17399999499320984,-2.6110000610351562 -0.5770000219345093,-3.361999988555908 C-1.1080000400543213,-3.8929998874664307 -0.871999979019165,2.562999963760376 -0.871999979019165,2.562999963760376 C-0.871999979019165,2.562999963760376 0.9240000247955322,3.3929998874664307 0.9240000247955322,3.3929998874664307z"></path></g></g><g opacity="1" transform="matrix(1,0,0,1,807.4400024414062,256.74200439453125)"><path fill="rgb(238,130,104)" fill-opacity="1" d=" M-26.659000396728516,-13.41100025177002 C-26.659000396728516,-13.41100025177002 -23.864999771118164,-4.738999843597412 -13.355999946594238,-0.23499999940395355 C-2.8469998836517334,4.269000053405762 16.892000198364258,9.713000297546387 26.538999557495117,25.756999969482422 C26.538999557495117,25.756999969482422 28.368000030517578,-0.3499999940395355 28.368000030517578,-0.3499999940395355 C28.368000030517578,-0.3499999940395355 -28.368000030517578,-25.756999969482422 -28.368000030517578,-25.756999969482422 C-28.368000030517578,-25.756999969482422 -26.659000396728516,-13.41100025177002 -26.659000396728516,-13.41100025177002z"></path></g><g opacity="1" transform="matrix(1,0,0,1,788.8200073242188,255.86000061035156)"><path fill="rgb(96,82,74)" fill-opacity="1" d=" M59.310001373291016,20.163000106811523 C51.80400085449219,18.66200065612793 49.01100158691406,25.725000381469727 48.04999923706055,26.91900062561035 C45.047000885009766,30.672000885009766 44.297000885009766,22.415000915527344 39.792999267578125,17.160999298095703 C30.78499984741211,6.6519999504089355 20.92300033569336,4.603000164031982 11.022000312805176,-0.4560000002384186 C-1.4910000562667847,-6.859000205993652 -5.214000225067139,-14.35099983215332 -5.807000160217285,-14.755999565124512 C-5.755000114440918,-14.35099983215332 -5.739999771118164,-13.937999725341797 -5.769999980926514,-13.510000228881836 C-6.039999961853027,-9.583999633789062 -9.63599967956543,-4.97599983215332 -11.069000244140625,-3.631999969482422 C-14.927000045776367,-0.03700000047683716 -19.941999435424805,1.975000023841858 -24.551000595092773,4.534999847412109 C-47.279998779296875,17.160999298095703 -47.279998779296875,30.67300033569336 -49.53200149536133,29.922000885009766 C-50.95800018310547,29.448999404907227 -52.534000396728516,23.91699981689453 -57.03799819946289,23.166000366210938 C-63.55400085449219,22.077999114990234 -56.505001068115234,12.12399959564209 -54.98899841308594,5.690999984741211 C-53.77299880981445,0.5490000247955322 -50.67300033569336,-3.924999952316284 -47.474998474121094,-8.128000259399414 C-43.00899887084961,-13.998000144958496 -38.130001068115234,-19.716999053955078 -31.922000885009766,-23.687999725341797 C-25.27899932861328,-27.937000274658203 -17.493999481201172,-29.881000518798828 -9.583000183105469,-29.948999404907227 C-8.899999618530273,-29.957000732421875 -8.217000007629395,-29.948999404907227 -7.526000022888184,-29.926000595092773 C-1.746000051498413,-29.746000289916992 4.047999858856201,-28.58300018310547 9.460000038146973,-26.615999221801758 C22.927000045776367,-21.729000091552734 34.34400177001953,-12.406000137329102 44.39500045776367,-2.2049999237060547 C47.27000045776367,0.7070000171661377 50.106998443603516,3.7920000553131104 51.74300003051758,7.538000106811523 C53.37200164794922,11.291000366210938 61.76499938964844,16.889999389648438 59.310001373291016,20.163000106811523z"></path></g></g><g opacity="1" transform="matrix(1,0,0,1,780.97900390625,231.66900634765625)"><path fill="rgb(84,70,62)" fill-opacity="1" d=" M2.071000099182129,10.682000160217285 C-2.2980000972747803,5.150000095367432 -2.506999969482422,-1.1109999418258667 -1.7419999837875366,-5.756999969482422 C-1.4190000295639038,-7.761000156402588 -0.9089999794960022,-9.465999603271484 -0.48100000619888306,-10.682000160217285 C0.375,-10.314000129699707 1.2230000495910645,-9.899999618530273 2.055999994277954,-9.449999809265137 C1.274999976158142,-8.211999893188477 0.7129999995231628,-6.966000080108643 0.3149999976158142,-5.735000133514404 C-2.2890000343322754,2.2070000171661377 2.0339999198913574,9.4350004196167 2.0339999198913574,9.4350004196167 C2.0859999656677246,9.84000015258789 2.1010000705718994,10.253999710083008 2.071000099182129,10.682000160217285z"></path></g></g><g transform="matrix(1,0,0,1,0,0.0020751953125)" opacity="1" style="display: block;"><g opacity="1" transform="matrix(1,0,0,1,580.2550048828125,829.5679931640625)"><path fill="rgb(239,236,223)" fill-opacity="1" d=" M-239.82000732421875,53.5629997253418 C-134.37399291992188,123.11599731445312 254.26400756835938,69.94300079345703 272.4419860839844,64.35600280761719 C272.4419860839844,64.35600280761719 272.4339904785156,64.3489990234375 272.4339904785156,64.3489990234375 C255.56700134277344,32.698001861572266 276.7179870605469,-14.309000015258789 284.3009948730469,-28.614999771118164 C241.43299865722656,-40.077999114990234 -29.167999267578125,-120.0459976196289 -237.73300170898438,-75.8290023803711 C-291.2330017089844,-64.48699951171875 -307.05999755859375,9.211999893188477 -239.82000732421875,53.5629997253418z"></path></g><g opacity="1" transform="matrix(1,0,0,1,653.031005859375,830.0659790039062)"><path fill="rgb(219,214,193)" fill-opacity="1" d=" M-21.409000396728516,-81.30799865722656 C96.96299743652344,-67.46499633789062 189.5780029296875,-39.86399841308594 205.26400756835938,-34.053001403808594 C211.88099670410156,-31.601999282836914 214.8260040283203,-29.097999572753906 214.07899475097656,-29.02199935913086 C212.88999938964844,-27.87700080871582 211.5260009765625,-26.239999771118164 210.0679931640625,-24.191999435424805 C198.8470001220703,-8.413000106811523 188.572998046875,31.429000854492188 198.6649932861328,63.75899887084961 C198.6649932861328,63.75899887084961 198.67300415039062,63.76599884033203 198.67300415039062,63.76599884033203 C199.3280029296875,65.38200378417969 194.14300537109375,66.98799896240234 185.98300170898438,68.50499725341797 C168.9669952392578,71.66999816894531 139.00100708007812,74.43900299072266 122.20999908447266,76.03900146484375 C63.14500045776367,81.66000366210938 14.585000038146973,85.96099853515625 -33.71500015258789,88.45600128173828 C-32.54399871826172,88.3219985961914 96.86799621582031,73.79000091552734 136.30099487304688,68.18299865722656 C141.46200561523438,67.4469985961914 145.08399963378906,66.86199951171875 146.6750030517578,66.48400115966797 C159.0659942626953,63.540000915527344 181.7949981689453,55.67499923706055 187.9010009765625,32.46200180053711 C188.60400390625,29.823999404907227 189.0919952392578,26.986000061035156 189.3159942626953,23.937999725341797 C190.51400756835938,7.848999977111816 196.2570037841797,-6.5980000495910645 201.302001953125,-16.510000228881836 C204.95199584960938,-23.68400001525879 208.2550048828125,-26.94300079345703 207.2830047607422,-29.06800079345703 C206.75,-30.233999252319336 203.9499969482422,-31.388999938964844 201.5290069580078,-32.19599914550781 C163.99099731445312,-41.66899871826172 50.68600082397461,-69.54000091552734 -21.704999923706055,-76.8280029296875 C-115.8280029296875,-86.3030014038086 -201.23399353027344,-83.6709976196289 -211.98899841308594,-85.53700256347656 C-232.52499389648438,-89.0999984741211 -104.88500213623047,-91.06999969482422 -21.409000396728516,-81.30799865722656z"></path></g><g opacity="1" transform="matrix(1,0,0,1,445.79400634765625,864.75)"><path fill="rgb(219,214,193)" fill-opacity="1" d=" M-108.22899627685547,18.3799991607666 C-62.428001403808594,51.49100112915039 22.58799934387207,55.823001861572266 61.58700180053711,56.15599822998047 C92.79199981689453,56.41899871826172 121.49299621582031,55.95899963378906 149.71299743652344,54.85100173950195 C25.02400016784668,53.082000732421875 -67.68900299072266,35.78200149536133 -100.66400146484375,12.119000434875488 C-127.48500061035156,-7.127999782562256 -142.9239959716797,-25.44499969482422 -149.70700073242188,-56.22800064086914 C-149.96800231933594,-32.75 -140.95199584960938,-5.276000022888184 -108.22899627685547,18.3799991607666z"></path></g></g><g transform="matrix(1,0,0,1,0,0.0020751953125)" opacity="1" style="display: block;"><g opacity="1" transform="matrix(1,0,0,1,973.4000244140625,865.375)"><path fill="rgb(255,206,85)" fill-opacity="1" d=" M-151.49899291992188,14.121999740600586 C-150.3990020751953,18.111000061035156 -148.60699462890625,21.841999053955078 -145.9550018310547,25.13800048828125 C-136.906005859375,36.37300109863281 -132.18800354003906,36.44900131225586 -117.8489990234375,38.10300064086914 C-91.43800354003906,41.15399932861328 -51.733001708984375,41.70399856567383 -25.32200050354004,44.755001068115234 C3.9130001068115234,48.13199996948242 31.0049991607666,56.39899826049805 60.2400016784668,59.7760009765625 C64.23899841308594,60.23699951171875 68.3280029296875,60.68899917602539 72.4020004272461,60.847999572753906 C79.80500030517578,61.13199996948242 87.13200378417969,60.4640007019043 93.67900085449219,57.19599914550781 C107.9739990234375,50.058998107910156 113.91799926757812,33.185001373291016 124.00199890136719,20.79400062561035 C124.41000366210938,20.29599952697754 124.82499694824219,19.788999557495117 125.24800109863281,19.283000946044922 C125.24800109863281,19.274999618530273 125.25499725341797,19.275999069213867 125.25499725341797,19.275999069213867 C135.40199279785156,7.002999782562256 149.69000244140625,-8.347999572753906 152.39500427246094,-23.600000381469727 C155.51300048828125,-41.18199920654297 144.85699462890625,-54.194000244140625 122.87799835205078,-55.72100067138672 C118.10099792480469,-56.05699920654297 113.53099822998047,-56.21200180053711 109.09400177001953,-56.19599914550781 C107.75800323486328,-56.19200134277344 106.43699645996094,-56.165000915527344 105.1240005493164,-56.13199996948242 C105.1240005493164,-56.13199996948242 105.12300109863281,-56.13199996948242 105.11599731445312,-56.13199996948242 C93.0510025024414,-55.7869987487793 81.8759994506836,-54.08300018310547 70.15299987792969,-50.92300033569336 C52.9119987487793,-46.270999908447266 34.893001556396484,-41.435001373291016 17.437000274658203,-45.20199966430664 C9.402999877929688,-46.94200134277344 1.843999981880188,-50.44300079345703 -5.75600004196167,-53.702999114990234 C-13.081999778747559,-56.834999084472656 -20.45400047302246,-59.749000549316406 -28.33099937438965,-60.61399841308594 C-36.71900177001953,-61.54199981689453 -45.145999908447266,-60.125 -53.31399917602539,-58.29499816894531 C-67.06600189208984,-55.21099853515625 -82.4800033569336,-48.97700119018555 -96.46800231933594,-53.35100173950195 C-102.96199798583984,-55.3849983215332 -114.37699890136719,-57.8120002746582 -116.62899780273438,-58.362998962402344 C-118.51799774169922,-58.82500076293945 -112.4000015258789,-58.597999572753906 -111.70600128173828,-57.27199935913086 C-111.29499816894531,-56.479000091552734 -111.19400024414062,-55.76100158691406 -112.33799743652344,-55.582000732421875 C-119.68199920654297,-54.433998107910156 -126.6449966430664,-50.959999084472656 -132.1959991455078,-46.04999923706055 C-141.13999938964844,-38.14099884033203 -146.66799926757812,-26.999000549316406 -150.04800415039062,-15.5600004196167 C-150.86399841308594,-12.79800033569336 -151.54100036621094,-9.9350004196167 -152.03799438476562,-7.039000034332275 C-153.25999450683594,0.0949999988079071 -153.3509979248047,7.455999851226807 -151.49899291992188,14.121999740600586z"></path></g><g opacity="1" transform="matrix(1,0,0,1,0,0)"><g opacity="1" transform="matrix(1,0,0,1,959.2459716796875,862.5399780273438)"><path fill="rgb(244,186,55)" fill-opacity="1" d=" M-139.40199279785156,-63.7400016784668 C-139.40199279785156,-63.7400016784668 -137.34500122070312,16.957000732421875 -137.34500122070312,16.957000732421875 C-136.2449951171875,20.945999145507812 -134.45199584960938,24.67799949645996 -131.8000030517578,27.974000930786133 C-122.7509994506836,39.20899963378906 -118.03399658203125,39.284000396728516 -103.69499969482422,40.9379997253418 C-77.28399658203125,43.98899841308594 -37.57899856567383,44.53900146484375 -11.168000221252441,47.59000015258789 C18.066999435424805,50.96699905395508 45.159000396728516,59.23400115966797 74.39399719238281,62.611000061035156 C85.66799926757812,63.91600036621094 97.68299865722656,65.09600067138672 107.83300018310547,60.03200149536133 C122.12799835205078,52.89500045776367 128.07200622558594,36.020999908447266 138.156005859375,23.6299991607666 C138.56399536132812,23.131999969482422 138.97900390625,22.625 139.40199279785156,22.118999481201172 C129.35299682617188,28.510000228881836 115.02400207519531,49.62900161743164 83.66799926757812,56.435001373291016 C52.30500030517578,63.242000579833984 17.23200035095215,42.361000061035156 -25.655000686645508,38.94900131225586 C-68.54199981689453,35.5369987487793 -95.70899963378906,30.222000122070312 -98.87100219726562,23.9950008392334 C-102.03299713134766,17.76099967956543 -104.86100006103516,-4.835999965667725 -100.10600280761719,-24.479999542236328 C-95.35099792480469,-44.124000549316406 -90.14299774169922,-52.7859992980957 -90.14299774169922,-52.7859992980957 C-90.14299774169922,-52.7859992980957 -97.5510025024414,-54.4370002746582 -97.5510025024414,-54.4370002746582 C-97.5510025024414,-54.4370002746582 -139.40199279785156,-63.7400016784668 -139.40199279785156,-63.7400016784668z"></path></g><g opacity="1" transform="matrix(1,0,0,1,1022.9580078125,819.1909790039062)"><path fill="rgb(244,186,55)" fill-opacity="1" d=" M-55.558998107910156,-7.116000175476074 C-44.86600112915039,-2.0799999237060547 -31.134000778198242,10.229999542236328 -19.878000259399414,9.942999839782715 C-8.621999740600586,9.656000137329102 5.48199987411499,3.2899999618530273 18.14299964904785,-0.7870000004768372 C30.707000732421875,-4.831999778747559 55.178001403808594,-9.871000289916992 55.558998107910156,-9.947999954223633 C43.49399948120117,-9.602999687194824 32.31800079345703,-7.89900016784668 20.594999313354492,-4.738999843597412 C3.3540000915527344,-0.08699999749660492 -14.663999557495117,4.749000072479248 -32.119998931884766,0.9819999933242798 C-40.15399932861328,-0.7580000162124634 -47.7140007019043,-4.260000228881836 -55.31399917602539,-7.519999980926514 C-55.31399917602539,-7.519999980926514 -55.558998107910156,-7.116000175476074 -55.558998107910156,-7.116000175476074z"></path></g><g opacity="0.3" transform="matrix(1,0,0,1,1084.7869873046875,867.72998046875)"><path fill="rgb(255,255,255)" fill-opacity="1" d=" M-38.98500061035156,58.49300003051758 C-31.582000732421875,58.777000427246094 -24.2549991607666,58.11000061035156 -17.70800018310547,54.84199905395508 C-3.4130001068115234,47.70500183105469 2.5309998989105225,30.829999923706055 12.614999771118164,18.43899917602539 C13.02299976348877,17.94099998474121 13.437999725341797,17.434999465942383 13.861000061035156,16.929000854492188 C13.861000061035156,16.92099952697754 13.868000030517578,16.92099952697754 13.868000030517578,16.92099952697754 C24.014999389648438,4.6479997634887695 38.303001403808594,-10.70300006866455 41.007999420166016,-25.954999923706055 C44.125999450683594,-43.5369987487793 33.470001220703125,-56.54899978637695 11.491000175476074,-58.07600021362305 C6.714000225067139,-58.4119987487793 2.1440000534057617,-58.56700134277344 -2.2929999828338623,-58.55099868774414 C-20.937999725341797,-40.31700134277344 -50.40399932861328,-0.9330000281333923 -38.98500061035156,58.49300003051758z"></path></g></g></g><g transform="matrix(1,0,0,1,0,0.00201416015625)" opacity="1" style="display: block;"><g opacity="1" transform="matrix(1,0,0,1,631.4310302734375,873.4990234375)"><path fill="rgb(255,206,85)" fill-opacity="1" d=" M152.1439971923828,9.725000381469727 C151.14599609375,13.741000175476074 149.44900512695312,17.516000747680664 146.8820037841797,20.878999710083008 C138.1219940185547,32.340999603271484 133.4080047607422,32.5369987487793 119.11599731445312,34.555999755859375 C92.79100036621094,38.27899932861328 53.11399841308594,39.84000015258789 26.788999557495117,43.5629997253418 C-2.3499999046325684,47.683998107910156 -29.224000930786133,56.638999938964844 -58.362998962402344,60.7599983215332 C-62.3489990234375,61.323001861572266 -66.42500305175781,61.87799835205078 -70.49299621582031,62.14099884033203 C-77.88700103759766,62.61399841308594 -85.22799682617188,62.13399887084961 -91.85600280761719,59.034000396728516 C-106.3280029296875,52.26300048828125 -112.70099639892578,35.54600143432617 -123.09700012207031,23.416000366210938 C-123.51699829101562,22.92799949645996 -123.94599914550781,22.433000564575195 -124.38099670410156,21.937999725341797 C-124.38099670410156,21.93000030517578 -124.38800048828125,21.93000030517578 -124.38800048828125,21.93000030517578 C-134.843994140625,9.920000076293945 -149.5189971923828,-5.061999797821045 -152.61199951171875,-20.239999771118164 C-156.17799377441406,-37.73699951171875 -145.8560028076172,-51.01599884033203 -123.9229965209961,-53.10300064086914 C-119.15599822998047,-53.56100082397461 -114.59200286865234,-53.83100128173828 -110.15599822998047,-53.92900085449219 C-108.81999969482422,-53.95899963378906 -107.4990005493164,-53.965999603271484 -106.18499755859375,-53.965999603271484 C-106.18499755859375,-53.965999603271484 -106.18499755859375,-53.965999603271484 -106.1780014038086,-53.965999603271484 C-94.10800170898438,-53.92900085449219 -82.89299774169922,-52.5099983215332 -71.09300231933594,-49.650001525878906 C-53.73899841308594,-45.43899917602539 -35.604000091552734,-41.0629997253418 -18.249000549316406,-45.27399826049805 C-10.26200008392334,-47.21799850463867 -2.7939999103546143,-50.9109992980957 4.71999979019165,-54.36399841308594 C11.96399974822998,-57.68199920654297 19.260000228881836,-60.78200149536133 27.11199951171875,-61.847999572753906 C35.4739990234375,-62.98899841308594 43.93299865722656,-61.7869987487793 52.14500045776367,-60.16600036621094 C65.97200012207031,-57.433998107910156 81.53900146484375,-51.59400177001953 95.41100311279297,-56.323001861572266 C101.85099792480469,-58.52199935913086 113.2020034790039,-61.23899841308594 115.43900299072266,-61.84700012207031 C117.31600189208984,-62.356998443603516 111.2040023803711,-61.97600173950195 110.54399871826172,-60.63199996948242 C110.15399932861328,-59.82899856567383 110.0719985961914,-59.108001708984375 111.22000122070312,-58.95800018310547 C118.59100341796875,-57.99700164794922 125.63899993896484,-54.70100021362305 131.31399536132812,-49.935001373291016 C140.45700073242188,-42.25600051879883 146.26600646972656,-31.259000778198242 149.93699645996094,-19.90999984741211 C150.822998046875,-17.170000076293945 151.57400512695312,-14.324999809265137 152.1439971923828,-11.442999839782715 C153.54800415039062,-4.3420000076293945 153.8260040283203,3.0139999389648438 152.1439971923828,9.725000381469727z"></path></g><g opacity="1" transform="matrix(1,0,0,1,0,0)"><g opacity="1" transform="matrix(1,0,0,1,645.31201171875,869.1480102539062)"><path fill="rgb(244,186,55)" fill-opacity="1" d=" M138.26300048828125,-66.64700317382812 C138.26300048828125,-66.64700317382812 138.26300048828125,14.076000213623047 138.26300048828125,14.076000213623047 C137.26499938964844,18.091999053955078 135.5679931640625,21.867000579833984 133.00100708007812,25.229999542236328 C124.24099731445312,36.69200134277344 119.5270004272461,36.88800048828125 105.23500061035156,38.90700149536133 C78.91000366210938,42.630001068115234 39.231998443603516,44.191001892089844 12.906999588012695,47.91400146484375 C-16.23200035095215,52.03499984741211 -43.10499954223633,60.9900016784668 -72.24400329589844,65.11100006103516 C-83.48100280761719,66.7020034790039 -95.46199798583984,68.18900299072266 -105.73799896240234,63.3849983215332 C-120.20999908447266,56.61399841308594 -126.58300018310547,39.89699935913086 -136.97900390625,27.767000198364258 C-137.3990020751953,27.27899932861328 -137.8280029296875,26.784000396728516 -138.26300048828125,26.288999557495117 C-128.0540008544922,32.422000885009766 -113.19100189208984,53.16899871826172 -81.6719970703125,59.17399978637695 C-50.14500045776367,65.17900085449219 -15.616999626159668,43.4109992980957 27.16900062561035,38.90700149536133 C69.95500183105469,34.40299987792969 96.97699737548828,28.398000717163086 99.9800033569336,22.093000411987305 C102.98300170898438,15.779999732971191 105.23400115966797,-6.881999969482422 99.9800033569336,-26.398000717163086 C94.72599792480469,-45.91400146484375 89.29900360107422,-54.44200134277344 89.29900360107422,-54.44200134277344 C89.29900360107422,-54.44200134277344 96.66300201416016,-56.28099822998047 96.66300201416016,-56.28099822998047 C96.66300201416016,-56.28099822998047 138.26300048828125,-66.64700317382812 138.26300048828125,-66.64700317382812z"></path></g><g opacity="1" transform="matrix(1,0,0,1,580.8289794921875,828.3150024414062)"><path fill="rgb(244,186,55)" fill-opacity="1" d=" M55.57699966430664,-8.781999588012695 C45.01599884033203,-3.4749999046325684 31.60099983215332,9.180000305175781 20.341999053955078,9.180000305175781 C9.083000183105469,9.180000305175781 -5.178999900817871,3.174999952316284 -17.940000534057617,-0.578000009059906 C-30.60300064086914,-4.301000118255615 -55.194000244140625,-8.71500015258789 -55.57699966430664,-8.781999588012695 C-43.50699996948242,-8.744999885559082 -32.29199981689453,-7.326000213623047 -20.492000579833984,-4.466000080108643 C-3.138000011444092,-0.2549999952316284 14.996999740600586,4.120999813079834 32.35200119018555,-0.09000000357627869 C40.3390007019043,-2.0339999198913574 47.80799865722656,-5.7270002365112305 55.321998596191406,-9.180000305175781 C55.321998596191406,-9.180000305175781 55.57699966430664,-8.781999588012695 55.57699966430664,-8.781999588012695z"></path></g><g opacity="0.3" transform="matrix(1,0,0,1,520.4979858398438,877.6840209960938)"><path fill="rgb(255,255,255)" fill-opacity="1" d=" M40.439998626708984,57.957000732421875 C33.04600143432617,58.43000030517578 25.704999923706055,57.94900131225586 19.07699966430664,54.8489990234375 C4.605000019073486,48.077999114990234 -1.7680000066757202,31.36199951171875 -12.163999557495117,19.23200035095215 C-12.583999633789062,18.743999481201172 -13.012999534606934,18.24799919128418 -13.447999954223633,17.753000259399414 C-13.447999954223633,17.7450008392334 -13.454999923706055,17.7450008392334 -13.454999923706055,17.7450008392334 C-23.910999298095703,5.735000133514404 -38.58599853515625,-9.246999740600586 -41.67900085449219,-24.424999237060547 C-45.244998931884766,-41.922000885009766 -34.92300033569336,-55.20100021362305 -12.989999771118164,-57.28799819946289 C-8.222999572753906,-57.74599838256836 -3.6589999198913574,-58.01499938964844 0.7770000100135803,-58.112998962402344 C19.8799991607666,-40.361000061035156 50.340999603271484,-1.7410000562667847 40.439998626708984,57.957000732421875z"></path></g></g></g><g transform="matrix(1,0,0,1,0,0.00201416015625)" opacity="1" style="display: block;"><g opacity="1" transform="matrix(1,0,0,1,1022.4609985351562,808.7520141601562)"><path fill="rgb(239,236,223)" fill-opacity="1" d=" M251.20700073242188,32.71500015258789 C153.38800048828125,114.04000091552734 -243.76499938964844,102.0199966430664 -262.4169921875,98.24800109863281 C-262.4169921875,98.24800109863281 -262.8080139160156,98.24800109863281 -262.8080139160156,98.24800109863281 C-249.25,64.46299743652344 -276.8949890136719,18.81399917602539 -285.8949890136719,5.118000030517578 C-244.41700744628906,-10.925000190734863 -53.65599822998047,-102.2959976196289 216.73500061035156,-101.12200164794922 C285.60400390625,-100.822998046875 313.5830078125,-19.14299964904785 251.20700073242188,32.71500015258789z"></path></g><g opacity="1" transform="matrix(1,0,0,1,944.0809936523438,811.2769775390625)"><path fill="rgb(219,214,193)" fill-opacity="1" d=" M18.895000457763672,-74.36599731445312 C-97.4530029296875,-48.09400177001953 -186.7779998779297,-10.562000274658203 -201.79100036621094,-3.055999994277954 C-208.12399291992188,0.11100000143051147 -210.7989959716797,2.9489998817443848 -210.04800415039062,2.9489998817443848 C-208.74899291992188,3.984999895095825 -207.22500610351562,5.500999927520752 -205.5659942626953,7.422999858856201 C-192.7969970703125,22.232999801635742 -178.52099609375,61.49800109863281 -185.2689971923828,95.26899719238281 C-185.2689971923828,95.26899719238281 -185.27699279785156,95.2770004272461 -185.27699279785156,95.2770004272461 C-185.76400756835938,96.98100280761719 -180.4429931640625,98.06800079345703 -172.17100524902344,98.75900268554688 C-154.92100524902344,100.19999694824219 -124.8280029296875,99.9000015258789 -107.96199798583984,99.77999877929688 C-48.63199996948242,99.35199737548828 0.11400000005960464,98.677001953125 48.41699981689453,96.19999694824219 C47.237998962402344,96.18499755859375 -82.9800033569336,94.87799835205078 -122.77899932861328,93.28700256347656 C-127.98799896240234,93.0770034790039 -131.65199279785156,92.86000061035156 -133.2729949951172,92.64199829101562 C-145.8990020751953,90.94499969482422 -169.31100463867188,85.33799743652344 -177.7480010986328,62.4739990234375 C-178.71600341796875,59.87699890136719 -179.48899841308594,57.05400085449219 -180.02200317382812,53.992000579833984 C-182.8520050048828,37.83100128173828 -190.03500366210938,23.801000595092773 -196.06300354003906,14.291000366210938 C-200.4239959716797,7.4070000648498535 -204.04299926757812,4.449999809265137 -203.29200744628906,2.197999954223633 C-202.8800048828125,0.9629999995231628 -200.21299743652344,-0.4970000088214874 -197.88600158691406,-1.5640000104904175 C-161.5070037841797,-15.041000366210938 -51.62699890136719,-54.987998962402344 19.645999908447266,-69.86199951171875 C112.31600189208984,-89.2020034790039 197.5449981689453,-95.38300323486328 208.0540008544922,-98.38600158691406 C228.12100219726562,-104.11900329589844 100.94400024414062,-92.89299774169922 18.895000457763672,-74.36599731445312z"></path></g><g opacity="1" transform="matrix(1,0,0,1,1162.633056640625,823.2039794921875)"><path fill="rgb(219,214,193)" fill-opacity="1" d=" M112.01300048828125,18.06800079345703 C69.81999969482422,56.327999114990234 -19.774999618530273,70.71700286865234 -58.53799819946289,75.09300231933594 C-89.55400085449219,78.59100341796875 -118.15299987792969,81.0979995727539 -146.33900451660156,82.89900207519531 C-22.47800064086914,68.19400024414062 67.9489974975586,42.40999984741211 98.34400177001953,15.041999816894531 C123.06700134277344,-7.218999862670898 141.88099670410156,-56.79199981689453 136.4320068359375,-82.89900207519531 C137.8280029296875,-80.36199951171875 141.05499267578125,-74.47200012207031 142.1060028076172,-71.74700164794922 C154.64100646972656,-39.3120002746582 137.77499389648438,-5.291999816894531 112.01300048828125,18.06800079345703z"></path></g></g><g transform="matrix(1,0,0,1,472.58099365234375,615.5010375976562)" opacity="1" style="display: block;"><g opacity="1" transform="matrix(1,0,0,1,0,0)"><path fill="rgb(255,162,144)" fill-opacity="1" d=" M84.63600158691406,-18.281999588012695 C9.765999794006348,-81.41200256347656 -62.75,-119.7979965209961 -69.58100128173828,-123.5 C-108.35199737548828,-144.51300048828125 -159.47500610351562,-96.79399871826172 -127.58100128173828,-57.5 C15.307999610900879,118.54100036621094 63.69300079345703,124.00399780273438 79.41899871826172,127.28299713134766 C137.63299560546875,139.4219970703125 171.98399353027344,68.23999786376953 84.63600158691406,-18.281999588012695z"></path></g></g><g transform="matrix(1,0,0,1,0,0.00103759765625)" opacity="1" style="display: block;"><g opacity="1" transform="matrix(1,0,0,1,265.3699951171875,515.8989868164062)"><path fill="rgb(255,162,144)" fill-opacity="1" d=" M29.216999053955078,20.34000015258789 C11.020999908447266,28.753000259399414 -30.847999572753906,33.84000015258789 -39.847999572753906,-5.289999961853027 C-45.361000061035156,-29.26099967956543 -21.847999572753906,-30.333999633789062 -14.413000106811523,-20.15999984741211 C-5.269999980926514,-7.64900016784668 2.2170000076293945,-12.333999633789062 14.347000122070312,-16.051000595092773 C42.457000732421875,-24.665000915527344 49.10200119018555,11.145999908447266 29.216999053955078,20.34000015258789z"></path></g><g opacity="1" transform="matrix(1,0,0,1,242.54200744628906,507.7690124511719)"><path fill="rgb(238,130,104)" fill-opacity="1" d=" M-17.413999557495117,-10.625 C-16.858999252319336,-12.194000244140625 -16.05500030517578,-13.604999542236328 -14.982000350952148,-14.805999755859375 C-13.413000106811523,-16.55500030517578 -11.265999794006348,-17.860000610351562 -8.428999900817871,-18.56599998474121 C-1.5460000038146973,-20.28499984741211 4.683000087738037,-16.02899932861328 6.920000076293945,-13.85200023651123 C15.130999565124512,-4.6620001792907715 18.58799934387207,-4.007999897003174 18.58799934387207,-4.007999897003174 C12.913999557495117,-3.5190000534057617 9.555000305175781,-6.716000080108643 5.185999870300293,-11.052000045776367 C-3.6410000324249268,-20.075000762939453 -13.038000106811523,-16.1560001373291 -15.9350004196167,-8.057000160217285 C-19.687999725341797,2.4519999027252197 -9.930000305175781,18.96500015258789 -9.930000305175781,18.96500015258789 C-15.357000350952148,15.850000381469727 -21.117000579833984,-0.20499999821186066 -17.413999557495117,-10.625z"></path></g></g><g transform="matrix(1,0,0,1,309.82598876953125,469.2160339355469)" opacity="1" style="display: block;"><g opacity="1" transform="matrix(1,0,0,1,0,0)"><path fill="rgb(255,162,144)" fill-opacity="1" d=" M-14.848999977111816,29.06800079345703 C-14.848999977111816,29.06800079345703 -48.500999450683594,2.6549999713897705 -58.67499923706055,-13.583999633789062 C-68.8489990234375,-29.822999954223633 -51.43600082397461,-48.99700164794922 -33.2400016784668,-30.40999984741211 C-15.043999671936035,-11.822999954223633 3.934000015258789,4.807000160217285 29.95599937438965,2.6549999713897705 C55.97800064086914,0.503000020980835 73.51799774169922,12.065999984741211 52.06399917602539,26.52400016784668 C34.06399917602539,38.65399932861328 9.215999603271484,43.742000579833984 -14.848999977111816,29.06800079345703z"></path></g></g><g mask="url(#__lottie_element_79_1)" style="display: block;"><g transform="matrix(0.9971325397491455,-0.0756748765707016,0.0756748765707016,0.9971325397491455,253.8609619140625,455.1650390625)" opacity="1"><g opacity="1" transform="matrix(1,0,0,1,0,0)"><path fill="rgb(238,130,104)" fill-opacity="1" d=" M5.960000038146973,10.359999656677246 C5.960000038146973,10.359999656677246 5.960000038146973,10.368000030517578 5.960000038146973,10.368000030517578 C-1.9220000505447388,16.801000595092773 -19.009000778198242,-1.9819999933242798 -5.448999881744385,-11.281000137329102 C13.208999633789062,-14.765000343322754 13.33899974822998,5.452000141143799 5.960000038146973,10.359999656677246z"></path></g></g></g><g transform="matrix(1,0,0,1,255.84698486328125,484.1970520019531)" opacity="1" style="display: block;"><g opacity="1" transform="matrix(1,0,0,1,0,0)"><path fill="rgb(255,162,144)" fill-opacity="1" d=" M28.957000732421875,34.630001068115234 C-39.32600021362305,57.130001068115234 -59.47800064086914,-21.32699966430664 -12.520999908447266,-37.566001892089844 C2.865999937057495,-42.887001037597656 12.585000038146973,-27.450000762939453 -0.7820000052452087,-18.195999145507812 C-10.956000328063965,-11.152999877929688 -16.826000213623047,13.303999900817871 19.3700008392334,8.020999908447266 C40.236000061035156,4.97599983215332 43.88100051879883,29.711999893188477 28.957000732421875,34.630001068115234z"></path></g></g><g transform="matrix(1,0,0,1,-0.0009765625,0.00103759765625)" opacity="1" style="display: block;"><g opacity="1" transform="matrix(1,0,0,1,249.51499938964844,509.2170104980469)"><path fill="rgb(255,162,144)" fill-opacity="1" d=" M34.89799880981445,14.5 C21.847000122070312,20.534000396728516 -35.34199905395508,31.913000106811523 -44.34199905395508,-6.238999843597412 C-48.393001556396484,-23.40999984741211 -32.827999114990234,-23.551000595092773 -27.115999221801758,-16.547000885009766 C-12.645999908447266,1.1959999799728394 20.42099952697754,-11.520999908447266 29.121000289916992,-14.187000274658203 C49.28200149536133,-20.364999771118164 49.15999984741211,7.906000137329102 34.89799880981445,14.5z"></path></g><g opacity="1" transform="matrix(1,0,0,1,229.3699951171875,495.6319885253906)"><path fill="rgb(238,130,104)" fill-opacity="1" d=" M10.826000213623047,5.9770002365112305 C10.826000213623047,5.9770002365112305 -0.06599999964237213,6.695000171661377 -4.369999885559082,3.23799991607666 C-9.227999687194824,-0.6629999876022339 -10.826000213623047,-6.039000034332275 -10.826000213623047,-6.039000034332275 C-5.804999828338623,-4.718999862670898 -5.021999835968018,4.019999980926514 10.826000213623047,5.9770002365112305z"></path></g></g><g transform="matrix(1,0,0,1,333.82098388671875,516.6210327148438)" opacity="1" style="display: block;"><g opacity="1" transform="matrix(1,0,0,1,0,0)"><path fill="rgb(255,162,144)" fill-opacity="1" d=" M-65.06099700927734,-23.423999786376953 C-50.9739990234375,-24.79400062561035 -17.332000732421875,-35.31999969482422 -7.734000205993652,-39.27199935913086 C29.08099937438965,-54.43199920654297 84.61299896240234,-45.729000091552734 66.0260009765625,-1.7070000171661377 C49.62799835205078,37.13100051879883 -5.593999862670898,47.49800109863281 -17.320999145507812,46.03200149536133 C-37.66899871826172,43.48899841308594 -84.6259994506836,-22.836999893188477 -65.06099700927734,-23.423999786376953z"></path></g></g><g transform="matrix(1,0,0,1,-0.00103759765625,0.00103759765625)" opacity="1" style="display: block;"><g opacity="1" transform="matrix(1,0,0,1,296.6199951171875,526.1959838867188)"><path fill="rgb(255,162,144)" fill-opacity="1" d=" M31.423999786376953,35.86899948120117 C8.336999893188477,40.7599983215332 -47.22800064086914,23.542999267578125 -50.75,-13.043999671936035 C-53.69900131225586,-43.68199920654297 -31.77199935913086,-40.435001373291016 -25.315000534057617,-26.347999572753906 C-18.857999801635742,-12.26099967956543 1.6579999923706055,-2.1449999809265137 20.466999053955078,-9.130999565124512 C47.858001708984375,-19.30500030517578 67.42400360107422,29.020999908447266 31.423999786376953,35.86899948120117z"></path></g><g opacity="1" transform="matrix(1,0,0,1,281.5,514.7459716796875)"><path fill="rgb(238,130,104)" fill-opacity="1" d=" M21.67099952697754,7.484000205993652 C11.161999702453613,8.234999656677246 0.8709999918937683,4.189000129699707 -6.1020002365112305,-4.526000022888184 C-12.107000350952148,-12.031999588012695 -15.859999656677246,-23.29199981689453 -24.117000579833984,-22.541000366210938 C-32.374000549316406,-21.790000915527344 -35.12799835205078,-12.079000473022461 -33.125,-0.7730000019073486 C-30.445999145507812,14.35099983215332 -20.36400032043457,25.499000549316406 -20.36400032043457,25.499000549316406 C-28.68400001525879,21.687999725341797 -42.722999572753906,-0.9700000286102295 -34.42399978637695,-17.864999771118164 C-33.882999420166016,-18.961000442504883 -33.290000915527344,-19.891000747680664 -32.689998626708984,-20.663999557495117 C-32.06700134277344,-21.459999084472656 -31.451000213623047,-22.08300018310547 -30.87299919128418,-22.541000366210938 C-30.145000457763672,-23.12700080871582 -29.43199920654297,-23.60700035095215 -28.733999252319336,-23.996999740600586 C-22.833999633789062,-27.344999313354492 -18.045000076293945,-24.417999267578125 -15.177000045776367,-21.812999725341797 C-14.885000228881836,-21.558000564575195 -14.61400032043457,-21.295000076293945 -14.359000205993652,-21.040000915527344 C-9.854999542236328,-16.535999298095703 -5.3520002365112305,-0.7730000019073486 11.913000106811523,3.7309999465942383 C24.599000930786133,7.040999889373779 34.43199920654297,2.2300000190734863 36.683998107910156,2.2300000190734863 C38.36600112915039,2.2300000190734863 32.18000030517578,6.732999801635742 21.67099952697754,7.484000205993652z"></path></g></g><g mask="url(#__lottie_element_61_1)" style="display: block;"><g transform="matrix(1,0,0,1,283.6820068359375,488.67303466796875)" opacity="1"><g opacity="1" transform="matrix(1,0,0,1,0,0)"><path fill="rgb(238,130,104)" fill-opacity="1" d=" M-4.682000160217285,2.763000011444092 C-4.682000160217285,2.763000011444092 4.4770002365112305,0.531000018119812 9.730999946594238,0.531000018119812 C19.48900032043457,0.531000018119812 5.230000019073486,-5.063000202178955 -12.899999618530273,-1.6720000505447388 C-12.899999618530273,-1.6720000505447388 -4.682000160217285,2.763000011444092 -4.682000160217285,2.763000011444092z"></path></g></g></g><g mask="url(#__lottie_element_49_1)" style="display: block;"><g transform="matrix(1,0,0,1,351.0329895019531,559.7430419921875)" opacity="1"><g opacity="1" transform="matrix(1,0,0,1,0,0)"><path fill="rgb(238,130,104)" fill-opacity="1" d=" M-6.006999969482422,-1.7589999437332153 C-6.006999969482422,-1.7589999437332153 0.17800000309944153,-3.7330000400543213 4.682000160217285,-5.985000133514404 C9.185999870300293,-8.237000465393066 0.7689999938011169,6.2230000495910645 0.7689999938011169,6.2230000495910645 C0.7689999938011169,6.2230000495910645 -6.006999969482422,-1.7589999437332153 -6.006999969482422,-1.7589999437332153z"></path></g></g></g><g transform="matrix(1,0,0,1,1273.7669677734375,469.216064453125)" opacity="1" style="display: block;"><g opacity="1" transform="matrix(1,0,0,1,0,0)"><path fill="rgb(255,162,144)" fill-opacity="1" d=" M14.848999977111816,29.06800079345703 C14.848999977111816,29.06800079345703 48.500999450683594,2.6549999713897705 58.67499923706055,-13.583999633789062 C68.8489990234375,-29.822999954223633 51.43600082397461,-48.99700164794922 33.2400016784668,-30.40999984741211 C15.043999671936035,-11.822999954223633 -3.934000015258789,4.807000160217285 -29.95599937438965,2.6549999713897705 C-55.97800064086914,0.503000020980835 -73.51799774169922,12.065999984741211 -52.06399917602539,26.52400016784668 C-34.06399917602539,38.65399932861328 -9.215999603271484,43.742000579833984 14.848999977111816,29.06800079345703z"></path></g></g><g mask="url(#__lottie_element_40_1)" style="display: block;"><g transform="matrix(1,0,0,1,1329.6719970703125,455.4610595703125)" opacity="1"><g opacity="1" transform="matrix(1,0,0,1,0,0)"><path fill="rgb(238,130,104)" fill-opacity="1" d=" M-5.960000038146973,10.359999656677246 C-5.960000038146973,10.359999656677246 -5.960000038146973,10.368000030517578 -5.960000038146973,10.368000030517578 C1.9220000505447388,16.801000595092773 19.009000778198242,-1.9819999933242798 5.448999881744385,-11.281000137329102 C-13.208999633789062,-14.765000343322754 -13.33899974822998,5.452000141143799 -5.960000038146973,10.359999656677246z"></path></g></g></g><g transform="matrix(1,0,0,1,1327.7469482421875,484.1970520019531)" opacity="1" style="display: block;"><g opacity="1" transform="matrix(1,0,0,1,0,0)"><path fill="rgb(255,162,144)" fill-opacity="1" d=" M-28.957000732421875,34.630001068115234 C39.32600021362305,57.130001068115234 59.47800064086914,-21.32699966430664 12.520999908447266,-37.566001892089844 C-2.865999937057495,-42.887001037597656 -12.585000038146973,-27.450000762939453 0.7820000052452087,-18.195999145507812 C10.956000328063965,-11.152999877929688 16.826000213623047,13.303999900817871 -19.3700008392334,8.020999908447266 C-40.236000061035156,4.97599983215332 -43.88100051879883,29.711999893188477 -28.957000732421875,34.630001068115234z"></path></g></g><g transform="matrix(1,0,0,1,0,0.00103759765625)" opacity="1" style="display: block;"><g opacity="1" transform="matrix(1,0,0,1,1334.0789794921875,509.2170104980469)"><path fill="rgb(255,162,144)" fill-opacity="1" d=" M-34.89799880981445,14.5 C-21.847000122070312,20.534000396728516 35.34199905395508,31.913000106811523 44.34199905395508,-6.238999843597412 C48.393001556396484,-23.40999984741211 32.827999114990234,-23.551000595092773 27.115999221801758,-16.547000885009766 C12.645999908447266,1.1959999799728394 -20.42099952697754,-11.520999908447266 -29.121000289916992,-14.187000274658203 C-49.28200149536133,-20.364999771118164 -49.15999984741211,7.906000137329102 -34.89799880981445,14.5z"></path></g><g opacity="1" transform="matrix(1,0,0,1,1354.2239990234375,495.6319885253906)"><path fill="rgb(238,130,104)" fill-opacity="1" d=" M-10.826000213623047,5.9770002365112305 C-10.826000213623047,5.9770002365112305 0.06599999964237213,6.695000171661377 4.369999885559082,3.23799991607666 C9.227999687194824,-0.6629999876022339 10.826000213623047,-6.039000034332275 10.826000213623047,-6.039000034332275 C5.804999828338623,-4.718999862670898 5.021999835968018,4.019999980926514 -10.826000213623047,5.9770002365112305z"></path></g></g><g transform="matrix(1,0,0,1,0,0.00103759765625)" opacity="1" style="display: block;"><g opacity="1" transform="matrix(1,0,0,1,1318.2239990234375,515.8989868164062)"><path fill="rgb(255,162,144)" fill-opacity="1" d=" M-29.216999053955078,20.34000015258789 C-11.020999908447266,28.753000259399414 30.847999572753906,33.84000015258789 39.847999572753906,-5.289999961853027 C45.361000061035156,-29.26099967956543 21.847999572753906,-30.333999633789062 14.413000106811523,-20.15999984741211 C5.269999980926514,-7.64900016784668 -2.2170000076293945,-12.333999633789062 -14.347000122070312,-16.051000595092773 C-42.457000732421875,-24.665000915527344 -49.10200119018555,11.145999908447266 -29.216999053955078,20.34000015258789z"></path></g><g opacity="1" transform="matrix(1,0,0,1,1341.052001953125,507.7690124511719)"><path fill="rgb(238,130,104)" fill-opacity="1" d=" M17.413999557495117,-10.625 C16.858999252319336,-12.194000244140625 16.05500030517578,-13.604999542236328 14.982000350952148,-14.805999755859375 C13.413000106811523,-16.55500030517578 11.265999794006348,-17.860000610351562 8.428999900817871,-18.56599998474121 C1.5460000038146973,-20.28499984741211 -4.683000087738037,-16.02899932861328 -6.920000076293945,-13.85200023651123 C-15.130999565124512,-4.6620001792907715 -18.58799934387207,-4.007999897003174 -18.58799934387207,-4.007999897003174 C-12.913999557495117,-3.5190000534057617 -9.555000305175781,-6.716000080108643 -5.185999870300293,-11.052000045776367 C3.6410000324249268,-20.075000762939453 13.038000106811523,-16.1560001373291 15.9350004196167,-8.057000160217285 C19.687999725341797,2.4519999027252197 9.930000305175781,18.96500015258789 9.930000305175781,18.96500015258789 C15.357000350952148,15.850000381469727 21.117000579833984,-0.20499999821186066 17.413999557495117,-10.625z"></path></g></g><g transform="matrix(1,0,0,1,1099.0469970703125,616.0210571289062)" opacity="1" style="display: block;"><g opacity="1" transform="matrix(1,0,0,1,0,0)"><path fill="rgb(255,162,144)" fill-opacity="1" d=" M-72.13400268554688,127.41500091552734 C-56.40800094604492,124.13600158691406 -3.3410000801086426,118.02100372314453 139.54800415039062,-58.02000045776367 C171.44200134277344,-97.31400299072266 120.31900024414062,-145.0330047607422 81.5479965209961,-124.0199966430664 C74.71700286865234,-120.31800079345703 -39.00299835205078,-49.84600067138672 -113.87300109863281,13.284000396728516 C-189.39500427246094,86.8489990234375 -130.34800720214844,139.5540008544922 -72.13400268554688,127.41500091552734z"></path></g></g><g transform="matrix(1,0,0,1,1249.77294921875,516.6210327148438)" opacity="1" style="display: block;"><g opacity="1" transform="matrix(1,0,0,1,0,0)"><path fill="rgb(255,162,144)" fill-opacity="1" d=" M65.06099700927734,-23.423999786376953 C50.9739990234375,-24.79400062561035 17.332000732421875,-35.31999969482422 7.734000205993652,-39.27199935913086 C-29.08099937438965,-54.43199920654297 -84.61299896240234,-45.729000091552734 -66.0260009765625,-1.7070000171661377 C-49.62799835205078,37.13100051879883 5.593999862670898,47.49800109863281 17.320999145507812,46.03200149536133 C37.66899871826172,43.48899841308594 84.6259994506836,-22.836999893188477 65.06099700927734,-23.423999786376953z"></path></g></g><g transform="matrix(1,0,0,1,-0.0001220703125,0.00103759765625)" opacity="1" style="display: block;"><g opacity="1" transform="matrix(1,0,0,1,1286.9749755859375,526.1959838867188)"><path fill="rgb(255,162,144)" fill-opacity="1" d=" M-31.423999786376953,35.86899948120117 C-8.336999893188477,40.7599983215332 47.22800064086914,23.542999267578125 50.75,-13.043999671936035 C53.69900131225586,-43.68199920654297 31.77199935913086,-40.435001373291016 25.315000534057617,-26.347999572753906 C18.857999801635742,-12.26099967956543 -1.6579999923706055,-2.1449999809265137 -20.466999053955078,-9.130999565124512 C-47.858001708984375,-19.30500030517578 -67.42400360107422,29.020999908447266 -31.423999786376953,35.86899948120117z"></path></g><g opacity="1" transform="matrix(1,0,0,1,1302.093994140625,514.7459716796875)"><path fill="rgb(238,130,104)" fill-opacity="1" d=" M-21.67099952697754,7.484000205993652 C-11.161999702453613,8.234999656677246 -0.8709999918937683,4.189000129699707 6.1020002365112305,-4.526000022888184 C12.107000350952148,-12.031999588012695 15.859999656677246,-23.29199981689453 24.117000579833984,-22.541000366210938 C32.374000549316406,-21.790000915527344 35.12799835205078,-12.079000473022461 33.125,-0.7730000019073486 C30.445999145507812,14.35099983215332 20.36400032043457,25.499000549316406 20.36400032043457,25.499000549316406 C28.68400001525879,21.687999725341797 42.722999572753906,-0.9700000286102295 34.42399978637695,-17.864999771118164 C33.882999420166016,-18.961000442504883 33.290000915527344,-19.891000747680664 32.689998626708984,-20.663999557495117 C32.06700134277344,-21.459999084472656 31.451000213623047,-22.08300018310547 30.87299919128418,-22.541000366210938 C30.145000457763672,-23.12700080871582 29.43199920654297,-23.60700035095215 28.733999252319336,-23.996999740600586 C22.833999633789062,-27.344999313354492 18.045000076293945,-24.417999267578125 15.177000045776367,-21.812999725341797 C14.885000228881836,-21.558000564575195 14.61400032043457,-21.295000076293945 14.359000205993652,-21.040000915527344 C9.854999542236328,-16.535999298095703 5.3520002365112305,-0.7730000019073486 -11.913000106811523,3.7309999465942383 C-24.599000930786133,7.040999889373779 -34.43199920654297,2.2300000190734863 -36.683998107910156,2.2300000190734863 C-38.36600112915039,2.2300000190734863 -32.18000030517578,6.732999801635742 -21.67099952697754,7.484000205993652z"></path></g></g><g mask="url(#__lottie_element_19_1)" style="display: block;"><g transform="matrix(1,0,0,1,1299.9119873046875,488.6730651855469)" opacity="1"><g opacity="1" transform="matrix(1,0,0,1,0,0)"><path fill="rgb(238,130,104)" fill-opacity="1" d=" M4.682000160217285,2.763000011444092 C4.682000160217285,2.763000011444092 -4.4770002365112305,0.531000018119812 -9.730999946594238,0.531000018119812 C-19.48900032043457,0.531000018119812 -5.230000019073486,-5.063000202178955 12.899999618530273,-1.6720000505447388 C12.899999618530273,-1.6720000505447388 4.682000160217285,2.763000011444092 4.682000160217285,2.763000011444092z"></path></g></g></g><g mask="url(#__lottie_element_3_1)" style="display: block;"><g transform="matrix(1,0,0,1,1232.56103515625,559.7430419921875)" opacity="1"><g opacity="1" transform="matrix(1,0,0,1,0,0)"><path fill="rgb(238,130,104)" fill-opacity="1" d=" M6.006999969482422,-1.7589999437332153 C6.006999969482422,-1.7589999437332153 -0.17800000309944153,-3.7330000400543213 -4.682000160217285,-5.985000133514404 C-9.185999870300293,-8.237000465393066 -0.7689999938011169,6.2230000495910645 -0.7689999938011169,6.2230000495910645 C-0.7689999938011169,6.2230000495910645 6.006999969482422,-1.7589999437332153 6.006999969482422,-1.7589999437332153z"></path></g></g></g></g></svg>