<?xml version="1.0" encoding="UTF-8"?><svg id="Layer" xmlns="http://www.w3.org/2000/svg" viewBox="0 0 638.31 512"><path d="M257.28,175.81c8.3.2,16.28,6.61,19.28,14.3,4.61,11.79,6.92,31.12-.53,58.13-12.92,46.82-39.83,123.2-68.12,137.04-43.45,21.27-49.59-74.53-8.6-159.69,20.76-43.14,38.85-50.25,57.96-49.78Z" fill="#fce18b"/><path d="M196.47,389.2c-4.95,0-9.37-1.85-13.07-5.53-10.03-9.96-14.39-32.65-11.95-62.24,2.56-31.14,12.17-65.32,27.04-96.23,20.43-42.44,38.32-50.81,58.82-50.3,8.37.2,16.83,6.46,20.12,14.88,8.01,20.49,3.12,45.58-.5,58.71-5.54,20.09-34.91,121.14-68.6,137.63-4.2,2.05-8.18,3.08-11.86,3.08ZM255.66,176.72c-19.15,0-36.05,8.84-55.51,49.28-32,66.49-34.55,137.38-15.45,156.35,5.94,5.9,13.61,6.61,22.81,2.11,12.37-6.06,25.62-24.8,39.38-55.7,13.65-30.65,23.56-63.75,28.25-80.76,8.3-30.08,3.91-48.97.56-57.55-2.98-7.63-10.91-13.52-18.45-13.71-.53-.01-1.06-.02-1.59-.02Z" fill="#6f3f3d"/><path d="M307.03,153.77s-75.88,7.7-96.07,51.29c-15.98,34.49,24.59,38.91,21.35,75.14-3.73,41.86-.72,80,2.35,106.83h192.2l7.39-92.55c-19.9-67.9,6.96-106.64,6.96-106.64-12.71-19.62-39.69-25.11-39.69-25.11-51.1-15.61-94.49-8.96-94.49-8.96Z" fill="#fce18b"/><path d="M426.86,387.96s-.05,0-.07,0c-.51-.04-.89-.49-.85-1l7.38-92.39c-18.48-63.23,1.88-104.09,4.69-109.27-9.42-12.08-26.03-18.08-26.2-18.14-31.34-10.42-58.12-13.26-75.06-13.81-18.35-.59-29.44,1.3-29.55,1.32-.82.07-73.7,6.64-98.86,55.82-.23.46-.79.64-1.24.4-.46-.23-.63-.79-.4-1.24,7.4-14.47,23.81-34.44,59.91-47.44,21.53-7.75,40.18-9.36,40.36-9.37.36-.07,44.96-7.53,105.45,12.57.74.26,17.76,6.41,27.44,19.25.23.3.25.71.06,1.03-.25.41-24.31,41.84-4.76,108.52.03.11.04.22.03.33l-7.39,92.55c-.04.48-.44.85-.92.85Z" fill="#6f3f3d"/><path d="M330.73,205.61s9.1,18.79,9.29,53.42c.19,34.63,2.31,112.57,3.58,128.01h-40.56s-4.03-102.87-1.11-126.65c2.93-23.78,10.26-44.37,14.83-53.63,0,0,4.85-2.18,13.97-1.15Z" fill="#fffef0"/><path d="M330.09,208.62s7.21-4.81,7.68-10.36c.22-2.55-5.08-14.01-5.08-14.01,0,0-6.04-6.77-14.43-.49-3.14,2.35-3.77,6.76-5.28,10.43-1.74,4.25,4.68,14.56,4.68,14.56,0,0,10.45,1.06,12.42-.14Z" fill="#fffef0"/><path d="M325.13,210.25c-1.23,0-2.53-.1-4.08-.3-2.84-.37-4.79-1.64-5.96-3.9-2.95-5.69-3.95-9.8-2.96-12.21l.55-1.36c1.48-3.66,3.16-7.81,4.97-9.41,7.16-6.34,15.55.4,15.63.47.14.11.24.26.29.42.74,2.25,4.46,13.51,4.55,14.82.22,3-3.13,7.02-5.43,8.99-1.63,1.4-3.58,2.23-5.63,2.4h0c-.64.05-1.28.08-1.94.08ZM324.67,182.18c-1.86,0-3.88.58-5.79,2.27-1.49,1.32-3.15,5.42-4.48,8.72l-.56,1.37c-.74,1.8.32,5.69,2.89,10.66.88,1.7,2.33,2.63,4.56,2.91,2.23.29,3.92.35,5.62.2h0c1.66-.14,3.25-.82,4.58-1.96,2.41-2.07,4.93-5.5,4.79-7.45-.08-.81-2.3-7.82-4.38-14.11-.8-.6-3.76-2.63-7.24-2.63Z" fill="#6f3f3d"/><path d="M303.03,387.64c-.49,0-.9-.39-.92-.89-.04-1.03-3.99-102.9-1.09-126.48,3.07-24.91,10.75-45.47,14.8-53.69.23-.46.78-.64,1.24-.42.46.23.65.78.42,1.24-4,8.11-11.59,28.43-14.62,53.09-2.88,23.43,1.06,125.15,1.1,126.18.02.51-.38.94-.89.96-.01,0-.02,0-.04,0Z" fill="#6f3f3d"/><path d="M343.6,387.64c-.48,0-.88-.37-.92-.85-1.24-15.11-3.39-91.53-3.59-127.76-.15-27.67-5.92-45-8.4-51.16-.19-.47.04-1.01.51-1.2.47-.19,1.01.04,1.2.51,2.51,6.27,8.38,23.86,8.53,51.84.2,36.2,2.34,112.53,3.58,127.62.04.51-.34.96-.85,1-.03,0-.05,0-.08,0Z" fill="#6f3f3d"/><path d="M342.56,215.28c-.37,0-.72-.23-.86-.59-5.21-13.43-9.85-30.03-9.89-30.19-.14-.49.15-1,.64-1.14.49-.14,1,.15,1.14.64.05.16,4.47,16,9.52,29.19,4.35-1.5,24.83-8.94,38.44-20.33.18-.14,15.56-12.31,11.52-23.11-.02-.03-4.06-8.6-21.33-12.76-.5-.12-.8-.62-.68-1.12s.62-.81,1.12-.68c18.26,4.39,22.44,13.48,22.61,13.86,4.53,12.12-11.39,24.71-12.07,25.24-15.48,12.95-39.62,20.85-39.86,20.93-.09.03-.19.04-.28.04Z" fill="#6f3f3d"/><path d="M305.06,210.32c-.26,0-.52-.11-.7-.32-.11-.13-11.57-13.29-20.14-28.67-.06-.1-2.26-3.55-3.49-7.89-1.69-5.95-.71-10.66,2.84-13.61.36-.25,7.36-5.07,16.19-6.2.52-.07.97.29,1.03.8.06.51-.29.97-.8,1.03-8.37,1.07-15.23,5.79-15.3,5.84-7.15,5.96,1.04,18.95,1.13,19.08,7.06,12.67,16.07,23.79,18.99,27.28,4.11-9.43,10.76-21.66,10.83-21.78.24-.45.8-.62,1.25-.37.45.24.61.81.37,1.25-.07.13-7.35,13.51-11.34,22.99-.12.29-.39.5-.71.55-.05,0-.1.01-.15.01Z" fill="#6f3f3d"/><path d="M404.35,168.37c-4.81,11.8-31.06,42.63-23.92,70.05,12.36,47.54,38.41,125.21,66.73,139.81,43.51,22.43,49.35-70.6,11.87-165.42-15.27-38.63-51.55-52.14-54.68-44.45Z" fill="#fce18b"/><path d="M459.13,382.2c-3.77,0-7.9-1.04-12.36-3.12-13.92-6.5-25.54-25.68-33.6-55.46-6.4-23.61-10.41-53.43-11.01-81.81-.01-.51.39-.93.9-.94h.02c.5,0,.91.4.92.91,1.18,56.08,15.32,122.45,43.54,135.63,9.32,4.35,17,3.85,22.83-1.49,9.46-8.67,13.72-29.49,12-58.62-1.74-29.38-9.42-64.01-21.62-97.5-14.07-38.61-33.37-47.62-53.58-54.11-.49-.16-.75-.68-.6-1.16.16-.49.68-.76,1.16-.6,20.66,6.63,40.4,15.84,54.76,55.23,25.51,69.99,29.52,139.45,9.14,158.12-3.58,3.28-7.77,4.93-12.5,4.93Z" fill="#6f3f3d"/><path d="M234.66,387.96c-.47,0-.87-.36-.92-.84-.06-.6-5.69-61.04,5.05-138.2.07-.51.54-.86,1.04-.79.51.07.86.54.79,1.04-10.71,76.94-5.1,137.17-5.04,137.77.05.51-.32.96-.83,1.01-.03,0-.06,0-.09,0Z" fill="#6f3f3d"/><path d="M526.54,387.96H118.09c-.51,0-.92-.41-.92-.92s.41-.92.92-.92h408.46c.51,0,.92.41.92.92s-.41.92-.92.92Z" fill="#fce18b"/><path d="M295.56,139.59s2.45,19.37,3.4,32.96c0,0,14.25,13.13,35.1,8.58,22.75-4.97,36.27-16.02,36.27-16.02,0,0-2.21-37.47-2.82-51.33l-71.95,25.81Z" fill="#f2c7a9"/><path d="M326.51,182.77c-15.79,0-27.56-9.06-28.13-9.5-.2-.16-.33-.39-.35-.64-1.52-15.34-3.38-32.78-3.39-32.95-.05-.42.21-.82.61-.97l71.95-25.81c.28-.1.59-.06.83.1.24.16.4.43.41.73.6,13.7,2.79,50.94,2.82,51.31.02.31-.12.6-.36.79-.16.12-16.2,12.21-36.66,16.19-2.65.52-5.23.74-7.72.74ZM299.83,172.05c2.28,1.65,16.82,11.52,34.04,8.17,18.27-3.56,32.94-13.71,35.5-15.56-.26-4.37-2.11-35.95-2.73-49.59l-70.08,25.14c.36,3.42,1.94,18.37,3.28,31.83Z" fill="#6f3f3d"/><path d="M397.17,91.83c-.14,0-.28-.03-.41-.1-.46-.23-.64-.78-.42-1.24,13.25-26.67-11.96-41.27-13.04-41.88-.45-.25-.6-.81-.35-1.26.25-.45.81-.6,1.26-.35.28.16,27.83,16.05,13.79,44.31-.16.33-.49.51-.83.51Z" fill="#6f3f3d"/><path d="M311.52,25.6h0c31.22-2.41,58.49,20.94,60.91,52.17l2.6,33.62c-5.23,49.01-29.63,59.16-52.17,60.91h0c-31.92,2.47-55.62-21.17-58.03-52.39l-2.6-33.62c-2.41-31.22,18.07-58.27,49.29-60.68Z" fill="#f2c7a9"/><path d="M318.39,173.38c-13.73,0-26.46-4.88-36.24-13.98-10.56-9.82-17.04-23.83-18.24-39.43l-2.6-33.62c-1.2-15.53,3.14-30.37,12.23-41.79,9.26-11.65,22.73-18.71,37.91-19.88,31.67-2.45,59.45,21.33,61.9,53.02l2.6,33.62c0,.06,0,.11,0,.17-1.12,10.51-2.52,21.45-6.19,29.55-.21.47-.76.67-1.22.46-.47-.21-.67-.76-.46-1.22,3.54-7.83,4.92-18.56,6.02-28.9l-2.59-33.53c-2.37-30.67-29.26-53.68-59.91-51.32-14.67,1.13-27.67,7.95-36.61,19.19-8.79,11.06-13,25.44-11.83,40.5l2.6,33.62c1.17,15.15,7.44,28.72,17.66,38.22,10.47,9.74,24.45,14.47,39.38,13.32,14.46-1.12,25-5.43,33.16-13.59.36-.36.95-.36,1.31,0,.36.36.36.95,0,1.31-8.49,8.48-19.4,12.97-34.33,14.12-1.52.12-3.04.18-4.54.18Z" fill="#6f3f3d"/><path d="M298.76,119.82s-.07,0-.1,0c-.51-.06-.87-.51-.82-1.02.17-1.54,1.35-4.45,4.59-4.45h.03c3.47.02,4.79,3.84,4.85,4,.16.48-.1,1.01-.58,1.17-.49.16-1.01-.1-1.17-.58h0s-.96-2.73-3.11-2.74h-.02c-2.42,0-2.74,2.68-2.75,2.8-.05.47-.45.82-.92.82Z" fill="#6f3f3d"/><path d="M356.43,54.87s-5.14,38.98,15.6,49.97c0,0,8.57,1.72,15.29-4.82,6.72-6.54,13.04-36.39-1.76-52.66l-29.13,7.51Z" fill="#6f3f3d"/><path d="M385.67,48.72s-1.43-23.27-25.95-35.09c-6.82-3.29-14.3-4.98-21.87-5.28-16.58-.65-55.74.24-75.14,21.2-4.01,4.34-6.8,9.69-8.13,15.45-1.51,6.54-6,17.68-18.62,10.78,0,0-9.23,14.44,6.19,21.6,8.79,4.08,19.19,2.96,27.05-2.71,2.64-1.91,5.48-4.43,8.41-7.77,6.74-7.68,17.7-10.45,26.93-6.06,2.04.97,4.09,2.31,6.1,4.11,0,0,27.01,24.64,75.02-16.22Z" fill="#6f3f3d"/><path d="M376.36,95.64c4.94-.74,16.89,3.22,15.03,19.26-1.85,16.04-22.35,13.91-22.35,13.91l-4.94-27.31c4.12-3,7.32-5.13,12.26-5.87Z" fill="#f2c7a9"/><path d="M371.2,129.82c-1.36,0-2.21-.08-2.25-.09-.51-.05-.88-.51-.82-1.01.05-.51.5-.88,1.01-.82.05,0,5.06.5,10.19-.93,6.68-1.85,10.43-5.95,11.15-12.17.72-6.26-.69-11.31-4.1-14.61-3.35-3.24-7.74-3.95-9.88-3.63-4.7.7-7.75,2.71-11.85,5.7-.41.3-.99.21-1.29-.2-.3-.41-.21-.99.2-1.29,4.2-3.05,7.56-5.27,12.67-6.03,2.99-.45,7.85.66,11.44,4.13,2.67,2.59,5.65,7.49,4.65,16.15-1.56,13.46-15.56,14.81-21.12,14.81Z" fill="#6f3f3d"/><path d="M369.38,112.29c-.19,0-.37-.06-.53-.17-.42-.3-.51-.87-.22-1.29.12-.18,3.09-4.3,7.56-4.86,2.44-.31,4.84.51,7.1,2.43.39.33.44.91.11,1.3-.33.39-.91.44-1.3.11-1.85-1.57-3.75-2.24-5.66-2-3.65.45-6.27,4.06-6.29,4.1-.18.25-.47.39-.75.39Z" fill="#6f3f3d"/><path d="M294.24,136.91c-.28,0-.56-.13-.74-.37-.31-.41-.23-.99.18-1.3,10.24-7.78,20.63-1.64,20.73-1.58.44.26.58.83.31,1.27-.26.44-.83.58-1.27.31-.38-.23-9.44-5.54-18.65,1.47-.17.13-.36.19-.56.19Z" fill="#6f3f3d"/><path d="M323.53,108.39c-2.33,0-5.12-.44-8.3-1.7-.47-.19-.71-.73-.52-1.2.19-.47.72-.71,1.2-.52,9.15,3.64,14.54-.15,14.76-.31.41-.3.99-.21,1.29.2s.21.99-.2,1.29c-.18.13-3.12,2.24-8.24,2.24Z" fill="#6f3f3d"/><path d="M282.91,108.79c-2.33,0-5.12-.44-8.3-1.7-.47-.19-.71-.73-.52-1.2.19-.47.72-.71,1.2-.52,9.15,3.64,14.54-.15,14.76-.31.41-.3.99-.21,1.29.2.3.41.21.99-.2,1.29-.18.13-3.12,2.24-8.24,2.24Z" fill="#6f3f3d"/><path d="M283.44,40.92c-3.75,0-7.16-1.37-9.56-3.89-.35-.37-.34-.96.03-1.31.37-.35.95-.34,1.31.03,2.42,2.55,5.94,3.69,9.9,3.21,5.09-.61,9.89-3.84,12.52-8.42,5.6-9.76,15.92-4.86,16.02-4.81.46.22.65.78.42,1.24-.22.46-.78.65-1.24.43-.36-.18-8.88-4.18-13.61,4.06-2.91,5.07-8.23,8.65-13.9,9.33-.64.08-1.28.12-1.91.12Z" fill="#fffef0"/><path d="M323.05,40.31c-.19,0-.37-.06-.53-.17-7.38-5.23-13.94-1.18-14.22-1-.43.27-1,.15-1.28-.28-.27-.43-.15-1,.28-1.28.08-.05,2.01-1.27,4.97-1.75,2.73-.44,6.92-.31,11.31,2.8.42.3.51.87.22,1.29-.18.25-.47.39-.75.39Z" fill="#fffef0"/><path d="M317.69,73.68c-2.97,0-5.74-.59-8.28-1.77-9.03-4.19-11.91-14.21-12.03-14.64-.14-.49.15-1,.64-1.14.49-.14,1,.15,1.14.64.03.1,2.79,9.64,11.04,13.46,5.5,2.54,12.21,2.03,19.96-1.52.46-.21,1.01,0,1.23.45.21.46,0,1.01-.46,1.23-4.77,2.19-9.2,3.28-13.24,3.28Z" fill="#6f3f3d"/><path d="M370.91,50.78c-.46,0-.85-.34-.92-.8-2.66-20.17-23.6-25.76-23.81-25.81-.49-.13-.79-.63-.67-1.12.13-.49.63-.79,1.12-.67.22.06,22.36,5.94,25.18,27.36.07.51-.29.97-.8,1.04-.04,0-.08,0-.12,0Z" fill="#fffef0"/><path d="M437.17,251.58c12.32,18.89,42.36,57.58,46.12,83.42,2.74,18.79-4.58,47.6-27.88,52.76-13.39,2.96-31.92-6.07-44.55-38.83-12.84-33.31-53.98-137.94-52.07-149.76,3.51-21.72,11.79-28.84,27.73-14.88,4.7,4.11,38.24,48.27,50.65,67.3Z" fill="#fce18b"/><path d="M450.54,389.21c-12.95,0-29.12-10.34-40.54-39.95-1.12-2.89-2.44-6.32-3.94-10.18-16.22-41.88-49.96-129.02-48.18-140.06,2.1-13,5.82-20.3,11.36-22.29,4.79-1.72,10.64.52,17.89,6.87,4.73,4.14,38.42,48.49,50.81,67.49,2.3,3.53,5.17,7.67,8.48,12.46,14.64,21.15,34.69,50.12,37.77,71.33,2.7,18.55-4.52,48.47-28.59,53.8-1.62.36-3.31.55-5.07.55ZM372.46,178.03c-.91,0-1.78.14-2.58.44-4.79,1.72-8.21,8.74-10.16,20.85-1.71,10.55,33.18,100.63,48.08,139.1,1.5,3.86,2.82,7.29,3.94,10.18,12.54,32.53,30.68,41.1,43.48,38.26,22.93-5.07,29.76-33.86,27.16-51.72-3.03-20.78-23.75-50.73-37.47-70.54-3.33-4.8-6.2-8.95-8.51-12.5-12.34-18.92-45.81-63.01-50.48-67.11-5.28-4.62-9.79-6.95-13.45-6.95Z" fill="#6f3f3d"/><path d="M362.22,212.05s-15.69-15.41-14.76-40.07c.93-24.85-6.06-43.86-6.84-48.61-1.08-6.55,4.3-6.56,4.3-6.56,0,0-2.89-8.99-1.46-13.38,1.6-4.92,4.51-3.81,4.51-3.81,0,0,.33-5.65,6.03-3.86,0,0,4.26-4.3,7.59,6.65,1.8,5.93,16.44,32.89,17.58,46.96.63,7.8,7.29,32.75,9.79,38.84,0,0-14.66,24.77-26.74,23.85Z" fill="#f2c7a9"/><path d="M372.28,143.63c-.3,0-.6-.15-.78-.42-8.33-12.91-17.99-45.8-18.39-47.2-.14-.49.14-1,.63-1.15.49-.14,1,.14,1.15.63.1.34,9.99,34.02,18.17,46.71.28.43.15,1-.28,1.28-.16.1-.33.15-.5.15Z" fill="#6f3f3d"/><path d="M365.81,146.22c-.32,0-.63-.17-.8-.46-4.67-8.06-11.23-24.66-13.53-36.52-1.45-7.46-3.87-8.78-3.9-8.8-.44-.23-.64-.77-.43-1.22.21-.45.73-.66,1.19-.46.33.14,3.3,1.65,4.95,10.13,2.24,11.5,8.81,28.17,13.32,35.94.26.44.11,1.01-.34,1.26-.15.08-.31.12-.46.12Z" fill="#6f3f3d"/><path d="M358.16,148.86c-.35,0-.69-.2-.85-.55-.04-.1-4.44-10.07-7.44-23.54-1.66-7.44-4.77-7.05-4.79-7.05-.5.07-.97-.25-1.06-.75-.09-.49.22-.97.71-1.07.19-.04,4.86-.91,6.95,8.46,2.96,13.28,7.28,23.1,7.33,23.2.21.47,0,1.01-.47,1.22-.12.05-.25.08-.37.08Z" fill="#6f3f3d"/><path d="M362.22,212.98h0c-.24,0-.47-.1-.65-.27-.16-.16-15.97-15.99-15.04-40.77.74-19.68-3.6-35.95-5.69-43.77-.57-2.12-.98-3.65-1.14-4.66-.4-2.45-.02-4.39,1.14-5.75.89-1.05,2.03-1.51,2.89-1.72-.73-2.56-2.37-9.16-1.15-12.91.69-2.14,1.73-3.55,3.07-4.19.58-.28,1.11-.36,1.55-.37.23-.96.77-2.42,2.08-3.32,1.19-.82,2.71-1,4.51-.53.59-.41,1.71-.98,3.1-.63,2.25.56,4.13,3.26,5.58,8.03.51,1.68,2.14,5.22,4.21,9.7,5.02,10.89,12.6,27.36,13.42,37.46.62,7.61,9.66,38.35,9.75,38.65.07.24.04.51-.09.73-13.93,24.03-26.98,24.31-27.54,24.31ZM347.26,100.43c-.22,0-.52.04-.85.21-.84.42-1.56,1.49-2.07,3.07-1.31,4.05,1.43,12.73,1.46,12.81.09.28.04.59-.13.83-.17.24-.45.38-.75.38-.01,0-1.67.04-2.68,1.24-.78.93-1.02,2.36-.71,4.24.15.92.57,2.49,1.1,4.48,2.11,7.9,6.5,24.35,5.75,44.31-.83,22.15,12.11,36.86,14.2,39.09.95-.11,3.71-.6,7.51-2.92,4.35-2.65,10.96-8.29,17.87-20.1-1.1-3.75-9.11-31.22-9.71-38.65-.79-9.77-8.29-26.06-13.25-36.83-2.09-4.54-3.75-8.13-4.29-9.94-1.63-5.35-3.35-6.54-4.24-6.77-1-.26-1.79.48-1.82.51-.24.24-.61.33-.93.22-1.44-.45-2.58-.41-3.38.14-1.3.89-1.45,2.87-1.45,2.89-.02.29-.18.56-.42.72-.25.16-.56.19-.83.09,0,0-.15-.05-.38-.05Z" fill="#6f3f3d"/><path d="M199.9,257.89c-9.75,20.33-34.46,62.63-34.81,88.73-.25,18.99,10.76,46.6,34.54,48.66,13.66,1.19,30.85-10.19,39.08-44.33,8.37-34.7,35.47-143.81,32.03-155.28-6.32-21.07-15.46-27.05-29.43-11.13-4.12,4.69-31.6,52.86-41.41,73.34Z" fill="#fce18b"/><path d="M201.54,396.29c-.67,0-1.34-.03-1.99-.09-24.56-2.13-35.63-30.86-35.38-49.59.29-21.43,16.38-52.77,28.12-75.66,2.66-5.19,4.96-9.66,6.78-13.46,9.8-20.46,37.4-68.83,41.55-73.55,6.35-7.24,11.86-10.23,16.83-9.15,5.76,1.25,10.4,8,14.18,20.62,3.21,10.71-18.84,101.48-29.43,145.1-.98,4.05-1.86,7.64-2.59,10.67-8.05,33.37-24.57,45.12-38.07,45.12ZM255.5,176.44c-3.87,0-8.4,2.93-13.49,8.72-4.1,4.67-31.51,52.76-41.27,73.13h0c-1.83,3.82-4.13,8.31-6.8,13.51-11.01,21.44-27.64,53.84-27.92,74.84-.24,18.05,10.3,45.7,33.69,47.73,13.04,1.13,29.93-9.73,38.11-43.62.73-3.03,1.6-6.62,2.59-10.67,9.73-40.07,32.53-133.9,29.46-144.13-3.53-11.75-7.83-18.26-12.8-19.34-.51-.11-1.03-.17-1.56-.17ZM199.9,257.89h0,0Z" fill="#6f3f3d"/><path d="M269.12,207.5s12.54-18.07,7.02-42.13c-5.56-24.24-2.23-44.22-2.35-49.03-.17-6.64-5.45-5.64-5.45-5.64,0,0,1.16-9.38-1.06-13.42-2.49-4.54-5.14-2.9-5.14-2.9,0,0-1.38-5.49-6.64-2.67,0,0-4.99-3.43-6.22,7.95-.67,6.16-10.01,35.38-8.51,49.42.83,7.78-1.05,33.53-2.36,39.99,0,0,19.03,21.6,30.72,18.44Z" fill="#f2c7a9"/><path d="M246.29,142.18c-.12,0-.23-.02-.35-.07-.47-.19-.7-.73-.51-1.2,5.67-13.99,9.1-48.93,9.13-49.28.05-.51.49-.88,1.01-.83.51.05.88.5.83,1.01-.14,1.45-3.49,35.56-9.26,49.8-.15.36-.49.58-.86.58Z" fill="#6f3f3d"/><path d="M253.13,143.51c-.1,0-.2-.02-.31-.05-.48-.17-.74-.7-.57-1.18,2.97-8.47,6.32-26.08,6.37-37.8.04-8.64,2.67-10.67,2.97-10.87.42-.29,1-.18,1.28.25.28.41.18.98-.22,1.27-.08.07-2.15,1.88-2.18,9.37-.05,12.08-3.39,29.61-6.48,38.4-.13.38-.49.62-.87.62Z" fill="#6f3f3d"/><path d="M261.13,144.67c-.07,0-.14,0-.21-.02-.5-.12-.81-.61-.69-1.11.02-.1,2.44-10.56,2.87-24.16.3-9.6,5.03-9.61,5.25-9.61.51.01.92.43.91.94,0,.5-.42.9-.92.91-.1,0-3.15.29-3.39,7.82-.43,13.79-2.89,24.41-2.91,24.52-.1.43-.48.71-.9.71Z" fill="#6f3f3d"/><path d="M269.02,208.43c-1.68,0-18.26-.48-31.38-18.83-.13-.18-.19-.41-.17-.63.03-.32,3.18-32.2,2.36-39.8-1.08-10.07,3.29-27.66,6.19-39.3,1.19-4.79,2.13-8.57,2.32-10.32.53-4.96,1.88-7.96,3.98-8.93,1.3-.6,2.51-.25,3.16.04,1.69-.8,3.21-.91,4.53-.32,1.45.64,2.26,1.97,2.66,2.87.43-.08.98-.09,1.59.07,1.44.38,2.72,1.57,3.8,3.54,1.9,3.45,1.52,10.25,1.28,12.9.88.04,2.09.29,3.16,1.15,1.39,1.13,2.13,2.96,2.19,5.44.03,1.02-.09,2.6-.25,4.79-.59,8.07-1.82,24.86,2.58,44.06,5.54,24.17-7.03,42.68-7.16,42.86-.17.24-.45.39-.74.4-.02,0-.06,0-.11,0ZM239.35,188.81c11.69,16.13,26.45,17.62,29.27,17.76,1.77-2.8,11.52-19.59,6.61-40.98-4.46-19.47-3.22-36.45-2.62-44.61.15-2.06.27-3.68.25-4.61-.05-1.91-.55-3.26-1.49-4.04-1.22-1-2.85-.72-2.87-.72-.28.05-.59-.04-.8-.24-.21-.2-.32-.49-.28-.78.01-.09,1.09-9.13-.96-12.86-.8-1.46-1.7-2.37-2.61-2.63-.72-.21-1.23.07-1.25.08-.25.14-.56.16-.83.05-.26-.11-.47-.34-.54-.62,0-.02-.52-1.94-1.96-2.57-.89-.39-2.02-.22-3.35.49-.31.16-.68.14-.96-.05-.03-.02-.93-.6-1.88-.15-.82.39-2.3,1.87-2.9,7.44-.2,1.87-1.16,5.71-2.36,10.56-2.86,11.51-7.19,28.91-6.14,38.66.8,7.44-1.97,36.14-2.33,39.83Z" fill="#6f3f3d"/><path d="M566.96,284.94c-.2,0-.4-.07-.57-.2l-69.14-53.96c-.25-.19-.38-.5-.35-.81.03-.31.21-.59.48-.74,37.14-19.87,53.66-44.58,60.98-61.82,7.93-18.67,7.08-32.84,7.07-32.98-.02-.35.15-.68.45-.86.3-.18.67-.17.97.01l71.03,45.1c.31.2.47.56.42.92-6.19,39.31-25.13,65.82-39.93,81.13-16.04,16.6-30.85,24.02-31,24.09-.13.06-.27.1-.41.1ZM499.5,230.19l67.56,52.73c2.72-1.45,15.87-8.84,30.03-23.51,14.52-15.04,33.07-41.01,39.28-79.48l-69.05-43.84c0,4.41-.69,16.56-7.21,31.95-7.34,17.35-23.81,42.12-60.61,62.16Z" fill="#fce18b"/><path d="M535.26,34.74S584.95,7.41,604.05.92c0,0,31.74,15.34,31.88,56.77,0,0-47.37,17.56-72.91,30.38,0,0-23.75-15.28-27.75-53.33Z" fill="#b4d3f6"/><path d="M563.01,89c-.17,0-.35-.05-.5-.15-.24-.15-24.17-15.96-28.17-54.01-.04-.37.15-.73.47-.91.5-.27,49.98-27.45,68.93-33.88.49-.16,1.01.1,1.17.58.16.48-.09,1.01-.58,1.17-17.73,6.02-62.65,30.48-68.09,33.46,3.78,33.91,23.67,49.46,26.84,51.74,25.41-12.68,72.04-30,72.51-30.18.48-.18,1.01.07,1.19.55.18.48-.07,1.01-.55,1.19-.47.18-47.61,17.69-72.82,30.34-.13.07-.27.1-.41.1Z" fill="#6f3f3d"/><ellipse cx="549.14" cy="61.41" rx="13.73" ry="30.06" transform="translate(33.65 260.41) rotate(-27.49)" fill="#6f3f3d"/><path d="M537.08,34.7s-20.38,8.67-43.72,28.91c-23.34,20.24-41.89,36.97-39.88,46.87,2.01,9.9,35.53-24.27,35.53-24.27,0,0-4.86,10.46-3.66,14.21,1.2,3.75,11.11,4.05,11.11,4.05,0,0,.37,2.78,5.96,5.29,5.59,2.5,8.28-.22,8.28-.22,0,0,6.32,5.9,13.12,2.58,6.8-3.32,9.31-10.9,11.51-17.23,0,0,8.75-5.2,13.89-12.69,5.59-8.15,8.55-9.68,14.41-13.34,0,0-1.52-25.39-26.55-34.15Z" fill="#f2c7a9"/><path d="M519.45,114.07c-4.1,0-7.46-2.3-8.78-3.35-1.23.78-4.1,1.92-8.62-.11-4.34-1.94-5.79-4.1-6.27-5.24-2.45-.14-10.1-.89-11.31-4.67-.78-2.44.6-7.07,1.9-10.55-7.76,7.61-25.93,24.65-31.77,22.91-.75-.22-1.7-.82-2.03-2.4-2.07-10.18,15.35-26.22,40.18-47.76,23.18-20.1,43.76-28.98,43.96-29.06.21-.09.45-.1.67-.02,25.32,8.86,27.15,34.71,27.17,34.97.02.34-.15.66-.43.84l-1.04.65c-5.13,3.18-7.96,4.94-13.09,12.43-4.72,6.88-12.28,11.79-13.89,12.78l-.03.08c-2.16,6.22-4.84,13.95-11.84,17.37-1.65.8-3.26,1.12-4.78,1.12ZM510.7,108.62c.23,0,.45.08.63.24.06.05,5.95,5.42,12.08,2.43,6.31-3.08,8.75-10.11,10.91-16.31l.14-.39c.07-.21.21-.38.4-.49.09-.05,8.64-5.19,13.6-12.42,5.36-7.81,8.48-9.75,13.64-12.96l.56-.35c-.41-3.65-3.71-24.83-25.54-32.68-2.7,1.21-21.79,10.09-43.15,28.62-23.56,20.44-41.44,36.81-39.58,45.99.15.73.47.92.74,1,4.52,1.33,22.77-15.08,33.23-25.73.32-.32.82-.37,1.19-.11.37.26.5.74.31,1.15-1.31,2.82-4.51,10.75-3.62,13.54.73,2.27,6.68,3.3,10.26,3.41.45.01.83.35.89.8,0,0,.49,2.36,5.42,4.57,4.87,2.18,7.15.05,7.25-.04.18-.17.42-.26.65-.26Z" fill="#6f3f3d"/><path d="M496.46,105.4s-.06,0-.09,0c-.51-.05-.88-.5-.83-1.01.04-.45,1.14-11.24,10.42-24.84.29-.42.86-.53,1.28-.24.42.29.53.86.24,1.29-8.99,13.17-10.1,23.86-10.11,23.97-.05.48-.45.84-.92.84Z" fill="#6f3f3d"/><path d="M489.01,87.14c-.22,0-.45-.08-.63-.25-.37-.35-.4-.93-.05-1.31l10.48-11.33c.35-.38.93-.4,1.31-.05.37.35.4.93.05,1.31l-10.48,11.33c-.18.2-.43.3-.68.3Z" fill="#6f3f3d"/><path d="M510.7,110.46c-.45,0-.85-.33-.91-.8-.07-.5-1.62-12.3,6.38-25.01.27-.43.84-.56,1.28-.29.43.27.56.84.29,1.28-7.63,12.12-6.13,23.66-6.11,23.77.07.51-.28.97-.79,1.04-.04,0-.09,0-.13,0Z" fill="#6f3f3d"/><path d="M522.21,101.1c-.1,0-.2-.02-.31-.05-.48-.17-.74-.7-.57-1.18,1.85-5.28,6.27-9.38,9.48-10.56,1.44-.53,2.7-.51,3.64.05,2.71,1.6,2.31,4.56,1.72,5.91-.2.47-.75.68-1.22.47-.47-.2-.68-.75-.48-1.22.11-.25.97-2.43-.97-3.57-.44-.26-1.18-.22-2.07.1-2.86,1.04-6.77,4.86-8.37,9.43-.13.38-.49.62-.87.62Z" fill="#6f3f3d"/><path d="M585.45,75.09s-.06,0-.09,0c-.51-.05-.88-.5-.83-1.01.03-.32,2.74-32.33-29.64-49.25-.45-.24-.63-.8-.39-1.25.24-.45.8-.63,1.25-.39,33.52,17.51,30.66,50.73,30.62,51.07-.05.48-.45.83-.92.83Z" fill="#6f3f3d"/><path d="M93.36,47.36s-55.25-12.78-75.39-13.82c0,0-26.36,23.4-15.23,63.3,0,0,50.36,4.01,78.43,9.39,0,0,18.7-21.16,12.19-58.87Z" fill="#b4d3f6"/><path d="M81.17,107.15c-.06,0-.12,0-.17-.02-27.7-5.32-77.82-9.34-78.33-9.38-.51-.04-.89-.49-.85-1,.04-.51.5-.88,1-.85.5.04,50.09,4.02,77.99,9.3,2.43-3.05,17.34-23.43,11.75-57.09-6.05-1.39-55.93-12.69-74.63-13.66-.51-.03-.9-.46-.88-.97.03-.51.47-.9.97-.88,19.99,1.04,75,13.72,75.55,13.85.36.08.64.38.7.74,3.4,19.68-.14,34.83-3.7,44.06-3.88,10.04-8.51,15.35-8.71,15.57-.18.2-.43.31-.69.31Z" fill="#6f3f3d"/><ellipse cx="87.27" cy="76.8" rx="30.06" ry="13.73" transform="translate(-5.63 146.68) rotate(-78.3)" fill="#6f3f3d"/><path d="M91.6,47.82s21.97,2.8,49.94,15.92c27.96,13.13,50.37,24.17,51.13,34.25.76,10.08-40.8-13.69-40.8-13.69,0,0,7.53,8.74,7.39,12.68s-9.59,6.93-9.59,6.93c0,0,.4,2.78-4.3,6.71-4.69,3.93-8.03,2.04-8.03,2.04,0,0-4.48,7.4-11.92,6.06s-11.93-7.96-15.77-13.45c0,0-9.84-2.62-16.82-8.43-7.6-6.32-10.86-6.99-17.5-8.92,0,0-5.45-24.85,16.26-40.09Z" fill="#f2c7a9"/><path d="M127.26,119.8c-.64,0-1.3-.06-1.99-.18-7.67-1.38-12.35-8.09-16.12-13.49l-.05-.07c-1.81-.52-10.42-3.18-16.84-8.52-6.98-5.81-10.18-6.73-15.98-8.4l-1.18-.34c-.33-.09-.57-.36-.65-.69-.06-.25-5.33-25.63,16.63-41.04.19-.13.42-.19.65-.16.22.03,22.44,2.96,50.21,16,29.75,13.97,50.88,24.66,51.66,35.02.12,1.61-.64,2.45-1.29,2.86-5.14,3.24-27.27-8.19-36.81-13.4,2.2,2.99,4.79,7.07,4.69,9.63-.14,3.96-7.29,6.76-9.61,7.57-.15,1.22-.96,3.69-4.61,6.74-3.8,3.18-6.87,2.87-8.26,2.45-1.21,1.69-4.87,6.02-10.45,6.02ZM76.15,87.18l.63.18c5.85,1.68,9.37,2.7,16.65,8.75,6.74,5.61,16.37,8.22,16.46,8.25.21.06.39.19.52.36l.24.34c3.76,5.38,8.02,11.48,14.93,12.73,6.74,1.22,10.92-5.56,10.96-5.62.26-.43.81-.57,1.25-.33.11.06,2.89,1.48,6.98-1.94,4.14-3.47,3.97-5.87,3.97-5.89-.04-.43.22-.86.64-.99,3.41-1.08,8.86-3.69,8.94-6.08.1-2.93-5.14-9.69-7.17-12.04-.29-.34-.3-.84-.01-1.19.29-.35.78-.44,1.17-.21,12.96,7.41,35,18.23,38.98,15.72.23-.15.49-.41.44-1.16-.71-9.34-22.36-20.23-50.6-33.48-25.59-12.01-46.38-15.36-49.31-15.79-18.87,13.49-16.28,34.77-15.68,38.39Z" fill="#6f3f3d"/><path d="M149.67,104.83c-.37,0-.72-.22-.86-.59-.04-.1-4.01-10.08-16.25-20.31-.39-.33-.44-.91-.12-1.3.33-.39.91-.44,1.3-.12,12.63,10.56,16.62,20.64,16.79,21.06.18.48-.05,1.01-.53,1.2-.11.04-.22.06-.33.06Z" fill="#6f3f3d"/><path d="M151.87,85.23c-.16,0-.33-.04-.48-.14l-13.16-8.05c-.44-.27-.57-.84-.31-1.27.27-.44.84-.57,1.27-.31l13.16,8.05c.44.27.57.84.31,1.27-.17.29-.48.44-.79.44Z" fill="#6f3f3d"/><path d="M137.35,113.58c-.46,0-.85-.34-.91-.8-.02-.12-1.72-11.63-12.35-21.21-.38-.34-.41-.93-.07-1.31.34-.38.93-.41,1.31-.07,11.16,10.06,12.88,21.84,12.94,22.34.07.51-.29.97-.79,1.04-.04,0-.08,0-.13,0Z" fill="#6f3f3d"/><path d="M123.73,107.69c-.29,0-.58-.14-.76-.39-2.79-3.97-7.59-6.57-10.62-6.8-.94-.07-1.66.1-2.02.47-1.55,1.63-.13,3.49.04,3.7.32.4.26.98-.13,1.3-.4.32-.97.27-1.3-.13-.93-1.13-2.12-3.87.05-6.15.75-.79,1.96-1.15,3.49-1.03,3.41.25,8.78,3,12,7.58.29.42.19.99-.22,1.29-.16.11-.35.17-.53.17Z" fill="#6f3f3d"/><path d="M55.8,99.87c-.37,0-.72-.22-.86-.59-.12-.31-11.92-31.5,15.57-57.47.37-.35.96-.34,1.31.04.35.37.33.96-.04,1.31-13.88,13.11-17.25,27.47-17.64,37.21-.42,10.59,2.49,18.17,2.52,18.25.19.48-.05,1.01-.52,1.2-.11.04-.22.06-.34.06Z" fill="#6f3f3d"/><path d="M417.47,434.51c-.09,0-.18-.01-.27-.04-21.97-6.82-51.93-18.67-70.55-36.47-2.19,1.65-9.87,7.38-20.42,14.55-.42.29-1,.18-1.28-.25-.29-.42-.18-1,.24-1.28,12.45-8.46,20.89-14.91,20.97-14.97.36-.28.88-.25,1.21.07,18.32,17.86,48.39,29.75,70.39,36.58.49.15.76.67.61,1.16-.12.4-.49.65-.88.65Z" fill="#fce18b"/><path d="M356.56,512c-12.91,0-28.23-4.92-45.69-14.68-.45-.25-.61-.81-.36-1.26.25-.45.81-.61,1.26-.36,20.29,11.35,37.58,16.05,51.37,13.97l84.8-67.22c-2.84-.49-8.4-1.56-15.52-3.4-.49-.13-.79-.63-.66-1.13.13-.49.63-.79,1.13-.66,10.33,2.68,17.33,3.69,17.4,3.7.37.05.67.32.76.67.1.36-.03.74-.32.97l-86.63,68.67c-.12.1-.27.16-.43.19-2.28.36-4.65.54-7.1.54Z" fill="#fce18b"/><path d="M81.22,308.18c-.14,0-.29-.03-.43-.1-.21-.11-20.89-10.99-43.29-32.01-11.88-11.15-14.63-21.89-14.84-28.92-.23-7.68,2.36-12.65,2.47-12.86.24-.45.8-.62,1.25-.38.45.24.62.8.38,1.25-.41.77-9.74,19.16,12,39.57,19.75,18.54,38.12,29.1,42.09,31.29,3.35-5.84,25.21-41.4,68.31-57.18-5.8-5-29.42-27.26-28.07-57.48.02-.51.46-.89.97-.88.51.02.9.45.88.96-1.48,33.29,28.32,56.76,28.62,56.99.27.21.4.54.35.88s-.29.61-.61.72c-47.14,16.56-69.05,57.26-69.27,57.67-.17.31-.49.49-.82.49Z" fill="#fce18b"/><path d="M25.96,235.64c-.19,0-.38-.06-.55-.18-.37-.27-.48-.78-.27-1.18.71-1.32,18.3-32.71,107.36-70.15.06-.02.12-.04.18-.06.14-.03,3.55-.67,8.13.48,4.2,1.06,10.22,3.9,15.06,11.44.15.24.19.53.1.8-.09.27-.3.48-.56.57-.58.21-58.42,21.26-85.81,54.19-.25.3-.67.41-1.03.27-.28-.1-28.27-10.35-41.95,3.53-.18.18-.42.28-.66.28ZM133.12,165.88c-67.72,28.48-94.04,53.87-102.69,64.28,5.79-3.28,13.42-4.54,22.43-3.66,7.56.74,13.79,2.72,15.73,3.39,25.73-30.51,76.92-50.75,85.08-53.84-8.24-11.89-19.36-10.37-20.55-10.16Z" fill="#fce18b"/><path d="M281.04,509.14c-.13,0-.27-.03-.39-.09l-98.32-45.74c-.33-.15-.54-.48-.53-.84s.21-.69.54-.84c.66-.3,66.02-30.07,91.35-68.96.25-.38.73-.53,1.15-.34.61.27,61.85,27.3,102.97,29.83.33.02.62.21.77.5s.13.64-.04.92c-.13.2-13.11,20.55-31.46,41.13-24.73,27.74-46.92,42.68-65.96,44.43-.03,0-.06,0-.08,0ZM184.91,462.47l96.29,44.8c41.14-4.02,88.05-72.94,94.92-83.37-38.97-2.94-94.37-26.55-101.31-29.57-23.48,35.36-79.15,63.03-89.9,68.14Z" fill="#fce18b"/><path d="M288.88,494.11c-.13,0-.27-.03-.4-.09-.52-.25-52.48-24.86-72.03-31.98-.48-.17-.73-.71-.55-1.19.17-.48.71-.73,1.18-.55,19.63,7.15,71.66,31.8,72.19,32.05.46.22.66.77.44,1.23-.16.33-.49.53-.84.53Z" fill="#fce18b"/><path d="M303.45,485.58c-.13,0-.27-.03-.4-.09-.52-.25-52.48-24.86-72.03-31.98-.48-.17-.73-.71-.55-1.19.17-.48.71-.73,1.18-.55,19.63,7.15,71.66,31.8,72.19,32.05.46.22.66.77.44,1.23-.16.33-.49.53-.84.53Z" fill="#fce18b"/><path d="M315.59,477.02c-.13,0-.27-.03-.4-.09-.52-.25-52.48-24.86-72.03-31.98-.48-.17-.73-.71-.55-1.19.18-.48.71-.73,1.18-.55,19.63,7.15,71.66,31.8,72.19,32.05.46.22.66.77.44,1.23-.16.33-.49.53-.84.53Z" fill="#fce18b"/><path d="M355.52,486.52c-2.26,0-4.48-1.11-5.8-3.15h0c-2.07-3.19-1.16-7.47,2.04-9.54l80.1-50.38c.76-.49,1.65-.83,2.56-.96l7.96-1.13c1.25-.18,2.47.37,3.16,1.44.69,1.06.7,2.39.03,3.47l-4.27,6.8c-.5.79-1.15,1.45-1.93,1.96l-80.1,50.38c-1.15.75-2.45,1.1-3.73,1.1ZM351.27,482.37c1.52,2.34,4.65,3.01,6.99,1.49l80.1-50.38c.55-.35,1.01-.82,1.36-1.38l4.27-6.8c.29-.47.29-1.02-.01-1.48-.3-.46-.8-.69-1.35-.61l-7.96,1.13c-.65.09-1.28.33-1.83.68l-80.1,50.38c-2.33,1.51-2.99,4.64-1.48,6.98h0Z" fill="#fce18b"/><path d="M363.32,482.6c-.3,0-.6-.15-.78-.42l-6.5-10.03c-.28-.43-.16-1,.27-1.28.43-.28,1-.16,1.28.27l6.5,10.03c.28.43.16,1-.27,1.28-.16.1-.33.15-.5.15Z" fill="#fce18b"/><path d="M439.03,435.07c-.3,0-.6-.15-.78-.42l-6.5-10.03c-.28-.43-.16-1,.27-1.28.43-.28,1-.16,1.28.27l6.5,10.03c.28.43.16,1-.27,1.28-.16.1-.33.15-.5.15Z" fill="#fce18b"/></svg>