<svg xmlns="http://www.w3.org/2000/svg" viewBox="0 0 2498.752 2498.752"><defs><style>.cls-1{fill:#fffdf5;}.cls-2{fill:#ef9aff;}.cls-3{fill:#0424aa;}.cls-4{fill:#ffeede;}.cls-5{fill:#f4bb06;}.cls-6{fill:#262626;}</style></defs><g id="I_m_Proud_Of_You_Label" data-name="I&apos;m Proud Of You Label"><path class="cls-1" d="M2046.635,863.526c-214.244-115.147-497.383-178.56-797.26-178.56-156.3,0-311.5,17.739-453.888,51.612A343.534,343.534,0,0,0,412.331,506.8c-186.909,31.547-313.3,209.276-281.756,396.187a341.694,341.694,0,0,0,71.593,158.769c-69.649,86.239-106.062,181.511-106.062,279.117,0,184.432,126.434,353.955,356.011,477.342,214.244,115.147,497.382,178.56,797.258,178.56,298.651,0,586.184-64.978,798.659-179.39l1.055.75a137.013,137.013,0,0,0,60.652,24.262A138.3,138.3,0,0,0,2267.3,1700.417l-1.619-44.342,35.612-26.455a137.664,137.664,0,0,0,55.521-101.963c30.425-60.237,45.829-122.968,45.829-186.785C2402.646,1156.44,2276.212,986.913,2046.635,863.526Z"/><ellipse class="cls-2" cx="1249.375" cy="1340.87" rx="1075.279" ry="577.912"/><path class="cls-3" d="M1249.376,1825.844c-272.133,0-526.533-56.18-716.339-158.192-86.2-46.327-155.846-101.417-201.405-159.31-42.864-54.463-64.6-110.807-64.6-167.471s21.733-113.009,64.6-167.472c45.559-57.892,115.2-112.983,201.405-159.31C722.843,912.077,977.243,855.9,1249.376,855.9s526.533,56.179,716.338,158.191c86.2,46.327,155.842,101.414,201.405,159.31,42.864,54.466,64.6,110.81,64.6,167.472s-21.733,113-64.595,167.471c-45.565,57.9-115.21,112.983-201.407,159.31C1775.909,1769.664,1521.508,1825.844,1249.376,1825.844Zm0-953.048c-269.39,0-520.949,55.466-708.339,156.178-84.173,45.238-151.993,98.794-196.127,154.874-40.462,51.413-60.977,104.243-60.977,157.023s20.515,105.609,60.977,157.022c44.134,56.081,111.954,109.636,196.127,154.875,187.39,100.711,438.949,156.178,708.339,156.178s520.949-55.467,708.338-156.178c84.169-45.236,151.988-98.791,196.128-154.875,40.461-51.416,60.976-104.246,60.976-157.022s-20.515-105.606-60.976-157.023c-44.14-56.084-111.959-109.639-196.128-154.874C1770.325,928.262,1518.765,872.8,1249.376,872.8Z"/><circle class="cls-4" cx="469.544" cy="845.769" r="265.773" transform="translate(-460.523 579.738) rotate(-45)"/><circle class="cls-5" cx="469.544" cy="845.769" r="245.159"/><ellipse class="cls-6" cx="401.071" cy="797.252" rx="41.643" ry="79.257" transform="translate(-127.097 77.872) rotate(-9.581)"/><ellipse class="cls-6" cx="518.299" cy="777.466" rx="41.643" ry="79.257" transform="translate(-122.169 97.107) rotate(-9.581)"/><path class="cls-6" d="M682.3,790.152c-2.579-2.533-16.471-15-36.765-11.7l-.251.043c-20.857,3.52-30.145,21.153-31.137,23.16a6.965,6.965,0,0,0,12.484,6.182,30.858,30.858,0,0,1,15.608-14.12c7.042,100.091-55.169,187.5-145.294,203.711-.572.1-1.139.2-1.71.3C405.5,1012.875,315.72,950,289.436,853.648a31.105,31.105,0,0,1,17.733,8.113,6.965,6.965,0,0,0,9.76-9.939c-2.579-2.532-16.471-15-36.765-11.7l-.251.042c-20.857,3.52-30.145,21.153-31.137,23.16a6.965,6.965,0,0,0,12.484,6.182,31.04,31.04,0,0,1,14.351-13.6c13.467,50.64,43.684,94.422,85.16,123.337,41.238,28.75,89.731,40.157,136.765,32.218.623-.105,1.25-.213,1.871-.325,46.936-8.442,88.8-35.643,117.886-76.592,28.784-40.527,42.535-91.057,38.8-142.409a31.32,31.32,0,0,1,16.445,7.95,6.965,6.965,0,0,0,9.76-9.939Z"/><path class="cls-3" d="M729.823,1304.494q-3.106-.3-6.954-.591-3.407-.3-8.137-.446t-10.949-.148q-11.985,0-27.816,1.036t-34.327,4a80.208,80.208,0,0,0,5.624-16.868q2.364-10.209,3.92-21.826t2.441-23.6q.889-11.985,1.332-22.34t.518-17.9q.072-7.543.074-10.356,0-.59-.074-4.588t-.223-10.356q-.148-6.357-.444-14.575T654,1148.844q-.52-8.881-1.332-17.9t-1.922-17.013q-1.111-7.99-2.517-14.426a42,42,0,0,0-3.328-10.136,264.484,264.484,0,0,0,27.446,3.551q12.5.887,22.563.888,6.659,0,11.985-.3t9.025-.591q4.29-.446,7.546-.887-1.776,8.286-3.107,18.419t-2.368,21.6q-1.037,11.47-1.553,24.044t-.518,25.894q0,15.387.739,31.291t2.443,31.588q1.7,15.688,4.29,30.777A287.138,287.138,0,0,0,729.823,1304.494Zm73.978-180.36a44.6,44.6,0,0,1-2.366,13.462,108.257,108.257,0,0,1-5.919,14.651,99.8,99.8,0,0,1-7.915,13.462,62.562,62.562,0,0,1-8.36,9.914l-30.035-3.551a62.959,62.959,0,0,0,8.73-8.287,99.227,99.227,0,0,0,7.4-9.618,24.231,24.231,0,0,1-9.987-2.957,26.683,26.683,0,0,1-7.769-6.511,29.339,29.339,0,0,1-5.029-9.248,35.086,35.086,0,0,1-1.776-11.317A36.093,36.093,0,0,1,742.4,1113.7a29.934,29.934,0,0,1,5.253-9.987,27.4,27.4,0,0,1,9.691-7.544q6.065-2.957,14.944-2.961a40.231,40.231,0,0,1,13.983,2.221,25.459,25.459,0,0,1,9.838,6.288,26.278,26.278,0,0,1,5.771,9.765A39.436,39.436,0,0,1,803.8,1124.134Zm231.554,184.208a83.539,83.539,0,0,0-9.691-.964q-5.1-.222-10.578-.221-6.659,0-13.317.37t-13.02.96q-6.365.594-12.133,1.334t-10.356,1.33a177.365,177.365,0,0,0,3.477-18.568q1.551-11.021,2.589-24.192t1.553-27.74q.518-14.574.518-29.519,0-2.217-.074-5.917t-.37-7.991q-.3-4.287-.962-8.653a43.376,43.376,0,0,0-1.923-7.918,18.728,18.728,0,0,0-3.107-5.769,5.813,5.813,0,0,0-4.66-2.221q-2.962,0-5.771,3.7a47.316,47.316,0,0,0-5.475,9.914q.446,8.287.741,19.6t.444,23.6q.143,12.282.221,24.265t.223,21.455q.143,9.471.3,15.314t.444,5.842q-6.659-1.031-12.207-1.627a105.676,105.676,0,0,0-11.17-.591,117.394,117.394,0,0,0-15.98,1.185q-8.583,1.184-20.567,3.7,1.925-14.054,3.552-29,1.33-12.876,2.514-28.41t1.185-30.479q0-2.217-.074-5.917t-.37-7.991q-.3-4.287-.962-8.653a43.292,43.292,0,0,0-1.924-7.918,17.8,17.8,0,0,0-3.18-5.769,6.026,6.026,0,0,0-4.734-2.221,11.149,11.149,0,0,0-7.769,2.739,18.821,18.821,0,0,0-4.809,7.324,42.261,42.261,0,0,0-2.441,10.577,114.672,114.672,0,0,0-.665,12.651q0,12.579.591,25.449t1.924,25.522q1.332,12.649,3.4,24.783a220.389,220.389,0,0,0,5.178,23.083q-2.517-.149-5.917-.446-2.964-.144-6.954-.294t-9.174-.148q-9.621,0-22.193.812t-27.225,3.033q1.774-8.283,3.107-20.268t2.22-26.043q.885-14.055,1.406-29.367t.516-30.258q0-11.1-.295-21.75t-.814-20.122q-.519-9.467-1.406-17.459t-2.071-13.76q11.986,2.075,22.194,2.885t18.5.812q5.325,0,9.543-.221c2.811-.149,5.2-.317,7.175-.518q3.552-.441,6.215-.888-.888,3.851-1.553,8.211t-1.406,9.4q8.284-10.653,17.755-16.053a37.442,37.442,0,0,1,18.642-5.4q12.723,0,20.789,6.287t12.207,20.05q8.727-13.317,19.16-19.829t20.492-6.508a40.491,40.491,0,0,1,19.012,4.363A35.731,35.731,0,0,1,1019.82,1145q5.622,9.321,8.581,23.822t2.959,34.769q0,13.907.074,29t.444,29.218q.369,14.135,1.183,26.338A179.674,179.674,0,0,0,1035.355,1308.342ZM1249.3,1176.066a75.959,75.959,0,0,1-4.957,28.188,67.835,67.835,0,0,1-13.094,21.3,57.211,57.211,0,0,1-18.643,13.538,52.352,52.352,0,0,1-21.749,4.736,54.222,54.222,0,0,1-12.281-1.405,46.748,46.748,0,0,1-11.985-4.661,175.844,175.844,0,0,0,4.29,22.489,202.183,202.183,0,0,0,7.177,22.119,123.566,123.566,0,0,0,12.355,23.895q-15.091-1.629-27.151-2.293t-21.824-.667q-13.17,0-22.119.888a140.327,140.327,0,0,0-14.574,2.072,67.538,67.538,0,0,0-10.357,2.812,217.15,217.15,0,0,0,6.361-24.858q2.664-13.461,4.439-28.11t2.664-29.964q.888-15.312.888-30.4,0-16.427-1.037-32.182t-3.033-29.592a233.5,233.5,0,0,0-4.955-25.225,98.7,98.7,0,0,0-6.807-19.086,84.66,84.66,0,0,0,14.87,3.179,127.744,127.744,0,0,0,15.757.963q7.248,0,14.575-.666t14.426-1.406q7.1-.738,13.759-1.406t12.428-.664a66.735,66.735,0,0,1,13.835,1.627,65.038,65.038,0,0,1,15.461,5.548,71.77,71.77,0,0,1,15.239,10.43,67.538,67.538,0,0,1,13.169,16.129,87.956,87.956,0,0,1,9.248,22.637A121.212,121.212,0,0,1,1249.3,1176.066Zm-84.336,24.119q3.695-3.555,8.508-8.657a107.85,107.85,0,0,0,9.1-11.1,73.021,73.021,0,0,0,7.175-12.353,29.39,29.39,0,0,0,2.886-12.136q0-6.654-3.774-10.578a11.421,11.421,0,0,0-8.36-3.921,9.2,9.2,0,0,0-6.879,2.812,21.749,21.749,0,0,0-4.512,7.324,48.212,48.212,0,0,0-2.663,10.059q-.889,5.55-1.332,10.951t-.444,10.06v12.356A46.494,46.494,0,0,0,1164.967,1200.185Zm174-29a14.124,14.124,0,0,0-8.285,2.588,24.276,24.276,0,0,0-6.585,7.251,52.365,52.365,0,0,0-5.03,11.172,98.724,98.724,0,0,0-3.476,14.35q0,12.579.59,25.449t1.924,25.449q1.332,12.58,3.477,24.562a227.15,227.15,0,0,0,5.253,22.786q-2.368-.149-5.475-.446-2.661-.144-6.436-.294t-8.655-.148q-9.177,0-21.232.812t-26.707,3.033q1.776-8.283,3.108-20.268t2.219-26.043q.886-14.055,1.406-29.367t.517-30.258q0-11.1-.3-21.75t-.813-20.122q-.521-9.467-1.406-17.459t-2.071-13.76q11.985,2.075,21.824,2.885t17.68.812q5.03,0,8.878-.221c2.564-.149,4.784-.317,6.658-.518q3.107-.441,5.623-.888a121.762,121.762,0,0,0-2.664,16.422,51.01,51.01,0,0,1,16.793-13.759q9.1-4.435,17.089-4.439,13.317,0,22.491,4.809a42.007,42.007,0,0,1,14.795,12.578,51.4,51.4,0,0,1,8.137,17.68,81.51,81.51,0,0,1,2.515,20.122,67.852,67.852,0,0,1-2.81,19.383,56.777,56.777,0,0,1-8.139,16.941,42.167,42.167,0,0,1-13.168,12.06,34.526,34.526,0,0,1-17.755,4.584,34,34,0,0,1-14.87-2.957,30.158,30.158,0,0,1-10.134-7.7,30.8,30.8,0,0,1-5.845-10.43,36.428,36.428,0,0,1-1.849-11.32,39.6,39.6,0,0,1,1.7-11.538,35.016,35.016,0,0,1,4.957-10.212,13.216,13.216,0,0,0,2.589,4.958,9.97,9.97,0,0,0,3.182,2.442,10.135,10.135,0,0,0,3.846,1.036q5.474,0,8.212-2.515a7.8,7.8,0,0,0,2.737-5.921,13.711,13.711,0,0,0-.592-3.7,9.962,9.962,0,0,0-2.145-3.848,12.444,12.444,0,0,0-4.365-3.033A18.316,18.316,0,0,0,1338.963,1171.184Zm209.951,47.79a147.713,147.713,0,0,1-1.331,18.865,131.68,131.68,0,0,1-4.439,20.713,106.087,106.087,0,0,1-8.433,20.271,69.715,69.715,0,0,1-13.243,17.387,61.38,61.38,0,0,1-18.865,12.132q-10.95,4.584-25.447,4.584t-25.375-4.29a59.1,59.1,0,0,1-18.643-11.466,62.641,62.641,0,0,1-12.8-16.571,99.769,99.769,0,0,1-7.988-19.753,122.32,122.32,0,0,1-4.07-20.934,192.82,192.82,0,0,1-1.11-20.05,122.429,122.429,0,0,1,4.439-32.773,88.669,88.669,0,0,1,13.538-28.628,70.273,70.273,0,0,1,22.786-20.271q13.683-7.694,32.18-7.693a62.444,62.444,0,0,1,22.342,3.772,60.1,60.1,0,0,1,17.606,10.284,63.8,63.8,0,0,1,13.1,15.238,100.116,100.116,0,0,1,8.952,18.5,107.382,107.382,0,0,1,5.178,20.271A133.43,133.43,0,0,1,1548.914,1218.974Zm-51.489,4.884q0-3.4-.221-8.508t-.962-10.726q-.742-5.623-2-11.245a49.263,49.263,0,0,0-3.33-10.063,23,23,0,0,0-5.1-7.25,10.217,10.217,0,0,0-7.177-2.809,10.063,10.063,0,0,0-6.954,2.663,23.067,23.067,0,0,0-5.1,6.954,49.5,49.5,0,0,0-3.551,9.69,104.367,104.367,0,0,0-2.22,10.8q-.813,5.4-1.183,10.357t-.369,8.36a114.037,114.037,0,0,0,.739,11.835,64.992,64.992,0,0,0,2.812,13.317,33.9,33.9,0,0,0,5.7,10.875,11.636,11.636,0,0,0,9.543,4.512,12.185,12.185,0,0,0,9.4-4.142,30.727,30.727,0,0,0,5.994-10.136,58.611,58.611,0,0,0,3.105-12.65A90.447,90.447,0,0,0,1497.425,1223.858Zm197.228-89.071q-1.332,6.66-2.44,15.535t-1.925,19.159q-.815,10.287-1.257,21.456t-.444,22.268q0,3.7.149,7.323t.146,7.027q0,7.253-.813,16.423a117.324,117.324,0,0,1-3.254,18.716,106.451,106.451,0,0,1-6.733,18.72,57.8,57.8,0,0,1-11.319,16.274,53.945,53.945,0,0,1-17.089,11.466q-10.062,4.36-23.821,4.366a64.651,64.651,0,0,1-20.936-3.109,51.728,51.728,0,0,1-15.832-8.508,50.128,50.128,0,0,1-11.319-12.8,74.23,74.23,0,0,1-7.4-15.908,98.575,98.575,0,0,1-4.068-17.828,137.872,137.872,0,0,1-1.258-18.492c0-1.482.024-2.393.073-2.74a6,6,0,0,0,.074-.666,1.709,1.709,0,0,1,.149-.515,9.625,9.625,0,0,0,.148-2.294q0-1.921.073-6.066t.074-11.69q0-8.877-.3-20.047t-1.258-21.9a178.343,178.343,0,0,0-2.737-19.456q-1.776-8.733-4.586-12.726a224.119,224.119,0,0,0,22.563,2.812q10.577.742,19.307.739,5.772,0,10.433-.221t8.063-.518q3.846-.3,6.954-.739-2.961,14.5-5.7,32.918a289.821,289.821,0,0,0-2.738,42.245q0,5.475.519,11.389a63.024,63.024,0,0,0,1.849,10.875,24.8,24.8,0,0,0,3.626,8.139,6.935,6.935,0,0,0,5.843,3.182,8.628,8.628,0,0,0,6.954-2.961,19.389,19.389,0,0,0,3.774-7.766,49.856,49.856,0,0,0,1.479-10.726q.222-5.916.223-11.839-.149-19.233-1.185-35.954-.444-7.1-1.109-14.35t-1.553-13.687q-.888-6.435-2.073-11.541a37.556,37.556,0,0,0-2.663-8.063q11.985,2.074,22.195,2.812t18.2.739q5.328,0,9.543-.221t7.176-.518Q1691.991,1135.23,1694.653,1134.787ZM1858,1307.454q-3.407-.3-7.693-.594-3.7-.3-8.656-.442t-10.874-.149q-8.436,0-17.9.591a170.608,170.608,0,0,0-18.791,2.221,33.522,33.522,0,0,0,1.922-7.4q1.035-5.619,2-12.426t1.775-13.466q.81-6.658,1.258-10.356a95.235,95.235,0,0,1-6.585,20.195,64.983,64.983,0,0,1-9.84,15.535,42.144,42.144,0,0,1-12.576,9.987,31.769,31.769,0,0,1-14.647,3.551q-3.552,0-8.73-.442a35.792,35.792,0,0,1-11.023-2.961,43.36,43.36,0,0,1-11.688-7.766q-5.847-5.251-10.5-14.795t-7.547-24.192q-2.883-14.649-2.884-35.806A175.42,175.42,0,0,1,1707.6,1197a125.078,125.078,0,0,1,6.954-24.634,76,76,0,0,1,10.21-18.126,63.753,63.753,0,0,1,12.28-12.208,45.636,45.636,0,0,1,13.167-6.878,42.633,42.633,0,0,1,12.948-2.145,33.051,33.051,0,0,1,12.576,2.294,41.85,41.85,0,0,1,10.208,5.917,42.571,42.571,0,0,1,7.99,8.284,85.824,85.824,0,0,1,5.918,9.248q-.3-6.8-.591-14.8t-.739-16.125q-.446-8.139-1.111-16.054t-1.48-14.723q-.815-6.8-1.848-11.983a32.728,32.728,0,0,0-2.368-7.842,221.167,221.167,0,0,0,22.046,2.812q10.209.738,18.494.739,5.327,0,9.617-.224t7.25-.515q3.552-.3,6.214-.743a193.053,193.053,0,0,0-2.958,19.311q-1.332,11.912-2.294,26.852T1848.6,1157.5q-.522,17.09-.518,34.846,0,16.42.518,32.7t1.7,31.294q1.181,15.021,3.107,28.113A203.079,203.079,0,0,0,1858,1307.454Zm-60.81-84.78V1198.7a76.315,76.315,0,0,0-.444-8.136,24.331,24.331,0,0,0-2-7.548,13.837,13.837,0,0,0-4.512-5.548,13.366,13.366,0,0,0-7.99-2.145,7.863,7.863,0,0,0-6.066,2.812,22.181,22.181,0,0,0-4.144,7.251,62.524,62.524,0,0,0-2.663,9.911,104.827,104.827,0,0,0-1.479,10.875q-.446,5.406-.592,10.063t-.149,7.323q0,4,.372,9.839a63.344,63.344,0,0,0,1.7,11.244,26.829,26.829,0,0,0,4.068,9.248,8.682,8.682,0,0,0,7.472,3.848,10.882,10.882,0,0,0,8.582-3.7,24.852,24.852,0,0,0,4.956-9.176,57.639,57.639,0,0,0,2.294-11.465Q1797.184,1227.409,1797.188,1222.674Zm-788.761,318.933a147.9,147.9,0,0,1-1.331,18.865,131.548,131.548,0,0,1-4.44,20.713,106.056,106.056,0,0,1-8.432,20.271,69.7,69.7,0,0,1-13.243,17.387,61.38,61.38,0,0,1-18.865,12.132q-10.95,4.584-25.448,4.584t-25.375-4.29a59.09,59.09,0,0,1-18.642-11.466,62.62,62.62,0,0,1-12.8-16.571,99.684,99.684,0,0,1-7.988-19.753,122.224,122.224,0,0,1-4.07-20.934,192.805,192.805,0,0,1-1.11-20.05,122.429,122.429,0,0,1,4.439-32.773,88.648,88.648,0,0,1,13.538-28.628,70.273,70.273,0,0,1,22.786-20.271q13.683-7.692,32.18-7.693a62.444,62.444,0,0,1,22.342,3.773,60.088,60.088,0,0,1,17.606,10.284,63.771,63.771,0,0,1,13.094,15.237,100.057,100.057,0,0,1,8.953,18.5,107.382,107.382,0,0,1,5.178,20.271A133.43,133.43,0,0,1,1008.427,1541.607Zm-51.489,4.885q0-3.406-.221-8.509t-.962-10.726q-.742-5.624-2-11.244a49.222,49.222,0,0,0-3.33-10.063,23,23,0,0,0-5.1-7.251,10.217,10.217,0,0,0-7.177-2.809,10.063,10.063,0,0,0-6.954,2.663,23.05,23.05,0,0,0-5.1,6.954,49.525,49.525,0,0,0-3.551,9.69,104.331,104.331,0,0,0-2.22,10.8q-.814,5.4-1.183,10.356t-.37,8.36a114.055,114.055,0,0,0,.74,11.835,64.992,64.992,0,0,0,2.812,13.317,33.9,33.9,0,0,0,5.7,10.875,11.636,11.636,0,0,0,9.543,4.512,12.185,12.185,0,0,0,9.395-4.142,30.708,30.708,0,0,0,5.993-10.136,58.554,58.554,0,0,0,3.106-12.65A90.619,90.619,0,0,0,956.938,1546.492Zm175.181-154.766q-1.774,10.51-2.737,20.641t-.961,19.9v6.067a60.184,60.184,0,0,0,.3,6.066,23.954,23.954,0,0,0-8.878-8.878,21.515,21.515,0,0,0-10.506-2.961,17.277,17.277,0,0,0-6.953,1.482,16.164,16.164,0,0,0-5.918,4.436,23.076,23.076,0,0,0-4.069,7.4,31.379,31.379,0,0,0-1.553,10.357l36.989-1.479a86.365,86.365,0,0,0-2.145,13.832q-.52,7.031-.519,14.575,0,4.143.149,8.287t.444,8.433q-9.323-1.184-17.756-2.146a157.08,157.08,0,0,0-17.755-.96q-.3,10.649-.444,21.674t-.148,21.97q0,23.382,1.259,46.311a336.935,336.935,0,0,0,5.4,44.684,170.91,170.91,0,0,0-34.474-3.4q-9.32,0-18.419.888t-17.978,2.514a279.837,279.837,0,0,0,5.327-31.515q1.921-16.866,2.885-34.324t1.406-34.625q.443-17.159.739-32.254-4.737.3-10.357.815t-10.356,1.257q.738-6.51,1.183-12.65t.444-12.5q0-5.623-.3-11.172a102.054,102.054,0,0,0-1.331-11.614l22.489,1.185a95.87,95.87,0,0,1,3.921-28.189,61.421,61.421,0,0,1,11.762-22.043,52.85,52.85,0,0,1,19.6-14.353q11.763-5.1,27.447-5.1a51.337,51.337,0,0,1,8.8.664,59.15,59.15,0,0,1,7.324,1.775q3.552,1.109,7.249,2.37T1132.119,1391.726Zm205.956,26.338a77.7,77.7,0,0,0-3.4,10.8q-1.481,6.071-2.589,12.727t-1.85,13.686q-.741,7.03-1.184,13.539-1.185,15.534-1.478,31.957,0,7.253.147,14.869t.148,15.462q0,12.43-.888,25a135.338,135.338,0,0,1-3.846,24.119,86.329,86.329,0,0,1-8.73,21.6,57.585,57.585,0,0,1-15.609,17.459q-9.842,7.4-24.266,11.69t-34.844,4.291q-15.535,0-26.854-3.773a53.52,53.52,0,0,1-18.642-10.211,39.76,39.76,0,0,1-10.8-14.944,47.034,47.034,0,0,1-3.477-17.978,30.539,30.539,0,0,1,2.96-13.313,34.263,34.263,0,0,1,7.915-10.727,37.575,37.575,0,0,1,11.393-7.1,35.179,35.179,0,0,1,13.243-2.591,33.932,33.932,0,0,1,16.866,4.588q8.136,4.589,14.352,14.8c-1.086-.2-2.145-.343-3.18-.445s-2-.145-2.886-.145q-10.654,0-10.652,9.171a8.074,8.074,0,0,0,3.921,6.954q3.918,2.664,10.578,2.664,8.136,0,13.094-4.291a28.052,28.052,0,0,0,7.62-10.8,53.617,53.617,0,0,0,3.552-14.277,131.534,131.534,0,0,0,.887-14.869v-6.363a20.5,20.5,0,0,1-6.658,4.66,45.8,45.8,0,0,1-7.842,2.664,49.439,49.439,0,0,1-7.693,1.257q-3.7.3-6.215.3a69.528,69.528,0,0,1-17.828-2.366,39.439,39.439,0,0,1-16.276-8.878q-7.325-6.51-12.058-18.126t-5.327-30.11q0-.737-.074-5.7t-.593-12.281q-.519-7.322-1.627-16.053a164.023,164.023,0,0,0-3.107-17.162,98.437,98.437,0,0,0-5.03-15.611,32.6,32.6,0,0,0-7.472-11.317q15.681,2.664,28.038,3.773t21.676,1.108q7.248,0,12.65-.369t8.951-.961a48.711,48.711,0,0,0,7.1-1.481q-.743,6.069-1.553,12.8t-1.48,13.615q-.666,6.876-1.036,13.832t-.37,13.465q0,7.4.593,13.832a59.736,59.736,0,0,0,2,11.248,20.715,20.715,0,0,0,3.7,7.545,7.137,7.137,0,0,0,5.7,2.736q4.14,0,7.028-4.512a39.209,39.209,0,0,0,4.66-11.835,107.153,107.153,0,0,0,2.515-16.5q.739-9.174.739-18.347,0-10.653-.813-20.343a144.8,144.8,0,0,0-2-15.611,31.262,31.262,0,0,0,6.954,1.627,82.074,82.074,0,0,0,9.691,1.185q5.993.446,14.87.445,7.1,0,16.2-.445T1338.075,1418.064Zm149.439,123.543a147.726,147.726,0,0,1-1.332,18.865,131.543,131.543,0,0,1-4.439,20.713,106.056,106.056,0,0,1-8.432,20.271,69.72,69.72,0,0,1-13.243,17.387,61.38,61.38,0,0,1-18.865,12.132q-10.951,4.584-25.448,4.584t-25.375-4.29a59.09,59.09,0,0,1-18.642-11.466,62.6,62.6,0,0,1-12.8-16.571,99.687,99.687,0,0,1-7.989-19.753,122.317,122.317,0,0,1-4.069-20.934,192.817,192.817,0,0,1-1.111-20.05,122.469,122.469,0,0,1,4.439-32.773,88.65,88.65,0,0,1,13.539-28.628,70.28,70.28,0,0,1,22.785-20.271q13.685-7.692,32.181-7.693a62.447,62.447,0,0,1,22.342,3.773,60.1,60.1,0,0,1,17.606,10.284,63.794,63.794,0,0,1,13.094,15.237,100.053,100.053,0,0,1,8.952,18.5,107.384,107.384,0,0,1,5.179,20.271A133.43,133.43,0,0,1,1487.514,1541.607Zm-51.49,4.885q0-3.406-.221-8.509t-.962-10.726q-.742-5.624-2-11.244a49.161,49.161,0,0,0-3.331-10.063,23,23,0,0,0-5.1-7.251,10.217,10.217,0,0,0-7.176-2.809,10.063,10.063,0,0,0-6.954,2.663,23.05,23.05,0,0,0-5.1,6.954,49.589,49.589,0,0,0-3.552,9.69,104.325,104.325,0,0,0-2.219,10.8q-.814,5.4-1.183,10.356t-.37,8.36a114.021,114.021,0,0,0,.739,11.835,65.059,65.059,0,0,0,2.812,13.317,33.916,33.916,0,0,0,5.7,10.875,11.636,11.636,0,0,0,9.543,4.512,12.182,12.182,0,0,0,9.394-4.142,30.71,30.71,0,0,0,5.994-10.136,58.554,58.554,0,0,0,3.106-12.65A90.6,90.6,0,0,0,1436.024,1546.492Zm197.227-89.071q-1.332,6.658-2.441,15.535t-1.924,19.158q-.814,10.288-1.257,21.456t-.444,22.268q0,3.7.148,7.324t.147,7.026q0,7.252-.813,16.423a117.3,117.3,0,0,1-3.254,18.716,106.393,106.393,0,0,1-6.733,18.72,57.8,57.8,0,0,1-11.319,16.274,53.957,53.957,0,0,1-17.089,11.466q-10.062,4.362-23.821,4.366a64.679,64.679,0,0,1-20.936-3.108,51.752,51.752,0,0,1-15.832-8.509,50.074,50.074,0,0,1-11.319-12.8,74.177,74.177,0,0,1-7.4-15.907A98.6,98.6,0,0,1,1504.9,1578a137.86,137.86,0,0,1-1.258-18.492c0-1.482.023-2.393.073-2.74a6.272,6.272,0,0,0,.074-.666,1.709,1.709,0,0,1,.149-.515,9.619,9.619,0,0,0,.148-2.294q0-1.92.073-6.066t.074-11.69q0-8.877-.3-20.047t-1.258-21.9a178.343,178.343,0,0,0-2.737-19.456q-1.776-8.732-4.586-12.726a224.119,224.119,0,0,0,22.563,2.812q10.576.742,19.307.739,5.772,0,10.433-.221t8.062-.518q3.848-.3,6.954-.739-2.959,14.5-5.7,32.918a289.83,289.83,0,0,0-2.738,42.245q0,5.475.518,11.39a63.026,63.026,0,0,0,1.85,10.874,24.777,24.777,0,0,0,3.626,8.139,6.935,6.935,0,0,0,5.843,3.182,8.628,8.628,0,0,0,6.954-2.961,19.389,19.389,0,0,0,3.774-7.766,49.856,49.856,0,0,0,1.479-10.726q.222-5.916.222-11.838-.149-19.233-1.184-35.955-.444-7.1-1.109-14.35t-1.553-13.687q-.89-6.435-2.073-11.541a37.575,37.575,0,0,0-2.663-8.063q11.985,2.075,22.195,2.812t18.2.739q5.326,0,9.543-.221t7.175-.518Q1630.588,1457.863,1633.251,1457.421Z"/><path class="cls-1" d="M1915.3,1737.585a60.3,60.3,0,0,1-49.012-77.718l23.886-76.289a10.3,10.3,0,0,0-1.723-9.434l-49.333-62.953a60.242,60.242,0,0,1,46.766-97.394l80.008-.861a10.3,10.3,0,0,0,8.436-4.553l44.606-66.363a60.24,60.24,0,0,1,107.087,14.386l25.506,75.768a10.293,10.293,0,0,0,6.936,6.617l76.92,21.934a60.239,60.239,0,0,1,19.4,106.287L2190.6,1614.7a10.3,10.3,0,0,0-4.151,8.643l2.914,79.922a60.146,60.146,0,0,1-95.094,51.3l-65.165-46.306a10.3,10.3,0,0,0-9.505-1.278l-75.136,27.466a60.494,60.494,0,0,1-29.15,3.142Z"/><path class="cls-5" d="M2161.5,1624.248l2.913,79.925c1.064,29.218-31.842,46.97-55.675,30.034l-65.167-46.306a35.266,35.266,0,0,0-32.537-4.376l-75.141,27.466c-27.455,10.036-54.5-15.766-45.766-43.663l23.886-76.292a35.269,35.269,0,0,0-5.9-32.292l-49.334-62.955c-18.031-23.01-1.85-56.706,27.381-57.022l80.006-.862a35.268,35.268,0,0,0,28.891-15.592l44.607-66.363c16.311-24.266,53.369-19.288,62.7,8.423l25.506,75.767a35.269,35.269,0,0,0,23.755,22.665l76.919,21.934c28.115,8.017,34.829,44.8,11.36,62.229l-64.19,47.684A35.269,35.269,0,0,0,2161.5,1624.248Z"/></g></svg>