<svg xmlns="http://www.w3.org/2000/svg" viewBox="0 0 2498.752 2498.752"><defs><style>.cls-1{fill:#fffdf5;}.cls-2{fill:#ef9aff;}.cls-3{fill:#0424aa;}.cls-4{fill:#ffeede;}.cls-5{fill:#ff5d2c;}.cls-6{fill:#262626;}</style></defs><g id="Bring_Success_Flower_Label" data-name="Bring Success Flower Label"><path class="cls-1" d="M2379.142,1451.784,2189.5,1173.436l13.938-20.457a144.344,144.344,0,0,0,59.194-78.73,145.163,145.163,0,0,0,55.575-84.8q.8-3.476,1.414-6.976l59.514-87.348A135.083,135.083,0,0,0,2267.5,683.97H2151.3a145.722,145.722,0,0,0-129.065,0H377.508A135.085,135.085,0,0,0,265.875,895.122L455.51,1173.431l-8.991,13.2a166.3,166.3,0,0,0-204.665,68.013,166.116,166.116,0,0,0-121.638,200.8,166.535,166.535,0,0,0,56.136,228.64,166.181,166.181,0,0,0,161.187,126.505,166.772,166.772,0,0,0,39.736-4.819l.2-.048a166.251,166.251,0,0,0,228.411-56.081,165.11,165.11,0,0,0,102.391-75.255q3.4-5.613,6.322-11.459H2267.506a135.084,135.084,0,0,0,111.636-211.147Z"/><path class="cls-2" d="M2092.018,1196.743l209.7,307.791c18.725,27.483-.958,64.711-34.214,64.711H377.5c-33.256,0-52.939-37.228-34.214-64.711l209.7-307.791a41.4,41.4,0,0,0,0-46.623L343.3,842.368c-18.726-27.483.957-64.712,34.213-64.712H2267.5c33.256,0,52.939,37.229,34.213,64.712l-209.7,307.752A41.4,41.4,0,0,0,2092.018,1196.743Z"/><path class="cls-3" d="M2187.622,1510.692H457.388a25.083,25.083,0,0,1-20.729-39.208l164.727-241.773a99.4,99.4,0,0,0,0-112.56L436.67,875.417A25.083,25.083,0,0,1,457.4,836.209H2187.613a25.083,25.083,0,0,1,20.727,39.206l-164.709,241.734a99.384,99.384,0,0,0,0,112.567l164.718,241.768a25.082,25.082,0,0,1-20.727,39.208ZM457.4,850.262a11.031,11.031,0,0,0-9.117,17.241L613,1109.24a113.373,113.373,0,0,1,0,128.383L448.273,1479.4a11.028,11.028,0,0,0,9.115,17.241H2187.622a11.03,11.03,0,0,0,9.117-17.241L2032.021,1237.63a113.361,113.361,0,0,1,0-128.4L2196.73,867.5a11.034,11.034,0,0,0-9.117-17.241Z"/><path class="cls-3" d="M695.433,1338.369a173.369,173.369,0,0,0,8.472-19.872,121.786,121.786,0,0,0,32.149,12.468,143.816,143.816,0,0,0,34.094,4.481q16.167,0,22.79-2.825t6.624-6.136q0-11.881-36.234-11.885-39.744,0-57.666-8.28t-17.923-26.788q0-26.3,21.815-38.769t56.7-12.468a176.62,176.62,0,0,1,41.591,5.163,168.3,168.3,0,0,1,38.48,14.123q-5.654,12.86-11.884,31.368-1.173,3.9-1.949,5.844-9.936-7.987-30-13.344t-35.457-5.359q-18.513,0-24.935,2.436t-6.432,7.111q0,4.676,8.865,7.5t25.622,2.824q41.293,0,60,9.449t18.7,28.931q0,27.279-19.871,39.256t-60.2,11.983a211.012,211.012,0,0,1-44.029-4.773,162.673,162.673,0,0,1-40.324-13.93A189.366,189.366,0,0,0,695.433,1338.369ZM979.774,1232h48.316v77.54q-.391,28.638-19.579,47.341t-64.583,18.7q-45.98,0-62.926-17.827t-16.56-46.854V1232h48.316v75.786a62.344,62.344,0,0,0,1.262,13.929q1.27,5.362,8.184,10.034t22.305,4.675q16.756,0,24.552-4.773t9.254-10.618a63.5,63.5,0,0,0,1.459-15Zm84.747,124.881q-20.853-18.7-20.846-53.382,0-34.87,20.846-55.134t64.875-20.26q61.557,0,82.4,42.275-17.532,6.042-41.106,18.12a34.854,34.854,0,0,0-17.827-16.171,62.077,62.077,0,0,0-24.839-5.261q-18.7,0-27.859,9.84t-9.154,24.254q0,15.59,9.836,25.425t30.1,9.837q16.173,0,25.717-5.356t14.026-17.047q15.974,8.574,40.914,19.286-9.744,23.577-32.534,32.925a129.622,129.622,0,0,1-49.679,9.352Q1085.365,1375.58,1064.521,1356.877Zm177.87,0q-20.853-18.7-20.846-53.382,0-34.87,20.846-55.134t64.875-20.26q61.557,0,82.4,42.275-17.532,6.042-41.106,18.12a34.854,34.854,0,0,0-17.827-16.171,62.078,62.078,0,0,0-24.84-5.261q-18.7,0-27.858,9.84t-9.154,24.254q0,15.59,9.835,25.425t30.1,9.837q16.173,0,25.717-5.356t14.026-17.047q15.973,8.574,40.914,19.286-9.744,23.577-32.534,32.925a129.622,129.622,0,0,1-49.679,9.352Q1263.235,1375.58,1242.391,1356.877Zm208.844-18.9q74.031-.391,107.349-2.143a122.322,122.322,0,0,0-1.656,16.461q-.3,8.475-.293,21.333H1405.261q1.551-37.794,1.555-70.719t-1.555-70.721h151.374v35.262h-105.4v18.7q9.353.2,27.666.2,30.973,0,64.1-1.169v33.508q-33.122-1.17-64.1-1.169-18.313,0-27.666.2Zm133.941.389a173.547,173.547,0,0,0,8.472-19.872,121.773,121.773,0,0,0,32.149,12.468,143.809,143.809,0,0,0,34.094,4.481q16.165,0,22.79-2.825t6.624-6.136q0-11.881-36.235-11.885-39.742,0-57.666-8.28t-17.923-26.788q0-26.3,21.816-38.769t56.7-12.468a176.62,176.62,0,0,1,41.591,5.163,168.31,168.31,0,0,1,38.481,14.123q-5.653,12.86-11.884,31.368-1.175,3.9-1.949,5.844-9.936-7.987-30-13.344t-35.457-5.359q-18.513,0-24.936,2.436t-6.431,7.111q0,4.676,8.865,7.5t25.622,2.824q41.293,0,60,9.449t18.7,28.931q0,27.279-19.872,39.256t-60.2,11.983a211.021,211.021,0,0,1-44.03-4.773,162.688,162.688,0,0,1-40.324-13.93A189.589,189.589,0,0,0,1585.176,1338.369Zm180.01,0a173.369,173.369,0,0,0,8.472-19.872,121.78,121.78,0,0,0,32.15,12.468,143.8,143.8,0,0,0,34.093,4.481q16.167,0,22.79-2.825t6.624-6.136q0-11.881-36.234-11.885-39.744,0-57.666-8.28t-17.923-26.788q0-26.3,21.816-38.769T1836,1228.3a176.62,176.62,0,0,1,41.591,5.163,168.327,168.327,0,0,1,38.481,14.123q-5.655,12.86-11.885,31.368-1.173,3.9-1.948,5.844-9.936-7.987-30-13.344t-35.456-5.359q-18.513,0-24.936,2.436t-6.432,7.111q0,4.676,8.866,7.5t25.621,2.824q41.295,0,60,9.449t18.7,28.931q0,27.279-19.871,39.256t-60.2,11.983a211.014,211.014,0,0,1-44.03-4.773,162.673,162.673,0,0,1-40.324-13.93A189.366,189.366,0,0,0,1765.186,1338.369Z"/><path class="cls-3" d="M1051.369,1069.565q0,13.251-6.043,22.5t-21.623,14.417q-15.59,5.163-43.252,5.162H892.786q1.549-37.794,1.555-70.719t-1.555-70.722h45.781v.2h41.5q24.153,0,38.087,3.993t19.68,11.592q5.743,7.6,5.745,19.286a30.793,30.793,0,0,1-8.279,21.139q-8.283,9.257-28.349,14.9Q1051.37,1041.315,1051.369,1069.565Zm-112.8-63.706v18.117h37.406q12.077,0,16.852-2.143t4.771-7.793q0-4.477-4.968-6.331t-16.655-1.85Zm37.406,70.136a102.618,102.618,0,0,0,15.489-.879q5.352-.875,7.694-3.117a8.085,8.085,0,0,0,2.338-6.137q0-5.064-5.554-7.305t-19.967-2.239H938.567v19.677Zm239.14-30q-8.281,11.688-28.343,16.95a48.506,48.506,0,0,1,3.312,4.87l31.559,43.835H1168.65q-8.577-15.97-27.081-45.2h-28.641v45.2h-45.973q1.55-37.794,1.555-70.719t-1.555-70.722h45.973v.2h39.94q39.353,0,54.94,12.662t15.585,34.288Q1223.393,1034.3,1215.113,1045.991Zm-102.185-38.184v22.209h26.3a215.858,215.858,0,0,0,25.036-1.072q8.473-1.068,11.784-3.408a8.64,8.64,0,0,0,.2-13.445q-3.122-2.336-11.692-3.312a243.929,243.929,0,0,0-25.324-.972Zm239.246,1.169q-23.193-1.17-34.29-1.365v66.629q11.293-.192,34.29-1.363v38.769H1238.983v-38.769q22.4,1.167,34.094,1.363v-66.629q-11.693.2-34.094,1.365V970.205h113.191ZM1531.206,970.4q-1.366,32.925-1.363,70.525,0,37.8,1.363,70.719h-69.743l-47.149-106.373,3.508,106.373h-50.067q1.551-37.794,1.555-70.719,0-32.731-1.555-70.525h71.691l47.341,109.293L1483.476,970.4Zm95.854,60.589h83.187v80.655h-34.286l-4.094-34.483q-5.84,18.51-20.846,27.47T1614.4,1113.6q-19.678,0-34.972-8.767a61.306,61.306,0,0,1-23.961-25.133q-8.673-16.365-8.668-38.185,0-34.872,20.846-55.134t64.875-20.261q25.128,0,44.318,8.182a81.793,81.793,0,0,1,32.634,25.327q-8.769,4.484-34.29,17.922l-4.868,2.729a49.246,49.246,0,0,0-17.73-11.4,60.54,60.54,0,0,0-21.432-3.8q-18.7,0-27.858,9.839t-9.154,24.254q0,15.591,9.835,25.133t30.1,9.547a57.885,57.885,0,0,0,17.049-2.535,30.432,30.432,0,0,0,13.93-8.767H1627.06Z"/><path class="cls-4" d="M480.811,1734.067a72.53,72.53,0,0,1-85.432-45.847,72.433,72.433,0,0,1-123.232-74.649A72.428,72.428,0,0,1,237.8,1473.655a72.433,72.433,0,0,1,74.648-123.233,72.43,72.43,0,0,1,139.918-34.352,72.431,72.431,0,0,1,123.229,74.651,72.428,72.428,0,0,1,34.351,139.916A72.431,72.431,0,0,1,535.3,1653.868,72.53,72.53,0,0,1,480.811,1734.067Z"/><path class="cls-5" d="M572.332,1409.017,539.8,1417l17.355-28.649a55.044,55.044,0,0,0-18.561-75.6h0a55.043,55.043,0,0,0-75.6,18.561l-17.355,28.649-7.986-32.529a55.045,55.045,0,0,0-66.581-40.333h0a55.044,55.044,0,0,0-40.332,66.581l7.987,32.529L310.08,1368.86a55.044,55.044,0,0,0-75.6,18.56h0a55.044,55.044,0,0,0,18.56,75.6l28.649,17.354-32.529,7.987a55.044,55.044,0,0,0-40.332,66.581h0a55.044,55.044,0,0,0,66.581,40.332l32.53-7.986-17.355,28.649a55.044,55.044,0,0,0,18.561,75.6h0a55.043,55.043,0,0,0,75.6-18.561l17.355-28.649,7.986,32.529a55.043,55.043,0,0,0,66.581,40.332h0A55.044,55.044,0,0,0,517,1650.606l-7.987-32.529,28.649,17.354a55.043,55.043,0,0,0,75.6-18.561h0a55.044,55.044,0,0,0-18.561-75.6l-28.649-17.354,32.53-7.987a55.044,55.044,0,0,0,40.332-66.581h0A55.044,55.044,0,0,0,572.332,1409.017Z"/><circle class="cls-4" cx="423.871" cy="1502.145" r="105.045"/><path class="cls-5" d="M507.962,1483.31a12.468,12.468,0,0,0-13.409-6.489,2.333,2.333,0,0,0-.568.078,2.289,2.289,0,0,0-.453.176c-.041.012-.083.019-.124.032a12.489,12.489,0,0,0-8.694,11.918,2.333,2.333,0,0,0,4.666,0,7.893,7.893,0,0,1,3.605-6.63,72.645,72.645,0,0,1-8.915,54.64,71.629,71.629,0,0,1-45.664,32.914c-37.7,8.136-75.207-15.649-84.935-53.288a7.877,7.877,0,0,1,6.267,4.2,2.334,2.334,0,0,0,4.129-2.177,12.465,12.465,0,0,0-13.335-6.5,2.383,2.383,0,0,0-.493.053,2.194,2.194,0,0,0-.571.2c-.052.015-.1.024-.156.04a12.488,12.488,0,0,0-8.694,11.918,2.334,2.334,0,0,0,4.667,0,7.884,7.884,0,0,1,3.647-6.658,77.539,77.539,0,0,0,33.189,45.957,75.477,75.477,0,0,0,57.27,10.809c.662-.143,1.319-.294,1.977-.456a76.476,76.476,0,0,0,46.688-34.592,77.27,77.27,0,0,0,9.458-58.185,7.879,7.879,0,0,1,6.32,4.206,2.333,2.333,0,1,0,4.128-2.176Z"/><path class="cls-4" d="M412.256,1478.4a28.218,28.218,0,0,1,.788,7.775,27.755,27.755,0,1,1-.788-7.775Z"/><path class="cls-5" d="M392.243,1513.121a28.936,28.936,0,1,1,21.188-35.01A28.979,28.979,0,0,1,392.243,1513.121Zm-13.222-53.853a26.517,26.517,0,1,0,32.062,19.42A26.547,26.547,0,0,0,379.021,1459.268Z"/><path class="cls-6" d="M412.226,1481.321a32.3,32.3,0,0,1,.818,4.854,27.91,27.91,0,0,1-9.862,20.076c-7.744,1.727-16.3-6.256-19.186-18-2.9-11.813,1.065-22.946,8.862-24.861S409.326,1469.508,412.226,1481.321Z"/><path class="cls-5" d="M412.256,1478.4,358.4,1491.622a27.726,27.726,0,0,1,53.853-13.222Z"/><circle class="cls-4" cx="387.54" cy="1495.677" r="4.551"/><path class="cls-4" d="M477.02,1462.5a28.211,28.211,0,0,1,.788,7.774,27.756,27.756,0,1,1-.788-7.774Z"/><path class="cls-5" d="M457.007,1497.22a28.935,28.935,0,1,1,21.188-35.009A28.979,28.979,0,0,1,457.007,1497.22Zm-13.222-53.853a26.517,26.517,0,1,0,32.062,19.42A26.546,26.546,0,0,0,443.785,1443.367Z"/><path class="cls-6" d="M476.99,1465.42a32.3,32.3,0,0,1,.818,4.854,27.914,27.914,0,0,1-9.862,20.077c-7.744,1.727-16.3-6.257-19.186-18-2.9-11.813,1.065-22.946,8.862-24.86S474.09,1453.607,476.99,1465.42Z"/><path class="cls-5" d="M477.02,1462.5l-53.853,13.221A27.726,27.726,0,0,1,477.02,1462.5Z"/><circle class="cls-4" cx="452.304" cy="1479.777" r="4.551"/><path class="cls-4" d="M2022.173,1097.084a51.9,51.9,0,0,0,60.607-33.777,51.833,51.833,0,0,0,87.325-54.815,51.831,51.831,0,0,0,22.987-100.5,51.834,51.834,0,0,0-54.815-87.326,51.831,51.831,0,0,0-100.505-22.987,51.832,51.832,0,0,0-87.323,54.816A51.831,51.831,0,0,0,1927.462,953a51.833,51.833,0,0,0,54.813,87.325A51.9,51.9,0,0,0,2022.173,1097.084Z"/><path class="cls-5" d="M1952.989,865.546l23.366,5.344-12.743-20.3a39.391,39.391,0,0,1,12.42-54.3h0a39.391,39.391,0,0,1,54.3,12.421l12.744,20.3,5.344-23.366a39.389,39.389,0,0,1,47.181-29.616h0a39.389,39.389,0,0,1,29.616,47.181l-5.344,23.366,20.3-12.743a39.392,39.392,0,0,1,54.305,12.42h0a39.391,39.391,0,0,1-12.421,54.3l-20.3,12.743,23.366,5.345a39.389,39.389,0,0,1,29.616,47.181h0a39.389,39.389,0,0,1-47.181,29.616l-23.366-5.344,12.743,20.3a39.392,39.392,0,0,1-12.42,54.305h0a39.391,39.391,0,0,1-54.3-12.421l-12.744-20.3-5.344,23.366a39.389,39.389,0,0,1-47.181,29.616h0a39.389,39.389,0,0,1-29.616-47.181l5.344-23.366-20.3,12.743a39.391,39.391,0,0,1-54.3-12.42h0a39.391,39.391,0,0,1,12.421-54.3l20.3-12.744-23.366-5.344a39.389,39.389,0,0,1-29.616-47.181h0A39.389,39.389,0,0,1,1952.989,865.546Z"/><circle class="cls-4" cx="2060.275" cy="930.491" r="75.171"/><path class="cls-5" d="M1999.892,917.971a8.922,8.922,0,0,1,9.521-4.795,1.635,1.635,0,0,1,.407.049,1.607,1.607,0,0,1,.326.121c.03.008.06.013.09.021a8.937,8.937,0,0,1,6.356,8.429,1.67,1.67,0,0,1-3.339.055,5.645,5.645,0,0,0-2.655-4.7,51.988,51.988,0,0,0,7,38.994,51.256,51.256,0,0,0,33.048,23.031c27.068,5.393,53.634-12.053,60.166-39.1a5.639,5.639,0,0,0-4.436,3.077,1.67,1.67,0,0,1-2.979-1.51,8.919,8.919,0,0,1,9.468-4.8,1.689,1.689,0,0,1,.352.032,1.577,1.577,0,0,1,.412.14c.037.01.074.016.112.027a8.937,8.937,0,0,1,6.356,8.429,1.67,1.67,0,1,1-3.339.054,5.646,5.646,0,0,0-2.685-4.723,55.493,55.493,0,0,1-23.225,33.262,54.016,54.016,0,0,1-40.855,8.386c-.475-.095-.947-.2-1.419-.3a54.727,54.727,0,0,1-33.8-24.221,55.3,55.3,0,0,1-7.429-41.524,5.637,5.637,0,0,0-4.474,3.081,1.67,1.67,0,1,1-2.979-1.51Z"/><path class="cls-4" d="M2068.316,913.369a20.2,20.2,0,0,0-.475,5.572,19.861,19.861,0,1,0,.475-5.572Z"/><path class="cls-5" d="M2067.472,913.176a20.707,20.707,0,1,1,15.559,24.809A20.721,20.721,0,0,1,2067.472,913.176Zm1.687.386a18.976,18.976,0,1,0,22.72-14.261A19,19,0,0,0,2069.159,913.562Z"/><path class="cls-6" d="M2068.371,915.459a23.137,23.137,0,0,0-.53,3.482,19.972,19.972,0,0,0,7.285,14.253c5.56,1.147,11.593-4.662,13.523-13.1,1.94-8.486-1.023-16.407-6.624-17.688S2070.312,906.973,2068.371,915.459Z"/><path class="cls-5" d="M2068.316,913.369,2107,922.217a19.841,19.841,0,0,0-38.683-8.848Z"/><circle class="cls-4" cx="2086.197" cy="925.45" r="3.256"/><path class="cls-4" d="M2021.8,902.729a20.188,20.188,0,0,0-.475,5.572,19.861,19.861,0,1,0,.475-5.572Z"/><path class="cls-5" d="M2020.951,902.536a20.707,20.707,0,1,1,15.559,24.808A20.721,20.721,0,0,1,2020.951,902.536Zm1.687.385a18.976,18.976,0,1,0,22.72-14.26A19,19,0,0,0,2022.638,902.921Z"/><path class="cls-6" d="M2021.85,904.818a23.15,23.15,0,0,0-.53,3.483,19.973,19.973,0,0,0,7.285,14.253c5.56,1.147,11.593-4.663,13.523-13.1,1.94-8.485-1.023-16.406-6.624-17.687S2023.791,896.333,2021.85,904.818Z"/><path class="cls-5" d="M2021.8,902.729l38.683,8.847a19.841,19.841,0,0,0-38.683-8.847Z"/><circle class="cls-4" cx="2039.676" cy="914.81" r="3.256"/></g></svg>