<svg xmlns="http://www.w3.org/2000/svg" viewBox="0 0 2498.752 2498.752"><defs><style>.cls-1{fill:#fffdf5;}.cls-2{fill:#ef9aff;}.cls-3{fill:#0424aa;}.cls-4{fill:#ffeede;}</style></defs><g id="You_Are_Awesome_Label" data-name="You Are Awesome Label"><path class="cls-1" d="M2258.459,797.254A375.29,375.29,0,0,0,1987.81,681.361c-95.258,0-184.552,35.27-253.018,98.473a375.354,375.354,0,0,0-252.87-98.473c-95.259,0-184.553,35.27-253.017,98.473a375.354,375.354,0,0,0-252.869-98.473c-95.258,0-184.552,35.27-253.017,98.473a375.359,375.359,0,0,0-252.871-98.473C263.9,681.361,96.106,849.156,96.106,1055.4v351.013c0,116.384,52.478,223.628,144.186,295.08a375.283,375.283,0,0,0,270.65,115.895c95.258,0,184.553-35.27,253.019-98.473a375.349,375.349,0,0,0,252.868,98.473c95.259,0,184.554-35.27,253.019-98.473a375.35,375.35,0,0,0,252.869,98.473c95.258,0,184.553-35.27,253.019-98.473a375.35,375.35,0,0,0,252.869,98.473c206.246,0,374.041-167.794,374.041-374.041V1092.336C2402.646,975.951,2350.166,868.708,2258.459,797.254Z"/><path class="cls-2" d="M2028.6,778.558h0c-103.808,0-195.827,50.423-252.943,128.1-57.116-77.676-149.135-128.1-252.943-128.1h0c-103.808,0-195.827,50.423-252.943,128.1-57.116-77.676-149.135-128.1-252.943-128.1h0c-103.808,0-195.827,50.423-252.943,128.1-57.117-77.676-149.135-128.1-252.944-128.1h0c-173.295,0-313.778,140.483-313.778,313.778v351.013c0,173.3,140.483,313.778,313.778,313.778h0c103.809,0,195.827-50.423,252.944-128.1,57.116,77.676,149.135,128.1,252.943,128.1h0c103.808,0,195.827-50.423,252.943-128.1,57.116,77.676,149.135,128.1,252.943,128.1h0c103.808,0,195.827-50.423,252.943-128.1,57.116,77.676,149.135,128.1,252.943,128.1h0c173.295,0,313.777-140.483,313.777-313.778V1092.336C2342.381,919.041,2201.9,778.558,2028.6,778.558Z"/><path class="cls-3" d="M1987.811,741.625h0c-103.809,0-195.827,50.423-252.943,128.1-57.117-77.676-149.136-128.1-252.944-128.1h0c-103.809,0-195.827,50.423-252.944,128.1-57.116-77.676-149.134-128.1-252.943-128.1h0c-103.809,0-195.827,50.423-252.944,128.1-57.116-77.676-149.135-128.1-252.943-128.1h0c-173.294,0-313.777,140.483-313.777,313.778v351.013c0,173.3,140.483,313.778,313.777,313.778h0c103.808,0,195.827-50.423,252.943-128.1,57.117,77.676,149.135,128.1,252.944,128.1h0c103.809,0,195.827-50.423,252.943-128.1,57.117,77.676,149.135,128.1,252.944,128.1h0c103.808,0,195.827-50.423,252.944-128.1,57.116,77.676,149.134,128.1,252.943,128.1h0c173.294,0,313.777-140.483,313.777-313.778V1055.4C2301.588,882.108,2161.105,741.625,1987.811,741.625Z"/><path class="cls-1" d="M673.478,1395.247a25.552,25.552,0,0,0-1.162,7.554,14.1,14.1,0,0,0,2.759,8.86,14.112,14.112,0,0,1,1.309,1.887q2.9,2.909,2.9,5.811a17.569,17.569,0,0,1-.582,2.9,8.281,8.281,0,0,1-5.083,5.665q-3.923,1.6-12.056,1.6H592.72q-6.1,0-9.441-2.033a6.205,6.205,0,0,1-3.341-5.521,9.642,9.642,0,0,1,.872-3.776,8.354,8.354,0,0,1,2.469-3.631,38.885,38.885,0,0,1,4.5-3.05,29.954,29.954,0,0,0,7.552-5.809q2.9-3.195,4.938-10.459l7.554-24.982H562.507l-7.842,16.558q-4.944,10.752-4.938,16.848a12.011,12.011,0,0,0,1.161,5.665,19.262,19.262,0,0,0,3.487,4.5,17.751,17.751,0,0,1,2.759,3.922,6.745,6.745,0,0,1,.145,4.212,8.444,8.444,0,0,1-4.793,5.957q-3.636,1.6-11.475,1.6H497.727q-6.678,0-10.167-2.469a7.635,7.635,0,0,1-3.486-6.536,9.127,9.127,0,0,1,3.34-7.407,50.577,50.577,0,0,1,10.023-5.957,78.172,78.172,0,0,0,13.943-8.568,34.7,34.7,0,0,0,9.006-11.766l51.708-107.193q11.91-24.981,28.034-36.168t42.557-11.184q29.631,0,45.9,12.056t16.268,33.553a64.023,64.023,0,0,1-2.906,18.591Zm-56.938-54.033,15.4-51.127a22.87,22.87,0,0,0,1.161-7.262q0-5.516-3.049-8.28t-8.57-2.759a18.131,18.131,0,0,0-11.91,4.068q-4.942,4.071-9.877,14.523l-23.82,50.837Zm336.977,28.76a153.535,153.535,0,0,1-45.462,44.591q-27.453,17.58-53.887,17.576-20.918,0-35.442-7.263t-18.881-20.916a75.462,75.462,0,0,1-23.822,19.753,59.189,59.189,0,0,1-27.307,6.683q-19.758,0-32.1-9.732t-12.346-28.614a69.354,69.354,0,0,1,3.2-20.335l16.268-56.938a15.938,15.938,0,0,0,.582-3.486,8.3,8.3,0,0,0-1.452-4.938A27.615,27.615,0,0,0,718.8,1302q-4.357-3.773-4.357-6.681-.294-4.065,4.939-8.715t14.669-7.7a69.3,69.3,0,0,1,21.351-3.049q19.461,0,30.357,9.44t10.895,24.547a51.375,51.375,0,0,1-2.325,14.525l-14.815,49.384a24.941,24.941,0,0,0-1.162,5.519,7.55,7.55,0,0,0,2.179,5.811,8.375,8.375,0,0,0,5.955,2.033,12.05,12.05,0,0,0,8.86-3.632q3.628-3.629,7.117-11.764l16.559-56.938a16,16,0,0,0,.582-3.486,8.3,8.3,0,0,0-1.453-4.938,27.615,27.615,0,0,0-4.068-4.358q-4.357-3.773-4.356-6.681-.294-4.065,4.938-8.715t14.67-7.7a69.3,69.3,0,0,1,21.35-3.049q19.754,0,30.5,9.295t10.749,24.692a55.952,55.952,0,0,1-2.324,14.525l-18.882,62.167a12.311,12.311,0,0,0-.582,4.356,6.921,6.921,0,0,0,2.615,5.811,11.553,11.553,0,0,0,7.262,2.033q6.386,0,14.961-5.665t16.849-16.268a89.992,89.992,0,0,0,13.508-25.127q-11.622-10.166-16.414-20.045a46.066,46.066,0,0,1-4.792-20.335q0-14.814,8.134-25.128t23.53-10.311a33.3,33.3,0,0,1,25.564,11.037q10.166,11.044,10.167,30.213Q971.528,1342.963,953.517,1369.974Zm166.45-83.809q16.559,11.766,16.558,30.067a41.974,41.974,0,0,1-1.161,10.167q-4.358,19.173-24.256,27.452t-46.917,8.28a176.74,176.74,0,0,1-25.563-1.743q-.291,15.107,8.134,21.206t23.53,6.1a54.863,54.863,0,0,0,13.363-1.6q6.386-1.593,16.268-4.793,8.13-2.9,11.039-2.905,3.193,0,3.2,3.776.285,10.173-7.554,21.352t-23.239,19.028q-15.4,7.842-37.183,7.843-32.247,0-52.872-16.268t-20.624-47.351a105.249,105.249,0,0,1,2.323-20.336q7.26-35.73,31.81-53.887t59.7-18.155Q1103.4,1274.4,1119.967,1286.165Zm-76.11,57.084q12.2,0,18.591-11.329a48.466,48.466,0,0,0,6.1-25.275q-.291-8.13-4.648-8.134-3.2,0-7.552,5.085t-8.57,15.251a135.438,135.438,0,0,0-7.117,24.11A13.613,13.613,0,0,0,1043.857,1343.249Zm224.119-65.652q17.574,4.355,27.016,12.2t9.442,17.72a20.228,20.228,0,0,1-7.99,16.559q-7.99,6.393-22.223,6.391-14.527,0-24.546-7.264t-10.023-18.3a22.752,22.752,0,0,1,1.163-7.261,35.246,35.246,0,0,0-9.3-1.453,19.963,19.963,0,0,0-12.056,3.486,10.829,10.829,0,0,0-4.5,9.877q0,7.559,7.554,12.782t24.4,13.072q14.52,6.394,23.966,11.764a55.6,55.6,0,0,1,15.976,13.509,29.689,29.689,0,0,1,6.537,19.173,59.785,59.785,0,0,1-1.163,8.715q-4.65,19.465-25.853,30.793t-55.775,11.33q-38.934,0-61.731-10.459t-22.805-28.759q0-12.488,7.554-18.883t20.044-6.391a36.5,36.5,0,0,1,24.838,9.006,29.13,29.13,0,0,1,10.311,22.949,37.4,37.4,0,0,1-.871,7.844,55.131,55.131,0,0,0,13.363,1.743,19,19,0,0,0,12.492-4.068q4.935-4.063,4.939-11.329-.3-6.678-6.683-11.474t-20.335-11.476a189.6,189.6,0,0,1-21.5-11.473,52.887,52.887,0,0,1-14.379-13.509,31.541,31.541,0,0,1-5.955-19.172q0-23.819,19.9-37.91t56.5-14.089Q1250.4,1273.239,1267.976,1277.6Zm205.667,14.233q18.738,15.979,18.738,41.832a93.055,93.055,0,0,1-2.324,19.464,97.723,97.723,0,0,1-20.626,41.685,101.926,101.926,0,0,1-37.038,27.6,115.739,115.739,0,0,1-47.5,9.732q-40.381,0-59.7-16.124t-19.318-42.847a98.014,98.014,0,0,1,2.323-20.044,93.139,93.139,0,0,1,21.061-40.234,106.4,106.4,0,0,1,38.056-27.307,119.856,119.856,0,0,1,48.077-9.731Q1454.9,1275.854,1473.643,1291.83ZM1401.6,1312.6q-6.829,10.9-16.122,41.106t-9.3,42.413q0,6.395,2.033,8.569a7.176,7.176,0,0,0,5.519,2.179q6.1.587,12.636-10.457t16.414-42.994q9-28.173,9-40.96,0-6.1-1.888-8.424a6.536,6.536,0,0,0-5.374-2.325Q1408.426,1301.707,1401.6,1312.6Zm368.205,76.838a8.038,8.038,0,0,0-.581,3.486,4.662,4.662,0,0,0,1.017,3.195,3.473,3.473,0,0,0,2.759,1.161,7.434,7.434,0,0,0,5.955-3.049q2.466-3.051,3.342-3.05,1.449,0,2.323,1.887a10.707,10.707,0,0,1,.872,4.5q.285,8.429-5.52,16.412t-16.995,13.073q-11.184,5.08-26.869,5.084-19.174,0-30.5-8.86t-11.62-23.676q0-10.745,5.229-24.112l15.977-41.831a18.054,18.054,0,0,0,1.453-6.1,7.553,7.553,0,0,0-2.469-5.955,8.7,8.7,0,0,0-5.955-2.179q-4.944,0-10.169,4.359t-9.295,13.652l-15.978,52a8.056,8.056,0,0,0-.58,3.486,4.662,4.662,0,0,0,1.017,3.195,3.472,3.472,0,0,0,2.759,1.161,7.434,7.434,0,0,0,5.955-3.049q2.466-3.051,3.341-3.05,1.451,0,2.324,1.887a10.707,10.707,0,0,1,.872,4.5q.285,8.429-5.52,16.412t-16.995,13.073q-11.184,5.08-26.87,5.084-19.173,0-30.5-8.86t-11.62-23.676q0-10.745,5.228-24.112l15.978-41.831a18.054,18.054,0,0,0,1.453-6.1,7.553,7.553,0,0,0-2.469-5.955,8.7,8.7,0,0,0-5.955-2.179q-4.944,0-10.169,4.213t-8.714,13.508l-19.174,62.167a17.854,17.854,0,0,0-1.161,6.1,10,10,0,0,0,1.453,5.665,23.889,23.889,0,0,0,4.066,4.5,14.1,14.1,0,0,1,2.906,3.194,4.276,4.276,0,0,1,.29,3.487,8.687,8.687,0,0,1-5.519,5.519q-4.359,1.745-13.655,1.743h-66.233q-7.551,0-10.893-2.469a5.982,5.982,0,0,1-2.469-6.536q1.164-3.487,6.1-6.1a26.526,26.526,0,0,0,7.261-5.521q2.9-3.194,4.939-10.167l25.855-83.954a11.355,11.355,0,0,0,.58-4.066,8.1,8.1,0,0,0-1.307-4.938,33.34,33.34,0,0,0-4.212-4.358,19.724,19.724,0,0,1-4.068-4.067q-1.162-1.743-.29-4.648,1.745-6.681,18.3-11.766a117.244,117.244,0,0,1,34.569-5.082q14.232,0,22.514,7.842t7.989,21.5q11.907-16.557,25.129-22.95a64.894,64.894,0,0,1,28.614-6.389q16.843,0,27.452,9.731T1693.113,1311q12.487-19.752,26.727-27.451a64.3,64.3,0,0,1,31.083-7.7q17.714,0,28.613,10.747t10.895,27.888a55.774,55.774,0,0,1-2.906,17.721Zm180.1-103.273q16.559,11.766,16.558,30.067a41.974,41.974,0,0,1-1.161,10.167q-4.358,19.173-24.256,27.452t-46.917,8.28a176.74,176.74,0,0,1-25.563-1.743q-.291,15.107,8.134,21.206t23.53,6.1a54.874,54.874,0,0,0,13.363-1.6q6.386-1.593,16.268-4.793,8.13-2.9,11.039-2.905,3.193,0,3.2,3.776.284,10.173-7.554,21.352t-23.239,19.028q-15.4,7.842-37.183,7.843-32.247,0-52.872-16.268t-20.624-47.351a105.249,105.249,0,0,1,2.323-20.336q7.258-35.73,31.81-53.887t59.7-18.155Q1933.346,1274.4,1949.909,1286.165Zm-76.11,57.084q12.2,0,18.591-11.329a48.466,48.466,0,0,0,6.1-25.275q-.291-8.13-4.648-8.134-3.2,0-7.552,5.085t-8.57,15.251a135.517,135.517,0,0,0-7.118,24.11A13.628,13.628,0,0,0,1873.8,1343.249Z"/><path class="cls-1" d="M921.236,1016.272q7.089,7.218,7.091,18.363a54.3,54.3,0,0,1-.506,5.571q-2.03,12.156-9.5,17.981a29.766,29.766,0,0,1-28.493,3.8,24.39,24.39,0,0,1-8.61-6.837L839.433,1109.6l-11.65,39.255a13.093,13.093,0,0,0-.506,4.053,9.749,9.749,0,0,0,1.772,5.952,31.606,31.606,0,0,0,5.065,5.191,29.845,29.845,0,0,1,4.053,4.305,4.278,4.278,0,0,1,.506,4.053,7.243,7.243,0,0,1-4.938,4.938,33.262,33.262,0,0,1-10.764,1.393H759.149q-6.588,0-9.751-2.406t-2.153-6.712a7.289,7.289,0,0,1,1.9-3.672,30.534,30.534,0,0,1,4.433-3.418,26.048,26.048,0,0,0,6.331-5.193,24.033,24.033,0,0,0,4.305-8.484l11.65-39.508-23.3-66.354a34.118,34.118,0,0,0-5.952-11.272,69.9,69.9,0,0,0-7.978-7.723,22.825,22.825,0,0,1-4.052-3.546,5.358,5.358,0,0,1-1.266-3.546,5.816,5.816,0,0,1,2.659-4.938q2.66-1.9,7.724-1.9h67.62q8.865,0,12.158,1.521a5.862,5.862,0,0,1,3.545,5.318,7.36,7.36,0,0,1-1.012,3.925,29.6,29.6,0,0,1-3.04,3.925q-2.279,3.04-3.419,4.94a8.973,8.973,0,0,0-1.14,4.684,21.867,21.867,0,0,0,.507,3.293l11.649,44.574,32.165-45.84q10.382-14.683,19.627-21.02A35.721,35.721,0,0,1,903,1009.054Q914.144,1009.054,921.236,1016.272Zm128.273,42.423q16.335,13.931,16.336,36.469a81.116,81.116,0,0,1-2.027,16.969,85.184,85.184,0,0,1-17.981,36.342,88.868,88.868,0,0,1-32.292,24.06,100.9,100.9,0,0,1-41.407,8.485q-35.205,0-52.045-14.057t-16.842-37.356a85.4,85.4,0,0,1,2.026-17.474,81.217,81.217,0,0,1,18.361-35.077,92.76,92.76,0,0,1,33.177-23.807,104.51,104.51,0,0,1,41.915-8.484Q1033.171,1044.765,1049.509,1058.7ZM986.7,1076.8q-5.954,9.5-14.055,35.835t-8.105,36.977q0,5.574,1.772,7.471a6.265,6.265,0,0,0,4.812,1.9q5.319.511,11.017-9.118t14.31-37.483q7.848-24.562,7.852-35.71,0-5.316-1.648-7.345a5.7,5.7,0,0,0-4.684-2.025Q992.654,1067.305,986.7,1076.8Zm230.593,66.987a13.777,13.777,0,0,0-.507,3.04,4.07,4.07,0,0,0,.886,2.785,3.031,3.031,0,0,0,2.406,1.013,6.482,6.482,0,0,0,5.192-2.658q2.149-2.661,2.913-2.661c.843,0,1.558.551,2.152,1.647a8.183,8.183,0,0,1,.887,3.925q.25,7.1-5.065,14.057a39.712,39.712,0,0,1-14.942,11.522,49.672,49.672,0,0,1-21.528,4.56q-14.946,0-23.807-6.079a27.005,27.005,0,0,1-11.4-15.955,63.524,63.524,0,0,1-20.135,15.321,52.054,52.054,0,0,1-22.414,5.193q-17.728,0-29.757-8.738t-12.03-24.44a46.355,46.355,0,0,1,2.532-14.689l16.208-52.931a12.465,12.465,0,0,0,.761-3.8,7.106,7.106,0,0,0-1.266-4.433,17.5,17.5,0,0,0-3.8-3.419,17.169,17.169,0,0,1-3.546-3.544,4.668,4.668,0,0,1-.253-4.053q1.518-5.823,15.955-10.257a102.183,102.183,0,0,1,30.139-4.432q14.684,0,21.527,5.572t6.837,15.195a35.063,35.063,0,0,1-1.772,11.143l-15.955,52.679a15.516,15.516,0,0,0-1.013,5.319,6.676,6.676,0,0,0,2.025,5.318,7.77,7.77,0,0,0,5.319,1.772,11.157,11.157,0,0,0,7.85-2.785q3.041-2.785,6.078-9.371l15.45-50.9a12.49,12.49,0,0,0,.76-3.8,7.106,7.106,0,0,0-1.266-4.433,20,20,0,0,0-3.546-3.419,17.22,17.22,0,0,1-3.546-3.544,4.672,4.672,0,0,1-.253-4.053q1.263-5.823,15.7-10.257a102.176,102.176,0,0,1,30.138-4.432q14.683,0,21.654,5.572a18.155,18.155,0,0,1,6.963,14.942,39.68,39.68,0,0,1-2.025,11.4Zm228.691,5.065a22.292,22.292,0,0,0-1.013,6.585,12.667,12.667,0,0,0,.76,4.686,12.463,12.463,0,0,0,1.646,3.038,12.429,12.429,0,0,1,1.14,1.646,7.316,7.316,0,0,1,2.532,5.066,15.336,15.336,0,0,1-.506,2.533,7.215,7.215,0,0,1-4.432,4.938q-3.42,1.394-10.51,1.393h-60.023q-5.319,0-8.231-1.772a5.41,5.41,0,0,1-2.912-4.812,8.426,8.426,0,0,1,.759-3.293,7.278,7.278,0,0,1,2.153-3.166,33.772,33.772,0,0,1,3.925-2.659,26.08,26.08,0,0,0,6.586-5.065q2.529-2.784,4.3-9.118l6.586-21.781h-39.509l-6.839,14.436q-4.31,9.373-4.305,14.689a10.443,10.443,0,0,0,1.014,4.939,16.864,16.864,0,0,0,3.038,3.926,15.325,15.325,0,0,1,2.406,3.42,5.857,5.857,0,0,1,.126,3.672,7.355,7.355,0,0,1-4.178,5.191q-3.171,1.394-10,1.393h-37.737q-5.821,0-8.864-2.153a6.659,6.659,0,0,1-3.04-5.7,7.963,7.963,0,0,1,2.914-6.458,44.2,44.2,0,0,1,8.737-5.191,68.04,68.04,0,0,0,12.156-7.471,30.274,30.274,0,0,0,7.852-10.258l45.08-93.452q10.383-21.778,24.44-31.531t37.1-9.751q25.832,0,40.015,10.509t14.183,29.253a55.911,55.911,0,0,1-2.532,16.208Zm-49.639-47.107,13.423-44.574a19.938,19.938,0,0,0,1.013-6.331q0-4.808-2.659-7.218t-7.471-2.406a15.809,15.809,0,0,0-10.384,3.546q-4.31,3.551-8.611,12.664l-20.767,44.319Zm218.691-48.373a29.137,29.137,0,0,1,8.484,21.275,36.607,36.607,0,0,1-1.013,8.864q-2.534,10.386-9.624,15.955a26.628,26.628,0,0,1-16.968,5.572q-9.628,0-14.563-4.559a41.7,41.7,0,0,1-8.737-12.156,28.386,28.386,0,0,0-3.8-6.332,5.283,5.283,0,0,0-4.052-2.026,5.9,5.9,0,0,0-4.432,2.026q-1.9,2.031-3.418,7.092l-19.5,63.315a10.815,10.815,0,0,0-.505,3.8,7.919,7.919,0,0,0,1.9,5.446,22.685,22.685,0,0,0,5.191,4.178,19.27,19.27,0,0,1,4.052,3.293,4.255,4.255,0,0,1,.76,3.293,6.148,6.148,0,0,1-3.672,4.812q-3.171,1.519-10.764,1.519h-64.835q-6.584,0-9.5-2.153a5.213,5.213,0,0,1-2.151-5.7q1.014-3.037,5.318-5.318a23.089,23.089,0,0,0,6.331-4.812q2.529-2.784,4.306-8.863l22.539-73.193a9.881,9.881,0,0,0,.507-3.546,7.058,7.058,0,0,0-1.139-4.3,29.219,29.219,0,0,0-3.673-3.8,17.21,17.21,0,0,1-3.545-3.544,4.672,4.672,0,0,1-.253-4.053q1.519-5.823,15.955-10.257a102.186,102.186,0,0,1,30.138-4.432q10.381,0,17.221,4.685a21.452,21.452,0,0,1,8.866,13.3q12.154-17.979,31.91-17.981Q1606.55,1044.765,1615.036,1053.375Zm132.075.38q14.436,10.257,14.436,26.213a36.609,36.609,0,0,1-1.013,8.865q-3.8,16.715-21.148,23.932t-40.9,7.218a154.078,154.078,0,0,1-22.286-1.519q-.257,13.171,7.091,18.487t20.514,5.32a47.835,47.835,0,0,0,11.649-1.393q5.569-1.39,14.183-4.18,7.089-2.529,9.624-2.532,2.785,0,2.787,3.293.249,8.866-6.585,18.614t-20.262,16.589q-13.427,6.839-32.417,6.838-28.111,0-46.094-14.183t-17.981-41.281a91.77,91.77,0,0,1,2.026-17.729q6.329-31.15,27.733-46.98t52.045-15.829Q1732.671,1043.5,1747.111,1053.755Zm-66.354,49.767q10.636,0,16.208-9.877a42.26,42.26,0,0,0,5.319-22.035q-.255-7.086-4.053-7.092-2.79,0-6.584,4.433t-7.471,13.3a118.12,118.12,0,0,0-6.206,21.02A11.871,11.871,0,0,0,1680.757,1103.522Z"/><polygon class="cls-4" points="397.574 1173.405 353.582 1173.405 384.689 1142.298 366.545 1124.154 335.438 1155.261 335.438 1111.269 309.778 1111.269 309.778 1155.261 278.671 1124.154 260.527 1142.298 291.634 1173.405 247.641 1173.405 247.641 1199.065 291.634 1199.065 260.527 1230.172 278.671 1248.316 309.778 1217.209 309.778 1261.202 335.438 1261.202 335.438 1217.209 366.545 1248.316 384.689 1230.172 353.582 1199.065 397.574 1199.065 397.574 1173.405"/><polygon class="cls-4" points="2196.995 1173.405 2153.003 1173.405 2184.11 1142.298 2165.966 1124.154 2134.859 1155.261 2134.859 1111.269 2109.199 1111.269 2109.199 1155.261 2078.092 1124.154 2059.948 1142.298 2091.055 1173.405 2047.063 1173.405 2047.063 1199.065 2091.055 1199.065 2059.948 1230.172 2078.092 1248.316 2109.199 1217.209 2109.199 1261.202 2134.859 1261.202 2134.859 1217.209 2165.966 1248.316 2184.11 1230.172 2153.003 1199.065 2196.995 1199.065 2196.995 1173.405"/></g></svg>