<svg xmlns="http://www.w3.org/2000/svg" viewBox="0 0 2498.752 2498.752"><defs><style>.cls-1{fill:#fffdf5;}.cls-2{fill:#f4bb06;}.cls-3{fill:#ff5d2c;}.cls-4{fill:#ffeede;}.cls-5{fill:#262626;}.cls-6{fill:#0424aa;}</style></defs><g id="You_Can_Do_It_Badge" data-name="You Can Do It Badge"><path class="cls-1" d="M2307.355,1436.368c5.276-7.884,15.271-19.995,22.374-28.6,30.77-37.286,72.917-88.348,72.917-158.391s-42.141-121.1-72.912-158.387c-7.1-8.608-17.1-20.721-22.374-28.605,2.23-9.565,7.775-25.22,11.707-36.3,15.954-45,37.806-106.63,14.283-171.239-23.812-65.423-80.7-98.827-122.238-123.216-9.824-5.768-23.673-13.9-31.4-19.607-1.148-9.653-1.3-26.019-1.407-37.612-.45-47.9-1.06-113.506-45.488-166.394-44.511-52.995-109.1-64.943-156.268-73.67-11.34-2.1-27.33-5.054-36.616-7.827-4.31-8.642-9.954-23.8-13.958-34.544-16.766-45.031-39.73-106.7-99.776-141.442-27.48-15.9-59.813-23.96-96.1-23.96-27.025,0-52.731,4.286-75.411,8.068-13.7,2.284-27.806,4.638-37.568,5.127-6.916-6.6-17.216-18.673-24.531-27.248-31.334-36.727-74.246-87.029-143.066-99.083a168.679,168.679,0,0,0-29.006-2.5c-54.816,0-100.087,25.638-136.46,46.243-10.574,5.991-25.628,14.519-34.676,18.251-9.043-3.732-24.1-12.26-34.676-18.251-36.373-20.6-81.639-46.243-136.455-46.243a168.679,168.679,0,0,0-29.006,2.5C980.414,125.49,937.5,175.792,906.168,212.522c-7.315,8.572-17.61,20.644-24.527,27.245-9.756-.489-23.869-2.843-37.568-5.127-22.679-3.782-48.385-8.07-75.41-8.07-36.295,0-68.623,8.062-96.1,23.957-60.051,34.743-83.02,96.414-99.787,141.444-4,10.747-9.648,25.9-13.957,34.544-9.281,2.773-25.277,5.73-36.611,7.827-47.164,8.725-111.758,20.673-156.268,73.665C321.519,560.9,320.9,626.5,320.459,674.4c-.114,11.593-.264,27.961-1.412,37.617-7.729,5.706-21.583,13.841-31.407,19.609-41.536,24.389-98.421,57.79-122.233,123.206-23.528,64.622-1.677,126.25,14.283,171.252,3.926,11.079,9.477,26.73,11.707,36.3-5.272,7.884-15.272,20-22.374,28.6-30.771,37.286-72.917,88.349-72.917,158.392s42.146,121.105,72.917,158.391c7.1,8.606,17.1,20.717,22.374,28.6-2.23,9.568-7.781,25.217-11.707,36.3-15.96,45-37.811,106.633-14.283,171.252,23.812,65.416,80.7,98.817,122.233,123.206,9.824,5.768,23.673,13.9,31.4,19.607,1.149,9.656,1.3,26.024,1.407,37.62.451,47.9,1.066,113.5,45.489,166.389,44.51,52.995,109.1,64.942,156.268,73.67,11.339,2.095,27.335,5.054,36.616,7.827,4.309,8.642,9.953,23.794,13.952,34.539,16.772,45.03,39.736,106.7,99.782,141.446,27.475,15.895,59.8,23.958,96.092,23.96h.021c27.025,0,52.731-4.288,75.4-8.07,13.7-2.281,27.806-4.635,37.563-5.124,6.917,6.6,17.217,18.673,24.532,27.247,31.334,36.728,74.251,87.03,143.071,99.083a168.679,168.679,0,0,0,29.006,2.5c54.816,0,100.087-25.641,136.455-46.243,10.579-5.991,25.633-14.519,34.676-18.252,9.043,3.735,24.1,12.261,34.676,18.252,36.373,20.6,81.639,46.243,136.455,46.243a168.679,168.679,0,0,0,29.006-2.5c68.825-12.053,111.737-62.358,143.076-99.088,7.31-8.572,17.61-20.641,24.521-27.239,9.762.488,23.87,2.84,37.563,5.124,22.685,3.781,48.391,8.07,75.421,8.07,36.29,0,68.623-8.06,96.1-23.957,60.051-34.746,83.015-96.417,99.786-141.447,4-10.745,9.643-25.9,13.953-34.539,9.28-2.776,25.276-5.735,36.616-7.832,47.159-8.725,111.752-20.673,156.252-73.657,44.438-52.9,45.049-118.5,45.5-166.4.109-11.594.259-27.959,1.407-37.612,7.729-5.709,21.583-13.841,31.407-19.61,41.536-24.389,98.421-57.79,122.233-123.2,23.528-64.622,1.676-126.253-14.283-171.255C2315.135,1461.587,2309.584,1445.936,2307.355,1436.368Z"/><path class="cls-2" d="M2296.7,1249.376c0,59.658-85.147,111.157-95.1,167.965-10.232,58.423,52.03,135.841,32.192,190.334-20.191,55.461-117.835,74.695-147.008,125.116-29.446,50.895,2.492,145.054-35.105,189.813-37.7,44.889-136.007,29.686-180.895,67.39-44.759,37.6-46.757,137.079-97.651,166.525-50.422,29.172-137.559-18.62-193.02,1.571-54.492,19.838-90.453,112.633-148.874,122.865-56.809,9.949-122.2-64.823-181.863-64.823s-125.054,74.772-181.863,64.823c-58.422-10.232-94.383-103.028-148.876-122.866-55.461-20.191-142.6,27.6-193.022-1.573-50.894-29.446-52.892-128.93-97.651-166.526-44.888-37.7-143.191-22.5-180.9-67.391-37.6-44.759-5.657-138.918-35.1-189.812-29.172-50.421-126.815-69.654-147.006-125.114-19.838-54.493,42.424-131.911,32.193-190.332-9.949-56.809-95.1-108.307-95.1-167.965s85.147-111.157,95.1-167.966c10.231-58.422-52.031-135.841-32.192-190.334C285.152,835.615,382.8,816.382,411.969,765.96c29.446-50.894-2.492-145.054,35.1-189.813,37.705-44.888,136.007-29.685,180.9-67.39,44.759-37.6,46.757-137.078,97.651-166.524,50.421-29.172,137.559,18.619,193.019-1.571,54.493-19.838,90.453-112.634,148.875-122.865,56.808-9.949,122.2,64.822,181.862,64.822s125.055-74.771,181.864-64.822c58.422,10.231,94.383,103.027,148.876,122.866,55.461,20.191,142.6-27.6,193.022,1.573,50.894,29.446,52.891,128.929,97.651,166.525,44.888,37.7,143.19,22.5,180.9,67.391,37.595,44.76,5.657,138.918,35.1,189.813,29.172,50.421,126.815,69.654,147.006,125.114,19.838,54.493-42.424,131.91-32.193,190.332C2211.549,1138.219,2296.7,1189.717,2296.7,1249.376Z"/><path class="cls-3" d="M1077.066,2226.492l-3.275-1.454c-10.083-4.48-23.476-18.786-44.666-43.615-24.568-28.8-52.348-61.36-91.463-75.6-15.706-5.719-32.922-8.5-52.622-8.5-23.047,0-45.654,3.769-67.516,7.413-18.122,3.024-35.214,5.875-48.866,5.875a55.979,55.979,0,0,1-11.4-.973l-3.823-.822-2.762-2.768c-7.724-7.729-15.267-25.52-26.487-55.649-13.265-35.62-28.293-75.987-60.45-103-32.239-27.087-74.675-34.937-112.119-41.867-31.629-5.846-50.439-10.2-59.327-16.469l-2.881-2.028-1.49-3.192c-4.584-9.818-5.608-29.016-5.9-61.005-.357-38.132-.76-81.357-21.909-117.906-20.941-36.2-57.981-57.948-90.661-77.135-28.028-16.462-44.334-27.067-50.516-36.11l-2.018-2.946-.259-3.559c-.786-10.7,4.775-28.818,15.313-58.52,12.8-36.1,27.31-77.016,19.969-118.914-7.149-40.848-34.324-73.776-58.3-102.826-21.423-25.965-33.425-42.059-35.629-52.909l-.532-2.636.532-2.636c2.2-10.853,14.211-26.953,35.587-52.863,24.02-29.1,51.195-62.024,58.344-102.87,7.341-41.9-7.165-82.821-19.969-118.922-10.538-29.7-16.1-47.821-15.313-58.517l.259-3.559,2.018-2.946c6.192-9.061,22.534-19.682,50.522-36.11,32.684-19.2,69.719-40.943,90.655-77.138,21.149-36.549,21.552-79.771,21.909-117.9.3-31.984,1.324-51.179,5.908-61l1.49-3.187,2.876-2.031c8.883-6.272,27.7-10.628,59.306-16.471,37.454-6.93,79.9-14.783,112.14-41.87,32.162-27.007,47.191-67.379,60.455-103,11.226-30.14,18.768-47.923,26.487-55.649l2.752-2.755,3.807-.825a55.414,55.414,0,0,1,11.418-.983c13.662,0,30.75,2.851,48.84,5.869,21.868,3.647,44.475,7.419,67.547,7.419,19.7,0,36.917-2.781,52.617-8.5,39.126-14.245,66.911-46.813,91.422-75.545,21.226-24.876,34.629-39.2,44.717-43.673l3.265-1.451,3.554.388c10.553,1.157,27.278,9.718,54.448,25.114,33.491,18.973,71.458,40.478,114.308,40.478s80.8-21.5,114.287-40.468c27.18-15.395,43.9-23.955,54.464-25.121l3.559-.393,3.275,1.453c10.082,4.48,23.476,18.787,44.665,43.616,24.568,28.8,52.348,61.36,91.463,75.6,15.706,5.719,32.923,8.5,52.628,8.5,23.036,0,45.638-3.768,67.5-7.413,18.132-3.024,35.219-5.874,48.877-5.874a55.977,55.977,0,0,1,11.4.972l3.818.823,2.763,2.763c7.729,7.726,15.276,25.522,26.5,55.656,13.264,35.62,28.293,75.989,60.449,102.994,32.24,27.089,74.676,34.94,112.12,41.869,31.629,5.849,50.439,10.2,59.321,16.469l2.882,2.028,1.49,3.192c4.573,9.8,5.6,28.983,5.908,60.949.357,38.194.76,81.414,21.908,117.962,20.947,36.208,57.982,57.951,90.656,77.136,28,16.441,44.33,27.056,50.517,36.109l2.017,2.946.259,3.56c.786,10.693-4.775,28.82-15.313,58.524-12.8,36.115-27.3,77.022-19.974,118.91,7.155,40.845,34.33,73.773,58.308,102.826,21.4,25.925,33.419,42.035,35.633,52.9l.538,2.641-.538,2.641c-2.214,10.869-14.231,26.978-35.633,52.9-23.978,29.05-51.153,61.978-58.3,102.826-7.336,41.89,7.165,82.8,19.963,118.9,10.543,29.72,16.1,47.848,15.318,58.541l-.259,3.559-2.017,2.946c-6.192,9.061-22.535,19.682-50.522,36.109-32.684,19.2-69.72,40.944-90.656,77.138-21.148,36.549-21.552,79.772-21.908,117.9-.295,31.983-1.325,51.178-5.908,61.005l-1.49,3.187-2.877,2.03c-8.882,6.273-27.7,10.629-59.306,16.472-37.454,6.929-79.895,14.782-112.14,41.869-32.157,27.01-47.185,67.377-60.449,102.994-11.221,30.127-18.763,47.92-26.487,55.649l-2.752,2.757-3.808.825a55.416,55.416,0,0,1-11.422.983c-13.652,0-30.745-2.85-48.841-5.869-21.867-3.647-44.474-7.418-67.547-7.418-19.7,0-36.916,2.78-52.617,8.5-39.135,14.247-66.91,46.813-91.416,75.545-21.221,24.867-34.625,39.19-44.712,43.672l-3.27,1.451-3.554-.39c-11.6-1.273-31.5-12.111-54.4-25.078-33.553-19.006-71.509-40.511-114.359-40.511s-80.8,21.5-114.287,40.467c-27.181,15.4-43.9,23.955-54.464,25.122Zm172.31-92.469c49.834,0,91.018,23.334,127.355,43.918,8.028,4.547,30.211,17.11,40.547,20.817,8.707-7,26.037-27.307,32.24-34.578,26.632-31.225,56.818-66.613,102.508-83.248,18.66-6.792,38.835-10.095,61.68-10.095,25.266,0,48.975,3.955,71.9,7.78,16.984,2.833,33.026,5.507,44.485,5.507.553,0,1.065-.007,1.536-.018,5.711-9.661,14.832-34.143,18.112-42.953,14.4-38.683,30.729-82.529,68.23-114.029,37.6-31.582,83.687-40.11,124.354-47.635,9.286-1.715,35.157-6.5,45.5-10.455,2.09-10.861,2.333-37.051,2.416-46.44.388-41.407.827-88.333,25.467-130.922,24.434-42.234,64.666-65.86,100.154-86.7,8.21-4.819,31.081-18.246,39.488-25.559-1.827-10.879-10.44-35.165-13.539-43.895-13.89-39.192-29.627-83.591-21.1-132.336,8.36-47.741,37.9-83.538,63.972-115.118,6.27-7.6,24.071-29.161,28.986-38.7-4.884-9.465-22.711-31.06-28.986-38.668-26.068-31.58-55.612-67.376-63.977-115.117-8.526-48.745,7.211-93.139,21.091-132.306,3.109-8.755,11.728-33.044,13.549-43.926-8.4-7.3-31.247-20.719-39.431-25.527-35.53-20.859-75.762-44.48-100.2-86.729-24.641-42.589-25.08-89.515-25.468-130.92-.088-9.43-.337-35.594-2.421-46.445-10.342-3.952-36.213-8.737-45.483-10.45-40.693-7.529-86.776-16.058-124.37-47.638-37.5-31.5-53.828-75.343-68.23-114.025-3.285-8.818-12.4-33.3-18.117-42.959-.465-.01-.978-.018-1.536-.018-11.464,0-27.5,2.674-44.48,5.507-22.964,3.828-46.668,7.78-71.9,7.78-22.851,0-43.026-3.3-61.691-10.1-45.67-16.629-75.861-52.012-102.492-83.229-6.245-7.318-23.554-27.6-32.256-34.6-10.351,3.715-32.55,16.294-40.542,20.82-36.353,20.59-77.542,43.916-127.36,43.916s-91.023-23.332-127.365-43.918c-7.993-4.53-30.191-17.108-40.533-20.82-8.7,6.989-26.021,27.3-32.224,34.565-26.657,31.244-56.848,66.631-102.528,83.263-18.66,6.793-38.836,10.1-61.681,10.1-25.266,0-48.975-3.955-71.9-7.781-16.978-2.832-33.015-5.507-44.484-5.507-.554,0-1.061.008-1.531.018-5.712,9.656-14.827,34.126-18.1,42.93-14.412,38.707-30.739,82.555-68.25,114.055-37.594,31.58-83.682,40.108-124.349,47.632-9.286,1.715-35.158,6.5-45.5,10.456-2.09,10.861-2.333,37.05-2.416,46.44-.388,41.406-.828,88.333-25.468,130.921-24.433,42.235-64.665,65.861-100.154,86.7-8.21,4.819-31.081,18.246-39.487,25.558,1.821,10.88,10.44,35.16,13.538,43.89,13.89,39.18,29.638,83.584,21.1,132.347-8.36,47.736-37.9,83.532-63.972,115.112-6.3,7.631-24.072,29.18-28.986,38.7,4.873,9.444,22.674,31.013,28.939,38.608,26.114,31.639,55.659,67.436,64.019,115.174,8.541,48.758-7.207,93.162-21.1,132.339-3.1,8.733-11.712,33.013-13.538,43.893,8.386,7.291,31.195,20.693,39.368,25.493,35.6,20.9,75.835,44.521,100.273,86.766,24.64,42.589,25.08,89.518,25.468,130.924.083,9.392.326,35.579,2.411,46.44,10.346,3.953,36.223,8.738,45.493,10.45,40.693,7.53,86.776,16.058,124.37,47.638,37.5,31.5,53.828,75.348,68.23,114.031,3.28,8.813,12.4,33.29,18.111,42.954.471.01.983.018,1.537.018,11.459,0,27.5-2.675,44.479-5.507,22.959-3.828,46.663-7.781,71.9-7.781,22.845,0,43.021,3.3,61.686,10.1,45.669,16.63,75.86,52.012,102.492,83.23,6.244,7.318,23.554,27.6,32.255,34.6,10.352-3.714,32.55-16.293,40.543-20.82C1158.368,2157.349,1199.558,2134.023,1249.376,2134.023Z"/><path class="cls-4" d="M1234.316,1250.876a117.961,117.961,0,0,1-117.16-105.544,117.8,117.8,0,0,1-165.7-165.7,117.8,117.8,0,0,1,0-234.319,117.806,117.806,0,0,1,165.7-165.7,117.8,117.8,0,0,1,234.321,0,117.8,117.8,0,0,1,165.69,165.7,117.8,117.8,0,0,1,0,234.319,117.8,117.8,0,0,1-165.69,165.7A117.961,117.961,0,0,1,1234.316,1250.876Z"/><path class="cls-3" d="M1504.925,772.952h-54.477l38.521-38.521a89.524,89.524,0,0,0,0-126.607h0a89.524,89.524,0,0,0-126.606,0l-38.521,38.521V591.868a89.525,89.525,0,0,0-89.525-89.524h0a89.524,89.524,0,0,0-89.524,89.524v54.477l-38.521-38.521a89.526,89.526,0,0,0-126.607,0h0a89.524,89.524,0,0,0,0,126.607l38.521,38.521H963.709a89.524,89.524,0,0,0-89.524,89.524h0A89.525,89.525,0,0,0,963.709,952h54.477l-38.521,38.521a89.523,89.523,0,0,0,0,126.606h0a89.524,89.524,0,0,0,126.607,0l38.521-38.521v54.477a89.525,89.525,0,0,0,89.524,89.525h0a89.525,89.525,0,0,0,89.525-89.525v-54.477l38.521,38.521a89.523,89.523,0,0,0,126.606,0h0a89.523,89.523,0,0,0,0-126.606L1450.448,952h54.477a89.525,89.525,0,0,0,89.525-89.525h0A89.525,89.525,0,0,0,1504.925,772.952Z"/><circle class="cls-4" cx="1234.317" cy="862.476" r="170.845"/><path class="cls-3" d="M1374.443,865.335a20.277,20.277,0,0,0-18.663-15.448,3.679,3.679,0,0,0-1.711,0c-.07,0-.139,0-.209,0a20.313,20.313,0,0,0-18.354,15.454,3.795,3.795,0,1,0,7.37,1.813,12.833,12.833,0,0,1,8.264-9.075,118.153,118.153,0,0,1-35.269,82.847c-22.775,22.666-53.71,35.164-84.89,34.28-62.7-1.769-112.721-53.883-113.491-117.106a12.815,12.815,0,0,1,8.271,9.066,3.8,3.8,0,0,0,7.365-1.837,20.275,20.275,0,0,0-18.543-15.438,3.8,3.8,0,0,0-.8-.108,3.545,3.545,0,0,0-.982.1c-.088,0-.174,0-.262,0a20.313,20.313,0,0,0-18.354,15.454,3.8,3.8,0,1,0,7.371,1.813,12.826,12.826,0,0,1,8.342-9.1,126.108,126.108,0,0,0,34.6,85.46c22.985,24.411,53.621,38.361,86.265,39.282,1.1.031,2.2.047,3.3.047,32.115,0,63.721-13.207,87.16-36.534a125.666,125.666,0,0,0,37.5-88.235,12.813,12.813,0,0,1,8.352,9.1,3.795,3.795,0,1,0,7.364-1.837Z"/><path class="cls-4" d="M1225.179,820.467a45.873,45.873,0,0,1-1.77,12.585,45.142,45.142,0,1,1,1.77-12.585Z"/><path class="cls-3" d="M1180.1,867.546a47.06,47.06,0,1,1,47.044-47.08A47.131,47.131,0,0,1,1180.1,867.546Zm0-90.187a43.127,43.127,0,1,0,43.111,43.107A43.175,43.175,0,0,0,1180.1,777.359Z"/><path class="cls-5" d="M1224,825.068a52.626,52.626,0,0,1-.59,7.984,45.388,45.388,0,0,1-23.363,27.886c-12.9-.275-23.323-16.2-23.323-35.87,0-19.784,10.58-35.831,23.638-35.831S1224,805.284,1224,825.068Z"/><path class="cls-3" d="M1225.179,820.467h-90.187a45.094,45.094,0,0,1,90.187,0Z"/><circle class="cls-4" cx="1179.441" cy="838.171" r="7.401"/><path class="cls-4" d="M1333.64,820.467a45.911,45.911,0,0,1-1.77,12.585,45.142,45.142,0,1,1,1.77-12.585Z"/><path class="cls-3" d="M1288.565,867.546a47.06,47.06,0,1,1,47.044-47.08A47.131,47.131,0,0,1,1288.565,867.546Zm0-90.187a43.127,43.127,0,1,0,43.111,43.107A43.175,43.175,0,0,0,1288.565,777.359Z"/><path class="cls-5" d="M1332.46,825.068a52.626,52.626,0,0,1-.59,7.984,45.388,45.388,0,0,1-23.363,27.886c-12.9-.275-23.323-16.2-23.323-35.87,0-19.784,10.58-35.831,23.638-35.831S1332.46,805.284,1332.46,825.068Z"/><path class="cls-3" d="M1333.64,820.467h-90.187a45.094,45.094,0,0,1,90.187,0Z"/><circle class="cls-4" cx="1287.902" cy="838.171" r="7.401"/><path class="cls-4" d="M823.779,1358.394l-5.308,8.1q-29.9,46.385-51.272,82.007t-35.623,65.521v47.219H658.649v-51.97A480.271,480.271,0,0,0,634.34,1466.1q-13.968-22.214-39.674-61.05-20.114-29.611-30.734-46.66h78.235q8.38,17.045,27.382,50.571,19,34.094,25.985,48.06,9.777-20.394,26.265-50.015,19.275-34.641,25.985-48.616Zm.977,183.71q-22.5-21.935-22.493-57.7,0-34.926,22.493-56.719t70.274-21.795q32.126,0,53.781,10.479t32,28.22q10.329,17.747,10.336,39.815,0,36.042-23.89,57.837t-72.223,21.793Q847.245,1564.036,824.756,1542.1Zm98.494-34.229q8.938-8.657,8.939-23.189,0-13.689-8.939-22.493t-27.1-8.8q-18.165,0-26.544,8.663t-8.386,22.633q0,14.531,8.386,23.189t26.544,8.662Q914.3,1516.537,923.25,1507.875Zm257.327-23.189q0,41.073,1.955,76.556-17.878-.839-28.22-.838-9.777,0-28.22.838l-8.1-41.073q-6.434,22.356-20.119,33.109a50.041,50.041,0,0,1-31.851,10.758q-16.761,0-29.058-7.4a47.941,47.941,0,0,1-18.577-19.979,62.216,62.216,0,0,1-6.291-28.22V1468.2q0-37.155-1.4-59.513h62.87q-1.676,41.073-1.676,81.308,0,12.3,6.006,19.557a18.9,18.9,0,0,0,15.225,7.266q8.661,0,15.23-7.685t7.962-21.094v-6.428q.558-21.793.559-30.175,0-19.279-1.118-42.749h66.776Q1180.578,1443.893,1180.577,1484.686Zm110.081,52.526q-29.9-26.822-29.9-76.556,0-50.011,29.9-79.073t93.046-29.058q88.284,0,118.188,60.633-25.15,8.66-58.954,25.983-8.109-15.645-25.566-23.189a89.022,89.022,0,0,0-35.623-7.546q-26.826,0-39.958,14.11t-13.13,34.788q0,22.356,14.107,36.461t43.171,14.11q23.187,0,36.88-7.682t20.119-24.449q22.907,12.3,58.675,27.661-13.976,33.81-46.663,47.219t-71.246,13.412Q1320.554,1564.036,1290.658,1537.212Zm412.685-22.351q0,9.5,2.235,13.412t8.939,5.587l-1.117,26.265q-8.948,1.4-15.5,1.955-6.573.56-17.465.559-24.033,0-31.852-10.758t-7.822-27.522v-6.983q-8.109,22.914-23.611,34.086t-39.539,11.177q-27.942,0-42.048-11.177t-14.112-33.248q0-18.159,12.017-28.5t37.16-14.249a375.941,375.941,0,0,0-42.468-26.265q16.762-21.231,38.277-32.271t52.25-11.037q43.02,0,63.843,18.58t20.817,57.138ZM1599.4,1459.818a57.481,57.481,0,0,0-19.56,14.25,372.827,372.827,0,0,1,41.914-1.956q10.336,0,14.526-2.514t4.2-6.428q0-3.351-4.2-5.726t-11.733-2.378Q1610.3,1455.066,1599.4,1459.818Zm24.03,51.269q12.572-6,17.325-15.786v-7.263a64.543,64.543,0,0,1-14.811,5.168q-8.109,1.82-19.56,3.492l-10.057,1.679q-15.651,3.077-15.649,10.615,0,8.109,14.532,8.1A64.57,64.57,0,0,0,1623.432,1511.087Zm216.816,50.155q1.675-41.073,1.676-75.718,0-12.291-6.006-19.56a18.923,18.923,0,0,0-15.225-7.263q-9.226,0-15.649,8.241t-7.543,22.493q-.567,21.234-.559,30.175,0,19.005,1.118,41.632h-66.782q2.235-40.234,2.235-76t-2.235-76.559q18.446.839,28.22.838,10.336,0,28.22-.838l8.107,41.073q6.424-22.349,20.113-33.109a50.088,50.088,0,0,1,31.857-10.758q16.761,0,29.058,7.406a47.96,47.96,0,0,1,18.577,19.976,62.234,62.234,0,0,1,6.286,28.22v40.235q0,37.162,1.4,59.513ZM960,1666.228q30.45,12.718,42.607,35.206t12.152,55.183q0,31.013-13.968,54.2t-41.913,35.9q-27.936,12.718-68.732,12.713H839.567q-25.708,0-51.97-.28,2.235-55.039,2.235-102.541,0-48.052-2.235-100.306,33.251-2.79,89.414-2.8Q929.538,1653.514,960,1666.228Zm-62.032,137.608q25.988,0,34.65-12.574t8.66-34.645q0-21.231-9.079-34.368t-34.231-13.133q-27.1,0-40.512,1.677v93.043ZM1056.8,1840.3q-22.5-21.933-22.493-57.7,0-34.926,22.493-56.719t70.273-21.8q32.125,0,53.781,10.478t32,28.22q10.327,17.748,10.336,39.816,0,36.04-23.89,57.837t-72.224,21.792Q1079.29,1862.231,1056.8,1840.3Zm98.493-34.228q8.94-8.657,8.94-23.189,0-13.689-8.94-22.494t-27.1-8.8q-18.166,0-26.544,8.663t-8.386,22.633q0,14.53,8.386,23.189t26.544,8.662Q1146.351,1814.733,1155.3,1806.071Zm305.666-93.879q-33.25-1.68-49.177-1.958v95.557q16.2-.274,49.177-1.955v55.6H1298.625v-55.6q32.133,1.676,48.9,1.955v-95.557q-16.761.284-48.9,1.958v-55.6h162.336Zm148.922,44.7q-25.709-1.676-46.942-2.514l-.279,29.617q0,15.085,6.565,23.608t23.331,8.523a65.649,65.649,0,0,0,12.3-1.117,193.581,193.581,0,0,0-1.118,20.954q0,5.032.559,22.912a190.441,190.441,0,0,1-20.677,2.794q-8.38.558-21.795.558-32.693,0-46.239-15.786t-13.553-44.006l.279-47.219q-13.137.563-27.382,1.676V1707.44q14.526,0,24.588-9.218a36.777,36.777,0,0,0,12.013-22.075h76q-14.247,19.56-31.573,31.293h53.926Zm83.543-115.394q0,18.722-1.4,71.807-.567,8.38-.559,12.3-5.6,39.391-6.989,68.731H1632.8q-1.406-29.336-6.99-68.731l-.279-12.3q-1.675-43.024-1.676-71.807Zm-2.514,223.523h-64.826v-49.733h64.826Z"/><path class="cls-6" d="M807.886,1342.5l-5.307,8.1q-29.9,46.385-51.272,82.006t-35.623,65.522v47.219H642.757v-51.971a480.547,480.547,0,0,0-24.309-43.168Q604.48,1428,578.774,1389.162q-20.114-29.611-30.734-46.66h78.235q8.38,17.044,27.382,50.571,19,34.093,25.985,48.059,9.777-20.392,26.264-50.015,19.276-34.639,25.986-48.615Zm.978,183.709q-22.5-21.933-22.493-57.7,0-34.926,22.493-56.719t70.273-21.8q32.127,0,53.781,10.478t32,28.22q10.329,17.748,10.336,39.816,0,36.041-23.89,57.837t-72.224,21.792Q831.353,1548.143,808.864,1526.211Zm98.494-34.228q8.939-8.656,8.939-23.189,0-13.689-8.939-22.494t-27.1-8.8q-18.166,0-26.544,8.663t-8.386,22.633q0,14.53,8.386,23.189t26.544,8.662Q898.413,1500.645,907.358,1491.983Zm257.327-23.189q0,41.073,1.955,76.556-17.879-.838-28.22-.838-9.777,0-28.22.838l-8.1-41.073q-6.433,22.356-20.119,33.109a50.04,50.04,0,0,1-31.851,10.757q-16.762,0-29.059-7.4a47.942,47.942,0,0,1-18.577-19.979,62.222,62.222,0,0,1-6.29-28.22v-40.234q0-37.155-1.4-59.513h62.87Q1056,1433.867,1056,1474.1q0,12.3,6.006,19.558a18.9,18.9,0,0,0,15.225,7.266q8.659,0,15.23-7.685t7.962-21.094v-6.428q.558-21.793.558-30.175,0-19.279-1.117-42.749h66.776Q1164.686,1428,1164.685,1468.794Zm110.081,52.526q-29.9-26.821-29.9-76.556,0-50.013,29.9-79.073t93.046-29.058q88.284,0,118.188,60.633-25.151,8.659-58.955,25.982-8.109-15.644-25.566-23.189a89.018,89.018,0,0,0-35.623-7.545q-26.824,0-39.958,14.11t-13.129,34.788q0,22.356,14.107,36.461t43.171,14.11q23.185,0,36.88-7.683t20.118-24.448q22.908,12.3,58.675,27.661-13.976,33.81-46.662,47.219t-71.246,13.411Q1304.662,1548.143,1274.766,1521.32Zm412.685-22.351q0,9.5,2.235,13.412t8.939,5.587l-1.117,26.264q-8.948,1.4-15.505,1.956t-17.465.559q-24.032,0-31.851-10.758t-7.822-27.522v-6.984q-8.109,22.916-23.611,34.087t-39.539,11.177q-27.943,0-42.048-11.177t-14.112-33.249q0-18.158,12.017-28.5t37.159-14.25a375.974,375.974,0,0,0-42.467-26.264q16.761-21.231,38.277-32.271t52.25-11.037q43.02,0,63.843,18.58t20.817,57.138Zm-103.941-55.043a57.472,57.472,0,0,0-19.56,14.25,372.814,372.814,0,0,1,41.914-1.956q10.335,0,14.526-2.514t4.2-6.428q0-3.353-4.2-5.727t-11.733-2.377Q1594.41,1439.174,1583.51,1443.926Zm24.03,51.269q12.57-6,17.325-15.786v-7.263a64.543,64.543,0,0,1-14.811,5.168q-8.109,1.819-19.56,3.492l-10.057,1.679q-15.651,3.077-15.649,10.615,0,8.109,14.532,8.1A64.57,64.57,0,0,0,1607.54,1495.2Zm216.815,50.155q1.677-41.073,1.676-75.718,0-12.293-6.006-19.56a18.921,18.921,0,0,0-15.225-7.264q-9.225,0-15.649,8.241t-7.542,22.494q-.567,21.234-.559,30.175,0,19,1.118,41.632h-66.782q2.235-40.234,2.235-76t-2.235-76.558q18.446.837,28.22.838,10.337,0,28.22-.838l8.107,41.073q6.424-22.348,20.113-33.109A50.088,50.088,0,0,1,1831.9,1390q16.761,0,29.058,7.406a47.96,47.96,0,0,1,18.577,19.976,62.234,62.234,0,0,1,6.286,28.22v40.235q0,37.163,1.4,59.513ZM944.1,1650.336q30.45,12.717,42.607,35.206t12.152,55.183q0,31.013-13.968,54.205t-41.914,35.9q-27.935,12.718-68.731,12.714H823.675q-25.708,0-51.97-.28,2.235-55.041,2.235-102.541,0-48.052-2.235-100.307,33.25-2.788,89.414-2.8Q913.646,1637.622,944.1,1650.336Zm-62.032,137.608q25.987,0,34.65-12.574t8.66-34.645q0-21.231-9.079-34.368t-34.231-13.133q-27.105,0-40.512,1.676v93.044Zm158.839,36.463q-22.5-21.933-22.493-57.7,0-34.928,22.493-56.719t70.273-21.8q32.125,0,53.781,10.478t32,28.22q10.328,17.746,10.336,39.816,0,36.041-23.89,57.837t-72.224,21.792Q1063.4,1846.339,1040.91,1824.407Zm98.493-34.229q8.94-8.655,8.939-23.189,0-13.687-8.939-22.493t-27.1-8.8q-18.166,0-26.544,8.663t-8.386,22.632q0,14.53,8.386,23.189t26.544,8.663Q1130.459,1798.841,1139.4,1790.178Zm305.666-93.878q-33.25-1.68-49.177-1.958V1789.9q16.2-.276,49.177-1.955v55.6H1282.733v-55.6q32.133,1.675,48.9,1.955v-95.557q-16.761.282-48.9,1.958v-55.6h162.336Zm148.922,44.7q-25.708-1.675-46.942-2.514l-.279,29.617q0,15.086,6.565,23.608t23.331,8.523a65.648,65.648,0,0,0,12.3-1.118,193.613,193.613,0,0,0-1.118,20.955q0,5.031.559,22.912a190.438,190.438,0,0,1-20.677,2.793q-8.382.56-21.8.559-32.693,0-46.239-15.786t-13.554-44.006l.28-47.219q-13.139.563-27.382,1.676v-49.456q14.526,0,24.588-9.219a36.765,36.765,0,0,0,12.012-22.074h76q-14.247,19.559-31.572,31.293h53.926Zm83.543-115.394q0,18.72-1.4,71.807-.567,8.38-.559,12.294-5.6,39.393-6.989,68.732H1616.9q-1.4-29.335-6.989-68.732l-.279-12.294q-1.677-43.024-1.676-71.807Zm-2.515,223.523h-64.825V1799.4h64.825Z"/></g></svg>